<svg width="24" height="24" viewBox="0 0 24 24" fill="none" xmlns="http://www.w3.org/2000/svg">
<path d="M21.3333 0H2.66667C1.18919 0 0 1.18919 0 2.66667V21.3333C0 22.8108 1.18919 24 2.66667 24H21.3333C22.8108 24 24 22.8108 24 21.3333V2.66667C24 1.18919 22.8108 0 21.3333 0ZM8 18.6667H4.63664V9.33333H8V18.6667ZM6.25826 7.62763C5.22523 7.62763 4.54054 6.94294 4.54054 6.03003C4.54054 5.11712 5.22523 4.43243 6.36637 4.43243C7.3994 4.43243 8.08408 5.11712 8.08408 6.03003C8.08408 6.94294 7.3994 7.62763 6.25826 7.62763ZM20 18.6667H16.7447V13.5616C16.7447 12.1562 15.8799 11.8198 15.5556 11.8198C15.2312 11.8198 14.1501 12.036 14.1501 13.5616V18.6667H10.7868V9.33333H14.1501V10.6306C14.5826 9.87387 15.4474 9.33333 17.0811 9.33333C18.7147 9.33333 20.012 10.6306 20.012 13.5616V18.6667H20Z" fill="#E4E4E4"/>
</svg>
