<?xml version="1.0" encoding="UTF-8"?>
<svg id="Layer_2" data-name="Layer 2" xmlns="http://www.w3.org/2000/svg" viewBox="0 0 114.8 114.67">
  <defs>
    <style>
      .cls-1 {
        fill: #079046;
      }

      .cls-1, .cls-2 {
        stroke-width: 0px;
      }

      .cls-2 {
        fill: #e4e4e4;
      }
    </style>
  </defs>
  <g id="Layer_1-2" data-name="Layer 1">
    <g>
      <g>
        <path class="cls-2" d="M15.29,93.42v3.87h-5.59v17.03h-4.1v-17.03H0v-3.87h15.29Z"/>
        <g>
          <path class="cls-2" d="M27.12,110.57h.3v3.75h-1.1c-2.1,0-3.44-.75-4.02-2.26-1.19,1.75-2.84,2.62-4.94,2.62-1.71,0-3.08-.53-4.13-1.59-1.05-1.06-1.58-2.46-1.58-4.21v-9.73h3.87v8.6c0,.97.29,1.75.86,2.32.57.58,1.33.86,2.26.86.99,0,1.79-.3,2.41-.89.61-.59.92-1.38.92-2.35v-8.54h3.87v10.14c0,.85.43,1.28,1.28,1.28Z"/>
          <path class="cls-2" d="M28.95,109.29v-4.61c0-1.78.54-3.21,1.62-4.28,1.08-1.07,2.51-1.61,4.3-1.61,2.02,0,3.63.74,4.82,2.23v-1.87h3.87v15.17h-3.87v-8.33c0-1.03-.33-1.86-.98-2.5-.65-.63-1.52-.95-2.59-.95-.99,0-1.79.31-2.39.92-.6.61-.91,1.44-.91,2.47v4.19c0,2.8-1.46,4.19-4.37,4.19h-1.1v-3.75h.33c.85,0,1.28-.43,1.28-1.28Z"/>
        </g>
        <path class="cls-1" d="M48.56,97.37c-.47.47-1.05.7-1.74.7s-1.27-.23-1.74-.7c-.47-.47-.7-1.04-.7-1.71s.23-1.24.7-1.71c.47-.47,1.05-.7,1.74-.7s1.27.23,1.74.7c.47.47.7,1.04.7,1.71s-.23,1.24-.7,1.71Z"/>
        <rect class="cls-2" x="44.89" y="99.15" width="3.87" height="15.17"/>
        <path class="cls-2" d="M55.05,114.32c-3.31,0-4.97-1.5-4.97-4.49v-16.92h3.87v16.3c0,.5.14.88.43,1.16.29.28.7.42,1.23.42h.92v3.54h-1.49Z"/>
        <path class="cls-2" d="M74.85,110.57h.3v3.75h-1.1c-2.14,0-3.5-.79-4.07-2.38-1.29,1.82-3.02,2.74-5.21,2.74s-3.86-.76-5.28-2.28c-1.42-1.52-2.13-3.41-2.13-5.67s.71-4.15,2.13-5.67c1.42-1.52,3.18-2.28,5.28-2.28s3.67.78,4.94,2.35v-1.99h3.87v10.14c0,.85.43,1.28,1.28,1.28ZM65.52,110.93c1.21,0,2.21-.4,3-1.2.79-.8,1.19-1.8,1.19-2.99s-.4-2.19-1.19-2.99c-.79-.8-1.79-1.2-3-1.2s-2.18.4-2.97,1.2c-.79.8-1.19,1.8-1.19,2.99s.4,2.19,1.19,2.99c.79.8,1.78,1.2,2.97,1.2Z"/>
        <path class="cls-2" d="M91.86,110.57h.33v3.75h-1.1c-2.91,0-4.37-1.4-4.37-4.19v-4.19c0-1.03-.3-1.85-.91-2.47-.6-.61-1.4-.92-2.39-.92-1.07,0-1.93.32-2.59.95-.65.63-.98,1.47-.98,2.5v8.33h-3.87v-15.17h3.87v1.87c1.19-1.49,2.8-2.23,4.82-2.23,1.78,0,3.22.54,4.3,1.61,1.08,1.07,1.62,2.5,1.62,4.28v4.61c0,.85.43,1.28,1.28,1.28Z"/>
        <path class="cls-2" d="M101.11,114.59c-2.31,0-4.24-.74-5.78-2.25-1.55-1.51-2.32-3.39-2.31-5.65s.79-4.14,2.34-5.66c1.55-1.52,3.49-2.28,5.8-2.29,1.99,0,3.72.56,5.16,1.7,1.45,1.14,2.36,2.62,2.73,4.44h-4.09c-.33-.72-.84-1.31-1.51-1.75-.67-.44-1.44-.66-2.31-.66-1.18,0-2.17.41-2.97,1.21-.79.8-1.19,1.8-1.19,2.99s.39,2.18,1.18,2.98c.79.8,1.77,1.2,2.96,1.19.87,0,1.64-.23,2.31-.67s1.18-1.04,1.52-1.77h4.09c-.38,1.81-1.3,3.29-2.75,4.45-1.45,1.15-3.18,1.73-5.17,1.74Z"/>
        <path class="cls-1" d="M114.1,97.37c-.47.47-1.05.7-1.74.7s-1.27-.23-1.74-.7c-.47-.47-.7-1.04-.7-1.71s.23-1.24.7-1.71c.47-.47,1.05-.7,1.74-.7s1.27.23,1.74.7c.47.47.7,1.04.7,1.71s-.23,1.24-.7,1.71Z"/>
        <rect class="cls-2" x="110.43" y="99.15" width="3.87" height="15.17"/>
      </g>
      <g>
        <path class="cls-2" d="M59.17.72c.48-.48,1.07-.72,1.79-.72s1.31.24,1.79.72c.48.48.72,1.07.72,1.79s-.24,1.31-.72,1.79c-.48.48-1.07.72-1.79.72s-1.31-.24-1.79-.72c-.48-.48-.72-1.07-.72-1.79s.24-1.31.72-1.79ZM59.45,4.02c.4.41.91.61,1.51.61s1.11-.2,1.51-.61c.4-.41.6-.91.6-1.52s-.2-1.12-.6-1.53c-.4-.41-.91-.61-1.51-.61s-1.11.2-1.51.61c-.4.41-.6.92-.6,1.53s.2,1.11.6,1.52ZM61.54,3.16c.14.19.3.29.47.29h.13v.31h-.15c-.33,0-.59-.15-.77-.46l-.44-.64h-.22v1.1h-.35V1.04h.96c.23,0,.43.08.58.24.16.16.24.35.24.57s-.08.41-.23.56c-.15.15-.34.23-.56.24l.35.5ZM60.55,1.36v.99h.6c.14,0,.25-.05.35-.14.09-.09.14-.21.14-.36,0-.14-.05-.25-.14-.35s-.21-.14-.35-.14h-.6Z"/>
        <g>
          <path class="cls-1" d="M83.66,35.97c-1.91,1.91-4.28,2.86-7.12,2.86s-5.21-.95-7.12-2.86c-1.91-1.9-2.86-4.24-2.86-6.99s.95-5.09,2.86-7c1.9-1.9,4.28-2.86,7.12-2.86s5.21.96,7.12,2.86c1.9,1.91,2.86,4.24,2.86,7s-.95,5.09-2.86,6.99Z"/>
          <path class="cls-2" d="M64.05,28.98c0,2.91.8,5.46,2.4,7.66H28.28v-15.41h6.15c2.41-.01,4.34-2.01,4.34-4.42V5.97l16.83-2.34v17.61h10.93c-1.64,2.22-2.47,4.8-2.47,7.75Z"/>
          <path class="cls-2" d="M63.73,64.47c-2.14,0-3.77-.56-4.98-1.7-1.2-1.14-1.79-2.69-1.79-4.73v-19.17h-15.86v21.62c0,6.04,1.76,10.71,5.24,13.87,3.45,3.15,8.59,4.75,15.28,4.75h14.93l-2.34-14.63h-10.47Z"/>
        </g>
      </g>
    </g>
  </g>
</svg>