<svg width="85" height="17" viewBox="0 0 85 17" fill="none" xmlns="http://www.w3.org/2000/svg">
<path d="M11.2325 1.2981V4.14071H7.1252V16.649H4.11098V4.14071H0V1.2981H11.2325Z" fill="#E4E4E4"/>
<path d="M19.9281 13.8959H20.1482V16.649H19.3387C17.7943 16.649 16.8095 16.0969 16.3879 14.9889C15.515 16.2722 14.3026 16.9138 12.7619 16.9138C11.5085 16.9138 10.4975 16.5259 9.72529 15.7462C8.95309 14.9665 8.56885 13.9369 8.56885 12.6536V5.50977H11.4115V11.8255C11.4115 12.538 11.6241 13.1087 12.0456 13.5303C12.4672 13.9518 13.023 14.1645 13.7057 14.1645C14.4332 14.1645 15.0226 13.9444 15.474 13.5079C15.9253 13.0714 16.1529 12.4969 16.1529 11.7807V5.50977H18.9955V12.9595C18.9955 13.5862 19.3089 13.8996 19.9356 13.8996L19.9281 13.8959Z" fill="#E4E4E4"/>
<path d="M21.2749 12.9558V9.56856C21.2749 8.25917 21.6703 7.20717 22.4649 6.42004C23.2595 5.63291 24.3115 5.24121 25.6209 5.24121C27.1056 5.24121 28.2882 5.78586 29.1611 6.87889V5.50234H32.0038V16.6453H29.1611V10.5273C29.1611 9.77001 28.9224 9.15821 28.4412 8.6919C27.9599 8.22559 27.3257 7.9943 26.5386 7.9943C25.8112 7.9943 25.2255 8.22186 24.7778 8.67325C24.3339 9.12463 24.1101 9.72897 24.1101 10.4863V13.5676C24.1101 15.6231 23.0394 16.649 20.8981 16.649H20.0886V13.8959H20.3274C20.9541 13.8959 21.2675 13.5826 21.2675 12.9558H21.2749Z" fill="#E4E4E4"/>
<path d="M35.6782 4.20041C35.335 4.54362 34.9097 4.71521 34.3986 4.71521C33.8875 4.71521 33.4623 4.54362 33.1191 4.20041C32.7758 3.85721 32.6042 3.43939 32.6042 2.94324C32.6042 2.44709 32.7758 2.02928 33.1191 1.68607C33.4623 1.34287 33.8875 1.17126 34.3986 1.17126C34.9097 1.17126 35.335 1.34287 35.6782 1.68607C36.0214 2.02928 36.193 2.44709 36.193 2.94324C36.193 3.43939 36.0214 3.85721 35.6782 4.20041Z" fill="#E4E4E4"/>
<path d="M35.8238 5.50598H32.9812V16.6489H35.8238V5.50598Z" fill="#E4E4E4"/>
<path d="M40.4494 16.649C38.0172 16.649 36.801 15.5485 36.801 13.3475V0.913818H39.6436V12.8886C39.6436 13.2542 39.7481 13.5377 39.9607 13.7392C40.1734 13.9444 40.4755 14.0451 40.8672 14.0451H41.5462V16.6452H40.4532L40.4494 16.649Z" fill="#E4E4E4"/>
<path d="M54.9984 13.8959H55.2185V16.649H54.409C52.8347 16.649 51.8387 16.067 51.4171 14.8994C50.4696 16.2386 49.1938 16.9101 47.5934 16.9101C45.993 16.9101 44.7545 16.3543 43.7137 15.2389C42.6729 14.1235 42.1506 12.7357 42.1506 11.0757C42.1506 9.41561 42.6729 8.02787 43.7137 6.91246C44.7545 5.79705 46.049 5.24121 47.5934 5.24121C49.1378 5.24121 50.2868 5.81571 51.2194 6.96842V5.50608H54.062V12.9558C54.062 13.5826 54.3754 13.8959 55.0021 13.8959H54.9984ZM48.1343 14.157C49.0222 14.157 49.7571 13.8623 50.3428 13.2729C50.9247 12.6835 51.2157 11.9523 51.2157 11.0757C51.2157 10.199 50.9247 9.46784 50.3428 8.87842C49.7608 8.28901 49.0222 7.9943 48.1343 7.9943C47.2465 7.9943 46.5302 8.28901 45.9483 8.87842C45.3663 9.46784 45.0753 10.199 45.0753 11.0757C45.0753 11.9523 45.3663 12.6835 45.9483 13.2729C46.5302 13.8623 47.2614 14.157 48.1343 14.157Z" fill="#E4E4E4"/>
<path d="M67.4917 13.8959H67.7305V16.649H66.921C64.7797 16.649 63.709 15.6231 63.709 13.5676V10.4863C63.709 9.72897 63.4852 9.12463 63.0413 8.67325C62.5974 8.22186 62.0117 7.9943 61.2805 7.9943C60.4934 7.9943 59.8592 8.22559 59.378 8.6919C58.8967 9.15821 58.658 9.77001 58.658 10.5273V16.6453H55.8191V5.50234H58.658V6.87889C59.5309 5.78586 60.7135 5.24121 62.1982 5.24121C63.5113 5.24121 64.5633 5.63291 65.3542 6.42004C66.1488 7.20717 66.5442 8.25544 66.5442 9.56856V12.9558C66.5442 13.5826 66.8576 13.8959 67.4843 13.8959H67.4917Z" fill="#E4E4E4"/>
<path d="M74.2923 16.8504C72.595 16.8542 71.1774 16.3058 70.0433 15.1941C68.9055 14.0861 68.3422 12.7021 68.346 11.0458C68.3497 9.38947 68.9242 8.00173 70.0657 6.88632C71.2072 5.77091 72.6285 5.21134 74.3259 5.20388C75.792 5.20015 77.0566 5.61796 78.1198 6.45732C79.183 7.29668 79.8507 8.38598 80.1231 9.72149L77.12 9.72894C76.8738 9.19175 76.5045 8.75902 76.0121 8.43447C75.5197 8.10992 74.9526 7.94578 74.3147 7.94951C73.4455 7.94951 72.7181 8.24794 72.1361 8.83736C71.5542 9.42677 71.2632 10.1579 71.2595 11.0309C71.2595 11.9038 71.543 12.6313 72.1249 13.2207C72.7032 13.8063 73.4269 14.1011 74.2998 14.0973C74.9377 14.0973 75.5047 13.9295 75.9972 13.6012C76.4896 13.2729 76.8626 12.8402 77.1126 12.2992L80.1156 12.2918C79.8358 13.631 79.1606 14.7203 78.0937 15.5671C77.023 16.414 75.7584 16.8392 74.2923 16.843V16.8504Z" fill="#E4E4E4"/>
<path d="M83.8349 4.20041C83.4917 4.54362 83.0664 4.71521 82.5553 4.71521C82.0443 4.71521 81.619 4.54362 81.2758 4.20041C80.9326 3.85721 80.761 3.43939 80.761 2.94324C80.761 2.44709 80.9326 2.02928 81.2758 1.68607C81.619 1.34287 82.0443 1.17126 82.5553 1.17126C83.0664 1.17126 83.4917 1.34287 83.8349 1.68607C84.1781 2.02928 84.3497 2.44709 84.3497 2.94324C84.3497 3.43939 84.1781 3.85721 83.8349 4.20041Z" fill="#E4E4E4"/>
<path d="M83.9766 5.50598H81.1377V16.6489H83.9766V5.50598Z" fill="#E4E4E4"/>
</svg>
