<svg width="228" height="67" viewBox="0 0 228 67" fill="none" xmlns="http://www.w3.org/2000/svg">
<path d="M46.4726 30.2129C44.8734 31.8121 42.8833 32.6117 40.5021 32.6117C38.1209 32.6117 36.1263 31.8121 34.5316 30.2129C32.9324 28.6137 32.1328 26.6587 32.1328 24.3434C32.1328 22.0281 32.9324 20.0731 34.5316 18.4739C36.1307 16.8748 38.1209 16.0752 40.5021 16.0752C42.8833 16.0752 44.8734 16.8748 46.4726 18.4739C48.0718 20.0731 48.8714 22.0325 48.8714 24.3434C48.8714 26.6543 48.0718 28.6137 46.4726 30.2129Z" fill="#079046"/>
<path d="M30.0152 24.3434C30.0152 26.7861 30.6874 28.9256 32.0317 30.7664H0V17.8413H5.15776C7.17869 17.8325 8.79982 16.1586 8.79982 14.1377V5.03474L22.92 3.06653V17.8413H32.0888C30.7093 19.704 30.0152 21.8699 30.0152 24.3434Z" fill="#E4E4E4"/>
<path d="M29.7472 54.1301C27.9503 54.1301 26.584 53.66 25.5648 52.7022C24.5543 51.7445 24.0623 50.4441 24.0623 48.7307V32.6467H10.7549V50.7868C10.7549 55.8523 12.2354 59.7711 15.1482 62.4291C18.0478 65.0738 22.362 66.4138 27.9679 66.4138H40.4977L38.5295 54.1345H29.7428L29.7472 54.1301Z" fill="#E4E4E4"/>
<path d="M25.7977 0.553559C26.1667 0.18452 26.6236 0 27.1728 0C27.722 0 28.1833 0.18452 28.5479 0.553559C28.917 0.922598 29.0971 1.3795 29.0971 1.92867C29.0971 2.47783 28.9126 2.93913 28.5479 3.30378C28.1789 3.67282 27.722 3.85734 27.1728 3.85734C26.6236 3.85734 26.1623 3.67282 25.7977 3.30378C25.4287 2.93474 25.2441 2.47783 25.2441 1.92867C25.2441 1.3795 25.4287 0.918204 25.7977 0.553559ZM26.013 3.09729C26.3249 3.41361 26.7115 3.56738 27.1772 3.56738C27.6429 3.56738 28.0295 3.40922 28.3414 3.09729C28.6534 2.78097 28.8071 2.39436 28.8071 1.92867C28.8071 1.46298 28.6534 1.06318 28.3414 0.751258C28.0295 0.434939 27.6429 0.281173 27.1772 0.281173C26.7115 0.281173 26.3249 0.439332 26.013 0.751258C25.701 1.06758 25.5473 1.45858 25.5473 1.92867C25.5473 2.39875 25.701 2.78097 26.013 3.09729ZM27.6253 2.4339C27.7308 2.58327 27.8538 2.65796 27.99 2.65796H28.0866V2.8952H27.968C27.7088 2.8952 27.5155 2.77658 27.3793 2.54373L27.0366 2.05168H26.8653V2.89959H26.5973V0.803978H27.3354C27.5155 0.803978 27.6649 0.865484 27.7835 0.984104C27.9065 1.10712 27.9636 1.2521 27.9636 1.42344C27.9636 1.59478 27.9065 1.73976 27.7879 1.85838C27.6693 1.97699 27.5243 2.0385 27.3529 2.04729L27.6209 2.4339H27.6253ZM26.8609 1.05V1.81005H27.3222C27.4276 1.81005 27.5199 1.7749 27.5902 1.70461C27.6605 1.63432 27.6956 1.54206 27.6956 1.42783C27.6956 1.32239 27.6605 1.23013 27.5902 1.15984C27.5199 1.08954 27.4276 1.0544 27.3222 1.0544H26.8609V1.05Z" fill="#E4E4E4"/>
<path d="M86.9962 18.5222V24.0007H79.0751V48.1244H73.2583V24.0007H65.3372V18.5222H86.9962Z" fill="#E4E4E4"/>
<path d="M103.766 42.813H104.187V48.1246H102.628C99.6492 48.1246 97.7512 47.057 96.9385 44.9218C95.2514 47.3953 92.9186 48.6298 89.9443 48.6298C87.528 48.6298 85.5773 47.8785 84.088 46.376C82.5987 44.8735 81.8562 42.8833 81.8562 40.4143V26.6324H87.3347V38.8107C87.3347 40.1858 87.7433 41.2842 88.556 42.0969C89.3688 42.9141 90.4364 43.3183 91.7588 43.3183C93.1646 43.3183 94.3025 42.8965 95.1724 42.053C96.0422 41.2095 96.4772 40.1024 96.4772 38.7229V26.6281H101.956V40.9986C101.956 42.2068 102.558 42.8087 103.766 42.8087V42.813Z" fill="#E4E4E4"/>
<path d="M106.362 41.003V34.4701C106.362 31.944 107.127 29.9186 108.66 28.4029C110.193 26.8872 112.223 26.1272 114.749 26.1272C117.613 26.1272 119.889 27.1816 121.576 29.286V26.6324H127.055V48.1246H121.576V36.3241C121.576 34.8655 121.111 33.6837 120.184 32.7831C119.257 31.8824 118.035 31.4343 116.52 31.4343C115.114 31.4343 113.985 31.8693 113.128 32.7391C112.271 33.609 111.841 34.7776 111.841 36.2362V42.176C111.841 46.1388 109.776 48.1202 105.646 48.1202H104.086V42.8086H104.552C105.76 42.8086 106.362 42.2068 106.362 40.9986V41.003Z" fill="#E4E4E4"/>
<path d="M134.141 24.1151C133.482 24.7741 132.66 25.1036 131.676 25.1036C130.692 25.1036 129.871 24.7741 129.212 24.1151C128.553 23.4561 128.223 22.6477 128.223 21.6944C128.223 20.741 128.553 19.9327 129.212 19.2693C129.871 18.6103 130.692 18.2808 131.676 18.2808C132.66 18.2808 133.482 18.6103 134.141 19.2693C134.8 19.9283 135.129 20.7366 135.129 21.6944C135.129 22.6521 134.8 23.4561 134.141 24.1151Z" fill="#079046"/>
<path d="M134.418 26.6324H128.939V48.1246H134.418V26.6324Z" fill="#E4E4E4"/>
<path d="M143.341 48.1245C138.649 48.1245 136.302 46.0025 136.302 41.7629V17.7842H141.781V40.8755C141.781 41.5784 141.983 42.1276 142.392 42.5186C142.8 42.914 143.38 43.1073 144.14 43.1073H145.445V48.1201H143.336L143.341 48.1245Z" fill="#E4E4E4"/>
<path d="M171.396 42.813H171.818V48.1246H170.259C167.223 48.1246 165.299 46.9999 164.486 44.7549C162.658 47.3382 160.202 48.6298 157.109 48.6298C154.017 48.6298 151.635 47.5534 149.628 45.4051C147.62 43.2568 146.614 40.5812 146.614 37.3785C146.614 34.1758 147.62 31.5002 149.628 29.3519C151.635 27.2036 154.131 26.1272 157.109 26.1272C160.088 26.1272 162.307 27.2387 164.104 29.4573V26.6324H169.582V41.003C169.582 42.2111 170.184 42.813 171.392 42.813H171.396ZM158.164 43.3183C159.877 43.3183 161.296 42.7471 162.421 41.6137C163.546 40.4758 164.108 39.0655 164.108 37.3785C164.108 35.6915 163.546 34.2812 162.421 33.1433C161.296 32.0055 159.877 31.4387 158.164 31.4387C156.45 31.4387 155.071 32.0099 153.951 33.1433C152.826 34.2812 152.264 35.6915 152.264 37.3785C152.264 39.0655 152.826 40.4758 153.951 41.6137C155.075 42.7515 156.481 43.3183 158.164 43.3183Z" fill="#E4E4E4"/>
<path d="M195.489 42.813H195.955V48.1246H194.395C190.266 48.1246 188.201 46.1432 188.201 42.1804V36.2406C188.201 34.782 187.77 33.6134 186.914 32.7435C186.057 31.8737 184.928 31.4387 183.522 31.4387C182.006 31.4387 180.785 31.8868 179.858 32.7875C178.931 33.6881 178.465 34.8655 178.465 36.3285V48.129H172.987V26.6368H178.465V29.2904C180.152 27.1816 182.428 26.1316 185.293 26.1316C187.823 26.1316 189.848 26.8916 191.382 28.4073C192.911 29.923 193.679 31.9484 193.679 34.4745V41.0074C193.679 42.2155 194.281 42.8174 195.489 42.8174V42.813Z" fill="#E4E4E4"/>
<path d="M208.603 48.5111C205.33 48.5199 202.598 47.4567 200.405 45.3216C198.213 43.1864 197.124 40.5197 197.137 37.3213C197.146 34.1274 198.253 31.4518 200.458 29.3035C202.659 27.1508 205.401 26.07 208.674 26.0612C211.499 26.0524 213.941 26.8564 215.993 28.4776C218.045 30.0987 219.332 32.1943 219.855 34.7732L214.064 34.7908C213.59 33.7539 212.882 32.9236 211.929 32.2954C210.98 31.6671 209.891 31.3552 208.656 31.3596C206.978 31.364 205.576 31.9351 204.452 33.073C203.327 34.2108 202.765 35.6211 202.76 37.3037C202.756 38.9864 203.309 40.3922 204.425 41.5257C205.541 42.6592 206.938 43.2215 208.617 43.2172C209.847 43.2172 210.941 42.8964 211.894 42.2594C212.847 41.6268 213.563 40.792 214.042 39.7508L219.833 39.7332C219.292 42.3121 217.992 44.4209 215.931 46.0508C213.871 47.6852 211.424 48.5023 208.599 48.5111H208.603Z" fill="#E4E4E4"/>
<path d="M227.012 24.1151C226.353 24.7741 225.531 25.1036 224.547 25.1036C223.563 25.1036 222.741 24.7741 222.082 24.1151C221.423 23.4561 221.094 22.6477 221.094 21.6944C221.094 20.741 221.423 19.9327 222.082 19.2693C222.741 18.6103 223.563 18.2808 224.547 18.2808C225.531 18.2808 226.353 18.6103 227.012 19.2693C227.671 19.9283 228 20.7366 228 21.6944C228 22.6521 227.671 23.4561 227.012 24.1151Z" fill="#079046"/>
<path d="M227.284 26.6324H221.805V48.1246H227.284V26.6324Z" fill="#E4E4E4"/>
</svg>
