<svg width="26" height="24" viewBox="0 0 26 24" fill="none" xmlns="http://www.w3.org/2000/svg">
<path d="M11.4265 15.3597C10.9665 15.973 10.5198 16.573 10.0665 17.173C8.41318 19.3796 6.75987 21.5863 5.11324 23.7929C4.99991 23.9395 4.89324 24.0062 4.69991 23.9995C3.85326 23.9862 3.00661 23.9995 2.10663 23.9995C2.33996 23.6862 2.54662 23.3929 2.75995 23.1129C5.1199 19.9663 7.48653 16.813 9.84648 13.6664C9.96648 13.5064 9.97315 13.4064 9.84648 13.2398C6.60654 8.91983 3.35994 4.59325 0.119998 0.266662C0.0799985 0.213329 0.0399992 0.15333 0 0.086665C0.073332 0.0199996 0.159997 0.0399992 0.233329 0.0399992C2.44662 0.0266662 4.66658 0.0199996 6.88654 0C7.0732 0 7.1532 0.0999981 7.23986 0.219996C9.29316 2.95328 11.3465 5.68656 13.3931 8.41317C13.5864 8.6665 13.5864 8.67317 13.7731 8.42651C15.8064 5.71323 17.8397 2.99994 19.8663 0.286661C19.9996 0.106665 20.133 0.0466658 20.3463 0.0466658C21.1863 0.0599989 22.0263 0.0466658 22.8862 0.0466658C22.6596 0.34666 22.4396 0.659988 22.2062 0.966649C19.8663 4.09326 17.5263 7.2132 15.1797 10.3331C15.0464 10.5065 15.0397 10.6198 15.1797 10.7998C18.4597 15.153 21.7263 19.5063 24.9995 23.8596C25.0195 23.8862 25.0329 23.9129 25.0529 23.9462C24.9662 24.0195 24.8795 23.9862 24.7929 23.9862C22.5929 23.9862 20.393 23.9862 18.193 23.9995C17.9797 23.9995 17.8597 23.9329 17.7397 23.7662C15.6797 21.0129 13.6197 18.2663 11.5598 15.5197C11.5264 15.473 11.4798 15.4264 11.4265 15.3597ZM21.5996 22.3396C21.6129 22.2329 21.5529 22.1996 21.5196 22.1529C19.313 19.173 17.0997 16.1997 14.8931 13.2264C12.2531 9.66648 9.61982 6.10655 6.98653 2.53995C6.8932 2.41329 6.80654 2.35329 6.63987 2.35329C5.80656 2.35996 4.97991 2.35329 4.14659 2.35329C4.08659 2.35329 4.00659 2.31329 3.95993 2.41329C4.17325 2.69995 4.38658 2.99328 4.59991 3.2866C7.08653 6.63987 9.56649 9.99981 12.0531 13.3531C14.2264 16.293 16.3997 19.233 18.5663 22.1729C18.633 22.2662 18.6996 22.3462 18.8396 22.3462C19.7596 22.3396 20.6796 22.3462 21.6063 22.3462L21.5996 22.3396Z" fill="#E4E4E4"/>
</svg>
