<?xml version="1.0" encoding="UTF-8"?>
<svg id="Layer_2" data-name="Layer 2" xmlns="http://www.w3.org/2000/svg" viewBox="0 0 226.11 42.88">
  <defs>
    <style>
      .cls-1 {
        fill: #0d0d0d;
      }

      .cls-1, .cls-2 {
        stroke-width: 0px;
      }

      .cls-2 {
        fill: #079046;
      }
    </style>
  </defs>
  <g id="Layer_1-2" data-name="Layer 1">
    <g>
      <path class="cls-1" d="M30.11,1.03v7.62h-11.01v33.53h-8.08V8.64H0V1.03h30.11Z"/>
      <g>
        <path class="cls-1" d="M53.42,34.79h.59v7.38h-2.17c-4.14,0-6.78-1.48-7.91-4.45-2.34,3.44-5.59,5.16-9.72,5.16-3.36,0-6.07-1.04-8.14-3.13-2.07-2.09-3.1-4.85-3.1-8.29V12.3h7.62v16.93c0,1.91.57,3.44,1.7,4.57,1.13,1.13,2.62,1.7,4.45,1.7,1.95,0,3.53-.59,4.74-1.76,1.21-1.17,1.82-2.71,1.82-4.63V12.3h7.62v19.97c0,1.68.84,2.52,2.52,2.52Z"/>
        <path class="cls-1" d="M57.03,32.28v-9.08c0-3.51,1.06-6.33,3.19-8.44,2.13-2.11,4.95-3.16,8.46-3.16,3.98,0,7.15,1.46,9.49,4.39v-3.69h7.62v29.87h-7.62v-16.4c0-2.03-.64-3.67-1.93-4.92-1.29-1.25-2.99-1.87-5.1-1.87-1.95,0-3.52.61-4.72,1.82-1.19,1.21-1.79,2.83-1.79,4.86v8.26c0,5.51-2.87,8.26-8.61,8.26h-2.17v-7.38h.64c1.68,0,2.52-.84,2.52-2.52Z"/>
      </g>
      <path class="cls-2" d="M95.64,8.81c-.92.92-2.06,1.38-3.43,1.38s-2.51-.46-3.43-1.38c-.92-.92-1.38-2.04-1.38-3.37s.46-2.45,1.38-3.37c.92-.92,2.06-1.38,3.43-1.38s2.51.46,3.43,1.38c.92.92,1.38,2.04,1.38,3.37s-.46,2.45-1.38,3.37Z"/>
      <rect class="cls-1" x="88.41" y="12.3" width="7.62" height="29.87"/>
      <path class="cls-1" d="M108.43,42.18c-6.52,0-9.78-2.95-9.78-8.85V0h7.62v32.1c0,.98.28,1.74.85,2.28.57.55,1.38.82,2.43.82h1.82v6.97h-2.93Z"/>
      <path class="cls-1" d="M147.43,34.79h.59v7.38h-2.17c-4.22,0-6.89-1.56-8.02-4.69-2.54,3.59-5.96,5.39-10.25,5.39s-7.61-1.49-10.4-4.48c-2.79-2.99-4.19-6.71-4.19-11.16s1.4-8.17,4.19-11.16c2.79-2.99,6.26-4.48,10.4-4.48s7.22,1.54,9.72,4.63v-3.92h7.62v19.97c0,1.68.84,2.52,2.52,2.52ZM129.03,35.5c2.38,0,4.35-.79,5.92-2.37,1.56-1.58,2.34-3.54,2.34-5.89s-.78-4.31-2.34-5.89c-1.56-1.58-3.54-2.37-5.92-2.37s-4.3.79-5.86,2.37c-1.56,1.58-2.34,3.54-2.34,5.89s.78,4.31,2.34,5.89c1.56,1.58,3.52,2.37,5.86,2.37Z"/>
      <path class="cls-1" d="M180.92,34.79h.64v7.38h-2.17c-5.74,0-8.61-2.75-8.61-8.26v-8.26c0-2.03-.6-3.65-1.79-4.86-1.19-1.21-2.76-1.82-4.72-1.82-2.11,0-3.81.62-5.1,1.87-1.29,1.25-1.93,2.89-1.93,4.92v16.4h-7.61V12.3h7.61v3.69c2.34-2.93,5.51-4.39,9.49-4.39,3.52,0,6.34,1.05,8.46,3.16,2.13,2.11,3.19,4.92,3.19,8.44v9.08c0,1.68.84,2.52,2.52,2.52Z"/>
      <path class="cls-1" d="M199.15,42.71c-4.55.01-8.35-1.46-11.39-4.44-3.05-2.97-4.56-6.68-4.55-11.12.01-4.44,1.55-8.16,4.61-11.15,3.06-2.99,6.87-4.49,11.42-4.51,3.93-.01,7.32,1.11,10.17,3.36,2.85,2.25,4.64,5.17,5.37,8.75l-8.05.02c-.66-1.44-1.65-2.6-2.97-3.47-1.32-.87-2.84-1.31-4.55-1.3-2.33,0-4.28.8-5.84,2.38-1.56,1.58-2.34,3.54-2.35,5.88,0,2.34.76,4.29,2.32,5.87,1.55,1.57,3.49,2.36,5.83,2.35,1.71,0,3.23-.45,4.55-1.33s2.32-2.04,2.99-3.49l8.05-.02c-.75,3.59-2.56,6.51-5.42,8.78-2.87,2.27-6.26,3.41-10.19,3.42Z"/>
      <path class="cls-2" d="M224.73,8.81c-.92.92-2.06,1.38-3.43,1.38s-2.51-.46-3.43-1.38c-.92-.92-1.38-2.04-1.38-3.37s.46-2.45,1.38-3.37c.92-.92,2.06-1.38,3.43-1.38s2.51.46,3.43,1.38c.92.92,1.38,2.04,1.38,3.37s-.46,2.45-1.38,3.37Z"/>
      <rect class="cls-1" x="217.5" y="12.3" width="7.61" height="29.87"/>
    </g>
  </g>
</svg>