<svg width="18" height="18" viewBox="0 0 18 18" fill="none" xmlns="http://www.w3.org/2000/svg">
<path opacity="0.2" d="M12.8334 11.5H12.0434L11.7634 11.23C12.7434 10.09 13.3334 8.61 13.3334 7C13.3334 3.41 10.4234 0.5 6.83337 0.5C3.24337 0.5 0.333374 3.41 0.333374 7C0.333374 10.59 3.24337 13.5 6.83337 13.5C8.44337 13.5 9.92337 12.91 11.0634 11.93L11.3334 12.21V13L16.3334 17.99L17.8234 16.5L12.8334 11.5ZM6.83337 11.5C4.34337 11.5 2.33337 9.49 2.33337 7C2.33337 4.51 4.34337 2.5 6.83337 2.5C9.32337 2.5 11.3334 4.51 11.3334 7C11.3334 9.49 9.32337 11.5 6.83337 11.5Z" fill="#0D0D0D"/>
</svg>
