<svg width="21" height="24" viewBox="0 0 21 24" fill="none" xmlns="http://www.w3.org/2000/svg">
<path d="M20.6227 17.6086C20.0602 18.8579 19.7891 19.4163 19.0656 20.5189C18.0527 22.0596 16.6241 23.9835 14.8591 23.9957C13.2878 24.01 12.8822 22.9706 10.7484 22.9889C8.61664 22.9991 8.17235 24.0161 6.59899 23.9998C4.83203 23.9835 3.48081 22.2512 2.46791 20.7125C-0.364945 16.398 -0.664534 11.3396 1.08613 8.64939C2.32525 6.74179 4.2838 5.62088 6.12413 5.62088C7.99912 5.62088 9.1771 6.65008 10.726 6.65008C12.2301 6.65008 13.1451 5.61884 15.3136 5.61884C16.9522 5.61884 18.6845 6.5115 19.9236 8.05225C15.872 10.2737 16.5303 16.0597 20.6227 17.6086ZM13.6669 3.89671C14.4556 2.88381 15.0548 1.45515 14.8367 0C13.5507 0.0876353 12.0466 0.90896 11.1683 1.97281C10.3714 2.94291 9.71106 4.38176 9.96785 5.77373C11.3721 5.81857 12.8252 4.98094 13.6669 3.89671Z" fill="#E4E4E4"/>
</svg>
