<svg width="22" height="24" viewBox="0 0 22 24" fill="none" xmlns="http://www.w3.org/2000/svg">
<path d="M21.0367 17.6075C20.4742 18.8568 20.2032 19.4152 19.4797 20.5178C18.4668 22.0585 17.0381 23.9824 15.2732 23.9947C13.7019 24.0089 13.2963 22.9695 11.1625 22.9879C9.0307 22.9981 8.58641 24.015 7.01306 23.9987C5.24609 23.9824 3.89488 22.2501 2.88198 20.7114C0.0491178 16.3969 -0.250472 11.3385 1.50019 8.64832C2.73931 6.74073 4.69786 5.61981 6.5382 5.61981C8.41318 5.61981 9.59116 6.64901 11.1401 6.64901C12.6441 6.64901 13.5592 5.61777 15.7277 5.61777C17.3662 5.61777 19.0986 6.51043 20.3377 8.05118C16.2861 10.2726 16.9444 16.0586 21.0367 17.6075ZM14.0809 3.89564C14.8697 2.88274 15.4688 1.45408 15.2508 -0.00106812C13.9648 0.0865672 12.4607 0.907892 11.5823 1.97174C10.7854 2.94184 10.1251 4.38069 10.3819 5.77266C11.7861 5.8175 13.2392 4.97987 14.0809 3.89564Z" fill="#0D0D0D"/>
</svg>
