<svg width="24" height="24" viewBox="0 0 24 24" fill="none" xmlns="http://www.w3.org/2000/svg">
<path d="M12 0C5.3724 0 0 5.3724 0 12C0 18.6276 5.3724 24 12 24C18.6276 24 24 18.6276 24 12C24 5.3724 18.6276 0 12 0Z" fill="#E4E4E4"/>
<path d="M13.6242 15.1806H16.7298L17.2176 12.0258H13.6242V10.3014C13.6242 8.99099 14.0526 7.82879 15.2784 7.82879H17.2482V5.07599C16.902 5.02919 16.17 4.92719 14.787 4.92719C11.8986 4.92719 10.2054 6.45238 10.2054 9.92758V12.0264H7.23596V15.1812H10.2048V23.8524C10.7928 23.94 11.3886 24 12 24C12.5526 24 13.092 23.9496 13.6242 23.8776V15.1806Z" fill="#0680DD"/>
</svg>
