<svg width="25" height="24" viewBox="0 0 25 24" fill="none" xmlns="http://www.w3.org/2000/svg">
<path d="M12.7253 -0.00106812C6.09774 -0.00106812 0.725342 5.37133 0.725342 11.9989C0.725342 18.6265 6.09774 23.9989 12.7253 23.9989C19.3529 23.9989 24.7253 18.6265 24.7253 11.9989C24.7253 5.37133 19.3529 -0.00106812 12.7253 -0.00106812Z" fill="url(#paint0_linear_861_325)"/>
<path d="M14.3496 15.1795H17.4552L17.943 12.0247H14.3496V10.3003C14.3496 8.98992 14.778 7.82772 16.0038 7.82772H17.9736V5.07492C17.6274 5.02812 16.8954 4.92612 15.5124 4.92612C12.624 4.92612 10.9308 6.45132 10.9308 9.92652V12.0253H7.96143V15.1801H10.9302V23.8513C11.5182 23.9389 12.114 23.9989 12.7254 23.9989C13.278 23.9989 13.8174 23.9485 14.3496 23.8765V15.1795Z" fill="white"/>
<defs>
<linearGradient id="paint0_linear_861_325" x1="4.32114" y1="3.59473" x2="22.6943" y2="21.9679" gradientUnits="userSpaceOnUse">
<stop stop-color="#2AA4F4"/>
<stop offset="1" stop-color="#007AD9"/>
</linearGradient>
</defs>
</svg>
