<svg width="25" height="24" viewBox="0 0 25 24" fill="none" xmlns="http://www.w3.org/2000/svg">
<path d="M24.4919 9.64873H23.5253V9.59893H12.7253V14.3989H19.5071C18.5177 17.1931 15.8591 19.1989 12.7253 19.1989C8.74914 19.1989 5.52534 15.9751 5.52534 11.9989C5.52534 8.02273 8.74914 4.79893 12.7253 4.79893C14.5607 4.79893 16.2305 5.49133 17.5019 6.62233L20.8961 3.22813C18.7529 1.23073 15.8861 -0.00106812 12.7253 -0.00106812C6.09834 -0.00106812 0.725342 5.37193 0.725342 11.9989C0.725342 18.6259 6.09834 23.9989 12.7253 23.9989C19.3523 23.9989 24.7253 18.6259 24.7253 11.9989C24.7253 11.1943 24.6425 10.4089 24.4919 9.64873Z" fill="#FFC107"/>
<path d="M2.10889 6.41353L6.05149 9.30493C7.11829 6.66373 9.70189 4.79893 12.7253 4.79893C14.5607 4.79893 16.2305 5.49133 17.5019 6.62233L20.8961 3.22813C18.7529 1.23073 15.8861 -0.00106812 12.7253 -0.00106812C8.11609 -0.00106812 4.11889 2.60113 2.10889 6.41353Z" fill="#FF3D00"/>
<path d="M12.7255 23.9989C15.8251 23.9989 18.6415 22.8127 20.7709 20.8837L17.0569 17.7409C15.8521 18.6535 14.3545 19.1989 12.7255 19.1989C9.60428 19.1989 6.95408 17.2087 5.95568 14.4313L2.04248 17.4463C4.02848 21.3325 8.06168 23.9989 12.7255 23.9989Z" fill="#4CAF50"/>
<path d="M24.4919 9.64874H23.5253V9.59894H12.7253V14.3989H19.5071C19.0319 15.7411 18.1685 16.8985 17.0549 17.7415L17.0567 17.7403L20.7707 20.8831C20.5079 21.1219 24.7253 17.9989 24.7253 11.9989C24.7253 11.1943 24.6425 10.4089 24.4919 9.64874Z" fill="#1976D2"/>
</svg>
