<svg width="22" height="20" viewBox="0 0 22 20" fill="none" xmlns="http://www.w3.org/2000/svg">
<path d="M11 4.89C13.76 4.89 16 7.13 16 9.89C16 10.4 15.9 10.89 15.76 11.35L18.82 14.41C20.21 13.18 21.31 11.64 22 9.88C20.27 5.5 16 2.39 11 2.39C9.73 2.39 8.51 2.59 7.36 2.96L9.53 5.13C10 4.99 10.49 4.89 11 4.89ZM2.42 0.839996L1.01 2.26L3.69 4.94C2.06 6.22 0.77 7.92 0 9.89C1.73 14.28 6 17.39 11 17.39C12.52 17.39 13.97 17.09 15.31 16.57L18.74 20L20.15 18.59L2.42 0.839996ZM11 14.89C8.24 14.89 6 12.65 6 9.89C6 9.12 6.18 8.39 6.49 7.75L8.06 9.32C8.03 9.5 8 9.69 8 9.89C8 11.55 9.34 12.89 11 12.89C11.2 12.89 11.38 12.86 11.57 12.82L13.14 14.39C12.49 14.71 11.77 14.89 11 14.89ZM13.97 9.56C13.82 8.16 12.72 7.07 11.33 6.92L13.97 9.56Z" fill="#0D0D0D"/>
</svg>
