<svg width="498" height="489" viewBox="0 0 498 489" fill="none" xmlns="http://www.w3.org/2000/svg">
<g filter="url(#filter0_d_338_301)">
<path d="M278.113 293.402C277.508 286.177 277.283 278.925 277.442 271.677C277.442 271.074 276.562 270.912 276.492 271.677C275.735 278.942 275.813 286.27 276.724 293.518C276.739 293.702 276.827 293.873 276.968 293.992C277.109 294.112 277.292 294.17 277.476 294.155C277.661 294.139 277.831 294.052 277.951 293.91C278.07 293.769 278.129 293.586 278.113 293.402ZM267.621 290.692C267.663 290.786 267.732 290.866 267.818 290.922C267.904 290.978 268.005 291.008 268.108 291.008C268.211 291.008 268.311 290.978 268.398 290.922C268.484 290.866 268.552 290.786 268.594 290.692C268.27 283.396 267.969 276.077 267.644 268.758C267.644 268.635 267.596 268.518 267.509 268.431C267.422 268.344 267.304 268.295 267.181 268.295C267.058 268.295 266.941 268.344 266.854 268.431C266.767 268.518 266.718 268.635 266.718 268.758C266.409 274.284 266.471 279.824 266.903 285.342C266.919 287.148 267.16 288.946 267.621 290.692ZM328.327 291.619C328.554 295.196 328.155 298.786 327.146 302.227C327.146 302.759 328.698 305.701 329.671 297.247C330.281 291.537 329.09 285.779 326.266 280.779C325.965 280.223 325.177 280.779 325.432 281.265C327.035 284.506 328.017 288.017 328.327 291.619ZM300.256 124.185C300.24 125.928 300.829 127.622 301.923 128.979C303.313 130.23 305.467 125.366 311.929 124.602V118.348C307.421 118.678 303.225 120.776 300.256 124.185ZM361.147 291.48C361.147 286.708 360.73 281.96 360.638 277.189C360.638 276.541 359.642 276.68 359.642 277.328C359.642 282.261 359.642 287.241 359.85 292.198C359.943 295.463 361.217 294.259 361.147 291.48ZM316.26 118.232L316.399 124.486C324.39 124.764 326.706 130.786 327.563 128.91C327.934 128.053 329.439 123.768 328.629 123.027C325.228 119.974 320.83 118.269 316.26 118.232ZM150.031 80.6411C148.826 81.2896 150.031 84.1385 150.98 83.5131C151.93 82.8878 151.351 79.8768 150.031 80.6411ZM148.502 73.6695C146.881 73.8317 146.834 75.4993 148.502 75.7077C149.71 75.8015 150.882 76.1656 151.93 76.7732C152.555 77.1901 153.227 76.3562 152.856 75.7772C152.379 75.0749 151.726 74.5104 150.961 74.1404C150.197 73.7705 149.349 73.6081 148.502 73.6695ZM144.356 81.8223C144.976 83.4481 145.464 85.1211 145.815 86.8252C146.209 88.8171 146.186 89.3498 146.093 89.4656C145.719 89.4777 145.347 89.5242 144.982 89.6046C144.31 89.8362 144.31 90.6932 145.352 91.1796C145.635 91.3224 145.954 91.3768 146.268 91.3354C146.582 91.2941 146.876 91.1591 147.112 90.948C148.317 89.7899 147.807 86.5241 145.63 81.2433C145.553 81.0744 145.413 80.9429 145.239 80.8777C145.065 80.8126 144.873 80.8191 144.704 80.8959C144.535 80.9727 144.403 81.1134 144.338 81.2872C144.273 81.4609 144.279 81.6534 144.356 81.8223Z" fill="#079046" fill-opacity="0.75"/>
<path d="M480.058 360.825H447.192C450.226 344.612 432.207 333.193 420.997 339.169C419.846 333.551 416.683 328.547 412.102 325.097C407.522 321.646 401.839 319.987 396.121 320.431C395.511 316.452 394.006 312.662 391.72 309.348C389.433 306.034 386.424 303.282 382.919 301.3C381.831 288.33 382.317 275.128 382.34 262.319C384.309 262.458 389.034 262.898 388.27 261.022C385.953 255.278 381.993 245.689 379.005 240.177C380.209 240.177 381.576 240.177 381.576 238.949C381.947 216.714 382.665 170.067 382.665 170.067C383.035 142.459 383.962 110.728 364.575 88.0063C363.973 87.2883 363.139 87.0336 362.607 87.7747C354.72 98.9402 349.535 111.785 347.459 125.296C346.672 112.094 345.629 97.1783 343.591 82.4244C340.117 57.3869 331.733 40.5717 318.114 30.5891C316.817 29.6395 314.917 28.1109 314.06 28.7131C292.798 43.768 286.545 70.0331 285.062 89.4192C284.53 97.6646 284.367 106.026 284.576 114.318C281.727 103.687 271.953 82.934 268.363 87.9369C251.64 111.886 253.053 142.829 254.466 170.137C256.782 222.157 257.477 235.568 257.778 239.065C257.778 240.2 257.778 240.964 260.974 240.617C254.234 258.474 252.845 261.462 253.447 261.972C254.049 262.481 256.435 262.319 257.593 262.25C257.431 270.055 259.284 307.994 259.029 310.009C257.347 312.056 255.995 314.354 255.022 316.818C251.074 317.892 247.409 319.82 244.288 322.466C241.166 325.111 238.663 328.409 236.956 332.128C233.875 331.826 230.768 332.337 227.946 333.61C225.167 302.782 219.469 256.182 212.497 225.145C224.426 226.697 230.123 221.347 232.88 216.714C239.828 204.601 235.196 184.474 226.58 173.333C219.287 157.818 208.592 144.146 195.288 133.333C196.701 130.647 192.972 118.44 183.499 113.414C179.446 111.26 174.049 111.098 171.571 108.782C166.267 103.594 169.834 89.7898 158.786 86.1766C158.072 80.468 156.886 74.8283 155.242 69.3151C169.139 63.3394 168.421 47.1727 160.222 42.5868C152.579 38.3251 148.363 44.3702 143.337 46.061C136.389 48.3771 130.483 43.3742 121.357 43.3742C104.148 43.3742 100.072 60.699 99.1686 61.556C98.2653 62.4129 97.9178 67.3 90.2514 70.311C82.0986 73.4841 71.7223 73.6694 67.2984 83.2582C63.5463 91.6427 70.7495 101.88 65.7929 109.639C62.8978 114.271 52.4983 114.549 44.9476 126.663C36.8643 139.564 39.5742 157.074 50.7148 164.346C41.126 185.887 41.5661 208.793 51.8498 224.219C61.2533 238.278 76.5862 243.559 93.2392 243.118C92.4054 282.354 92.7528 321.474 90.6683 360.964C83.1409 360.964 75.5902 361.126 68.2017 361.265C67.9929 361.265 67.7926 361.348 67.6449 361.496C67.4972 361.643 67.4142 361.844 67.4142 362.052C67.4142 362.261 67.4972 362.462 67.6449 362.609C67.7926 362.757 67.9929 362.84 68.2017 362.84C74.8027 362.979 82.6081 363.118 90.5294 363.118C89.2555 386.117 87.5415 409.441 85.4338 432.301C85.2254 434.617 90.6452 434.478 92.9381 434.617C92.3048 437.834 92.0637 441.116 92.2201 444.391C90.4599 445.943 87.8889 456.551 88.0279 458.52C88.0279 458.937 88.2132 459.191 88.4911 459.238C91.0389 459.655 129.533 461.554 131.317 459.446C131.361 459.365 131.385 459.273 131.385 459.18C131.385 459.087 131.361 458.995 131.317 458.914C128.746 451.965 119.736 446.105 112.371 444.206L114.362 435.335C115.891 435.335 118.995 435.567 119.435 434.756C129.788 411.409 139.215 387.298 147.437 363.141H181.114C187.53 383.734 193.192 404.555 198.091 425.561C200.06 434.038 198.693 433.575 204.159 433.83C204.134 437.133 204.531 440.425 205.341 443.627C203.564 447.807 202.492 452.252 202.167 456.783C202.123 456.86 202.099 456.948 202.099 457.037C202.099 457.127 202.123 457.215 202.167 457.292C203.627 459.145 245.201 460.697 248.05 459.006C250.366 457.524 237.674 445.225 226.417 442.955C226.58 439.997 226.51 437.031 226.209 434.085C228.178 434.085 232.717 434.617 232.717 432.672C232.717 410.807 231.976 387.391 230.401 363.187H480.128C480.441 363.178 480.738 363.045 480.953 362.817C481.168 362.589 481.284 362.285 481.274 361.971C481.265 361.658 481.132 361.361 480.904 361.146C480.676 360.931 480.372 360.816 480.058 360.825ZM166.337 319.505C172.104 335.37 175.184 345.237 180.396 361.033H148.132C153.76 344.38 161.542 319.343 166.661 298.289C168.398 291.341 171.895 294.282 170.622 299.933C169.139 306.905 166.267 319.343 166.337 319.505ZM224.773 443.187C220.812 444.994 210.876 444.878 207.008 443.766C206.753 440.454 206.082 437.142 206.035 433.83L224.24 434.038C224.402 437.095 224.588 440.13 224.773 443.187ZM95.069 243.095C114.525 242.123 137.663 233.229 157.026 219.262C157.443 218.961 157.813 218.892 157.929 218.498C158.045 218.104 157.929 217.78 157.234 216.784C162.673 214.237 168.385 212.318 174.258 211.063C176.574 210.646 183.36 209.349 184.588 205.666L189.637 205.527C194.501 215.603 202.237 222.597 210.899 224.775L215.532 252.314C177.269 265.492 142.341 268.295 95.208 261.879C95.3701 255.649 95.3932 249.326 95.1385 243.095H95.069ZM155.775 101.926C152.533 110.334 145.769 110.681 146.858 112.673V113.391C147.298 117.074 148.155 124.648 142.226 129.998C132.22 126.014 126.013 121.428 121.38 114.758C122.353 113.067 121.38 105.679 121.38 105.609C119.944 98.0584 113.367 96.5297 114.849 89.6971C115.057 88.7012 115.358 88.1221 115.752 87.9369C117.049 87.3578 120.384 91.828 121.079 86.6398C122.168 79.2281 124.252 73.5073 131.595 71.4227C138.404 69.5003 144.982 72.7893 153.783 69.7551C155.775 78.0006 159.203 92.9165 155.775 101.926ZM142.573 132.036C146.58 131.04 150.008 121.197 149.174 115.684C155.425 116.567 161.581 118.025 167.564 120.039C189.336 127.798 208.236 144.381 220.998 166.894C212.289 158.556 200.894 153.854 190.587 154.503C187.301 149.118 183.525 144.047 179.307 139.355C179.244 139.286 179.167 139.23 179.082 139.192C178.996 139.154 178.903 139.134 178.809 139.134C178.715 139.134 178.623 139.154 178.537 139.192C178.451 139.23 178.374 139.286 178.311 139.355C178.245 139.42 178.192 139.497 178.156 139.583C178.12 139.668 178.101 139.76 178.101 139.853C178.101 139.946 178.12 140.038 178.156 140.123C178.192 140.209 178.245 140.286 178.311 140.351C182.012 144.953 185.423 149.78 188.525 154.804C185.456 155.267 182.496 156.288 179.794 157.815C179.356 157.858 178.922 157.935 178.496 158.047C177.225 158.334 175.931 158.512 174.629 158.579C169.209 158.579 169 156.263 167.055 156.518C163.187 156.912 164.322 164.555 173.216 166.176C171.618 170.646 170.9 180.49 173.887 184.705C170.32 184.705 168.028 183.964 167.889 187.6C167.842 188.256 167.842 188.914 167.889 189.569C166.74 188.83 165.44 188.359 164.085 188.191C162.73 188.022 161.354 188.161 160.06 188.596C157.628 189.523 152.996 194.364 150.656 196.379C150.656 195.406 150.656 193.924 149.799 193.831C135.092 192.603 112.741 192.256 99.3539 192.627C98.6199 183.177 98.7439 173.681 99.7244 164.254C99.7644 164.06 99.7258 163.859 99.6172 163.694C99.5086 163.529 99.3389 163.414 99.1454 163.374C98.9519 163.334 98.7505 163.372 98.5854 163.481C98.4204 163.589 98.3052 163.759 98.2653 163.953C97.5241 168.122 96.0881 185.122 97.5936 192.696L78.6244 193.947C78.4843 193.96 78.3516 194.015 78.2437 194.106C78.1358 194.196 78.0579 194.317 78.0202 194.453C77.9826 194.588 77.987 194.732 78.0328 194.865C78.0786 194.998 78.1638 195.114 78.2769 195.197C78.3422 195.256 78.4199 195.299 78.5042 195.323C78.5884 195.347 78.677 195.352 78.7633 195.336C102.148 193.904 125.602 194.059 148.966 195.8C149.073 203.626 151.429 211.255 155.752 217.78C124.855 240.038 74.0152 254.583 53.2626 223.038C38.3235 200.501 45.7351 161.127 73.4362 137.085C86.6676 125.741 102.766 118.257 119.968 115.453C124.16 123.443 139.539 132.731 142.55 131.99L142.573 132.036ZM176.898 160.108C175.718 161.354 174.727 162.766 173.957 164.3C169.626 163.652 167.171 161.382 166.754 159.506C166.429 158.209 167.194 157.676 168.792 158.765C171.306 159.991 174.123 160.458 176.898 160.108ZM188.155 172.87C188.037 173.005 187.968 173.175 187.957 173.353C187.946 173.532 187.995 173.709 188.096 173.857C188.196 174.005 188.343 174.116 188.512 174.172C188.682 174.228 188.866 174.226 189.035 174.167C190.911 173.426 191.791 173.588 191.93 173.935C192.069 174.283 191.328 175.997 189.822 176.738C188.85 177.224 186.974 177.664 185.538 175.047C184.356 172.916 186.371 170.577 185.538 170.09C184.704 169.604 182.341 173.194 184.356 176.344C183.94 176.649 183.442 176.823 182.926 176.844C182.411 176.864 181.9 176.731 181.461 176.46C180.442 175.672 179.747 173.472 180.928 169.511C181.368 167.983 178.774 167.589 178.45 174.144C178.311 175.047 177.315 180.606 177.014 182.482C176.713 184.358 176.296 184.497 176.25 184.52C176.203 184.543 175.995 184.52 175.81 184.265C174.165 182.412 172.197 172.986 175.347 165.736C176.326 163.291 177.999 161.186 180.159 159.68C182.32 158.174 184.874 157.332 187.506 157.259C189.055 157.229 190.587 157.574 191.973 158.264C193.36 158.954 194.559 159.969 195.469 161.222C196.378 162.476 196.972 163.93 197.199 165.462C197.425 166.994 197.279 168.558 196.771 170.021C196.521 170.8 196.098 171.511 195.532 172.101C194.966 172.691 194.273 173.144 193.505 173.426C193.241 172.974 192.873 172.59 192.433 172.306C191.993 172.022 191.492 171.846 190.971 171.792C190.45 171.738 189.923 171.807 189.434 171.995C188.945 172.182 188.507 172.482 188.155 172.87ZM171.108 192.488C170.824 191.689 170.277 191.011 169.556 190.565L169.834 186.813H180.813C180.813 188.064 181.16 191.746 181.16 191.746C177.796 191.761 174.438 192.009 171.108 192.488ZM178.288 184.729C178.9 182.198 179.341 179.629 179.608 177.039C180.361 177.859 181.384 178.381 182.49 178.508C183.596 178.636 184.71 178.361 185.63 177.734L186.001 177.989C185.01 182.51 184.884 187.178 185.63 191.746H183.314C183.377 189.554 183.135 187.364 182.596 185.238C181.924 184.636 179.307 184.729 178.288 184.729ZM160.454 190.334C162.006 189.946 163.633 189.975 165.171 190.418C166.708 190.861 168.101 191.703 169.209 192.858C169.626 193.553 169.556 193.785 169.533 193.854C169.51 193.924 168.143 194.109 167.217 194.063C165.848 193.842 164.445 194.035 163.187 194.618C161.277 196.15 160.026 198.355 159.689 200.779C159.342 206.686 176.412 205.944 182.249 205.759C177.941 210.16 165.109 209.164 156.424 215.232C153.388 209.997 151.457 204.195 150.749 198.185C152.278 197.49 157.999 191.399 160.454 190.334ZM232.88 212.36C227.877 226.975 212.196 223.223 211.548 223.061C200.616 220.304 194.293 210.113 191.907 205.388C194.501 204.786 193.76 202.239 193.505 199.783L213.702 199.32C215.323 202.401 219.168 201.382 218.983 198.301C219.006 197.631 218.795 196.973 218.385 196.443C217.974 195.912 217.391 195.542 216.737 195.396C216.082 195.25 215.397 195.338 214.8 195.644C214.204 195.951 213.733 196.456 213.47 197.074C210.575 196.819 196.331 197.212 193.343 197.537C192.996 191.329 193.343 191.77 187.622 191.793C187.089 187.439 187.089 183.037 187.622 178.683C188.835 178.91 190.09 178.702 191.165 178.096C192.241 177.491 193.069 176.526 193.505 175.371C197.35 174.885 201.218 168.214 197.813 161.081C197.176 159.883 196.297 158.831 195.233 157.989C194.169 157.148 192.941 156.537 191.629 156.194C209.301 155.73 225.306 169.975 231.698 186.929C232.023 186.929 232.231 186.697 231.698 186.929C234.989 195.021 235.406 203.997 232.88 212.36ZM112.44 435.289C111.704 438.207 111.162 441.17 110.819 444.16C105.185 444.743 99.5097 444.805 93.8646 444.345C94.2352 441.126 94.5826 437.929 94.93 434.71L112.44 435.289ZM421.182 340.535C426.231 336.39 448.559 341.67 445.224 360.894H230.262L228.247 335.231C239.99 331.155 248.606 337.362 251.64 344.913C252.173 346.326 255.161 345.121 250.505 339.308C247.547 335.652 243.37 333.185 238.739 332.359C249.949 310.773 281.681 314.224 287.842 337.432C288.166 338.659 289.996 338.057 289.671 336.83C287.813 329.986 283.443 324.094 277.433 320.329C271.423 316.564 264.214 315.203 257.245 316.517C259.209 312.569 262.115 309.165 265.707 306.607C269.298 304.049 273.465 302.415 277.838 301.85C282.211 301.284 286.656 301.805 290.78 303.365C294.904 304.925 298.58 307.478 301.484 310.796C303.615 313.112 310.748 326.685 313.064 328.283C311.16 331.548 309.968 335.179 309.567 338.937C306.704 339.986 304.1 341.641 301.934 343.787C299.767 345.933 298.089 348.521 297.014 351.375C296.937 351.55 296.933 351.749 297.002 351.927C297.072 352.105 297.209 352.248 297.384 352.325C297.559 352.401 297.758 352.405 297.936 352.336C298.114 352.267 298.257 352.129 298.334 351.954C299.735 348.708 301.958 345.883 304.784 343.759C307.61 341.634 310.941 340.283 314.449 339.839C317.956 339.394 321.519 339.872 324.786 341.225C328.052 342.578 330.91 344.759 333.076 347.553C333.229 347.768 333.462 347.914 333.723 347.957C333.983 348 334.251 347.939 334.466 347.785C334.681 347.631 334.826 347.399 334.869 347.138C334.913 346.878 334.851 346.61 334.697 346.395C332.029 342.862 328.363 340.21 324.172 338.782C319.982 337.353 315.459 337.214 311.188 338.381C311.869 334.693 313.289 331.181 315.363 328.057C317.437 324.932 320.121 322.259 323.255 320.2C327.045 317.77 331.389 316.344 335.881 316.054C340.373 315.763 344.865 316.62 348.935 318.541C353.006 320.463 356.521 323.387 359.152 327.04C361.782 330.693 363.441 334.954 363.973 339.424C364.023 339.655 364.156 339.859 364.346 340C364.536 340.14 364.77 340.206 365.006 340.187C365.241 340.167 365.461 340.062 365.625 339.892C365.789 339.722 365.885 339.498 365.896 339.262C365.282 334.163 363.309 329.324 360.184 325.249C357.059 321.174 352.896 318.014 348.131 316.1C349.676 312.022 352.243 308.409 355.584 305.607C358.926 302.804 362.931 300.907 367.216 300.096C380.742 298.011 392.346 308.411 394.06 320.663C390.516 321.25 387.152 322.632 384.219 324.706C381.287 326.78 378.863 329.492 377.129 332.637C376.712 333.425 377.986 334.12 378.426 333.355C380.955 329.081 384.818 325.755 389.421 323.889C394.023 322.023 399.112 321.719 403.904 323.025C408.514 324.494 412.526 327.415 415.339 331.351C418.153 335.288 419.618 340.029 419.514 344.867C419.514 345.492 420.348 346.28 420.974 345.839C421.228 345.677 421.969 345.145 421.205 340.535H421.182ZM287.193 90.6699C303.082 87.8905 319.619 87.4041 342.433 89.0949C346.093 120.571 346.625 150.218 347.204 181.88C342.757 172.059 338.241 157.722 338.31 147.832C338.289 136.327 335.492 124.998 330.158 114.804C323.811 102.691 315.218 94.1209 305.861 104.173C292.891 118.07 293.817 134.839 294.072 153.437C293.213 161.708 291.434 169.857 288.768 177.734C287.957 139.124 285.711 110.681 287.193 90.6699ZM380.024 238.301C378.321 238.034 376.586 238.034 374.882 238.301L375.114 220.05C375.182 219.636 375.154 219.213 375.034 218.811C374.914 218.41 374.703 218.041 374.419 217.734C369.115 213.287 354.269 198.973 349.358 186.211C349.358 172.777 349.15 159.158 348.617 145.725C360.36 145.377 371.339 145.516 380.58 145.725C381.506 168.307 379.769 207.774 380.024 238.301ZM287.517 300.258C282.828 299.215 277.952 299.374 273.34 300.718C268.729 302.062 264.531 304.549 261.136 307.947C260.974 302.968 259.955 272.024 259.608 262.296L285.919 261.787C285.85 266.488 287.077 295.718 287.517 300.258ZM338.797 163.814C343.035 181.347 350.632 200.085 373.099 219.146C373.099 225.4 372.381 241.219 372.798 247.241C372.335 247.241 338.241 247.473 335.739 247.681C338.331 219.805 339.351 191.805 338.797 163.814ZM294.582 164.161C296.133 192.534 298.982 220.768 303.082 248.191C297.407 248.052 270.795 247.241 266.927 247.426C266.927 243.628 265.977 221.764 265.885 219.633C280.636 204.323 290.608 185.047 294.582 164.161ZM287.633 261.74C289.301 261.74 292.983 262.134 292.775 260.49C291.734 256.868 290.313 253.367 288.536 250.044L303.313 250.252C303.661 252.383 303.985 254.514 304.309 256.645C302.132 258.961 297.732 272.395 297.129 274.826C297.083 274.988 297.076 275.158 297.108 275.324C297.14 275.489 297.211 275.644 297.315 275.776C297.871 276.471 299.33 276.564 300.882 276.564C294.142 287.241 297.801 300.443 300.372 306.951C297.166 304.141 293.412 302.027 289.347 300.744C289.88 296.506 287.934 265.631 287.656 261.74H287.633ZM299.492 286.847C299.982 283.272 301.145 279.822 302.92 276.679C313.604 277.108 324.303 276.992 334.975 276.332C336.249 281.358 347.853 294.537 333.446 314.34C329.537 314.87 325.782 316.216 322.427 318.291C319.071 320.366 316.189 323.123 313.968 326.384C305.769 313.992 297.407 301.763 299.515 286.847H299.492ZM336.759 189.06C336.411 212.406 334.975 232.858 333.261 255.232L306 255.95C300.858 220.351 298.658 194.873 296.736 165.62C296.203 157.329 295.67 148.736 295.855 140.328C296.157 125.898 299.098 115.615 305.12 107.902C313.643 97.0393 320.546 101.88 327.309 113.901C331.193 120.84 333.864 128.391 335.207 136.228C337.291 148.041 336.874 182.32 336.782 189.06H336.759ZM346.486 315.498C343.154 314.419 339.655 313.948 336.156 314.108C340.053 308.602 342.224 302.062 342.393 295.318C342.562 288.575 340.722 281.934 337.106 276.239C338.611 276.239 342.618 276.239 342.155 274.826C341.368 272.186 339.144 266.697 337.361 262.273C336.203 259.355 335.045 256.83 335.045 256.158C335.184 254.931 335.739 249.465 335.739 249.465C337.893 249.812 348.2 249.465 351.698 249.465C348.756 258.729 349.15 257.571 348.525 259.169C348.061 260.397 347.83 260.999 348.131 261.485C348.432 261.972 349.659 261.949 352.763 262.018C352.763 275.382 353.898 290.831 354.477 304.149C350.725 307.029 347.944 310.99 346.51 315.498H346.486ZM354.245 261.995L380.626 262.25C379.786 274.861 379.833 287.515 380.765 300.119C376.789 298.375 372.43 297.691 368.111 298.133C363.792 298.576 359.661 300.13 356.122 302.643C355.635 289.094 355.265 275.174 354.269 261.995H354.245ZM287.309 88.9328C288.907 70.1952 295.068 45.1114 315.103 30.7049C334.373 43.9301 339.631 66.5125 342.178 86.9641C325.757 85.7597 302.642 85.9218 287.332 88.9328H287.309ZM256.041 148.759C261.438 148.759 281.519 148.481 286.151 148.458C286.568 159.575 286.992 170.708 287.425 181.856C283.14 192.974 273.528 210.067 264.518 218.452C264.055 220.768 264.657 235.684 264.773 238.37C263.082 238.532 261.391 238.695 259.816 238.926C258.89 207.751 256.041 167.473 256.041 148.759Z" fill="#0D0D0D"/>
<path d="M143.917 96.3906C137.64 95.9042 136.042 91.3414 134.652 91.7584C134.281 91.7584 134.119 92.2447 134.027 92.4995C132.058 96.7844 134.559 102.112 138.937 102.112C140.283 101.967 141.565 101.46 142.646 100.644C143.727 99.8285 144.567 98.7346 145.075 97.4792C145.151 97.3196 145.175 97.1397 145.142 96.9657C145.11 96.7917 145.023 96.6325 144.894 96.5113C144.765 96.39 144.601 96.313 144.425 96.2913C144.249 96.2696 144.071 96.3044 143.917 96.3906ZM142.805 97.9888C139.678 102.158 134.721 100.305 135.208 94.5841C136.169 95.6475 137.34 96.4994 138.648 97.0856C139.956 97.6718 141.372 97.9793 142.805 97.9888ZM318.577 197.652C318.54 197.406 318.415 197.18 318.226 197.018C318.037 196.855 317.796 196.765 317.546 196.765C317.297 196.765 317.055 196.855 316.866 197.018C316.677 197.18 316.553 197.406 316.516 197.652C316.516 201.15 317.674 244.3 318.322 248.978C318.322 249.199 318.41 249.411 318.566 249.568C318.723 249.724 318.935 249.812 319.156 249.812C319.377 249.812 319.589 249.724 319.746 249.568C319.902 249.411 319.99 249.199 319.99 248.978C321.032 234.248 319.063 212.916 318.577 197.652ZM135.602 85.4816C136.343 85.4816 136.574 84.6941 136.412 83.8835C136.088 82.2622 134.791 82.1695 134.467 83.096C134.142 84.0224 134.606 85.4816 135.602 85.4816ZM133.146 75.6843C132.104 75.8916 131.164 76.4513 130.485 77.2694C129.806 78.0876 129.429 79.1145 129.417 80.1776C129.603 81.382 130.599 81.382 130.761 80.5019C131.247 78.0236 132.289 78.1858 133.587 77.3983C133.773 77.307 133.923 77.1541 134.01 76.9653C134.097 76.7765 134.117 76.5633 134.065 76.3619C134.013 76.1605 133.894 75.9831 133.726 75.8596C133.559 75.7362 133.354 75.6742 133.146 75.6843ZM369.717 293.402C369.717 293.842 370.574 293.703 370.667 293.263C371.038 291.688 369.324 273.738 369.602 268.874C369.602 268.249 368.675 268.272 368.629 268.874C368.201 277.066 368.566 285.28 369.717 293.402ZM316.446 312.232C316.909 312.58 317.627 312.024 317.326 311.514C316.446 309.962 315.195 308.758 313.875 306.372C311.849 302.592 310.68 298.411 310.452 294.128C310.224 289.845 310.942 285.564 312.555 281.59C312.81 281.01 311.883 280.663 311.605 281.265C309.637 285.784 308.836 290.726 309.277 295.635C309.718 300.545 311.387 305.264 314.13 309.36C314.749 310.431 315.531 311.4 316.446 312.232Z" fill="#079046" fill-opacity="0.75"/>
</g>
<defs>
<filter id="filter0_d_338_301" x="-7.27441" y="-7.42349" width="504.549" height="511.846" filterUnits="userSpaceOnUse" color-interpolation-filters="sRGB">
<feFlood flood-opacity="0" result="BackgroundImageFix"/>
<feColorMatrix in="SourceAlpha" type="matrix" values="0 0 0 0 0 0 0 0 0 0 0 0 0 0 0 0 0 0 127 0" result="hardAlpha"/>
<feOffset dx="4" dy="4"/>
<feGaussianBlur stdDeviation="6"/>
<feComposite in2="hardAlpha" operator="out"/>
<feColorMatrix type="matrix" values="0 0 0 0 0.027451 0 0 0 0 0.564706 0 0 0 0 0.27451 0 0 0 0.25 0"/>
<feBlend mode="normal" in2="BackgroundImageFix" result="effect1_dropShadow_338_301"/>
<feBlend mode="normal" in="SourceGraphic" in2="effect1_dropShadow_338_301" result="shape"/>
</filter>
</defs>
</svg>
