<svg width="221" height="64" viewBox="0 0 221 64" fill="none" xmlns="http://www.w3.org/2000/svg">
<g clip-path="url(#clip0_288_3039)">
<path d="M45.5091 29.1212C43.9665 30.6638 42.0476 31.4324 39.7525 31.4324C37.4575 31.4324 35.5386 30.6638 33.996 29.1212C32.4534 27.584 31.6848 25.6974 31.6848 23.4668C31.6848 21.2362 32.4534 19.3497 33.996 17.8071C35.5332 16.2698 37.4521 15.4958 39.7525 15.4958C42.053 15.4958 43.9665 16.2698 45.5091 17.8071C47.0517 19.3497 47.8203 21.2362 47.8203 23.4668C47.8203 25.6974 47.0463 27.584 45.5091 29.1212Z" fill="#079046"/>
<path d="M29.653 23.4614C29.653 25.8156 30.298 27.8796 31.5988 29.6533H0.725342V17.1943H5.69712C7.64821 17.1835 9.20693 15.5711 9.20693 13.6254V4.85353L22.8162 2.95619V17.1943H31.6525C30.3249 18.9895 29.653 21.075 29.653 23.4614Z" fill="#0D0D0D"/>
<path d="M29.395 52.1688C27.6643 52.1688 26.3475 51.7173 25.3639 50.7928C24.391 49.8683 23.918 48.616 23.918 46.9659V31.4647H11.0935V48.9492C11.0935 53.835 12.5179 57.6082 15.3289 60.1666C18.1239 62.7143 22.2787 64.0043 27.6858 64.0043H39.7578L37.8605 52.1688H29.395Z" fill="#0D0D0D"/>
<path d="M25.5897 0.532115C25.9445 0.177372 26.3852 0 26.9173 0C27.4494 0 27.8902 0.177372 28.2449 0.532115C28.5997 0.886858 28.777 1.3276 28.777 1.85971C28.777 2.39183 28.5997 2.83257 28.2449 3.18731C27.8902 3.54206 27.4494 3.71943 26.9173 3.71943C26.3852 3.71943 25.9445 3.54206 25.5897 3.18731C25.235 2.83257 25.0576 2.39183 25.0576 1.85971C25.0576 1.3276 25.235 0.886858 25.5897 0.532115ZM25.794 2.98307C26.095 3.28406 26.4658 3.43994 26.9173 3.43994C27.3688 3.43994 27.7397 3.28944 28.0353 2.98307C28.3363 2.68207 28.4814 2.30583 28.4814 1.85971C28.4814 1.4136 28.3309 1.02661 28.0353 0.725611C27.7343 0.424617 27.3634 0.268745 26.9173 0.268745C26.4712 0.268745 26.095 0.419242 25.794 0.725611C25.493 1.02661 25.3479 1.40822 25.3479 1.85971C25.3479 2.31121 25.4984 2.68207 25.794 2.98307ZM27.3473 2.34346C27.4494 2.48858 27.5677 2.55845 27.6967 2.55845H27.7881V2.7842H27.6752C27.4279 2.7842 27.2398 2.67132 27.1055 2.44558L26.7776 1.97259H26.611V2.78957H26.353V0.773985H27.0678C27.2398 0.773985 27.3849 0.833109 27.5032 0.951357C27.6214 1.0696 27.6806 1.20935 27.6806 1.37597C27.6806 1.5426 27.6214 1.68234 27.5086 1.79522C27.3957 1.90809 27.256 1.96721 27.0893 1.97796L27.3473 2.34883V2.34346ZM26.6163 1.01048V1.74147H27.0625C27.1646 1.74147 27.2506 1.70922 27.3204 1.63934C27.3903 1.56947 27.4226 1.48347 27.4226 1.3706C27.4226 1.26848 27.3903 1.18248 27.3204 1.1126C27.2506 1.04273 27.1646 1.01048 27.0625 1.01048H26.6163Z" fill="#0D0D0D"/>
<path d="M84.8317 17.9092V23.1873H77.194V46.4338H71.5879V23.1873H63.9502V17.9092H84.8263H84.8317Z" fill="#0D0D0D"/>
<path d="M118.156 25.7243V28.2827C116.533 26.251 114.34 25.2352 111.577 25.2352C109.142 25.2352 107.186 25.9662 105.708 27.4281C104.23 28.8901 103.493 30.8412 103.493 33.276V39.57C103.493 40.7364 102.913 41.3169 101.746 41.3169H100.989C99.8222 41.3169 99.2417 40.7364 99.2417 39.57V25.7189H93.9636V37.3771C93.9636 38.7047 93.5444 39.7743 92.7059 40.5859C91.8674 41.3975 90.7709 41.806 89.4164 41.806C88.1426 41.806 87.116 41.4136 86.3312 40.6289C85.5465 39.8441 85.1541 38.7853 85.1541 37.4631V25.7243H79.876V39.0057C79.876 41.3867 80.5908 43.3056 82.0259 44.7514C83.461 46.2027 85.3422 46.9229 87.6696 46.9229C90.5398 46.9229 92.7865 45.7297 94.4097 43.3486C95.1944 45.4072 97.0219 46.4338 99.8921 46.4338H102.8C106.783 46.4338 108.771 44.5257 108.771 40.7095V34.9852C108.771 33.577 109.185 32.4537 110.008 31.6152C110.835 30.7767 111.921 30.3574 113.276 30.3574C114.738 30.3574 115.915 30.7928 116.807 31.6582C117.699 32.5235 118.145 33.663 118.145 35.0712V46.4445H123.423V25.7297H118.145L118.156 25.7243Z" fill="#0D0D0D"/>
<path d="M130.271 23.3002C129.637 23.9344 128.841 24.2569 127.895 24.2569C126.949 24.2569 126.154 23.9398 125.52 23.3002C124.885 22.6659 124.563 21.8866 124.563 20.9675C124.563 20.0484 124.88 19.269 125.52 18.6294C126.154 17.9952 126.949 17.6727 127.895 17.6727C128.841 17.6727 129.637 17.9898 130.271 18.6294C130.905 19.2636 131.228 20.043 131.228 20.9675C131.228 21.892 130.911 22.6659 130.271 23.3002Z" fill="#079046"/>
<path d="M130.534 25.7243H125.256V46.4391H130.534V25.7243Z" fill="#0D0D0D"/>
<path d="M139.134 46.4391C134.614 46.4391 132.351 44.3967 132.351 40.3064V17.1943H137.629V39.4518C137.629 40.129 137.823 40.6557 138.22 41.0374C138.613 41.419 139.177 41.6071 139.908 41.6071H141.166V46.4391H139.134Z" fill="#0D0D0D"/>
<path d="M166.17 41.3169H166.573V46.4338H165.068C162.144 46.4338 160.29 45.3534 159.505 43.1873C157.742 45.6759 155.377 46.9229 152.399 46.9229C149.422 46.9229 147.127 45.8855 145.192 43.8162C143.257 41.7469 142.289 39.1669 142.289 36.0817C142.289 32.9965 143.257 30.4166 145.192 28.3472C147.127 26.2779 149.529 25.2405 152.399 25.2405C155.27 25.2405 157.409 26.3101 159.14 28.4494V25.7297H164.418V39.5808C164.418 40.7471 164.998 41.3276 166.165 41.3276L166.17 41.3169ZM153.421 41.806C155.071 41.806 156.441 41.2577 157.522 40.1613C158.602 39.0648 159.145 37.7049 159.145 36.0817C159.145 34.4585 158.602 33.0986 157.522 32.0022C156.436 30.9057 155.071 30.3574 153.421 30.3574C151.771 30.3574 150.443 30.9057 149.357 32.0022C148.272 33.0986 147.734 34.4585 147.734 36.0817C147.734 37.7049 148.277 39.0648 149.357 40.1613C150.438 41.2577 151.792 41.806 153.421 41.806Z" fill="#0D0D0D"/>
<path d="M189.39 41.3169H189.836V46.4338H188.331C184.353 46.4338 182.359 44.5257 182.359 40.7095V34.9852C182.359 33.577 181.945 32.4537 181.123 31.6152C180.295 30.7767 179.21 30.3574 177.855 30.3574C176.393 30.3574 175.216 30.7928 174.324 31.6582C173.432 32.5235 172.985 33.663 172.985 35.0712V46.4445H167.707V25.7297H172.985V28.2881C174.609 26.2564 176.802 25.2405 179.564 25.2405C181.999 25.2405 183.956 25.9715 185.434 27.4335C186.906 28.8955 187.648 30.8466 187.648 33.2814V39.5754C187.648 40.7417 188.229 41.3222 189.395 41.3222L189.39 41.3169Z" fill="#0D0D0D"/>
<path d="M202.031 46.81C198.876 46.8207 196.243 45.7941 194.13 43.7355C192.018 41.677 190.97 39.1077 190.981 36.0279C190.991 32.9481 192.056 30.3735 194.179 28.2988C196.302 26.2241 198.941 25.1868 202.096 25.176C204.821 25.1653 207.17 25.9446 209.148 27.5033C211.126 29.0621 212.367 31.0884 212.873 33.5716L207.288 33.5877C206.831 32.588 206.149 31.7871 205.229 31.1852C204.316 30.5778 203.262 30.2822 202.074 30.2822C200.456 30.2822 199.107 30.8358 198.022 31.9376C196.941 33.0341 196.398 34.394 196.393 36.0118C196.393 37.635 196.925 38.9895 198 40.0806C199.075 41.1717 200.424 41.7146 202.042 41.7092C203.23 41.7092 204.283 41.3975 205.203 40.7901C206.122 40.1774 206.81 39.3765 207.272 38.3714L212.856 38.3553C212.335 40.8438 211.083 42.8702 209.094 44.445C207.105 46.0199 204.751 46.81 202.026 46.8154L202.031 46.81Z" fill="#0D0D0D"/>
<path d="M219.768 23.3002C219.134 23.9344 218.339 24.2569 217.393 24.2569C216.447 24.2569 215.651 23.9398 215.017 23.3002C214.383 22.6659 214.06 21.8866 214.06 20.9675C214.06 20.0484 214.377 19.269 215.017 18.6294C215.651 17.9952 216.447 17.6727 217.393 17.6727C218.339 17.6727 219.134 17.9898 219.768 18.6294C220.403 19.2636 220.725 20.043 220.725 20.9675C220.725 21.892 220.408 22.6659 219.768 23.3002Z" fill="#079046"/>
<path d="M220.032 25.7243H214.754V46.4391H220.032V25.7243Z" fill="#0D0D0D"/>
</g>
<defs>
<clipPath id="clip0_288_3039">
<rect width="220" height="63.9989" fill="white" transform="translate(0.725342)"/>
</clipPath>
</defs>
</svg>
