<svg width="402" height="532" viewBox="0 0 402 532" fill="none" xmlns="http://www.w3.org/2000/svg">
<path d="M14.534 120.923C3.63395 104.133 -1.93605 83.6631 1.97395 62.9231C3.83395 53.0331 7.62395 43.6031 13.124 35.1731C18.634 26.7531 25.754 19.4931 34.064 13.8231C42.384 8.16314 51.7439 4.19314 61.594 2.14314C71.4539 0.103136 81.614 0.0231359 91.4939 1.91314C101.384 3.80314 110.794 7.63314 119.204 13.1631C127.604 18.7031 134.834 25.8431 140.474 34.1831C146.114 42.5231 150.044 51.8931 152.054 61.7531C154.064 71.6131 154.104 81.7831 152.174 91.6531C147.204 118.193 132.774 136.213 104.614 148.963C90.9939 155.133 39.794 159.853 14.524 120.913L14.534 120.923ZM37.964 66.2731C39.784 72.2131 43.084 77.5931 47.554 81.9131C52.024 86.2331 57.524 89.3331 63.524 90.9431C69.524 92.5531 75.834 92.6031 81.864 91.1031C87.894 89.6031 93.444 86.5931 97.984 82.3531C123.994 58.0931 103.044 14.6431 67.534 19.6031C62.354 20.3831 57.394 22.2631 53.004 25.1331C48.614 27.9931 44.884 31.7631 42.084 36.1931C39.274 40.6231 37.454 45.6031 36.744 50.7931C36.034 55.9831 36.444 61.2731 37.954 66.2931L37.964 66.2731ZM50.004 144.783C49.824 145.403 50.384 145.533 50.954 145.733C87.924 157.983 121.694 144.323 139.244 116.533C139.704 115.813 139.734 115.633 139.074 115.103C115.844 92.4331 58.024 108.043 49.994 144.783H50.004Z" fill="#079046"/>
<path d="M84.144 40.7031C84.104 49.6231 73.074 53.4631 72.614 61.0431C72.414 64.4231 76.484 66.6831 73.954 68.7431C71.914 70.3931 69.434 66.1031 68.744 62.2231C68.704 60.9531 68.804 59.6731 69.054 58.4231C70.614 50.7931 80.674 47.2231 79.814 40.0331C78.954 32.8431 70.934 34.1131 65.204 39.7531C63.094 41.8331 63.564 43.3631 62.934 44.5531C62.114 46.1131 60.004 45.0531 59.824 43.3131C59.014 35.5631 74.654 24.6331 82.454 35.3031C83.594 36.8631 84.194 38.7631 84.144 40.7031Z" fill="#0D0D0D"/>
<path d="M75.714 79.6531C75.314 79.4231 74.974 79.1131 74.714 78.7231C74.454 78.3431 74.294 77.9031 74.234 77.4431C74.174 76.9831 74.224 76.5231 74.374 76.0831C74.524 75.6431 74.774 75.2531 75.104 74.9331C75.384 74.6431 75.734 74.4331 76.114 74.2931C76.494 74.1631 76.904 74.1131 77.304 74.1531C77.704 74.1931 78.094 74.3231 78.434 74.5331C78.774 74.7431 79.074 75.0331 79.284 75.3631C80.544 77.5331 78.314 80.9531 75.724 79.6331L75.714 79.6531Z" fill="#0D0D0D"/>
<path d="M26.2038 496.563C57.4038 488.013 133.704 478.603 165.834 474.803C242.984 465.683 323.324 458.053 400.354 454.483C400.584 454.483 400.814 454.573 400.984 454.733C401.154 454.893 401.254 455.113 401.274 455.343C401.284 455.583 401.204 455.803 401.054 455.983C400.904 456.163 400.684 456.273 400.454 456.293C304.524 462.673 83.1138 486.083 27.0638 500.263C25.9038 500.553 25.0638 496.873 26.2038 496.553V496.563Z" fill="#0D0D0D"/>
<path d="M294.504 242.003C294.014 240.903 296.214 242.143 297.034 239.853C298.974 234.403 298.994 232.693 296.474 230.803C293.474 228.863 290.244 227.313 286.854 226.183C286.004 225.923 287.834 225.083 289.914 222.553C290.444 221.913 290.274 222.163 295.304 224.673C301.434 227.733 301.824 227.403 302.564 229.373C303.524 231.653 305.304 233.483 307.544 234.523C312.094 236.843 316.524 239.053 320.154 235.193C320.604 234.713 320.574 234.763 323.114 236.103C334.734 242.233 334.414 241.033 334.694 242.323C335.014 243.683 335.654 244.953 336.544 246.023C337.444 247.093 338.584 247.933 339.864 248.483C343.594 250.483 345.474 251.893 349.244 250.603C360.244 246.843 366.774 231.303 361.764 226.353C357.464 222.123 355.134 219.203 349.194 220.503C348.274 220.703 349.014 220.713 337.424 212.603C336.224 211.763 336.204 211.553 336.394 210.863C336.584 210.153 336.604 209.403 336.444 208.693C336.284 207.973 335.964 207.303 335.494 206.733C329.024 198.183 323.174 198.493 321.084 198.623C320.884 198.643 320.674 198.623 320.484 198.553C320.294 198.483 320.124 198.373 319.984 198.233C310.524 187.333 243.814 141.013 227.614 130.093C226.004 129.003 227.014 128.643 226.584 127.133C225.044 121.703 216.804 114.343 211.844 112.433C192.214 104.873 168.294 130.143 170.354 150.953C171.484 162.393 177.304 166.713 187.784 170.873C189.644 171.593 191.644 171.833 193.624 171.583C195.684 171.013 197.664 170.173 199.514 169.093C201.454 167.803 200.434 171.083 261.774 206.553C262.754 207.123 262.354 207.073 262.314 208.183C262.124 212.523 263.084 216.833 265.094 220.693C265.554 221.573 264.874 221.133 261.994 221.043C254.394 220.803 253.724 222.953 253.694 230.443C253.694 232.003 254.594 232.713 256.164 233.583C258.454 234.873 258.544 234.933 258.414 235.383C258.164 236.223 195.874 524.663 195.774 527.403C195.734 528.593 198.024 531.583 199.954 531.443C203.324 531.203 205.174 521.193 205.714 518.303C214.074 474.233 231.374 445.903 239.804 370.073C239.804 370.073 245.594 314.863 268.804 247.533C268.854 247.383 269.014 246.913 269.184 246.933C269.454 246.963 269.514 248.873 269.794 253.453C269.964 256.353 280.014 512.473 280.594 519.293C281.114 525.403 281.374 525.393 282.204 525.453C283.134 525.683 284.114 525.693 285.044 525.473C285.984 525.253 286.844 524.803 287.574 524.173C288.714 522.783 288.344 522.293 287.834 507.893C287.544 499.713 282.714 251.923 282.754 251.913C282.754 246.193 333.744 486.283 350.874 524.413C351.574 525.953 352.504 525.223 354.914 524.043C355.784 523.433 356.414 522.543 356.684 521.513C357.084 520.003 356.444 518.573 356.394 518.433C355.564 516.303 330.734 405.123 294.504 242.023V242.003ZM360.854 227.703C363.004 230.013 362.344 236.153 358.214 241.923C355.314 245.973 349.954 250.803 345.404 249.003C342.764 247.963 341.694 245.043 343.434 239.543C345.934 231.623 356.454 222.973 360.844 227.703H360.854ZM352.604 221.983C354.124 222.193 355.534 222.923 356.584 224.033C356.774 224.203 357.404 224.843 356.234 224.843C349.654 225.613 341.284 235.473 340.834 243.253C340.664 246.183 341.274 246.613 340.384 246.293C334.204 244.123 335.934 235.223 340.884 228.783C342.564 226.643 344.594 224.793 346.884 223.313C348.594 222.273 350.604 221.803 352.604 221.983ZM346.444 220.913C347.684 221.723 345.274 220.963 340.624 226.193C331.754 236.153 336.384 240.853 333.144 239.433C331.804 238.843 329.244 237.393 323.644 234.483C314.624 229.803 314.714 229.843 314.844 228.833C315.594 224.783 317.264 220.953 319.714 217.653C321.814 214.603 324.474 211.983 327.554 209.923C328.404 209.333 328.914 208.913 330.004 209.663C331.644 210.813 335.604 213.873 346.434 220.913H346.454H346.444ZM327.854 201.793C331.264 204.063 334.274 207.293 332.964 206.683C329.504 205.063 325.354 208.703 322.234 211.613C317.804 215.743 314.614 221.033 313.034 226.873C312.644 228.053 312.494 229.303 312.594 230.543C312.694 231.783 313.034 232.993 313.604 234.103C313.844 234.483 314.404 235.423 313.164 235.043C310.564 234.273 308.134 233.013 306.014 231.323C303.874 229.543 303.414 225.743 303.444 223.053C303.604 209.673 319.284 196.103 327.834 201.783H327.844L327.854 201.793ZM191.414 168.933C191.164 169.293 190.724 169.233 190.314 169.073C183.074 166.343 174.284 162.963 172.934 152.393C170.954 136.853 182.094 119.803 197.794 114.773C202.024 113.143 206.694 113.023 210.994 114.443C215.364 116.623 219.224 119.723 222.294 123.523C220.454 122.823 218.464 122.593 216.504 122.863C199.544 124.913 180.594 158.303 190.624 168.033C190.974 168.373 191.494 168.803 191.404 168.943L191.414 168.933ZM191.164 160.233C190.924 160.133 190.724 159.943 190.604 159.703C190.484 159.463 190.464 159.193 190.534 158.933C194.074 138.223 211.364 125.263 215.864 125.423C216.684 125.373 216.614 125.303 223.484 130.113C251.334 149.603 291.184 176.263 318.444 198.903C319.484 199.763 312.324 199.863 305.514 209.943C299.254 219.213 302.394 226.283 300.974 225.533C247.154 197.213 196.504 162.983 191.154 160.233H191.164ZM257.054 223.373C258.374 221.943 265.054 223.153 265.854 223.243C266.214 223.263 266.574 223.363 266.884 223.533C267.204 223.713 267.474 223.953 267.684 224.253C269.574 226.533 272.174 228.103 275.064 228.733C277.954 229.353 280.974 228.983 283.624 227.693C284.064 227.383 284.604 227.253 285.144 227.323C288.274 228.283 291.284 229.593 294.114 231.243C302.924 236.773 279.304 234.873 263.074 228.183C261.384 227.473 255.804 224.723 257.054 223.373ZM290.194 239.823C271.384 239.883 255.404 232.583 255.504 230.533C255.654 227.613 255.584 225.613 256.474 226.433C262.974 232.473 288.054 237.533 295.734 235.873C296.134 235.783 296.214 235.913 296.174 236.203C296.004 237.163 295.764 238.113 295.464 239.043C294.904 240.083 293.774 239.803 290.194 239.813V239.823Z" fill="#0D0D0D"/>
<path d="M346.314 244.913C347.684 248.213 353.484 244.903 356.644 239.673C358.084 237.293 359.494 234.723 359.034 232.353C358.484 229.493 355.204 229.813 353.054 231.423C349.094 234.393 344.974 240.703 346.314 244.913Z" fill="#0D0D0D"/>
<path d="M82.6239 237.093C84.9739 237.093 84.8739 237.223 84.8239 236.433C84.8239 236.433 84.4539 232.753 84.1239 228.243C84.0239 226.843 87.0339 225.473 87.3339 233.773C87.4639 237.513 87.6639 237.293 88.3239 237.313C96.6439 237.493 96.7539 237.073 97.0539 237.793C97.3239 238.453 93.7239 239.463 93.0339 239.593C87.9939 240.533 87.9739 239.593 87.9739 240.993C88.0339 250.323 88.0139 248.453 88.2439 250.373C88.2939 250.743 87.8839 250.733 87.7439 250.623C86.2739 249.493 85.5439 244.163 85.4839 242.883C85.3439 239.973 85.1239 240.143 84.5439 240.103C80.4139 239.783 79.4139 239.873 79.3439 238.933C79.2039 236.993 80.6839 237.113 82.6339 237.113L82.6239 237.093Z" fill="#079046"/>
<path d="M244.364 40.7431C244.364 45.3631 244.164 45.2731 244.964 45.2731C248.134 45.2731 248.924 45.3731 250.104 45.4431C251.284 45.5131 251.174 46.3431 250.604 46.6931C249.034 47.6431 247.224 48.1431 245.384 48.1231C243.994 48.2531 244.644 47.7931 243.944 54.2331C243.544 57.9231 243.204 59.3831 242.494 58.8731C241.184 57.9331 241.424 51.6831 241.214 48.7731C241.164 48.0731 241.314 48.0031 237.804 48.0131C237.124 48.0131 236.204 48.0931 236.004 47.2631C235.694 45.9931 235.914 45.3731 238.424 45.2831C241.324 45.1731 241.424 45.3831 241.454 44.7331C241.514 41.9531 241.724 39.1731 242.084 36.4131C242.084 36.1131 242.204 35.8231 242.414 35.6031C242.624 35.3931 242.914 35.2731 243.214 35.2731C243.514 35.2731 243.804 35.3931 244.014 35.6031C244.224 35.8131 244.344 36.1031 244.344 36.4131C244.424 37.8531 244.424 39.2931 244.364 40.7331V40.7431Z" fill="#079046"/>
<path d="M359.904 117.003C360.484 117.183 359.324 118.243 358.364 118.663C357.284 119.003 356.174 119.213 355.044 119.303C354.784 119.343 354.294 119.303 354.214 119.703C353.914 121.203 353.784 123.363 353.194 126.963C352.754 129.653 352.294 129.843 351.874 129.913C351.554 129.963 350.994 129.543 351.034 127.093C351.084 124.303 351.234 120.533 351.314 120.093C351.414 119.533 350.324 119.663 347.494 119.973C347.214 120.003 346.924 119.933 346.694 119.773C346.464 119.613 346.284 119.373 346.204 119.103C346.124 118.833 346.154 118.533 346.274 118.273C346.394 118.013 346.604 117.803 346.854 117.683C348.124 117.043 349.514 116.653 350.924 116.523C351.174 116.463 351.474 116.633 351.614 116.233C352.124 114.803 351.984 111.233 352.454 109.413C352.954 107.473 354.364 108.043 354.394 109.523C354.634 119.933 353.124 114.903 359.894 117.013L359.904 117.003Z" fill="#079046"/>
</svg>
