<svg width="49" height="48" viewBox="0 0 49 48" fill="none" xmlns="http://www.w3.org/2000/svg">
<path d="M22.1 28.8H17.3C17.3 16.872 26.972 7.2 38.9 7.2V12C29.612 12 22.1 19.512 22.1 28.8ZM38.9 21.6V16.8C32.276 16.8 26.9 22.176 26.9 28.8H31.7C31.7 24.816 34.916 21.6 38.9 21.6ZM12.5 4.8C12.5 2.136 10.364 0 7.7 0C5.036 0 2.9 2.136 2.9 4.8C2.9 7.464 5.036 9.6 7.7 9.6C10.364 9.6 12.5 7.464 12.5 4.8ZM23.18 6H18.38C17.804 9.408 14.876 12 11.3 12H0.5V21.6H14.9V16.176C19.364 14.76 22.7 10.824 23.18 6ZM41.3 36C43.964 36 46.1 33.864 46.1 31.2C46.1 28.536 43.964 26.4 41.3 26.4C38.636 26.4 36.5 28.536 36.5 31.2C36.5 33.864 38.636 36 41.3 36ZM37.7 38.4C34.124 38.4 31.196 35.808 30.62 32.4H25.82C26.3 37.224 29.636 41.16 34.1 42.576V48H48.5V38.4H37.7Z" fill="#0D0D0D"/>
</svg>
