<svg width="201" height="200" viewBox="0 0 201 200" fill="none" xmlns="http://www.w3.org/2000/svg">
<g clip-path="url(#clip0_129_142)">
<g filter="url(#filter0_d_129_142)">
<path fill-rule="evenodd" clip-rule="evenodd" d="M95.7 32.0002C96.06 32.1102 97.59 32.8002 97.84 32.8002C97.939 32.7848 98.0292 32.7345 98.0944 32.6584C98.1596 32.5823 98.1954 32.4854 98.1954 32.3852C98.1954 32.285 98.1596 32.1881 98.0944 32.112C98.0292 32.0359 97.939 31.9856 97.84 31.9702C97.72 31.9702 97.24 31.7402 96.92 31.6102C95.7 31.1002 95.57 31.0502 95.34 31.3102C95.2859 31.3739 95.252 31.4523 95.2427 31.5353C95.2334 31.6184 95.2491 31.7023 95.2877 31.7764C95.3264 31.8505 95.3863 31.9114 95.4597 31.9512C95.5332 31.9911 95.6168 32.0082 95.7 32.0002ZM106.5 41.0002C105.834 41.64 105.009 42.089 104.11 42.3002C104.11 42.3002 103.19 42.4602 103.8 42.7202C104.241 42.9211 104.741 42.9462 105.2 42.7902C106.33 42.4602 106.93 41.5202 106.83 41.0102C106.66 40.7502 106.74 40.7502 106.5 41.0002ZM118.11 173.39C118.412 174.331 118.821 175.234 119.33 176.08C121.97 180.98 124.21 184.19 124.1 184.19H124.44C124.5 183.12 118.83 173.28 118.11 173.39ZM125.86 171.42C125.59 171.42 125.29 171.01 126.18 172.84C127.41 175.35 130.08 180.16 131.93 182.24C133.42 183.38 127.42 173.54 125.86 171.42ZM148.64 176.92C148.31 177.01 148.28 176.92 148.4 177.24C149.525 180.475 151.008 183.574 152.82 186.48C153.65 187.48 151.09 180.84 148.64 176.92ZM166.32 171.92C165.91 171.83 165.82 171.69 166.82 173.92C167.82 176.15 170.7 181.3 171.11 181.29C171.19 181.29 171.23 181.24 171.26 181.15C169.926 177.916 168.271 174.824 166.32 171.92ZM154.97 36.9002C155.07 36.9002 187.17 35.4302 187.65 35.1902C188.19 34.7902 188.06 35.3902 188.21 21.9902C188.21 19.2902 188.36 9.67022 188.28 9.23022C188.06 8.52022 187.35 8.53022 186.46 8.50022C179.86 8.31022 155.88 9.90022 150.6 10.1202C150.34 10.1202 150.06 10.1202 150.06 10.4902C149.95 10.4902 152.06 36.3602 152.06 36.4902C152.33 37.2002 152.85 37.0002 154.97 36.9002ZM186.72 10.1002C186.72 11.2102 186.4 33.6802 186.39 33.7002C186.38 33.7202 153.46 35.4502 153.39 35.5502C153.39 35.3402 151.45 17.1202 150.77 10.7902C155.61 10.7702 182.35 9.87022 186.72 10.1002Z" fill="#0D0D0D"/>
<path fill-rule="evenodd" clip-rule="evenodd" d="M168.93 24.0002C169.18 24.3102 170 23.5702 171.36 22.6402C173.6 21.1102 177.63 18.3002 179.8 16.6402C181.31 14.1002 177.17 17.1002 176.7 17.4602C174.8 18.9402 169.7 23.0202 169.11 23.5302C168.11 22.6102 158.82 16.2602 158.72 16.1602C157.81 15.9802 157.56 16.5002 158.03 17.1602C160.83 19.0702 168.77 23.7802 168.93 24.0002ZM178.19 61.0002C168.77 61.0002 162.19 65.9302 161.24 76.1602C160.47 84.4602 164.65 89.8602 170.02 92.0702C174.81 94.0702 180.31 94.5602 185.3 92.3502C188.228 91.0252 190.814 89.0481 192.86 86.5702C199.5 78.0902 193.26 61.0002 178.19 61.0002ZM187.08 87.5702C178.89 93.8702 167.59 89.7402 165.2 82.2402C163.73 77.6402 165.08 70.4102 168.6 67.1602C172.12 63.9102 179.03 62.8901 183.53 64.5901C190.87 67.3601 196.76 80.1202 187.08 87.5702ZM55.09 28.0002C55.02 26.3302 54.95 24.8702 54.89 23.6602C55.3899 23.8189 55.834 24.1173 56.1699 24.5202C56.9699 26.1202 58.23 25.3402 58.23 24.2502C57.98 22.9002 56.5 21.8702 54.81 21.5802C54.76 20.0402 54.81 20.4102 54.39 20.1702C53.9 20.3902 54.01 20.3002 53.9 21.5102C52.9524 21.4706 52.0181 21.7426 51.2397 22.2843C50.4614 22.8261 49.8819 23.6079 49.59 24.5102C48.59 27.4002 51.1 28.2202 53.48 29.1502C53.48 30.8102 53.39 32.7602 53.38 35.0702C52.8835 35.1348 52.3788 35.0703 51.9146 34.8829C51.4503 34.6954 51.0423 34.3914 50.73 34.0002C49.66 32.1602 49.55 32.7502 49.73 33.7402C50.09 35.3702 51.67 36.1502 53.39 36.2002C53.39 37.8802 53.2 38.7602 54.84 38.6202C55.5 38.1602 55.4999 38.2602 55.4199 35.9502C57.0699 35.4702 58.42 34.3502 58.57 32.7102C58.72 30.2602 56.91 28.9102 55.09 28.0002ZM53.5 27.3402C52.6622 27.0933 51.9037 26.6313 51.3 26.0002C51.09 25.5502 51.55 24.7302 51.86 24.3602C52.091 24.0857 52.3809 23.8668 52.708 23.7197C53.0352 23.5725 53.3913 23.5009 53.75 23.5102C53.68 24.4702 53.61 25.7302 53.5 27.3402ZM55.31 34.6902C55.26 32.9902 55.2 31.4002 55.14 29.9302C55.9338 30.2716 56.5695 30.9002 56.9199 31.6902C57.4999 33.1402 56.7499 34.0902 55.3499 34.6902H55.31ZM107.84 32.5502C108.615 32.1277 109.447 31.8179 110.31 31.6302C110.417 31.6076 110.511 31.5433 110.571 31.4514C110.631 31.3595 110.652 31.2476 110.63 31.1402C110.607 31.0327 110.543 30.9387 110.451 30.8787C110.359 30.8187 110.247 30.7976 110.14 30.8202C110.14 30.8202 107.01 31.5902 107.14 32.3302C107.155 32.4034 107.19 32.4713 107.24 32.5268C107.29 32.5823 107.354 32.6234 107.425 32.6458C107.497 32.6682 107.573 32.6712 107.646 32.6544C107.719 32.6375 107.786 32.6016 107.84 32.5502Z" fill="#0D0D0D"/>
<path fill-rule="evenodd" clip-rule="evenodd" d="M179.73 68.8699C178.64 68.2999 179.95 71.1899 179.01 77.7099C170.01 77.7099 171.5 77.2799 170.63 77.7099C169.79 78.6399 170.27 79.5699 171.51 79.6299C172.35 79.6299 179.27 79.6299 180.01 79.3199C180.75 79.0099 180.67 77.9899 180.69 77.1199C180.668 74.7763 180.48 72.4372 180.13 70.1199C180.01 69.3199 179.98 69.0499 179.73 68.8699ZM177.6 168.76C176.579 168.134 175.488 167.631 174.35 167.26C172.356 166.557 170.271 166.146 168.16 166.04C157.76 165.63 154.04 173.39 143.68 171.68C137.68 170.68 131.98 167.31 128.38 166.37C122.84 164.91 118.09 166.99 112.93 169.62C110.61 170.8 106.26 174.52 106.01 173.62C104.92 171.68 104.66 161.11 104.8 147.1C110.27 147.6 121.43 145.88 130.27 141.53C134.649 139.316 138.226 135.788 140.5 131.44C141.284 130.067 141.905 128.607 142.35 127.09C145.85 114.9 145.07 109.55 145.26 103.9C152.06 95.9599 152.26 72.4799 140.85 57.4599C138.28 53.9999 131.68 49.8099 129.5 48.9999C129.813 48.7907 130.069 48.5062 130.243 48.1725C130.418 47.8388 130.506 47.4665 130.5 47.0899C130.61 45.3499 130.26 44.8299 131.89 43.8899C132.519 43.5941 133.083 43.176 133.55 42.6599C134.013 41.9832 134.389 41.2507 134.67 40.4799C135.95 36.3299 131.85 36.3899 132.95 29.5599C133.121 28.5965 133.168 27.6152 133.09 26.6399C133.057 25.8055 132.76 25.0032 132.24 24.3499C131.644 23.6731 131.137 22.9239 130.73 22.1199C130 19.7499 130.26 17.6599 129.27 15.6699C128.588 14.359 127.763 13.1281 126.81 11.9999C124.28 9.09989 121.36 9.78989 117.93 8.18989C116.733 7.55623 115.493 7.00819 114.22 6.54989C111.482 5.94053 108.659 5.81866 105.88 6.18989C102.73 6.70989 97.4996 9.69989 94.4996 13.6899C93.859 14.5186 93.2871 15.3981 92.7896 16.3199C91.3858 19.1254 90.4373 22.1364 89.9796 25.2399C89.7596 26.8999 90.3096 26.7099 89.7496 28.3499C88.6496 28.4599 88.6196 28.5099 88.5796 28.7199C88.7042 29.2336 88.8819 29.7329 89.1096 30.2099C88.7896 31.1599 88.4696 32.1099 88.3796 32.4399C88.0096 34.4399 89.1596 36.4399 88.1996 38.0599C87.4096 39.3799 85.3396 40.0599 84.9096 41.7199C84.3296 43.9099 85.5296 45.9999 87.1096 47.6599C87.2484 47.8445 87.4304 47.9921 87.6396 48.0899C81.8396 50.2899 78.3396 54.8799 78.3696 55.1699L72.8496 54.4499C72.4996 54.4499 72.9496 53.9499 72.4196 62.3399C72.2326 62.1649 71.9857 62.0682 71.7296 62.0699C69.9196 62.0699 69.2996 66.1299 69.1396 67.9299C68.8996 70.5299 68.8896 72.9299 71.0496 74.4499C71.2213 74.5699 71.4057 74.6706 71.5996 74.7499C71.3196 78.8399 71.0196 83.4199 70.7096 88.3099C66.3871 87.241 61.9522 86.6937 57.4996 86.6799C53.6265 86.6163 49.7772 87.2952 46.1596 88.6799C37.1596 91.8599 30.3196 97.0699 24.8996 106.82C24.8396 106.92 21.6496 112.82 20.7396 115.02C19.4096 118.2 18.9196 121.54 22.2696 122.33C23.201 122.521 24.1672 122.448 25.0596 122.12C23.7496 128 19.8596 150.87 19.8496 151C18.2696 150.47 7.40958 147.15 5.89958 147.79C5.73891 147.86 5.61174 147.99 5.54465 148.153C5.47756 148.315 5.47574 148.496 5.53958 148.66C6.28958 151 20.0296 159.52 23.2196 161C24.6196 161.64 24.5996 161.35 25.0696 160.55C29.1396 153.69 35.4696 137.79 39.8696 130.69C38.5396 145.33 43.5896 165.69 47.8696 179.8C45.8696 181.04 39.2696 184.21 37.0396 186.44C36.9496 186.54 33.8796 188.74 35.9196 189.66C36.5896 190.03 39.1596 189.9 42.1996 189.58C43.4996 189.43 55.8796 188 56.4996 187C56.9796 186.37 56.3196 183.28 56.1296 182.26C55.5668 178.736 55.3358 175.167 55.4396 171.6C55.7296 158.72 61.4396 144.07 65.6596 138.15C66.839 139.466 67.7132 141.027 68.2196 142.72C67.9396 158.17 68.2996 171.34 69.9196 177.59C70.9614 182.191 73.7512 186.207 77.6996 188.79C88.1296 195.69 107.15 194.86 118.7 191.44C123.35 190.06 129.05 187.53 134.24 187.99C138.19 188.33 140.79 190.32 147.53 191.56C157.26 193.34 160.53 190 166.08 187.56C172.08 184.95 176.29 183.63 182.46 185.89C184.597 186.778 186.649 187.859 188.59 189.12C189.66 189.86 189.59 190.05 189.99 190.03C190.068 190.022 190.142 189.989 190.201 189.937C190.26 189.885 190.301 189.816 190.32 189.74C190.32 189.46 191.15 191 177.6 168.76ZM39.9296 130C36.2396 135.58 30.8596 147.44 27.1396 155C24.9609 153.769 22.7742 152.552 20.5796 151.35C20.8996 149.86 25.3196 123 25.4996 122C28.8096 120.76 32.2396 117.71 37.1196 121.16C38.4296 122.09 39.7296 123.52 41.1196 124.74C40.6981 125.57 40.4208 126.466 40.2996 127.39C40.1496 128.21 40.0196 129.07 39.9196 129.96L39.9296 130ZM54.9296 178.9C52.8352 178.985 50.753 179.263 48.7096 179.73C45.2096 167.34 37.7596 142.66 40.7896 127.24C40.9496 126.4 41.0896 125.87 41.1896 125.52C41.4196 124.81 41.4196 124.97 41.8296 125.28C46.1896 128.61 48.7396 126.4 52.6996 127.82C53.8669 128.254 54.9573 128.872 55.9296 129.65C57.1835 130.772 58.1155 132.208 58.6296 133.81C58.8531 134.48 59.2708 135.068 59.8296 135.5C62.0196 137.42 63.7296 136.55 65.4796 137.97C65.3196 138 52.8696 156.25 54.8796 178.87L54.9296 178.9ZM132.69 139.27C128.87 141.99 119.6 145.7 109.15 146.58C106.73 146.79 105.36 146.76 104.85 146.87C104.85 145.33 104.85 143.75 104.92 142.14C106.17 142.04 109.33 141.54 109.8 141.46C115.38 140.46 123.64 138.46 127.8 134.59C128.8 135.47 128.8 135.53 129.07 135.46C130.338 134.351 131.463 133.088 132.42 131.7C135.84 126.88 138.24 120.83 138.74 111.92C138.74 111.84 138.85 109.55 138.83 108.75C141.182 107.771 143.277 106.262 144.95 104.34C144.27 116.85 143.5 131.49 132.64 139.24L132.69 139.27ZM104.69 74.9599C103.507 74.5423 102.368 74.0097 101.29 73.3699C101.18 73.2689 101.109 73.1327 101.088 72.9847C101.068 72.8368 101.101 72.6865 101.18 72.5599C101.95 71.7999 103.83 72.3499 104.83 72.7699C105 72.8399 105.27 72.9599 105.41 72.6199C105.55 72.2799 105.41 72.2999 104.41 71.6799C104.09 71.4799 103.29 70.9699 102.74 70.5599C102.38 70.3456 102.097 70.0238 101.93 69.6399C101.86 69.3099 102.17 68.8399 102.93 68.8699C104.333 69.1381 105.645 69.7612 106.74 70.6799C106.774 70.7184 106.817 70.7493 106.864 70.7704C106.911 70.7915 106.963 70.8024 107.015 70.8024C107.066 70.8024 107.118 70.7915 107.165 70.7704C107.212 70.7493 107.255 70.7184 107.29 70.6799C107.54 70.3299 107.47 68.2399 108.19 66.7999C108.33 66.5899 108.44 66.3299 108.66 66.3199C109.56 66.3199 109.6 68.6399 109.58 69.4899C109.58 72.0799 109.09 71.8299 109.76 72.5599C110.545 73.3131 111.406 73.9833 112.33 74.5599C112.02 74.9699 112.87 73.8899 108.13 79.7399C107.59 79.1999 106.88 77.4299 106.34 77.6099C104.85 78.3599 100.64 76.9499 100.8 75.7299C100.91 74.8599 102.8 75.1999 103.74 75.3399C104.68 75.4799 104.59 75.4899 104.74 75.3399C104.764 75.3097 104.783 75.2748 104.793 75.2372C104.803 75.1996 104.806 75.1602 104.8 75.1216C104.795 75.083 104.781 75.046 104.76 75.013C104.739 74.98 104.712 74.9517 104.68 74.9299L104.69 74.9599ZM100.13 39.5399C100.828 39.909 101.586 40.1495 102.37 40.2499C102.58 40.0499 102.57 40.1299 102.37 39.9199C101.68 39.692 101.032 39.3544 100.45 38.9199C100.54 38.3399 101.96 34.5999 102.3 33.4599C102.51 32.7599 102.57 32.5799 102.74 31.9399C103.252 31.9101 103.767 31.9101 104.28 31.9399C104.287 32.9405 104.442 33.9346 104.74 34.8899C105.6 36.3199 109.5 36.4099 111.16 36.3399C112.82 36.2699 113.49 36.1899 114.16 35.2399C113.37 38.1787 112.92 41.1985 112.82 44.2399C112.345 45.1212 111.687 45.8906 110.89 46.4961C110.093 47.1016 109.176 47.5291 108.2 47.7499C103.27 48.5299 100.67 47.4499 97.8696 43.5499C96.4556 41.5722 95.5459 39.2791 95.2196 36.8699C97.0214 36.9582 98.8214 36.6616 100.5 35.9999C99.4296 38.8699 99.5596 39.1899 100.13 39.5399ZM105.13 28.8199C106.33 28.5899 112.61 28.8799 116.03 28.9499C115.64 29.9499 115.12 31.5999 114.6 33.4899C114.311 34.2745 113.892 35.0048 113.36 35.6499C112.62 36.0699 107.85 35.9799 105.99 34.9699C105.1 34.4999 105.1 34.4299 105.1 28.8199H105.13ZM109.95 47.9999L109.86 48.1299C108.972 49.6133 107.969 51.0243 106.86 52.3499C106.49 51.7999 104.86 49.3499 104.47 48.6499C105.733 48.7749 107.007 48.7346 108.26 48.5299C108.847 48.4427 109.417 48.2638 109.95 47.9999ZM97.9496 49.9199C98.1895 52.6228 98.6646 55.2996 99.3696 57.9199C98.0944 57.6038 96.8023 57.3601 95.4996 57.1899C95.9996 55.8899 97.7696 50.3199 97.9296 49.8999L97.9496 49.9199ZM98.6296 48.3899C99.3322 48.0967 100.002 47.7315 100.63 47.2999C101.647 47.9923 102.811 48.4406 104.03 48.6099C104.603 50.0544 105.312 51.4407 106.15 52.7499C100.76 57.8299 100.52 58.1499 101.04 58.0699C102.04 57.8599 105.85 54.1699 106.55 53.4899C107.4 54.3499 111.01 59.0299 111.7 59.8099C112.05 60.0899 112.26 59.7399 112.6 59.4199C114.03 58.0799 114.71 57.4899 115.07 57.2099C106.72 80.6399 111.54 69.8999 109.74 66.4299C109.639 66.1532 109.439 65.9244 109.177 65.7891C108.916 65.6538 108.613 65.622 108.33 65.6999C108.086 65.8281 107.871 66.0054 107.699 66.2205C107.527 66.4356 107.401 66.6839 107.33 66.9499C107.48 62.7299 107.56 59.9499 107.51 59.1599C107.51 58.9599 108.13 59.0299 99.6896 57.9399C99.6996 57.8199 98.6296 48.4699 98.6096 48.3699L98.6296 48.3899ZM107.95 80.0699C107.58 80.5699 107.25 81.0699 106.95 81.4299C106.95 80.4899 107.05 79.6499 107.1 78.9299C107.309 79.3489 107.59 79.728 107.93 80.0499L107.95 80.0699ZM106.83 84.2499C112.35 100.4 120.04 114.25 136.39 109.58C137.1 109.38 137.79 109.15 138.48 108.88C138.48 118.11 135.69 128.48 128.94 134.78C121.775 128.082 113.952 122.125 105.59 117C105.81 106.59 106.36 92.8499 106.81 84.2299L106.83 84.2499ZM121.83 49.6099C123.132 49.7874 124.414 50.0888 125.66 50.5099C126.136 50.6932 126.663 50.6932 127.14 50.5099C127.705 50.3017 128.238 50.012 128.72 49.6499C130.47 49.8099 136.41 53.8699 139.02 56.4399C142.02 59.4399 145.43 65.5899 147.44 72.6299C150.14 82.4699 150.81 98.7599 142.34 105.63C137.65 109.43 130.14 110.63 125.17 108.82C115.36 105.35 110.52 92.5299 107.17 82.6899C107.46 81.5299 113.29 74.5299 114.01 73.6899C120.87 73.5099 134.07 83.4599 135.76 87.1899L136.06 87.0499C134.56 83.7099 124.37 75.4599 117 73.4799C117.23 71.5399 117.63 66.0199 117.63 65.9199C119.97 65.7499 122.53 66.0899 122.63 65.4299C122.69 64.2599 120.63 52.0999 120.21 49.9099C120.707 49.6909 121.246 49.5817 121.79 49.5899L121.83 49.6099ZM118.36 50.6999C118.88 50.5159 119.391 50.3057 119.89 50.0699C119.89 50.1699 121.74 64.9399 121.75 65.0699C116.54 65.2699 116.85 64.7299 116.8 66.7299C116.8 66.8199 116.66 72.5899 116.64 73.4499C116.15 73.3299 114.01 72.9099 113.64 73.1799C113.48 73.3399 113.15 73.7099 112.71 74.1799C112.27 73.8499 111.3 73.1799 110.64 72.5699C111.36 70.9999 109.59 75.0699 118.32 50.6799L118.36 50.6999ZM115.36 56.6199C114.212 57.3381 113.119 58.1403 112.09 59.0199C111.25 57.8799 108.64 54.4499 107.38 53.0999C108.532 51.8662 109.444 50.4283 110.07 48.8599C110.224 48.5454 110.325 48.2075 110.37 47.8599C111.351 47.3102 112.208 46.5648 112.89 45.6699C113.14 48.7999 114.34 51.1199 117.41 50.9199C116.91 52.0599 116.26 53.8599 115.29 56.5999L115.36 56.6199ZM94.3596 24.6199C94.9896 25.6899 94.9596 25.8699 95.5696 26.1899C96.2627 26.5152 97.0248 26.6662 97.7896 26.6299C99.1896 26.4499 100.09 25.0799 101.42 24.9199C101.68 24.9199 104.69 26.9799 106.42 26.4299C108.15 25.8799 109.04 24.5399 110.29 25.1499C111.54 25.7599 112.1 27.4399 114.8 26.5499C115.649 26.1804 116.457 25.7212 117.21 25.1799C117.021 26.2294 116.74 27.2601 116.37 28.2599C114.03 28.0999 107.37 27.8599 105.52 27.9899C104.63 28.0499 104.18 27.9899 104.25 30.2599C103.459 30.1959 102.664 30.2228 101.88 30.3399C101.89 29.919 101.87 29.4979 101.82 29.0799C101.7 28.2599 101.49 28.1699 100.98 28.0799C100.47 27.9899 97.2996 28.0799 94.2296 28.1299C94.0602 26.9515 94.0737 25.7541 94.2696 24.5799L94.3596 24.6199ZM101 28.9399C101.18 30.9633 101.086 33.0018 100.72 34.9999C99.5996 36.3699 93.4596 36.8599 92.6396 36.1399C91.6996 34.8799 89.9596 30.3599 89.5396 29.1399C91.3696 29.0799 100.91 28.6199 100.91 28.8999L101 28.9399ZM88.0096 48.2399C91.0344 49.2627 94.2715 49.49 97.4096 48.8999C96.7596 50.6899 95.5796 54.8999 94.6796 57.0199C94.6296 57.1599 79.5296 55.1399 79.3296 55.0199C86.3196 47.6399 86.7996 49.2699 88.0096 48.2399ZM71.1596 74.1799C69.3696 72.8899 69.3396 70.6999 69.5796 68.4999C69.655 67.4207 69.8393 66.352 70.1296 65.3099C70.3082 64.4693 70.6739 63.6797 71.1996 62.9999C71.4596 62.7099 71.8496 62.5899 72.0396 62.8799C72.0396 62.9799 72.2896 62.9499 72.3096 64.1399C72.3096 66.5399 71.6896 67.3899 72.3096 67.4799C72.4196 67.4799 76.7696 65.7199 77.5696 67.1399C77.9296 67.9199 76.8796 68.2399 75.7196 68.6199C73.5596 69.3299 73.2896 69.1699 73.3396 69.6199C73.3896 70.0699 73.9396 69.6199 75.8496 69.8399C76.6596 69.9299 77.9196 70.3899 77.4696 71.0799C77.2296 71.5699 75.1496 71.7699 74.4696 71.8499C73.4696 71.9699 73.2196 71.8999 73.1996 72.2699C73.1796 72.6399 73.6596 72.5999 74.5796 72.6999C77.0296 72.9699 77.0196 73.4899 77.0596 73.5899C77.2996 74.9999 72.6696 75.2799 71.1596 74.1799ZM108.41 192.64C103.076 193.405 97.6638 193.446 92.3196 192.76C81.6396 191.53 73.4096 187.66 70.6196 177.38C66.3396 161.65 70.7696 95.6799 72.0296 74.8999C73.6696 75.4299 76.1996 75.3999 77.2196 74.5199C77.3987 74.3839 77.5267 74.1914 77.5829 73.9737C77.6392 73.756 77.6204 73.5256 77.5296 73.3199C77.3778 73.0846 77.1784 72.8838 76.9441 72.7305C76.7098 72.5772 76.4459 72.4748 76.1696 72.4299C75.4996 72.2499 75.9296 72.4299 77.1696 72.0999C78.7096 71.6799 78.7896 69.8199 76.6496 69.2999C76.0996 69.1699 76.0596 69.2999 76.4196 69.1299C77.2696 68.8299 78.3496 68.4499 78.4196 67.5399C78.4351 67.2993 78.3869 67.0589 78.2798 66.843C78.1727 66.627 78.0105 66.4431 77.8096 66.3099C76.6496 65.4499 74.1696 66.1199 72.8096 66.5899C72.8096 66.1799 73.2496 63.9999 72.8096 62.8199C73.0496 58.5499 73.1596 55.6999 73.0896 54.8199C108.49 59.6499 107.3 59.4099 107.09 59.4099C107.09 61.6899 106.93 65.2699 106.75 69.7999C105.55 68.9999 103.28 67.6899 101.99 68.3399C101.766 68.4456 101.576 68.61 101.439 68.8156C101.303 69.0212 101.224 69.2601 101.213 69.5068C101.202 69.7535 101.258 69.9986 101.375 70.2159C101.493 70.4331 101.667 70.6142 101.88 70.7399C102.88 71.6599 103.25 71.5499 102.67 71.5099C100.94 71.3899 100.26 72.3299 100.51 73.2199C100.609 73.4513 100.756 73.6595 100.94 73.8316C101.124 74.0037 101.342 74.1359 101.58 74.2199C102.9 74.8899 102.7 74.5199 101.58 74.6599C100.18 74.8299 99.7796 76.1099 101.29 77.0699C102.051 77.5369 102.898 77.8465 103.781 77.9804C104.663 78.1144 105.564 78.07 106.43 77.8499C106.43 77.9499 105.08 98.3799 104.59 125.64C103.85 149.83 103.59 171.64 105.43 174.14C106.27 180.31 112.43 189.14 119.27 190.43C115.725 191.5 112.09 192.24 108.41 192.64ZM188.12 187.9C184 185.4 180.55 183.78 175.46 183.9C165.04 184.26 161.16 192.9 148.24 190.79C138.65 189.25 136.84 185.67 127.92 187.68C124.98 188.34 122.84 189.26 119.98 190.17C113.98 189.1 107.44 180.65 105.89 174.44C105.89 174.44 114.62 169.52 117.03 168.44C127.11 164.15 129.48 168.24 139.35 171.34C147.85 174.02 150.64 172.55 158.03 169.19C162.26 167.26 165.54 166.25 170.2 166.98C172.557 167.337 174.838 168.084 176.95 169.19C189.43 189.73 188.65 188.23 188.12 187.9ZM41.4996 22.8899C39.5796 27.0599 39.1896 33.3599 41.3396 37.0999C42.1898 38.5371 43.2826 39.816 44.5696 40.8799C46.5316 42.3019 48.7791 43.2807 51.1567 43.7486C53.5342 44.2165 55.985 44.1623 58.3396 43.5899C61.3232 42.7394 64.0106 41.0737 66.0996 38.7799C67.3199 37.5059 68.2263 35.965 68.7471 34.2794C69.2679 32.5939 69.3885 30.8102 69.0996 29.0699C68.2796 22.6699 63.1696 15.8499 54.3596 15.8199C48.9996 15.7999 43.8196 17.9999 41.4996 22.8899ZM64.7996 39.1299C60.5996 42.9299 55.9396 44.3199 50.1896 42.7799C48.78 42.4468 47.4306 41.8969 46.1896 41.1499C44.1517 39.8943 42.5304 38.0643 41.5296 35.8899C39.4496 31.1999 40.6496 23.8899 43.9296 20.2799C51.5796 11.8599 67.7896 16.6399 68.6096 29.1199C68.9496 34.0599 67.2796 36.8999 64.7996 39.1299Z" fill="#0D0D0D"/>
<path fill-rule="evenodd" clip-rule="evenodd" d="M43.4199 16.6999C40.8595 18.6386 39.0389 21.3943 38.2599 24.5099C35.4299 33.7499 39.0499 41.2399 45.5099 44.3199C50.0888 46.5386 55.3396 46.9354 60.1999 45.4299C64.0299 44.0799 68.3399 40.8799 70.1999 37.4299C73.1199 31.9399 72.3699 23.1099 65.6999 17.1199C60.9199 12.8899 51.0299 11.2399 43.4199 16.6999ZM66.5599 40.6199C61.7099 44.9599 56.1299 46.6199 49.4399 44.8399C47.1154 44.288 44.9429 43.2256 43.0799 41.7299C35.0799 34.9999 35.8999 16.7999 51.0799 14.3199C65.0799 12.0099 71.3899 23.4699 71.0799 31.5599C71.0119 33.3042 70.5738 35.0141 69.7945 36.5761C69.0152 38.1381 67.9126 39.5166 66.5599 40.6199Z" fill="#0D0D0D"/>
</g>
</g>
<defs>
<filter id="filter0_d_129_142" x="-2.50702" y="-2.02002" width="214.008" height="212.035" filterUnits="userSpaceOnUse" color-interpolation-filters="sRGB">
<feFlood flood-opacity="0" result="BackgroundImageFix"/>
<feColorMatrix in="SourceAlpha" type="matrix" values="0 0 0 0 0 0 0 0 0 0 0 0 0 0 0 0 0 0 127 0" result="hardAlpha"/>
<feOffset dx="4" dy="4"/>
<feGaussianBlur stdDeviation="6"/>
<feComposite in2="hardAlpha" operator="out"/>
<feColorMatrix type="matrix" values="0 0 0 0 0.027451 0 0 0 0 0.564706 0 0 0 0 0.27451 0 0 0 0.25 0"/>
<feBlend mode="normal" in2="BackgroundImageFix" result="effect1_dropShadow_129_142"/>
<feBlend mode="normal" in="SourceGraphic" in2="effect1_dropShadow_129_142" result="shape"/>
</filter>
<clipPath id="clip0_129_142">
<rect width="200" height="200" fill="white" transform="translate(0.5)"/>
</clipPath>
</defs>
</svg>
