<svg width="391" height="391" viewBox="0 0 391 391" fill="none" xmlns="http://www.w3.org/2000/svg">
<g clip-path="url(#clip0_92_110)">
<g filter="url(#filter0_d_92_110)">
<path d="M282.752 95.795C285.926 97.7949 288.442 100.684 289.986 104.104C292.057 108.954 293.515 114.044 294.326 119.255C293.128 119.287 291.936 119.437 290.768 119.705C290.631 119.705 289.849 120.115 289.712 120.545C289.086 122.713 288.609 124.921 288.285 127.153L249.185 127.388C248.735 127.388 248.794 127.916 249.185 127.935C249.185 127.935 284.883 128.483 288.285 128.502C287.425 135.618 288.148 143.438 293.192 148.482C297.943 153.174 314.091 153.839 320.093 149.362C325.078 145.628 326.31 134.836 325.958 128.502C327.131 128.502 353.562 128.033 356.182 127.935C356.255 127.935 356.324 127.906 356.376 127.855C356.427 127.804 356.456 127.734 356.456 127.662C356.456 127.589 356.427 127.519 356.376 127.468C356.324 127.417 356.255 127.388 356.182 127.388C351.725 127.388 325.899 127.192 325.899 127.192C325.371 121.327 323.944 120.741 323.944 120.467C323.928 120.286 323.855 120.115 323.736 119.978C323.616 119.841 323.456 119.745 323.279 119.705C321.579 119.372 319.851 119.196 318.118 119.177C320.855 114.778 323.201 102.813 327.502 94.7979C333.875 82.8529 357.863 94.231 357.472 83.674C357.003 71.944 343.983 65.3556 330.005 71.5725C316.73 77.4375 313.27 104.808 313.035 119.099C309.027 119.099 310.963 119.216 305.215 119.099C310.239 112.412 316.632 90.1255 315.518 74.5441C314.241 64.2037 309.889 54.4848 303.026 46.6463C297.004 39.9015 289.947 37.0472 284.629 42.4626C276.809 50.2826 284.003 59.0214 290.689 67.8776C298.04 77.6526 300.797 82.5205 301.794 96.4401C302.261 103.992 302.117 111.57 301.364 119.099H299.194C300.875 113.605 298.705 101.504 297.121 95.8145C294.854 87.7795 290.983 79.6858 284.844 74.114C277.592 67.8523 268.773 63.6825 259.331 62.0517C253.564 61.0742 248.637 61.4456 245.959 63.0487C244.974 63.561 244.214 64.4196 243.824 65.4591C243.434 66.4986 243.442 67.6456 243.848 68.6791C247.093 79.2948 270.045 87.975 282.752 95.795ZM330.396 72.8237C343.474 66.9587 355.517 73.117 355.928 83.7522C356.241 91.9045 332.722 81.7972 326.31 94.2896C321.852 102.931 319.878 115.013 317.18 119.196H315.792C317.747 110.575 322.536 91.3962 328.167 84.6124C335.361 75.8344 347.893 80.9565 348.44 80.8197C348.655 80.8197 348.87 80.4678 348.225 80.2332C340.405 77.3984 332.448 77.4571 327.131 83.7522C320.738 91.2985 316.711 109.48 315.029 119.255H313.348C313.876 105.57 317.708 78.3955 330.396 72.8237ZM302.791 96.4206C302.009 82.6183 299.467 77.5548 291.745 67.0956C285.411 58.5913 278.627 50.4781 285.626 43.3814C290.396 38.533 296.613 41.4264 302.009 47.526C308.616 55.1744 312.783 64.6249 313.974 74.6614C315.244 90.4969 308.793 113.234 304.199 119.118H303.162C305.254 110.166 306.607 101.058 307.209 91.885C307.659 84.065 307.522 78.6301 305.254 71.8267C303.391 66.6467 300.804 61.7563 297.571 57.301C296.028 55.1035 294.329 53.0194 292.488 51.0646C292.441 51.0076 292.374 50.9714 292.301 50.9641C292.227 50.9567 292.154 50.9788 292.097 51.0255C292.04 51.0722 292.004 51.1396 291.997 51.2129C291.989 51.2862 292.011 51.3595 292.058 51.4165C292.548 51.9282 293.005 52.4701 293.426 53.0391C299.526 60.8591 305.547 72.2763 306.017 82.3641C306.486 92.4519 304.472 109.284 302.615 119.255H302.068C302.931 111.676 303.173 104.039 302.791 96.4206ZM322.712 121.366C325.938 124.318 324.922 143.927 319.076 148.306C313.231 152.685 298.001 151.649 293.857 147.642C287.327 141.366 287.992 129.616 290.22 120.897C290.359 121.08 290.55 121.216 290.768 121.288C292.27 121.635 293.802 121.845 295.342 121.914C293.428 129.009 293.763 136.522 296.3 143.419C296.394 143.616 296.561 143.768 296.767 143.841C296.972 143.914 297.198 143.903 297.395 143.81C297.592 143.716 297.744 143.549 297.817 143.343C297.891 143.138 297.879 142.912 297.786 142.715C295.323 137.788 294.658 126.84 296.085 122.051C302.185 122.324 318.509 122.442 322.712 121.366ZM284.003 75.1111C297.258 86.8411 300.66 112.823 298.607 119.157H297.395C297.118 113.725 296.172 108.347 294.58 103.146C290.357 89.4608 283.28 81.0543 272.43 74.7201C266.762 71.478 260.696 68.9873 254.385 67.3106C254.313 67.2925 254.236 67.3039 254.172 67.3424C254.107 67.3809 254.061 67.4433 254.043 67.5159C254.025 67.5885 254.036 67.6653 254.075 67.7295C254.113 67.7937 254.176 67.8399 254.248 67.858C261.615 70.1939 268.608 73.5782 275.01 77.9067C282.11 82.6331 287.654 89.3533 290.944 97.2221C294.066 104.178 296.046 111.591 296.809 119.177H294.971C294.248 113.811 292.855 108.557 290.826 103.537C289.241 99.927 286.639 96.8566 283.339 94.7002C270.416 86.7433 248.149 78.024 245.177 68.249C242.421 59.2756 268.989 61.6607 284.003 75.1111ZM114.955 175.774C88.9139 166.722 65.5712 162.676 51.0456 159.02C50.8657 158.969 50.6775 158.955 50.4921 158.979C50.3068 159.003 50.1282 159.064 49.9671 159.159C49.806 159.254 49.6656 159.38 49.5544 159.53C49.4433 159.68 49.3636 159.851 49.3201 160.033C49.2766 160.215 49.2703 160.404 49.3015 160.588C49.3327 160.772 49.4008 160.948 49.5017 161.105C49.6026 161.263 49.7342 161.398 49.8886 161.503C50.0431 161.608 50.2171 161.681 50.4005 161.718C59.7454 163.966 73.8604 166.546 89.129 170.085C114.348 175.95 114.896 177.69 115.306 176.478C115.35 176.338 115.338 176.186 115.272 176.055C115.207 175.924 115.093 175.823 114.955 175.774ZM321.305 191.59C321.305 191.544 321.296 191.498 321.278 191.455C321.26 191.413 321.234 191.374 321.202 191.341C321.169 191.308 321.13 191.283 321.088 191.265C321.045 191.247 320.999 191.238 320.953 191.238C303.808 191.238 287.131 195.148 277.689 196.028C277.574 196.038 277.462 196.07 277.36 196.124C277.258 196.178 277.168 196.252 277.095 196.341C277.022 196.43 276.967 196.534 276.935 196.644C276.903 196.755 276.893 196.871 276.907 196.986C276.917 197.102 276.949 197.214 277.003 197.317C277.056 197.42 277.13 197.512 277.219 197.586C277.308 197.661 277.411 197.717 277.522 197.751C277.632 197.786 277.749 197.798 277.865 197.787C284.785 197.103 296.769 194.483 307.991 193.037C320.445 191.59 321.324 192.47 321.305 191.59ZM262.244 232.274C262.261 232.242 262.272 232.206 262.275 232.17C262.278 232.134 262.274 232.098 262.263 232.063C262.252 232.029 262.235 231.997 262.211 231.969C262.188 231.941 262.159 231.919 262.127 231.902L261.638 231.648L261.521 232.234C261.853 232.391 262.107 232.645 262.244 232.274Z" fill="#0D0D0D"/>
<path d="M380.991 237.161C375.967 236.125 363.552 236.535 358.43 236.985C362.653 222.557 367.013 203.75 368.772 193.388C369.41 190.521 369.685 187.585 369.593 184.65C369.529 184.386 369.411 184.139 369.246 183.923C369.081 183.708 368.873 183.529 368.635 183.398C360.815 178.491 278.881 189.263 273.173 192.098C271.472 192.939 269.947 197.181 269.263 199.097C264.199 190.769 264.727 188.794 259.077 175.637C255.556 167.067 251.091 158.917 245.764 151.336C245.9 150.3 251.316 109.851 245.509 99.0401C241.599 91.8066 220.427 89.2651 212.274 88.5808C212.274 88.1507 211.258 80.7608 210.828 77.4178C217.709 71.6701 220.603 61.0935 213.135 59.3145C207.837 58.0633 186.918 54.0751 171.337 58.1024C161.562 60.6439 153.742 66.3525 153.077 77.6524C152.815 81.9432 153.077 86.2501 153.859 90.4772C143.752 91.5915 126.352 93.2533 117.477 96.5963C106.059 100.897 110.869 150.848 112.081 154.894C111.416 156.537 110.79 158.198 110.223 159.743C81.7782 152.49 18.1039 138.961 15.2691 139.215C14.5308 139.206 13.8017 139.38 13.1467 139.721C12.4918 140.062 11.9315 140.56 11.5155 141.17C10.7531 141.346 10.4794 142.422 10.3425 143.125C8.38754 153.526 11.9261 215.636 12.5517 226.174C13.5878 229.966 43.7144 238.197 47.6244 239.272C47.8199 244.414 48.856 269.946 49.0711 275.186C47.3702 274.876 45.6867 274.478 44.0272 273.993C40.5473 272.566 27.2142 285.547 28.3872 284.472C23.2846 289.007 78.8066 303.924 83.2445 302.673C87.6823 301.422 96.4603 293.035 94.9745 288.362C94.5637 287.531 93.8708 286.873 93.0195 286.505C88.8162 284.296 77.6923 281.578 73.0589 280.464C73.5086 271.002 73.5086 255.479 73.489 246.056C78.9826 247.425 110.165 254.971 115.795 254.873C116.199 254.879 116.597 254.778 116.949 254.58C118.747 254.326 120.859 253.876 121.035 252.038C121.035 251.491 121.484 246.721 122.051 239.644C135.834 244.903 152.549 244.512 155.521 243.3C156.322 242.913 156.999 242.311 157.476 241.56C157.613 241.736 157.671 241.696 158.707 241.853C162.617 242.478 168.873 243.065 172.392 241.227C177.378 242.029 191.825 243.182 192.9 238.353C193.037 237.708 193.233 236.398 193.428 234.815C207.895 235.597 259.273 235.245 259.468 235.245L258.276 240.621C258.246 240.577 258.205 240.541 258.157 240.517C258.109 240.493 258.055 240.482 258.002 240.484C258.002 240.367 258.002 240.328 258.002 240.484C249.996 239.854 241.963 239.645 233.936 239.859C231.082 239.996 223.555 240.348 223.418 243.124C222.418 245.483 222.273 248.117 223.007 250.572C223.438 252.117 227.074 254.619 228.423 255.538C220.779 254.775 216.321 255.069 214.014 255.89C213.466 255.985 212.954 256.231 212.537 256.6C212.12 256.969 211.813 257.447 211.651 257.98C211.489 258.512 211.478 259.08 211.619 259.619C211.76 260.157 212.048 260.646 212.45 261.031C215.07 264.629 220.525 265.841 221.111 270.552C222.225 279.487 199.508 289.594 191.219 293.133C195.383 287.659 206.546 270.435 201.131 266.271C195.11 261.637 143.478 259.604 138.727 260.816C135.384 261.677 110.81 279.839 111.26 286.231C111.572 290.396 135.756 294.481 140.252 295.263C145.316 296.124 181.444 301.754 185.765 298.998C186.681 298.628 187.513 298.077 188.212 297.378C188.911 296.68 189.461 295.847 189.831 294.931C197.317 292.358 204.523 289.03 211.336 285C222.089 278.333 228.11 270.083 217.475 263.143C216.204 262.322 212.724 259.819 213.232 258.412C214.327 255.303 229.439 256.457 229.654 256.457C236.673 261.031 250.104 268.089 258.021 270.142C266.389 272.351 305.489 268.069 314.931 266.877C316.007 270.787 317.043 274.423 317.727 276.652C316.261 276.769 312.077 277.141 310.904 278.059C310.259 278.568 310.279 279.428 311.315 280.014C311.315 286.564 310.513 306.153 312.468 314.989C313.211 318.293 314.071 319.662 317.493 320.854C323.964 322.946 336.397 322.203 342.908 320.463C346.954 319.369 347.482 318.508 348.127 316.358C350.356 309.046 350.239 287.463 350.082 279.799C350.208 279.709 350.309 279.59 350.38 279.452C350.45 279.315 350.487 279.162 350.487 279.008C350.487 278.853 350.45 278.701 350.38 278.563C350.309 278.426 350.208 278.306 350.082 278.216C348.636 277.545 347.079 277.148 345.488 277.043C345.762 274.853 347.228 262.615 347.443 260.464C348.465 259.851 349.377 259.072 350.141 258.158C351.336 256.705 352.113 254.955 352.389 253.094C354.344 250.533 357.159 240.973 358.078 237.845C366.798 238.217 379.583 237.708 380.776 237.845C380.867 237.874 380.965 237.865 381.049 237.821C381.134 237.777 381.197 237.701 381.226 237.611C381.254 237.52 381.245 237.421 381.201 237.337C381.157 237.253 381.082 237.189 380.991 237.161ZM116.734 279.35C118.043 277.903 119.588 276.398 121.23 274.873C128.209 268.421 137.085 261.931 139.021 261.442C143.713 260.23 195.246 263.397 200.486 267.307C201.366 267.972 201.542 269.262 201.366 270.806C200.662 276.945 194.249 287.072 190.515 292.018C186.293 288.382 122.325 280.112 116.734 279.35ZM212.529 89.9884C219.997 90.6922 240.935 93.0969 244.532 99.6266C249.615 108.815 246.487 140.154 245.236 150.457C244.141 148.99 243.007 147.602 241.854 146.332C235.226 139.059 223.848 135.403 214.21 133.546C208.019 132.468 201.773 131.73 195.501 131.337C195.305 131.337 195.618 131.63 194.073 128.463C191.767 123.712 191.63 123.79 191.864 123.654C194.428 123.517 196.966 123.084 199.43 122.363C206.038 120.408 209.968 116.498 211.825 106.997C212.833 101.365 213.044 95.62 212.45 89.9298L212.529 89.9884ZM195.696 131.943C196.928 132.119 197.26 132.099 197.358 132.158C197.358 132.647 201.639 155.618 186.977 156.674C174.856 157.671 166.879 140.662 162.578 129.303C164.142 129.049 165.394 128.873 166.234 128.756C166.645 137.671 179.47 153.839 186.586 152.705C194.582 151.395 198.511 139.235 195.696 131.943ZM166.508 95.9707C166.683 95.0986 167.074 94.284 167.644 93.6011C168.214 92.9182 168.946 92.3887 169.773 92.0607C173.683 91.1028 173.683 95.9707 176.791 95.697C180.701 95.4429 176.342 86.3717 179.704 80.839C183.36 74.7394 198.179 87.0755 210.163 77.9261C211.61 88.2289 213.193 96.2444 210.984 106.762C209.029 115.99 205.393 119.392 199.117 121.229C196.538 121.823 193.927 122.267 191.297 122.559C191.088 122.677 190.911 122.847 190.785 123.052C190.658 123.257 190.586 123.491 190.574 123.732C190.574 124.416 192.529 127.915 194.347 132.001C197.065 138.414 193.526 150.066 186.371 151.18C181.288 151.982 171.337 140.584 168.502 132.529C167.251 128.971 167.622 128.834 169.831 114.934C172.94 115.149 173.585 109.069 173.741 105.922C173.774 105.254 173.542 104.601 173.096 104.104C171.689 102.559 170.535 104.358 167.798 100.936C167.201 100.273 166.772 99.4751 166.548 98.611C166.323 97.7468 166.309 96.8413 166.508 95.9707ZM154.133 91.8848C156.752 103.849 163.634 112.158 168.365 114.465C167.505 119.959 166.527 126.078 166.273 127.935C154.993 128.501 143.867 130.809 133.292 134.778C128.597 136.576 124.22 139.117 120.331 142.304C118.18 131.161 123.713 109.382 123.029 103.204C122.716 100.585 121.973 97.8085 119.412 97.2415C128.17 94.485 144.397 92.9209 154.133 91.8848ZM118.239 97.7498C118.706 97.7657 119.165 97.8761 119.589 98.0743C120.012 98.2726 120.391 98.5546 120.702 98.9032C121.584 100.233 122.028 101.805 121.973 103.4C122.403 109.265 116.323 130.887 119.744 142.871C116.449 145.961 113.953 149.806 112.472 154.073C110.908 144.552 108.308 101.21 118.239 97.7498ZM47.9958 186.82C48.1522 185.901 49.8335 185.49 50.7524 185.334C57.5362 184.219 71.6318 188.09 71.319 192.802C70.8498 199.781 73.0003 284.355 71.1626 287.463C68.973 291.197 57.0084 289.125 52.2382 285.801C50.0681 284.296 50.1072 283.006 50.1659 283.26C48.5041 216.692 47.7221 188.345 47.9958 186.82ZM93.3127 289.007C94.3098 292.331 86.4702 299.975 82.8339 300.992C79.1976 302.008 25.5915 288.128 29.091 284.961C27.4683 286.427 37.8103 276.906 42.3654 275.381C42.7285 275.2 43.1434 275.152 43.5384 275.244C44.0663 275.479 46.1386 276.007 49.1297 276.711C49.3057 280.836 49.423 283.279 49.423 283.279C50.5764 289.027 68.973 293.367 72.1792 288.069C72.6701 286.192 72.9326 284.262 72.9612 282.321C75.9523 283.064 91.2991 286.798 93.3127 289.007ZM115.795 253.211C110.654 253.407 78.6502 245.9 73.489 244.688C73.3913 221.775 72.9221 196.086 73.1567 192.919C73.6259 185.725 55.3271 181.815 48.8756 183.926C48.2363 184.067 47.6487 184.382 47.179 184.838C46.7094 185.294 46.3761 185.872 46.2168 186.507C45.7867 189.107 47.468 235.382 47.5657 238.158C44.3791 237.298 14.5262 229.341 13.2946 226.154C12.9622 218.96 9.77559 149.401 12.0434 142.813C22.6786 145.471 113.508 163.79 119.901 168.228C121.504 172.626 117.848 246.995 115.795 253.211ZM120.389 252.058C120.389 253.368 118.65 253.817 117.359 254.013C119.471 248.95 123.674 171.903 121.523 167.367C119.373 162.832 21.2905 143.771 12.1216 141.209C12.5294 140.768 13.0258 140.418 13.5784 140.182C14.1309 139.947 14.7271 139.83 15.3278 139.841C18.0452 139.645 118.337 162.05 124.163 165.256C125.14 168.071 124.163 187.68 124.026 190.906C123.674 198.686 120.468 251.002 120.389 252.058ZM173.174 238.823C170.887 241.872 162.774 241.501 158.962 241.149H158.023C159.763 237.652 160.748 233.829 160.917 229.927C162.872 229.38 170.027 227.718 171.122 229.478C171.454 229.986 170.398 230.592 169.851 230.885C168.405 231.556 166.891 232.067 165.335 232.41C165.104 232.454 164.9 232.588 164.768 232.783C164.636 232.977 164.587 233.216 164.631 233.446C164.675 233.677 164.809 233.881 165.003 234.013C165.198 234.145 165.437 234.194 165.667 234.15C167.622 233.876 172.959 233.134 174.856 233.779C174.075 234.863 172.953 235.655 171.669 236.027C169.841 236.015 168.016 236.165 166.215 236.477C165.955 236.526 165.723 236.668 165.562 236.878C165.401 237.087 165.323 237.349 165.342 237.612C165.361 237.875 165.477 238.122 165.667 238.306C165.856 238.49 166.107 238.597 166.371 238.608C168.357 238.665 170.339 238.395 172.236 237.806C172.731 237.827 173.216 237.946 173.663 238.158C173.538 238.421 173.35 238.649 173.116 238.823H173.174ZM191.669 238.138C191.586 238.443 191.431 238.723 191.216 238.954C191.002 239.186 190.734 239.362 190.437 239.468C186.82 241.423 177.691 241.071 173.624 240.66C175.129 239.507 176.009 237.63 174.484 236.594C177.495 234.639 177.182 232.547 175.208 231.941C173.929 231.631 172.607 231.539 171.298 231.667C172.529 230.748 172.979 229.712 172.236 228.598C171.161 227.073 168.326 227.269 166.567 227.562C165.729 219.822 165.299 212.043 165.276 204.258C170.496 208.051 187.798 208.168 193.839 204.571C194.132 211.14 192.158 235.284 191.591 238.138H191.669ZM174.895 233.701C174.895 233.701 174.836 233.74 174.836 233.701H174.895ZM216.849 234.131C220.466 223.554 220.974 201.15 220.759 189.948C223.789 194.816 240.309 218.158 240.426 218.354C240.828 218.968 241.3 219.532 241.834 220.035C245.773 223.635 250.195 226.668 254.972 229.048C260.074 231.746 260.485 231.609 260.446 231.824L259.761 234.756C259.429 234.737 219.84 234.131 216.791 234.131H216.849ZM225.275 242.909C229.478 239.976 258.061 241.305 258.373 241.11V241.325C255.636 254.424 254.581 259.155 254.248 260.875C254.424 260.113 255.5 255.01 256.731 249.36C257.591 245.215 258.686 240.289 259.801 235.069C260.309 232.684 260.641 231.159 260.661 231.042C255.304 228.207 247.132 223.319 242.851 218.999C241.775 217.904 220.994 189.107 220.798 188.775C220.603 188.442 220.603 179.86 220.388 179.469C220.347 179.424 220.293 179.394 220.234 179.381C220.175 179.368 220.114 179.374 220.058 179.398C220.002 179.421 219.955 179.461 219.923 179.512C219.891 179.564 219.876 179.624 219.879 179.684C219.684 179.684 219.879 221.482 216.263 234.072L193.741 234.287C193.878 233.192 194.015 231.921 194.171 230.553C203.242 231.706 207.367 221.755 204.963 213.642C203.536 209.185 199.86 208.501 195.657 210.651C195.853 208.048 195.853 205.434 195.657 202.831C195.838 202.382 195.87 201.886 195.746 201.417C195.623 200.949 195.352 200.533 194.973 200.231C192.06 197.494 183.907 197.201 179.939 197.201C175.97 197.201 167.798 197.513 164.905 200.231C164.651 200.427 164.45 200.682 164.318 200.974C162.833 203.652 165.687 227.132 166.039 227.64C164.336 227.979 162.658 228.43 161.014 228.989V225.861C160.897 219.038 139.079 215.245 138.336 211.355C138.082 210.025 137.672 207.054 137.202 203.535C134.563 184.219 134.954 184.962 134.524 184.962C134.452 184.962 134.382 184.991 134.331 185.043C134.279 185.094 134.25 185.163 134.25 185.236C134.25 185.764 136.362 207.034 137.124 211.55C137.887 216.066 159.548 220.446 159.646 225.861C159.646 230.084 158.707 240.563 155.052 242.068C152.842 243.006 135.756 243.867 122.129 239.077C122.423 235.284 127.858 167.387 125.238 164.376C124.241 163.223 112.53 160.29 111.045 159.919C116.91 146.625 121.25 135.677 162.031 129.284C163.164 133.08 164.548 136.796 166.176 140.408C170.32 149.264 177.339 158.824 187.055 158.003C198.218 157.045 200.017 144.943 198.238 133.898C198.12 133.116 198.003 132.607 197.905 132.158C203.269 132.695 208.601 133.517 213.878 134.621C223.086 136.576 234.405 140.291 240.72 147.289C247.543 154.797 253.505 166.39 257.689 175.657C263.711 188.99 263.671 192.43 268.852 200.114C265.209 211.609 262.155 223.282 259.703 235.089C258.921 238.744 257.748 244.316 256.633 249.38C255.011 257.2 254.033 262.146 254.131 261.11C253.955 262.165 254.131 262.126 254.131 262.38C247.758 259.538 241.608 256.218 235.734 252.449C233.682 251.08 223.203 244.375 225.275 242.869V242.909ZM195.501 214.639C195.501 213.623 195.618 212.684 195.657 211.707C199.196 210.28 202.343 210.495 203.301 214.19C205.256 220.895 202.167 229.83 194.288 229.83C194.288 228.891 194.621 226.213 194.66 225.92C203.653 227.132 203.594 210.671 195.501 214.639ZM194.738 225.079C195.012 221.99 195.246 218.725 195.442 215.656C196.378 215.367 197.38 215.367 198.316 215.656C200.642 216.497 200.271 224.571 194.64 225.079H194.738ZM258.686 268.46C251.163 266 243.886 262.845 236.947 259.037C234.992 258.001 224.865 252.488 224.18 250.357C223.589 248.455 223.528 246.427 224.004 244.492C226.624 249.595 243.242 258.177 248.579 260.699C251.022 261.852 253.544 262.832 256.125 263.632C265.157 266.857 303.905 261.677 313.426 260.504C313.543 260.914 314.365 264.062 314.677 265.196C306.388 266.154 266.467 270.513 258.588 268.46H258.686ZM346.036 317.629C343.181 320.053 326.055 322.086 317.981 319.584C315.049 318.665 314.462 317.726 313.759 314.755C313.117 311.53 312.712 308.263 312.546 304.98C316.554 307.443 323.905 308.069 328.616 308.206C335.713 308.362 342.693 308.206 348.401 304.98C348.284 307.052 347.619 316.28 346.036 317.629ZM348.46 304.217C344.604 305.867 340.455 306.725 336.261 306.739C330.669 307.013 317.571 306.974 312.507 304.276C312.292 300.601 312.155 296.671 312.097 293.015C314.052 295.361 324.472 296.417 328.636 296.554C336.065 296.71 342.966 296.554 348.909 293.035C348.909 292.839 348.851 297.473 348.479 304.217H348.46ZM348.909 292.351C339.134 297.277 314.873 295.048 312.077 292.351V280.327C318.294 282.536 342.868 282.38 349.027 280.327C348.988 282.576 349.007 287.15 348.929 292.351H348.909ZM344.999 279.193C345.069 279.213 345.144 279.206 345.209 279.173C345.274 279.141 345.325 279.085 345.351 279.017C345.351 279.017 345.351 278.666 345.469 278.04C346.729 278.213 347.971 278.494 349.183 278.881C344.902 280.836 319.135 281.012 312.703 279.115C312.659 279.102 312.621 279.074 312.594 279.037C312.566 279 312.552 278.956 312.552 278.91C312.552 278.864 312.566 278.819 312.594 278.783C312.621 278.746 312.659 278.718 312.703 278.705C314.495 278.218 316.327 277.891 318.177 277.727C318.306 278.271 318.503 278.796 318.763 279.291C318.92 279.448 319.174 279.467 319.154 279.076C319.135 278.685 312.722 253.368 311.745 247.796C312.745 248.13 313.811 248.213 314.85 248.039C315.89 247.865 316.871 247.44 317.708 246.799C319.858 252.82 326.72 279.917 327.131 279.917C327.205 279.912 327.275 279.879 327.326 279.824C327.376 279.77 327.405 279.698 327.404 279.623L326.837 276.984H329.535C329.535 277.356 329.75 279.252 329.77 279.389C329.789 279.526 330.356 279.858 330.317 279.135C330.317 277.375 328.675 248.226 328.636 247.698C328.917 247.563 329.212 247.458 329.516 247.386C329.731 248.441 336.612 276.32 337.14 278.49C337.14 278.685 337.14 279.017 337.512 278.939C337.883 278.861 337.727 278.509 337.512 277.238L340.503 277.453V277.786C340.503 278.099 340.992 278.02 341.05 277.786C341.05 278.001 344.687 240.484 344.96 237.493C345.476 237.884 346.068 238.161 346.698 238.305C347.328 238.45 347.982 238.46 348.616 238.334C348.577 238.627 344.569 279.057 344.98 279.193H344.999ZM327.404 240.328C327.172 238.448 326.351 236.689 325.058 235.304C327.737 236.105 328.304 236.692 328.968 238.529C329.497 239.993 329.639 241.569 329.379 243.104C329.114 244.07 329.114 245.09 329.379 246.056C329.059 246.13 328.745 246.228 328.441 246.349C327.228 242.889 324.531 242.928 324.531 239.448C324.527 238.19 324.343 236.939 323.983 235.734C324.93 237.449 325.968 239.114 327.092 240.719C327.287 240.973 327.659 240.602 327.424 240.328H327.404ZM328.382 265C328.48 265.958 329.242 274.267 329.438 276.378H326.642C326.055 273.739 325.176 269.829 324.179 265.645L328.382 265ZM328.265 263.495L323.807 264.081C323.416 262.459 323.006 260.816 322.595 259.194C324.394 258.94 326.153 258.666 327.854 258.392C327.932 259.233 328.206 262.635 328.284 263.495H328.265ZM334.345 262.595C334.032 261.11 333.269 257.747 333.211 257.552C334.912 257.258 340.698 256.261 341.891 256.027C341.891 256.867 341.559 260.425 341.48 261.325C339.584 261.735 337.16 262.165 334.306 262.595H334.345ZM341.402 262.595C341.05 267.659 340.503 276.124 340.483 276.593C339.467 276.593 338.391 276.554 337.258 276.476C336.788 274.11 334.775 264.629 334.638 263.983C337.277 263.456 339.545 262.986 341.422 262.537L341.402 262.595ZM345.136 235.871C345.375 233.393 345.76 230.932 346.29 228.5C346.811 228.344 347.362 228.306 347.9 228.391C348.438 228.476 348.95 228.68 349.398 228.989C349.281 231.446 349.02 233.894 348.616 236.32C348.44 237.004 348.401 237.18 347.951 237.239C347.072 237.298 345.293 236.555 345.156 235.812L345.136 235.871ZM347.697 259.174C347.873 257.727 348.049 256.261 348.206 254.795C349.364 254.552 350.501 254.219 351.607 253.798C350.991 255.98 349.61 257.868 347.717 259.116L347.697 259.174ZM350.962 252.175C350.137 252.504 349.287 252.765 348.421 252.957C348.773 249.673 350.845 230.553 350.845 229.204C350.845 227.249 347.365 226.526 345.566 227.249C344.96 227.523 344.784 228.676 344.608 229.693C343.631 235.147 342.477 248.754 342.028 254.287L332.859 255.968C330.571 245.997 330.767 246.545 330.513 246.291C330.338 246.124 330.109 246.027 329.868 246.017C329.687 245.147 329.734 244.244 330.005 243.397C330.409 241.706 330.355 239.938 329.848 238.275C329.588 237.066 328.892 235.994 327.893 235.265C326.302 234.421 324.586 233.84 322.81 233.544C322.717 233.519 322.619 233.516 322.525 233.537C322.431 233.557 322.343 233.6 322.268 233.661C322.193 233.722 322.135 233.8 322.096 233.889C322.058 233.977 322.041 234.073 322.048 234.17C322.09 234.336 322.142 234.499 322.204 234.658C323.729 238.295 322.673 239.957 323.729 242.127C324.785 244.297 326.564 244.629 327.209 247.131C327.209 247.327 327.756 256.359 327.776 256.906L322.243 257.786C321.852 256.3 319.174 245.724 318.118 244.688C316.163 242.733 310.572 244.922 310.298 246.643C310.122 247.62 312.801 258.099 313.055 259.096C302.986 260.562 292.312 261.892 282.87 262.771C278.744 263.143 253.545 265.45 254.952 261.325C256.907 252.293 260.817 235.714 261.599 232.234V231.961C261.599 231.667 261.736 231.374 261.599 232.234C261.599 231.941 261.716 231.765 261.755 231.667L266.643 212.762C267.288 210.436 271.726 194.62 273.974 193.506C278.959 191.042 360.894 180.446 367.814 185.08C368.987 190.104 354.579 249.79 350.982 252.195L350.962 252.175Z" fill="#0D0D0D"/>
<path d="M192.588 94.9345V93.4291C192.588 93.1854 192.491 92.9517 192.319 92.7794C192.146 92.6071 191.913 92.5103 191.669 92.5103C191.423 92.5102 191.188 92.6064 191.012 92.7782C190.837 92.95 190.736 93.1837 190.731 93.4291V95.1886C190.774 95.4212 190.905 95.628 191.097 95.7662C191.289 95.9044 191.527 95.9632 191.761 95.9305C191.995 95.8977 192.208 95.7759 192.355 95.5904C192.501 95.4049 192.571 95.17 192.549 94.9345H192.588ZM317.532 215.245C316.965 214.698 316.163 214.053 315.421 214.287C314.189 214.678 312.957 217.806 312.429 219.097C310.947 222.947 309.77 226.908 308.91 230.944C309.712 233.016 323.241 230.299 325.078 229.399C325.665 229.126 325.587 228.422 325.391 227.796C323.456 223.221 320.803 218.984 317.532 215.245ZM309.438 230.69C309.79 229.067 314.248 216.633 315.772 215.499C318.138 216.848 322.889 225.138 324.159 228.266C322.4 228.969 310.455 232 309.438 230.69ZM150.262 272.155C150.067 272.292 145.805 274.99 145.609 275.186C145.563 275.205 145.523 275.237 145.495 275.279C145.468 275.321 145.453 275.37 145.453 275.42C145.453 275.47 145.468 275.519 145.495 275.561C145.523 275.603 145.563 275.635 145.609 275.655C146.704 275.968 150.36 276.378 151.474 276.495C178.219 269.79 178.395 269.79 178.062 269.79C178.242 269.765 178.405 269.672 178.518 269.53C178.631 269.388 178.685 269.208 178.668 269.027C178.668 268.695 178.14 266.388 177.984 265.684L150.262 272.155ZM202.07 86.7626C202.617 86.7626 203.692 87.0167 203.907 87.0363C205.094 87.1594 206.27 87.3685 207.426 87.6619L209.186 87.9747C209.253 87.9914 209.323 87.9839 209.385 87.9536C209.447 87.9234 209.497 87.8723 209.525 87.8092C209.553 87.7462 209.558 87.6753 209.539 87.6091C209.519 87.5428 209.478 87.4853 209.42 87.4468C208.4 86.5827 207.163 86.0147 205.843 85.8046C204.535 85.5243 203.174 85.64 201.933 86.137C201.892 86.146 201.853 86.163 201.818 86.187C201.784 86.211 201.754 86.2416 201.732 86.277C201.709 86.3124 201.693 86.3519 201.686 86.3933C201.679 86.4347 201.679 86.4771 201.688 86.5182C201.697 86.5593 201.714 86.5982 201.738 86.6327C201.762 86.6672 201.793 86.6967 201.828 86.7194C201.864 86.742 201.903 86.7575 201.945 86.765C201.986 86.7724 202.029 86.7716 202.07 86.7626ZM186.586 88.483C187.114 88.3657 188.248 88.1897 188.541 88.1506C189.726 87.8919 190.928 87.722 192.138 87.6423L194.093 87.4273C194.171 87.4273 194.246 87.3964 194.301 87.3414C194.356 87.2864 194.386 87.2118 194.386 87.134C194.386 87.0563 194.356 86.9817 194.301 86.9267C194.246 86.8717 194.171 86.8408 194.093 86.8408C192.833 86.3065 191.451 86.128 190.096 86.3244C188.741 86.5209 187.467 87.0849 186.41 87.9551C186.364 87.9551 186.318 87.9662 186.276 87.9873C186.235 88.0085 186.199 88.0392 186.172 88.0769C186.145 88.1146 186.127 88.1582 186.12 88.2042C186.113 88.2501 186.117 88.297 186.132 88.3411C186.147 88.3852 186.172 88.4252 186.205 88.4577C186.238 88.4902 186.278 88.5144 186.323 88.5283C186.367 88.5422 186.414 88.5453 186.46 88.5374C186.506 88.5295 186.549 88.5109 186.586 88.483ZM206.136 91.8847C205.892 91.8847 205.659 91.9815 205.486 92.1538C205.314 92.3261 205.217 92.5598 205.217 92.8035V94.563C205.251 94.8067 205.38 95.0271 205.576 95.1755C205.772 95.324 206.019 95.3885 206.263 95.3548C206.507 95.3211 206.727 95.192 206.876 94.9958C207.024 94.7997 207.089 94.5526 207.055 94.3089V92.8035C207.058 92.6821 207.036 92.5615 206.99 92.4488C206.945 92.3361 206.878 92.2337 206.792 92.1479C206.706 92.062 206.603 91.9944 206.491 91.9492C206.378 91.904 206.257 91.882 206.136 91.8847ZM54.4084 261.618C57.1259 262.498 63.4601 264.863 66.373 264.511C66.7249 264.511 67.1159 264.159 67.3701 263.534C69.3251 259.135 67.9175 236.77 67.2137 232.449C66.7249 229.341 55.4837 225.489 52.7662 227.699C51.0067 229.126 51.8865 245.685 52.082 247.991C52.5903 253.563 52.0624 260.855 54.4084 261.618ZM53.646 228.735C55.7574 227.21 65.5519 230.827 65.8647 232.645C66.3535 235.714 68.1716 261.52 66.2166 263.534C63.6947 263.905 57.0086 261.852 54.4866 261.07C52.7076 260.484 53.3136 252.703 53.0204 247.894C52.8835 244.648 52.6685 231.765 53.646 228.735ZM192.568 106.645C192.52 106.621 192.466 106.608 192.412 106.608C192.358 106.608 192.304 106.621 192.256 106.645C191.767 106.821 191.474 107.368 191.395 108.17C191.332 110.241 192.027 112.264 193.35 113.859C193.66 114.282 194.053 114.639 194.503 114.907C194.954 115.176 195.455 115.351 195.974 115.422C196.494 115.493 197.023 115.459 197.53 115.321C198.036 115.184 198.51 114.946 198.922 114.621C200.1 113.651 201.026 112.41 201.62 111.005C201.674 110.895 201.701 110.775 201.701 110.653C201.701 110.531 201.674 110.41 201.62 110.301C201.014 109.362 199.567 110.692 192.568 106.645ZM192.392 107.31C194.516 109.118 197.003 110.452 199.685 111.22C195.501 118.336 191.298 108.737 192.392 107.31ZM197.182 102.715C198.433 102.95 201.894 102.52 202.637 101.249C203.008 100.643 202.637 100.448 201.815 97.9452C201.076 95.7712 200.207 93.643 199.215 91.5719C198.863 91.0245 198.414 91.5719 198.668 91.9042C199.211 94.9016 200.076 97.8315 201.249 100.643C199.834 101.305 198.385 101.892 196.908 102.403C196.906 102.441 196.911 102.48 196.923 102.516C196.935 102.553 196.955 102.587 196.98 102.616C197.006 102.645 197.037 102.669 197.071 102.686C197.106 102.703 197.144 102.713 197.182 102.715ZM269.283 306.016C276.614 301.363 270.905 297.082 266.057 299.115C264.864 296.945 264.591 296.769 262.147 296.886C249.459 297.531 192.158 310.786 191.61 311.001C188.717 312.194 196.068 329.456 198.981 331.724C199.645 332.232 199.43 332.33 206.605 330.923C207.074 335.184 208.932 342.653 213.272 342.887C215.295 342.517 217.264 341.899 219.137 341.049C222.762 344.656 226.622 348.02 230.691 351.118C235.187 354.128 263.926 320.561 268.227 316.651C269.458 316.241 270.553 315.967 270.416 312.917C274.131 312.233 277.005 309.945 275.03 306.661C273.701 304.667 271.394 304.98 269.283 306.016ZM269.967 300.698C270.768 300.992 271.179 301.304 270.925 302.106C270.398 303.331 269.626 304.435 268.657 305.351C268.138 303.761 267.531 302.201 266.839 300.679C267.851 300.314 268.959 300.321 269.967 300.698ZM249.166 300.053C249.889 303.474 250.378 305.332 251.297 308.479L237.748 311.04C236.969 308.212 236.062 305.42 235.031 302.673C237.592 302.184 247.074 300.405 249.166 300.053ZM229.127 326.152C229.844 328.609 230.903 330.952 232.274 333.112C228.521 334.93 224.982 336.592 221.972 337.961C220.891 334.682 219.372 331.565 217.455 328.694L229.127 326.152ZM223.594 326.152C222.933 322.756 222.098 319.395 221.092 316.084L236.732 312.702C237.585 316.014 238.616 319.277 239.821 322.477C234.444 323.611 228.834 324.882 223.594 326.074V326.152ZM230.104 326.25C229.889 325.937 228.56 326.407 242.949 323.103C243.203 324.555 243.741 325.944 244.532 327.189L233.076 332.799C232.396 330.464 231.396 328.233 230.104 326.172V326.25ZM243.789 322.888C251.218 321.167 258.041 319.525 262.753 318.274L245.49 326.7C245.171 325.312 244.601 323.993 243.809 322.809L243.789 322.888ZM240.485 322.281C239.858 318.946 239.062 315.644 238.1 312.389L251.453 309.105C251.453 309.203 252.352 312.213 252.763 313.504C252.958 314.09 254.62 318.821 254.718 318.899C250.671 319.799 240.798 322.125 240.466 322.203L240.485 322.281ZM234.444 302.868C235.09 306.426 235.696 308.733 236.399 311.392L220.759 314.833C219.841 311.724 219.215 309.691 217.866 306.172C220.916 305.468 232.098 303.24 234.464 302.79L234.444 302.868ZM217.221 306.29C217.983 310.2 218.55 312.252 219.371 315.146C218.062 315.439 207.368 318.117 207.368 318.117C206.977 318.117 207.133 318.723 207.524 318.645C207.524 318.645 219.117 316.495 219.704 316.358C219.704 316.358 220.544 319.72 222.949 326.309L210.339 329.124C208.536 322.304 206.269 315.616 203.555 309.105L217.221 306.29ZM199.528 331.059C196.557 328.831 189.753 312.409 191.806 311.509C191.806 311.509 196.283 310.532 203.008 309.124C204.684 315.976 206.92 322.678 209.694 329.163C199.411 331.47 199.86 331.235 199.548 330.981L199.528 331.059ZM213.213 341.46C209.909 341.46 207.935 334.324 207.348 331.079C207.348 330.708 206.312 331.079 216.537 328.948C217.045 328.85 216.243 328.713 218.687 333.796C219.388 335.394 220.253 336.914 221.268 338.332C218.696 339.563 216.029 340.583 213.291 341.382L213.213 341.46ZM231.434 349.827C227.459 347.042 223.641 344.04 219.997 340.834C223.36 339.446 227.172 337.667 230.456 336.103C233.028 339.093 235.941 341.77 239.136 344.08C237.807 345.214 233.291 349.397 231.512 349.749L231.434 349.827ZM239.703 343.493C237.121 340.611 234.23 338.021 231.082 335.771L243.359 329.73C245.07 331.486 247.05 332.958 249.224 334.09C246.15 337.271 243.001 340.38 239.782 343.415L239.703 343.493ZM249.889 333.464C248.258 331.799 246.403 330.371 244.376 329.222C252.782 324.979 257.611 322.399 265.451 318.059C261.971 321.128 253.134 330.16 249.967 333.386L249.889 333.464ZM268.54 315.087C267.699 315.693 256.184 318.508 255.187 318.743C253.942 312.347 252.116 306.078 249.733 300.014C253.525 299.369 261.032 298.059 263.828 298.372C264.206 298.817 264.534 299.302 264.806 299.819C263.472 300.725 262.367 301.93 261.58 303.338C261.384 303.826 261.893 304.08 262.147 303.846C263.125 302.811 264.268 301.946 265.529 301.285C266.416 303.118 267.186 305.005 267.836 306.935C266.099 308.123 264.533 309.543 263.183 311.158C262.929 311.47 263.007 311.705 263.183 311.803C263.652 312.076 263.691 311.373 268.305 308.636C268.771 310.218 269.034 311.854 269.087 313.504C268.989 313.855 268.931 314.755 268.618 315.009L268.54 315.087ZM273.408 309.848C272.534 310.848 271.435 311.625 270.201 312.115C270.021 310.722 269.74 309.343 269.361 307.99C270.631 307.345 272.606 306.524 273.271 307.717C273.521 307.991 273.677 308.338 273.716 308.708C273.754 309.077 273.674 309.449 273.486 309.769L273.408 309.848Z" fill="#0D0D0D"/>
</g>
</g>
<defs>
<filter id="filter0_d_92_110" x="1.75977" y="31.6248" width="395.482" height="335.684" filterUnits="userSpaceOnUse" color-interpolation-filters="sRGB">
<feFlood flood-opacity="0" result="BackgroundImageFix"/>
<feColorMatrix in="SourceAlpha" type="matrix" values="0 0 0 0 0 0 0 0 0 0 0 0 0 0 0 0 0 0 127 0" result="hardAlpha"/>
<feOffset dx="4" dy="4"/>
<feGaussianBlur stdDeviation="6"/>
<feComposite in2="hardAlpha" operator="out"/>
<feColorMatrix type="matrix" values="0 0 0 0 0.027451 0 0 0 0 0.564706 0 0 0 0 0.27451 0 0 0 0.25 0"/>
<feBlend mode="normal" in2="BackgroundImageFix" result="effect1_dropShadow_92_110"/>
<feBlend mode="normal" in="SourceGraphic" in2="effect1_dropShadow_92_110" result="shape"/>
</filter>
<clipPath id="clip0_92_110">
<rect width="391" height="391" fill="white"/>
</clipPath>
</defs>
</svg>
