<svg width="201" height="200" viewBox="0 0 201 200" fill="none" xmlns="http://www.w3.org/2000/svg">
<g clip-path="url(#clip0_129_50)">
<g filter="url(#filter0_d_129_50)">
<path d="M130.21 22.5804C129.73 22.1504 128.3 22.2404 128.05 22.9504C128.387 22.8086 128.745 22.7241 129.11 22.7004C129.474 22.6358 129.841 22.5957 130.21 22.5804ZM133.6 23.1204C134.161 23.2916 134.695 23.5371 135.19 23.8504C135.15 23.6874 135.073 23.5356 134.966 23.4062C134.858 23.2769 134.723 23.1733 134.571 23.1032C134.418 23.0331 134.252 22.9982 134.084 23.0012C133.916 23.0042 133.75 23.045 133.6 23.1204ZM132.5 25.1104V27.9804C132.562 28.3821 132.481 28.7928 132.27 29.1404C132.02 29.4204 131.27 29.6604 130.92 29.3904C131.218 29.6577 131.6 29.8132 132 29.8304C134.07 29.8504 132.41 26.1504 132.5 25.1104ZM129.03 24.6404C128.63 24.6404 128.57 25.7904 128.98 25.7904C129.39 25.7904 129.5 24.6404 129.03 24.6404ZM134.25 24.8704C133.81 24.8704 133.89 26.0004 134.25 26.0004C134.61 26.0004 134.62 24.8704 134.25 24.8704ZM128.29 29.0704C127.96 30.5904 129.78 32.2304 131.23 31.4204C130.563 31.363 129.927 31.1092 129.404 30.6909C128.881 30.2727 128.493 29.7088 128.29 29.0704ZM53.3003 53.9304C53.3471 54.042 53.404 54.1491 53.4703 54.2504C53.4309 54.1355 53.3735 54.0275 53.3003 53.9304ZM94.2503 145.22C93.4403 144.61 92.3903 144.95 91.4803 145.07C57.5603 149.29 29.8803 150.56 28.4803 151.32C26.7003 152.26 27.2803 155.4 29.4803 155.22C49.8603 153.53 70.2503 151.88 90.5803 149.37C91.6971 149.337 92.8056 149.166 93.8803 148.86C94.2263 148.716 94.527 148.481 94.7505 148.18C94.9739 147.879 95.1119 147.524 95.1498 147.151C95.1878 146.778 95.1242 146.401 94.9658 146.062C94.8075 145.722 94.5602 145.431 94.2503 145.22ZM180.27 164.49C179.68 162.08 177.27 162.49 175.42 162.61L168.79 163.07C167.02 163.2 164.68 163.07 164.09 165.19C163.91 165.84 163.99 165.88 164.35 171.12C164.47 172.81 164.14 175.95 165.57 177.19C166.82 178.28 169.09 177.72 170.57 177.62C180.47 176.92 178.11 177.11 178.48 177.06C179.181 176.997 179.831 176.665 180.293 176.134C180.755 175.603 180.994 174.914 180.96 174.21C180.96 172.6 180.73 170.98 180.62 169.37C180.634 167.737 180.517 166.105 180.27 164.49ZM11.9303 81.2904C23.4992 81.1195 35.0346 79.9991 46.4203 77.9404C29.4103 79.8304 22.5503 80.4104 11.9303 81.2904ZM23.9503 71.7304C32.0251 71.5461 40.0701 70.6831 48.0003 69.1504C39.9803 69.8904 31.9403 70.7604 23.9503 71.7304ZM137.77 68.6404C149.41 67.6404 161.03 66.2004 172.61 64.6404C185.23 62.9704 183.27 63.1704 170.25 64.5504C159.41 65.7204 148.56 67.0004 137.77 68.6404ZM158.11 58.1004C167.37 57.3904 176.69 56.2404 185.85 54.6704C179.99 55.1104 167.82 56.4404 158.11 58.1004ZM26.0503 27.0004C37.0831 26.5743 48.0747 25.405 58.9503 23.5004C55.5803 23.7804 26.1503 26.9404 26.0503 27.0004Z" fill="#0D0D0D"/>
<path d="M185.69 131.32C184.54 118.52 183.91 114.13 180.97 90.8603C180.858 89.157 180.521 87.4759 179.97 85.8603C179.456 84.5271 178.546 83.3833 177.363 82.5825C176.179 81.7816 174.779 81.3621 173.35 81.3803C171.19 81.2903 144.62 83.3203 139.95 83.6603C139.47 83.5003 139.06 82.6603 138.72 82.1803C134.72 76.9503 125.88 70.7003 120.18 68.1803C120.88 67.1803 120.67 65.8103 120.91 64.6503C121.49 61.9003 124.43 60.0903 126.79 54.8203C128.28 51.5003 127.79 51.9103 128.45 51.7603C133.058 52.0057 137.676 51.9757 142.28 51.6703C160.78 50.1003 174.5 39.0003 177.5 31.3603C178.261 31.4816 179.033 31.5084 179.8 31.4403C180.419 31.3979 181 31.1271 181.43 30.6803C182.26 29.8003 182.69 28.2803 181.33 27.6803C181.89 27.5703 183.12 27.3103 182.86 26.4603C182.49 25.2903 179.37 25.7203 178.11 26.1003C176.11 26.6803 175.9 27.2003 175.32 27.2603C174.74 27.3203 175.59 27.0603 173.32 27.4103C170.47 27.8503 167.22 28.2603 164.23 28.7503C151.15 30.9003 150.59 33.7503 147.67 33.5603C142.847 33.0105 137.978 32.9903 133.15 33.5003C135.96 30.3803 136.24 22.7203 136.27 22.6203C136.4 22.1403 136.39 22.3103 136.94 22.2603C139.64 21.9803 142.06 20.1703 141.67 17.5203C141.518 16.5559 141.094 15.655 140.447 14.9235C139.801 14.1919 138.959 13.66 138.02 13.3903C139.7 12.6103 139.08 10.3903 137.9 9.50029C137.371 9.05507 136.735 8.7547 136.055 8.62851C135.375 8.50232 134.674 8.55461 134.02 8.78029C134.3 7.69029 133.35 6.98029 132.44 6.69029C131.89 6.51494 131.309 6.46079 130.735 6.53156C130.162 6.60234 129.611 6.79636 129.12 7.10029C129.82 4.42029 123.22 4.02029 123.36 7.35029C119.89 5.70029 117.47 10.9003 118.27 10.7903C116.76 10.9803 115.12 13.1803 116.41 14.5003C115.911 14.7044 115.458 15.0059 115.077 15.387C114.696 15.7682 114.395 16.2214 114.19 16.7203C114.1 16.9554 114.058 17.2066 114.068 17.4585C114.079 17.7103 114.141 17.9573 114.25 18.1842C114.36 18.4111 114.515 18.613 114.706 18.7775C114.897 18.942 115.12 19.0655 115.36 19.1403C114.28 19.8203 114.19 21.9903 115.69 22.2503C115.483 22.4372 115.321 22.6688 115.216 22.9276C115.112 23.1864 115.067 23.4655 115.087 23.744C115.106 24.0224 115.188 24.2929 115.328 24.5348C115.467 24.7767 115.659 24.9837 115.89 25.1403C116.11 25.3003 116.59 25.4103 116.57 25.7703C116.57 25.8903 116.14 26.3303 116.08 26.4903C115.95 26.8317 115.95 27.2089 116.08 27.5503C116.34 28.1803 116.81 28.1803 117.34 28.4203C117.47 28.4903 118.02 28.8003 118.01 29.3003C117.941 29.9345 117.659 30.5265 117.21 30.9803C116.83 31.2103 116.79 30.9803 116.44 30.7703C111.884 27.5342 106.752 25.1958 101.32 23.8803C92.9753 21.7644 84.2248 21.8431 75.9191 24.1088C67.6135 26.3744 60.0351 30.75 53.9204 36.8103C53.7604 36.9703 53.1804 37.8103 52.9204 37.8103C52.6348 37.6722 52.3606 37.5117 52.1004 37.3303C51.7057 37.1493 51.2829 37.0377 50.8504 37.0003C51.0104 36.7003 51.7004 36.0003 51.5104 35.7203C51.5104 35.6603 43.4404 35.8603 43.4104 35.8803C42.9604 36.0703 42.8504 36.9403 42.7204 37.3903C41.4504 42.0303 42.6404 44.6103 42.7204 47.2603C42.7963 49.6667 43.3115 52.0391 44.2404 54.2603C44.4604 54.7703 44.8304 56.0803 45.3904 56.3203C48.1722 56.4015 50.9542 56.1599 53.6804 55.6003C54.1104 55.4503 54.0704 55.6003 54.0004 55.2503C53.8822 54.893 53.7102 54.5558 53.4904 54.2503C53.6304 54.6203 53.7804 55.1703 53.8704 55.3403C51.6477 55.656 49.4054 55.8131 47.1604 55.8103C46.7616 55.8553 46.3591 55.8553 45.9604 55.8103C45.6304 55.9103 45.4404 55.8103 45.3804 55.4603C43.9785 52.7249 43.1226 49.7428 42.8604 46.6803C43.4779 48.8613 44.5176 50.8998 45.9204 52.6803C46.3604 53.2203 47.1804 54.4703 47.9204 54.6803C48.3725 54.7147 48.827 54.6638 49.2604 54.5303C53.6104 53.9403 53.2604 53.8703 53.3704 53.9703C53.8104 53.9003 54.2604 53.8703 54.6904 53.7803C55.4204 53.6103 55.1804 53.4703 54.6904 52.8603C53.3398 51.1422 52.2233 49.2524 51.3704 47.2403C52.2204 47.2403 53.1804 45.6603 53.5104 45.3903C53.8404 45.1203 53.7504 45.2403 54.2604 45.4403C55.098 45.6846 55.9681 45.7993 56.8404 45.7803C60.0673 45.9639 63.3045 45.8131 66.5004 45.3303C76.5004 43.8903 79.0204 39.7403 83.2304 41.7403C80.7904 44.0703 78.0204 46.8703 76.8604 50.1203C76.3204 51.6203 76.8604 51.9203 76.8604 52.5703C76.8604 52.9903 76.8604 52.9103 76.4404 53.2203C59.5004 66.0003 67.2604 79.7203 69.8304 89.5803C14.8304 94.0903 21.2604 92.7903 18.6804 94.0303C13.1304 96.7003 15.0404 103.78 15.4504 108.63C22.2904 190.33 20.9504 188.94 23.2704 192.27C25.2704 195.2 29.0204 195.18 32.2104 194.85C66.7604 191.34 176.79 185.16 183.4 183.85C187.17 183.12 188.91 180.2 189.06 176.55C189.27 171.33 186.16 136.62 185.69 131.32ZM180.35 31.0003C179.25 30.1103 179.49 29.6503 181.26 30.2303C181.039 30.5706 180.723 30.8384 180.35 31.0003ZM181.5 29.8503C181.327 29.7665 181.146 29.6995 180.96 29.6503C181.105 29.4663 181.226 29.2647 181.32 29.0503C181.373 28.9024 181.385 28.7434 181.357 28.589C181.329 28.4346 181.261 28.2903 181.16 28.1703C181.89 28.5403 181.91 28.9403 181.6 29.6503L181.5 29.8503ZM179.38 26.2503C179.91 26.2003 182.03 25.9703 182.31 26.6103C182.51 27.0703 181.31 27.2103 180.91 27.3103C180.17 27.5103 179.62 27.1903 178.86 27.3103C179.422 27.3814 179.953 27.6102 180.39 27.9703C181.1 28.6303 181.15 28.9703 179.8 28.7903C179.6 28.7903 179.38 29.2003 179.24 29.3303C179.103 29.4829 178.937 29.6067 178.752 29.6943C178.566 29.7818 178.365 29.8315 178.16 29.8403C178.382 29.9111 178.618 29.9235 178.846 29.8762C179.074 29.8289 179.285 29.7235 179.46 29.5703C178.7 30.0903 179.75 30.8203 180.19 31.0403C179.675 31.2267 179.118 31.2682 178.58 31.1603C178.239 31.1527 177.901 31.0885 177.58 30.9703C177.48 30.8903 176.67 28.4803 175.53 27.5603C176.709 26.8928 178.001 26.4487 179.34 26.2503H179.38ZM51.9604 37.5703C52.207 37.7186 52.4442 37.8823 52.6704 38.0603C52.203 38.5474 51.8421 39.1263 51.6104 39.7603C51.4004 40.2903 51.5304 40.3303 51.0404 40.4403C50.7004 40.5203 50.2804 40.4403 49.9304 40.5303C49.9563 39.667 50.1183 38.8131 50.4104 38.0003C50.8504 36.8403 50.6204 36.7903 51.9604 37.5703ZM51.7204 40.4703H51.3704C51.4804 40.2903 51.5904 40.1203 51.7104 39.9503C51.6911 40.1233 51.6944 40.2981 51.7204 40.4703ZM51.3604 47.5903C52.1878 49.6645 53.3056 51.6106 54.6804 53.3703L49.3504 54.0003C48.9617 54.1019 48.5621 54.1557 48.1604 54.1603C47.6404 54.0603 47.1604 53.3503 46.7904 52.9403C45.1249 50.9868 43.9132 48.6885 43.2423 46.2107C42.5714 43.7329 42.458 41.1372 42.9104 38.6103C42.9904 38.1803 43.1504 36.6103 43.5304 36.3003C43.6504 36.2203 43.2304 36.3803 51.2804 35.9403C50.4465 37.12 49.9425 38.5008 49.8204 39.9403C49.8204 40.5303 49.7504 40.4103 49.2104 40.5503C48.9155 40.6129 48.6344 40.7281 48.3804 40.8903C47.8404 41.3003 47.8704 41.8203 48.5804 42.0503C48.1609 42.1082 47.7605 42.2622 47.4104 42.5003C47.2904 42.6003 47.1404 42.9003 47.0104 42.9503C46.7644 42.976 46.5164 42.976 46.2704 42.9503C45.8267 42.9878 45.4012 43.1441 45.0387 43.4028C44.6763 43.6614 44.3901 44.0129 44.2104 44.4203C43.2104 47.0603 48.1504 48.5303 49.3704 46.2003C49.5104 45.9403 49.4904 45.5503 49.6804 45.4203C49.8264 45.4005 49.9744 45.4005 50.1204 45.4203C51.0204 45.3503 50.4604 45.8003 50.6104 46.4203C50.7604 47.0403 51.0404 46.7903 51.3604 47.5903ZM47.6404 45.0803C47.7504 45.5003 49.4704 45.8103 49.5404 45.5403C48.9904 47.9503 44.5404 47.3103 44.6604 44.9903C44.7204 43.7803 45.9604 43.2903 46.9804 43.1003C46.6504 43.1603 47.1004 43.8303 47.1704 43.8703C47.566 44.0256 48.0016 44.0467 48.4104 43.9303C48.0404 44.1203 47.5004 44.6103 47.6404 45.0803ZM50.6404 45.4503C50.7465 45.4355 50.8542 45.4355 50.9604 45.4503C50.8693 45.5454 50.798 45.6575 50.7504 45.7803C50.7104 45.6503 50.6704 45.5503 50.6404 45.4503ZM52.9404 45.7503C52.4904 46.1903 51.4804 47.4203 51.0504 46.5503C50.6904 45.8403 51.4104 45.8603 51.5404 45.3103C51.6704 44.7603 51.4004 45.0103 51.0504 45.0203L49.7904 45.0803C49.4104 45.0803 48.1804 45.3703 48.1404 44.8003C48.1004 44.2303 49.5704 43.9703 49.9104 43.8003C50.4904 43.5203 50.3704 43.3103 49.8204 43.2503C48.8204 43.1503 47.4704 43.8403 47.4604 43.2503C47.4504 42.6603 49.0004 42.5703 49.3104 42.5103C49.6204 42.4503 50.3104 42.3903 49.8904 41.9503C49.6304 41.6803 48.0404 42.0703 48.5604 41.2803C48.8004 40.9303 51.3304 40.4003 51.7504 40.7203C51.8648 41.1393 51.9417 41.5677 51.9804 42.0003C52.2325 43.1266 52.7855 44.1634 53.5804 45.0003C53.3804 45.2803 53.1604 45.5203 52.9404 45.7503ZM81.9404 40.8603C79.9857 40.7104 78.0304 41.1418 76.3204 42.1003C72.4504 43.9803 64.1304 45.6503 57.3204 45.1003C54.8604 44.8903 54.2104 44.8103 53.0904 42.7203C52.6095 41.9528 52.3532 41.066 52.3504 40.1603C52.5436 39.2853 53.0438 38.5084 53.7604 37.9703C70.7604 20.5703 97.7604 18.5603 115.58 30.4603C115.725 30.5457 115.862 30.6427 115.99 30.7503C116.06 31.2103 116.17 31.9203 116.2 32.2603C116.46 35.3203 118.39 39.4703 121.29 40.4003C123.09 40.9903 125.79 39.8403 125.29 37.5703C125.42 40.1703 121.47 41.2403 119.14 38.1603C117.568 36.0074 116.539 33.5065 116.14 30.8703C116.55 31.1603 116.68 31.5003 117.14 31.2303C117.79 30.8603 117.92 29.4403 118.09 29.2303C118.41 28.8303 119.3 29.6103 120.09 28.8803C120.258 28.6913 120.385 28.4688 120.46 28.2275C120.536 27.9861 120.56 27.7315 120.53 27.4803C120.458 27.1908 120.404 26.8968 120.37 26.6003C120.37 26.3803 120.54 26.2203 120.57 26.0203C120.65 25.4003 120.22 25.2503 119.85 24.8103C119.514 24.4029 119.306 23.9055 119.25 23.3803C119.17 22.6503 119.35 21.2603 120.37 21.3803C121.39 21.5003 121.37 22.8703 121.89 23.5303C122.046 23.6931 122.247 23.8054 122.467 23.8523C122.687 23.8993 122.916 23.8787 123.125 23.7935C123.333 23.7082 123.511 23.5621 123.635 23.3742C123.759 23.1863 123.824 22.9654 123.82 22.7403C123.82 21.4503 123.33 20.0903 123.25 18.7403C125.43 18.9003 125.82 17.9403 126.47 18.0903C126.91 18.1903 126.91 18.6303 128.75 19.9703C130.862 21.4181 133.342 22.2365 135.9 22.3303C135.757 23.8481 135.513 25.3548 135.17 26.8403C134.7 29.0003 134 31.5803 132.34 33.1603C130.93 34.5203 128.68 34.5403 126.9 34.0003C126.473 33.8538 126.056 33.6801 125.65 33.4803C125.14 33.2603 125.12 33.2103 124.93 33.7803C124.639 34.3875 124.501 35.0572 124.529 35.7303C124.556 36.4034 124.749 37.0593 125.09 37.6403C123.94 35.5403 126.02 34.4403 127.86 34.8503C128.663 35.1231 129.521 35.1946 130.358 35.0586C131.194 34.9226 131.985 34.5832 132.66 34.0703C133.533 33.7816 134.452 33.6528 135.37 33.6903C138.444 33.4854 141.529 33.5055 144.6 33.7503C146.46 33.9303 147.99 34.5103 149.79 33.6903C156.28 30.6903 158.09 30.3603 173.09 28.0003C173.63 27.9103 174.65 27.5303 175.17 27.8403C175.44 27.9903 176.93 30.2603 176.86 31.1103C176.682 31.8997 176.315 32.6341 175.79 33.2503C170.74 40.6503 163.06 45.2503 154.61 48.5003C146.16 51.7503 137.01 52.2103 128.19 51.5003C128.73 50.3089 129.123 49.0564 129.36 47.7703C128.76 49.8803 125.68 56.8803 124.2 58.3503C123.8 58.7503 124 58.5903 123.45 58.4703C121.45 58.0003 121.36 61.1303 118.36 57.6703C115.54 54.4203 113.06 57.1103 111.45 56.2203C110.32 55.6003 110.23 53.8103 109.55 52.8103C109.076 52.1545 108.452 51.621 107.73 51.2541C107.009 50.8872 106.21 50.6974 105.4 50.7003C103.87 50.6103 101.99 50.9903 100.84 49.7003C99.6904 48.4103 99.4404 46.4803 98.0104 45.3303C96.2404 43.9003 94.3704 45.0303 93.9304 42.3303C93.8904 42.3703 91.8304 41.7803 81.8904 40.8603H81.9404ZM124.94 35.0303C125.07 34.6303 125.21 34.2303 125.35 33.8303C126.93 34.8803 127.17 34.1003 124.9 35.0003L124.94 35.0303ZM78.5004 48.7103C80.0378 46.1889 81.8818 43.8679 83.9904 41.8003C84.2104 41.6303 91.0504 42.2803 91.1004 42.3103C91.3904 42.4503 91.3304 42.5803 91.4004 42.9503C91.5062 43.7042 91.7888 44.4223 92.225 45.0462C92.6612 45.6701 93.2387 46.182 93.9104 46.5403C95.9104 47.5403 95.9104 46.0703 97.6904 49.6803C100.61 55.4903 104.88 51.8103 107.1 54.0603C108.82 55.8003 108.18 59.5003 113.19 58.8503C114.19 58.7303 115.25 58.3603 116.06 59.0503C117.18 60.0503 117.9 62.6203 121.59 61.6703C119.73 64.3303 120.21 64.9903 119.59 67.1603C118.74 70.3303 114.83 73.0703 111.65 74.1603C109.517 74.7959 107.258 74.8853 105.08 74.4203C88.0204 71.5703 77.7804 53.4203 77.4804 51.6003C77.4902 50.5505 77.8491 49.5337 78.5004 48.7103ZM103.12 86.8103C97.9604 87.2603 98.6704 87.3403 98.3804 86.8803C98.0904 86.4203 98.0604 85.9803 97.4704 84.7903C100.97 85.0003 101.59 86.1103 103.15 86.8103H103.12ZM16.0304 107.33C15.7004 102.88 14.4604 96.5203 19.7504 94.6403C21.5004 94.0003 69.5804 90.5203 69.6804 90.5303C70.1804 90.5903 70.0904 90.6003 70.2304 91.2303C73.5804 106.07 66.7704 121.01 55.4004 130.93C56.1804 131.76 56.9804 132.57 57.8004 133.37L57.0704 133.95C56.0704 132.95 55.0704 131.95 54.0704 130.86C58.0254 127.488 61.4356 123.524 64.1804 119.11C48.5337 120.444 32.867 121.704 17.1804 122.89L16.0304 107.33ZM61.3004 136.73C60.1804 138.73 65.6604 144.87 62.7804 144.9C61.6204 144.9 60.2004 143.13 59.4704 142.39C58.1525 141.076 56.9263 139.673 55.8004 138.19C55.3104 137.53 54.9404 137.01 55.4304 136.24C56.1455 135.44 56.9321 134.707 57.7804 134.05C58.2104 133.63 58.2104 133.8 58.6504 134.22C62.1804 137.62 61.1704 136.61 61.3004 136.73ZM179.24 183.27C128.97 185.81 82.6104 188.92 32.9004 193.67C27.2304 194.21 23.2604 193.8 22.7404 188.1C22.0204 180.28 22.4904 184.7 18.8504 143.01C29.9704 141.91 42.3504 140.73 53.0304 139.75C53.9088 139.549 54.8099 139.465 55.7104 139.5C56.2804 139.63 56.9304 140.76 57.3704 141.23C58.527 142.576 59.8281 143.79 61.2504 144.85C62.4904 145.69 64.4704 145.92 64.1404 143.85C63.7504 141.4 60.9004 138.5 61.6004 137.04C64.8704 140.13 65.5304 138.9 69.1404 137.04C80.8701 131.018 90.1887 121.166 95.5504 109.12C98.3604 102.7 100.65 94.9803 98.7504 87.9903C116.67 86.5403 130.62 84.9903 141.52 83.7803L167.52 81.8703C175.57 82.2103 178.88 84.6603 180.62 90.9403C183.17 110.1 182.83 107.34 183.01 109.37C181.47 109.27 92.6904 116.67 92.6104 116.72C86.7872 126.028 78.473 133.517 68.6104 138.34C85.2104 136.86 184.43 128.45 184.53 128.47C185.05 128.6 184.73 128.15 184.97 128.84C184.97 128.94 187.19 150.76 188.05 175.24C188.26 181.9 185.24 183 179.24 183.27Z" fill="#0D0D0D"/>
</g>
</g>
<defs>
<filter id="filter0_d_129_50" x="3.93027" y="-3.02881" width="201.14" height="214.027" filterUnits="userSpaceOnUse" color-interpolation-filters="sRGB">
<feFlood flood-opacity="0" result="BackgroundImageFix"/>
<feColorMatrix in="SourceAlpha" type="matrix" values="0 0 0 0 0 0 0 0 0 0 0 0 0 0 0 0 0 0 127 0" result="hardAlpha"/>
<feOffset dx="4" dy="4"/>
<feGaussianBlur stdDeviation="6"/>
<feComposite in2="hardAlpha" operator="out"/>
<feColorMatrix type="matrix" values="0 0 0 0 0.027451 0 0 0 0 0.564706 0 0 0 0 0.27451 0 0 0 0.25 0"/>
<feBlend mode="normal" in2="BackgroundImageFix" result="effect1_dropShadow_129_50"/>
<feBlend mode="normal" in="SourceGraphic" in2="effect1_dropShadow_129_50" result="shape"/>
</filter>
<clipPath id="clip0_129_50">
<rect width="200" height="200" fill="white" transform="translate(0.5)"/>
</clipPath>
</defs>
</svg>
