<svg width="21" height="22" viewBox="0 0 21 22" fill="none" xmlns="http://www.w3.org/2000/svg">
<path d="M20.4 6.1954C20.4 3.9888 18.6112 2.2 16.4046 2.2C14.7225 2.2 13.2776 0.865988 11.718 0.235916C11.3416 0.0838509 10.9308 0 10.5 0C10.0692 0 9.65838 0.083851 9.28197 0.235916C7.72231 0.865989 6.27748 2.2 4.59537 2.2C2.38877 2.2 0.599976 3.9888 0.599976 6.19539V12.1C0.599976 17.5676 5.03236 22 10.5 22C15.9676 22 20.4 17.5676 20.4 12.1V6.1954ZM10.5 2.2C11.105 2.2 11.6 2.695 11.6 3.3C11.6 3.905 11.105 4.4 10.5 4.4C9.89498 4.4 9.39997 3.905 9.39997 3.3C9.39997 2.695 9.89498 2.2 10.5 2.2ZM12.7 16.5C12.7 17.1075 12.2075 17.6 11.6 17.6H6.09998C5.49246 17.6 4.99998 17.1075 4.99998 16.5C4.99998 15.8925 5.49246 15.4 6.09998 15.4H11.6C12.2075 15.4 12.7 15.8925 12.7 16.5ZM16 12.1C16 12.7075 15.5075 13.2 14.9 13.2H6.09998C5.49246 13.2 4.99998 12.7075 4.99998 12.1C4.99998 11.4925 5.49246 11 6.09998 11H14.9C15.5075 11 16 11.4925 16 12.1ZM16 7.7C16 8.30751 15.5075 8.8 14.9 8.8H6.09998C5.49246 8.8 4.99998 8.30751 4.99998 7.7C4.99998 7.09249 5.49246 6.6 6.09998 6.6H14.9C15.5075 6.6 16 7.09249 16 7.7Z" fill="#079046"/>
</svg>
