<svg width="49" height="48" viewBox="0 0 49 48" fill="none" xmlns="http://www.w3.org/2000/svg">
<path d="M34.8053 30.1887H32.6372L31.8688 29.4477C34.5583 26.319 36.1775 22.2573 36.1775 17.8388C36.1775 7.98628 28.1913 0 18.3388 0C8.48628 0 0.5 7.98628 0.5 17.8388C0.5 27.6913 8.48628 35.6775 18.3388 35.6775C22.7573 35.6775 26.819 34.0583 29.9477 31.3688L30.6887 32.1372V34.3053L44.4108 48L48.5 43.9108L34.8053 30.1887ZM18.3388 30.1887C11.5051 30.1887 5.98885 24.6724 5.98885 17.8388C5.98885 11.0051 11.5051 5.48885 18.3388 5.48885C25.1724 5.48885 30.6887 11.0051 30.6887 17.8388C30.6887 24.6724 25.1724 30.1887 18.3388 30.1887Z" fill="#0D0D0D"/>
</svg>
