<svg width="260" height="260" viewBox="0 0 260 260" fill="none" xmlns="http://www.w3.org/2000/svg">
<g clip-path="url(#clip0_151_108)">
<g filter="url(#filter0_d_151_108)">
<path d="M182 78.9228C181.631 79.378 181.236 79.812 180.817 80.2228C180.772 80.2763 180.744 80.3417 180.735 80.411C180.726 80.4804 180.737 80.5508 180.768 80.6139C180.798 80.677 180.845 80.73 180.905 80.7667C180.964 80.8034 181.033 80.8222 181.103 80.8208C182.611 79.8962 183.803 78.5365 184.522 76.9208C184.704 76.3748 183.859 75.8808 183.586 76.4788C182.871 78.0518 180.167 78.1428 179.452 77.8958C179.354 77.8596 179.245 77.8639 179.15 77.9078C179.055 77.9517 178.981 78.0315 178.945 78.1298C178.909 78.228 178.913 78.3367 178.957 78.4317C179.001 78.5268 179.081 78.6006 179.179 78.6368C180.084 78.9501 181.05 79.048 182 78.9228ZM177.281 72.2928C176.669 72.8373 176.022 73.3411 175.344 73.8008C175.217 73.8833 175.113 73.9972 175.042 74.1315C174.972 74.2659 174.937 74.4161 174.941 74.5678C174.941 75.0358 176.579 76.2578 176.592 76.2708C176.661 76.3219 176.746 76.3471 176.831 76.3419C176.917 76.3367 176.998 76.3015 177.06 76.2425C177.122 76.1834 177.161 76.1043 177.171 76.0192C177.18 75.934 177.16 75.8481 177.112 75.7768C177.021 75.6078 176.501 74.9708 176.176 74.5418C177.645 73.0728 178.308 72.5918 177.814 72.2278C177.731 72.1764 177.633 72.1548 177.536 72.1666C177.439 72.1784 177.349 72.2229 177.281 72.2928ZM176.15 71.4998C176.67 71.2658 176.54 70.6678 177.164 69.1078C177.189 69.0514 177.202 68.9908 177.204 68.9293C177.205 68.8677 177.194 68.8066 177.172 68.7492C177.149 68.6919 177.116 68.6395 177.073 68.5951C177.031 68.5506 176.98 68.515 176.924 68.4903C176.867 68.4655 176.807 68.4521 176.745 68.4508C176.684 68.4495 176.622 68.4603 176.565 68.4826C176.508 68.505 176.455 68.5384 176.411 68.581C176.366 68.6235 176.331 68.6744 176.306 68.7308C175.578 70.2518 175.006 70.5638 175.24 71.0968C175.268 71.1866 175.315 71.2694 175.378 71.3396C175.441 71.4097 175.518 71.4658 175.604 71.5039C175.69 71.542 175.783 71.5614 175.878 71.5607C175.972 71.56 176.065 71.5392 176.15 71.4998ZM181.506 73.1508C182.026 72.9168 181.909 72.3058 182.52 70.7588C182.57 70.645 182.573 70.516 182.528 70.4002C182.483 70.2844 182.393 70.1913 182.28 70.1413C182.166 70.0913 182.037 70.0885 181.921 70.1336C181.805 70.1787 181.712 70.268 181.662 70.3818C181.064 71.6818 180.362 72.2278 180.583 72.7478C180.613 72.838 180.661 72.921 180.725 72.9912C180.789 73.0615 180.867 73.1175 180.955 73.1555C181.042 73.1935 181.136 73.2128 181.231 73.2119C181.326 73.2111 181.42 73.1903 181.506 73.1508ZM75.5171 51.2328C74.8931 46.5918 75.0101 46.4878 74.6071 46.4878C51.8831 46.4878 53.0921 46.3318 53.0921 46.8128V51.1158C53.0921 51.2978 53.2351 51.5188 53.4171 51.5188C76.4141 51.5968 75.5951 51.7268 75.5171 51.2328ZM82.7841 46.4878C76.5701 46.4878 76.9341 46.4878 76.7911 46.5918C76.6481 46.6958 76.6741 46.5008 77.2721 51.3108C77.2721 51.7138 77.3371 51.5968 82.7841 51.5968C82.8703 51.5968 82.953 51.5625 83.0139 51.5016C83.0749 51.4406 83.1091 51.358 83.1091 51.2718V46.7998C83.1058 46.7159 83.07 46.6365 83.0094 46.5783C82.9489 46.5202 82.8681 46.4877 82.7841 46.4878ZM195.364 46.5658L187.122 47.1378C187.082 47.1377 187.042 47.1459 187.005 47.1617C186.967 47.1775 186.934 47.2007 186.906 47.2299C186.878 47.2591 186.856 47.2936 186.842 47.3314C186.828 47.3692 186.821 47.4094 186.823 47.4498V52.3638C186.823 52.45 186.857 52.5326 186.918 52.5936C186.979 52.6545 187.062 52.6888 187.148 52.6888H195.377C195.463 52.6888 195.546 52.6545 195.607 52.5936C195.668 52.5326 195.702 52.45 195.702 52.3638C195.702 46.7998 195.845 46.5528 195.364 46.5658ZM57.3691 69.7058V65.8708C57.3691 65.7846 57.3349 65.7019 57.2739 65.641C57.213 65.58 57.1303 65.5458 57.0441 65.5458H53.8591C53.7729 65.5458 53.6903 65.58 53.6293 65.641C53.5684 65.7019 53.5341 65.7846 53.5341 65.8708C53.5341 70.1738 53.5341 69.9658 53.6381 70.0958C53.7421 70.2258 53.6381 70.1998 57.0571 70.0308C57.14 70.0244 57.2176 69.9878 57.2752 69.9278C57.3327 69.8679 57.3662 69.7888 57.3691 69.7058ZM75.9331 64.6748C58.1491 65.5978 58.8121 65.4028 58.8121 65.8708C58.8121 69.8488 58.8121 69.6538 58.9031 69.7708C58.9941 69.8878 57.9931 69.8748 75.9461 69.6148C76.0323 69.6148 76.115 69.5805 76.1759 69.5196C76.2369 69.4586 76.2711 69.376 76.2711 69.2898V64.9998C76.2731 64.9554 76.2657 64.9112 76.2492 64.87C76.2327 64.8288 76.2077 64.7915 76.1757 64.7608C76.1437 64.73 76.1055 64.7064 76.0637 64.6916C76.0219 64.6768 75.9773 64.671 75.9331 64.6748ZM102.297 64.6618V68.4318C102.297 68.518 102.331 68.6006 102.392 68.6616C102.453 68.7225 102.536 68.7568 102.622 68.7568C107.094 68.7568 106.873 68.7568 107.016 68.6398C107.159 68.5228 107.133 68.6398 106.548 64.6098C106.548 64.2198 106.353 64.3368 102.648 64.3368C102.603 64.3332 102.558 64.3389 102.516 64.3536C102.473 64.3684 102.434 64.3917 102.401 64.4223C102.368 64.4528 102.342 64.4899 102.324 64.5311C102.306 64.5723 102.297 64.6168 102.297 64.6618ZM121.446 68.6918C121.589 68.5228 121.55 68.6918 121.095 64.8698C121.095 64.4668 121.745 64.6098 108.992 64.3758C108.946 64.3754 108.9 64.385 108.858 64.4037C108.816 64.4224 108.778 64.4499 108.747 64.4843C108.717 64.5188 108.694 64.5594 108.68 64.6034C108.666 64.6475 108.662 64.6939 108.667 64.7398C109.161 68.7958 109.07 68.7958 109.46 68.7958C122.2 68.7958 121.303 68.8998 121.446 68.6918ZM123.812 68.7568C129.35 68.9128 129.012 68.9388 129.155 68.7568C129.298 68.5748 129.259 68.8478 129.259 64.6228C129.256 64.5354 129.219 64.4527 129.156 64.3921C129.093 64.3315 129.009 64.2977 128.921 64.2978C122.889 64.5318 123.24 64.4668 123.11 64.6228C122.98 64.7788 123.019 64.6228 123.5 68.4318C123.506 68.5139 123.54 68.5915 123.597 68.6509C123.654 68.7104 123.73 68.7478 123.812 68.7568ZM58.7471 85.3708C59.5141 80.5608 59.5141 80.8208 59.3711 80.6648C59.2281 80.5088 59.4491 80.5348 54.8991 80.7818C54.8175 80.7883 54.7414 80.8254 54.6859 80.8857C54.6305 80.9459 54.5999 81.0249 54.6001 81.1068V85.6048C54.6001 85.691 54.6344 85.7736 54.6953 85.8346C54.7563 85.8955 54.8389 85.9298 54.9251 85.9298L58.5001 85.6438C58.5649 85.6303 58.6238 85.5967 58.6682 85.5476C58.7126 85.4985 58.7402 85.4366 58.7471 85.3708ZM64.8311 85.0848C64.8311 80.3658 64.8311 80.6258 64.7271 80.4828C64.6231 80.3398 64.8051 80.3918 61.2041 80.5478C60.8271 80.5478 60.9051 80.5478 60.3981 85.0458C60.3926 85.0916 60.3969 85.1381 60.4107 85.1822C60.4245 85.2262 60.4476 85.2668 60.4783 85.3012C60.5091 85.3357 60.5468 85.3632 60.589 85.3819C60.6312 85.4006 60.6769 85.4101 60.7231 85.4098H64.5061C64.5923 85.4098 64.675 85.3755 64.7359 85.3146C64.7969 85.2536 64.8311 85.171 64.8311 85.0848ZM71.3311 80.3138C71.3311 85.0198 71.3311 84.7598 71.4221 84.9028C71.5131 85.0458 69.5891 85.1108 103.337 83.2518C103.382 83.2488 103.426 83.2363 103.467 83.2152C103.507 83.1942 103.542 83.165 103.57 83.1295C103.598 83.094 103.619 83.053 103.63 83.0091C103.641 82.9652 103.643 82.9195 103.636 82.8748L102.804 77.5708C102.791 77.4892 102.748 77.4156 102.683 77.3649C102.617 77.3141 102.535 77.2902 102.453 77.2978C69.7841 80.1838 71.3311 79.8458 71.3311 80.3138ZM114.491 82.4198C114.491 76.2448 114.491 76.6088 114.387 76.4658C114.283 76.3228 114.842 76.2968 104.962 77.2718C104.874 77.2847 104.793 77.3309 104.738 77.401C104.682 77.471 104.656 77.5597 104.663 77.6488C105.495 83.0958 105.391 83.1218 105.781 83.1218L114.179 82.7448C114.263 82.7414 114.342 82.7057 114.401 82.6451C114.459 82.5845 114.491 82.5038 114.491 82.4198ZM121.654 76.6998V82.2638C121.654 82.35 121.688 82.4326 121.749 82.4936C121.81 82.5545 121.893 82.5888 121.979 82.5888H130.26C130.346 82.5888 130.429 82.5545 130.49 82.4936C130.551 82.4326 130.585 82.35 130.585 82.2638C130.585 75.8938 130.585 76.3228 130.481 76.1798C130.377 76.0368 130.988 76.0498 121.966 76.3748C121.882 76.3781 121.803 76.4139 121.745 76.4744C121.687 76.535 121.654 76.6158 121.654 76.6998ZM163.228 60.5668C154.128 61.1258 154.427 60.9438 154.427 61.3858V66.4168C154.427 66.503 154.461 66.5856 154.522 66.6466C154.583 66.7075 154.666 66.7418 154.752 66.7418H163.254C163.34 66.7418 163.423 66.7075 163.484 66.6466C163.545 66.5856 163.579 66.503 163.579 66.4168C163.579 60.8918 163.722 60.5408 163.228 60.5668ZM62.2701 102.856C62.6731 96.4338 62.6861 96.9538 62.5561 96.8108C62.4261 96.6678 62.9461 96.7068 55.5101 96.7068C55.4239 96.7068 55.3413 96.741 55.2803 96.802C55.2194 96.8629 55.1851 96.9456 55.1851 97.0318V102.843C55.1851 102.929 55.2194 103.012 55.2803 103.073C55.3413 103.134 55.4239 103.168 55.5101 103.168H61.9451C62.0282 103.165 62.1072 103.131 62.1672 103.074C62.2271 103.016 62.2638 102.939 62.2701 102.856ZM79.3651 96.3428C79.2812 96.3461 79.2018 96.3819 79.1437 96.4424C79.0855 96.503 79.0531 96.5838 79.0531 96.6678V101.595C79.0531 101.681 79.0874 101.764 79.1483 101.825C79.2093 101.886 79.2919 101.92 79.3781 101.92H84.5001C84.5863 101.92 84.669 101.886 84.7299 101.825C84.7909 101.764 84.8251 101.681 84.8251 101.595V96.4728C84.8218 96.3854 84.7847 96.3027 84.7216 96.2421C84.6586 96.1815 84.5746 96.1477 84.4871 96.1478L79.3651 96.3428ZM109.408 95.3418C85.5271 95.9658 86.7491 95.9008 86.7491 96.3688C86.7491 101.894 86.7491 101.569 86.8401 101.712C86.9311 101.855 85.5401 101.868 109.434 101.296C109.517 101.289 109.595 101.253 109.652 101.193C109.71 101.133 109.743 101.054 109.746 100.971V95.6668C109.748 95.6224 109.741 95.5782 109.724 95.537C109.708 95.4958 109.683 95.4585 109.651 95.4278C109.619 95.397 109.581 95.3734 109.539 95.3586C109.497 95.3438 109.452 95.338 109.408 95.3418ZM130.156 95.2248C129.61 100.581 129.597 100.256 129.74 100.425C129.883 100.594 129.051 100.529 140.062 100.529C140.116 100.534 140.171 100.525 140.221 100.504C140.271 100.483 140.314 100.449 140.348 100.406C140.382 100.364 140.404 100.313 140.413 100.26C140.422 100.206 140.418 100.151 140.4 100.1C139.256 94.7048 139.373 94.6788 138.983 94.6918C129.883 94.8998 130.195 94.8218 130.156 95.2248ZM142.857 100.464H146.601C146.683 100.464 146.762 100.433 146.822 100.378C146.882 100.323 146.92 100.246 146.926 100.165C147.472 94.1978 147.485 94.5748 147.329 94.4188C147.173 94.2628 147.563 94.3018 141.492 94.6658C141.445 94.67 141.4 94.6843 141.359 94.7077C141.319 94.7311 141.283 94.7631 141.256 94.8014C141.229 94.8397 141.211 94.8834 141.202 94.9296C141.193 94.9757 141.195 95.0232 141.206 95.0688C142.636 100.62 142.506 100.464 142.857 100.464ZM92.7681 44.2778C87.9191 47.9048 87.2431 48.2558 87.2171 48.7108C87.2171 49.3998 89.8171 51.7268 89.9081 51.7528C89.9803 51.7923 90.0635 51.8071 90.1449 51.7949C90.2263 51.7827 90.3015 51.7442 90.359 51.6852C90.4165 51.6263 90.4531 51.5501 90.4632 51.4684C90.4733 51.3867 90.4565 51.304 90.4151 51.2328C90.0121 50.6998 89.0241 49.3608 88.7121 48.9188C89.3491 48.2948 92.0531 46.0068 93.3271 45.0188C93.7951 44.6548 93.2361 43.9268 92.7681 44.2778ZM111.124 43.9398C111.044 43.8771 110.944 43.8448 110.843 43.8487C110.741 43.8526 110.644 43.8925 110.57 43.9611C110.495 44.0298 110.447 44.1229 110.434 44.2237C110.421 44.3246 110.445 44.4267 110.5 44.5118C111.664 46.0665 112.72 47.6997 113.659 49.3998C113.659 49.5298 111.761 51.8438 110.994 53.0268C110.942 53.1035 110.92 53.1974 110.935 53.2893C110.949 53.3812 110.998 53.464 111.072 53.5208C111.146 53.5746 111.234 53.6037 111.326 53.6037C111.417 53.6037 111.506 53.5746 111.579 53.5208C112.307 52.7538 114.374 50.4008 114.66 49.9588C115.44 48.6978 112.944 45.9158 111.124 43.9398ZM98.2411 44.8368C98.0123 44.7624 97.7702 44.7378 97.5311 44.7646C97.292 44.7913 97.0613 44.8688 96.8545 44.9919C96.6478 45.115 96.4697 45.2808 96.3322 45.4782C96.1946 45.6756 96.1009 45.9002 96.0571 46.1368C95.9521 47.1429 95.9086 48.1544 95.9271 49.1658H94.6271C94.4984 49.1858 94.3811 49.2512 94.2964 49.3501C94.2117 49.4491 94.1651 49.575 94.1651 49.7053C94.1651 49.8355 94.2117 49.9615 94.2964 50.0604C94.3811 50.1594 94.4984 50.2247 94.6271 50.2448L95.9921 50.4528C95.9832 51.1488 96.031 51.8445 96.1351 52.5328C96.2521 53.2348 97.2401 53.0918 97.3181 52.4418C97.3701 51.8189 97.3701 51.1927 97.3181 50.5698C97.9291 50.5698 98.5271 50.5698 98.6181 49.9718C98.7091 49.3738 97.9291 49.2828 97.3181 49.2308C97.2011 46.5268 97.4741 46.1238 97.5261 46.0588C97.8771 45.7858 98.4361 46.0588 97.9161 46.8778C97.8553 46.9678 97.8322 47.0781 97.8516 47.185C97.871 47.2919 97.9315 47.3869 98.0201 47.4498C98.6441 47.9178 99.6451 45.4998 98.2411 44.8368ZM102.492 49.0098C101.929 49.0487 101.365 49.0487 100.802 49.0098C100.692 49.0098 100.586 49.0536 100.508 49.1316C100.43 49.2096 100.386 49.3155 100.386 49.4258C100.386 49.5361 100.43 49.6419 100.508 49.7199C100.586 49.798 100.692 49.8418 100.802 49.8418L102.102 50.0108C102.817 50.1148 102.427 49.8288 102.622 51.5578C102.622 51.7405 102.695 51.9158 102.824 52.045C102.953 52.1742 103.128 52.2468 103.311 52.2468C103.494 52.2468 103.669 52.1742 103.798 52.045C103.928 51.9158 104 51.7405 104 51.5578C103.993 51.1232 103.962 50.6892 103.909 50.2578H104.65C104.823 50.2578 104.988 50.1893 105.11 50.0674C105.232 49.9455 105.3 49.7802 105.3 49.6078C105.3 49.4354 105.232 49.2701 105.11 49.1482C104.988 49.0263 104.823 48.9578 104.65 48.9578C103.571 48.9578 103.727 49.0358 103.701 48.8278C103.597 48.2298 103.493 47.6188 103.441 47.0208C103.441 46.9104 103.397 46.8046 103.319 46.7266C103.241 46.6486 103.135 46.6048 103.025 46.6048C102.915 46.6048 102.809 46.6486 102.731 46.7266C102.653 46.8046 102.609 46.9104 102.609 47.0208C102.544 47.8528 102.492 48.6978 102.492 49.0098Z" fill="#0D0D0D"/>
<path d="M109.2 48.7497C109.134 48.2104 109.095 47.668 109.083 47.1247C109.065 47.0254 109.014 46.9354 108.936 46.8705C108.859 46.8057 108.761 46.7701 108.66 46.7701C108.56 46.7701 108.462 46.8057 108.385 46.8705C108.307 46.9354 108.255 47.0254 108.238 47.1247C108.238 47.7097 108.16 48.2557 108.108 48.8407C107.61 48.8717 107.111 48.8717 106.613 48.8407C106.497 48.8597 106.392 48.9191 106.316 49.0084C106.24 49.0977 106.199 49.2111 106.199 49.3282C106.199 49.4454 106.24 49.5588 106.316 49.6481C106.392 49.7374 106.497 49.7968 106.613 49.8157C107.094 49.8157 107.536 49.8937 108.03 49.9327C107.926 51.0767 107.822 52.2337 108.693 52.2337C109.564 52.2337 109.46 51.0637 109.356 49.9847C110.071 49.9847 111.007 49.9847 110.981 49.3087C110.955 48.6327 109.954 48.6847 109.2 48.7497ZM82.7839 56.3807C81.1459 56.8097 80.1839 58.4347 80.0279 60.7097C79.9629 62.5947 80.4959 64.9867 78.8449 66.0917C78.7304 66.1684 78.641 66.2771 78.5878 66.4042C78.5347 66.5314 78.5201 66.6714 78.5459 66.8067C78.7799 67.9507 80.8339 66.3127 80.4179 71.1747C80.2609 71.7931 80.2644 72.4413 80.4282 73.0578C80.592 73.6744 80.9107 74.2389 81.3539 74.6977C81.7637 74.9881 82.2343 75.1812 82.7298 75.2623C83.2254 75.3434 83.733 75.3104 84.2139 75.1657C84.3034 75.1428 84.3827 75.0908 84.4394 75.0178C84.496 74.9449 84.5268 74.8551 84.5268 74.7627C84.5268 74.6704 84.496 74.5806 84.4394 74.5077C84.3827 74.4347 84.3034 74.3827 84.2139 74.3597C83.3169 74.2297 82.2769 74.3597 81.8089 73.5927C81.412 72.5406 81.353 71.391 81.6399 70.3037C81.7702 69.6044 81.7282 68.8838 81.5176 68.2043C81.3069 67.5248 80.934 66.9068 80.4309 66.4037C82.6539 63.6867 79.8199 58.2917 83.0309 57.1997C83.1144 57.1488 83.1787 57.0716 83.2136 56.9802C83.2485 56.8888 83.2522 56.7885 83.2239 56.6948C83.1957 56.6012 83.1371 56.5195 83.0575 56.4627C82.9779 56.4058 82.8817 56.377 82.7839 56.3807ZM99.0989 57.3037C98.1239 56.2247 96.7589 56.7447 95.7189 56.5627C95.6583 56.5499 95.5958 56.5492 95.5349 56.5606C95.474 56.5719 95.416 56.5952 95.3641 56.629C95.3121 56.6628 95.2674 56.7065 95.2324 56.7576C95.1974 56.8087 95.1727 56.8661 95.1599 56.9267C95.1471 56.9874 95.1464 57.0499 95.1578 57.1108C95.1691 57.1717 95.1924 57.2297 95.2262 57.2816C95.26 57.3335 95.3037 57.3783 95.3547 57.4133C95.4058 57.4483 95.4633 57.4729 95.5239 57.4857C96.6159 57.6937 97.8379 57.3817 98.2929 58.3697C99.1509 60.2677 97.1879 65.1687 98.8779 67.2487C97.3699 69.0817 99.1639 71.9807 97.8119 73.2937C97.3047 73.7426 96.6424 73.9758 95.9659 73.9437C95.8652 73.9259 95.7614 73.9458 95.6745 73.9997C95.5875 74.0535 95.5234 74.1375 95.4945 74.2357C95.4655 74.3338 95.4737 74.4391 95.5175 74.5315C95.5613 74.624 95.6377 74.697 95.7319 74.7367C96.1066 74.8581 96.5016 74.9042 96.8942 74.8724C97.2867 74.8406 97.6691 74.7316 98.0194 74.5517C98.3698 74.3717 98.6811 74.1242 98.9355 73.8236C99.1899 73.523 99.3824 73.175 99.5019 72.7997C99.6757 72.0382 99.6757 71.2473 99.5019 70.4857C99.0729 67.3787 100.399 68.2237 100.425 67.3007C100.451 66.3777 99.2159 67.0927 99.4369 64.4017C99.7879 60.8787 100.243 58.5647 99.0989 57.3037Z" fill="#0D0D0D"/>
<path d="M86.0209 62.5039C85.6055 62.477 85.1908 62.5646 84.8217 62.7571C84.4527 62.9497 84.1435 63.2398 83.9279 63.5959C83.6221 63.8811 83.3945 64.2401 83.2671 64.6384C83.1396 65.0367 83.1165 65.4611 83.1999 65.8709C83.4857 66.51 83.9831 67.031 84.6083 67.3459C85.2336 67.6609 85.9483 67.7506 86.6319 67.5999C86.3329 68.8999 85.9819 69.4979 84.3049 69.1599C84.1883 69.1526 84.0729 69.1868 83.9791 69.2566C83.8854 69.3263 83.8194 69.4271 83.7929 69.5409C83.7664 69.6547 83.7811 69.7742 83.8344 69.8782C83.8876 69.9822 83.9761 70.0639 84.0839 70.1089C85.6179 70.4729 87.0739 70.1089 87.5419 68.6529C88.9979 64.9999 87.5419 62.8029 86.0209 62.5039ZM85.5399 66.4039C84.6949 66.1049 84.4869 65.7539 84.4219 65.4939C84.3569 65.2339 84.5389 64.7659 84.9029 64.3369C85.2669 63.9079 85.5009 63.6089 85.8649 63.7519C87.2429 64.3369 87.0999 66.9889 85.5399 66.4429V66.4039ZM92.1829 65.6759C89.9859 65.2859 88.6339 67.8859 89.5829 69.1079C90.0391 69.551 90.65 69.7989 91.2859 69.7989C91.9219 69.7989 92.5328 69.551 92.9889 69.1079C92.9889 69.4329 92.9889 69.7969 93.0669 69.9919C93.0699 70.0818 93.1061 70.1675 93.1685 70.2323C93.231 70.2971 93.3152 70.3365 93.4049 70.3429C93.4958 70.3429 93.5832 70.3077 93.6486 70.2447C93.7141 70.1817 93.7526 70.0957 93.7559 70.0049C93.7559 69.5109 93.9899 67.2749 93.9379 67.1189C93.8099 66.7381 93.5775 66.401 93.2672 66.1459C92.9569 65.8908 92.5812 65.7279 92.1829 65.6759ZM92.7029 67.2489C92.7029 67.6389 92.2219 68.2629 91.9879 68.3929C91.3379 68.7439 90.6879 68.7179 90.5319 68.4839C90.3759 68.2499 90.8829 66.8069 91.6759 66.8069C91.9749 66.8069 92.6379 66.9369 92.7029 67.2489ZM169.13 46.5789C167.245 46.2409 165.477 48.6459 166.218 50.6739C166.391 51.2592 166.765 51.7649 167.273 52.1024C167.782 52.4399 168.393 52.5877 169 52.5199C172.588 52.1429 171.847 47.0859 169.13 46.5789ZM169 51.2069C167.349 51.5969 166.764 49.5039 167.7 48.2949C167.826 48.1125 167.993 47.9615 168.187 47.8534C168.38 47.7452 168.596 47.6828 168.818 47.6709C169.129 47.7269 169.423 47.8548 169.675 48.0444C169.928 48.234 170.133 48.48 170.274 48.7629C170.429 49.2559 170.382 49.7903 170.143 50.2485C169.904 50.7068 169.493 51.0515 169 51.2069ZM176.514 46.9949C176.397 47.9309 175.643 51.4149 175.63 52.3249C175.648 52.4743 175.715 52.6136 175.821 52.7207C175.926 52.8277 176.065 52.8964 176.214 52.9158C176.363 52.9352 176.515 52.9042 176.644 52.8278C176.774 52.7514 176.875 52.6339 176.93 52.4939C177.138 51.5839 177.268 47.9829 177.372 47.0859C177.476 46.5009 176.592 46.4359 176.514 46.9949ZM172.562 52.0649C172.482 52.0416 172.398 52.036 172.316 52.0485C172.234 52.0609 172.156 52.091 172.087 52.1368C172.017 52.1825 171.959 52.2429 171.915 52.3135C171.872 52.3841 171.844 52.4634 171.834 52.5459C171.717 53.6119 170.443 53.9369 170.846 54.4959C170.902 54.5775 170.985 54.6359 171.081 54.6599C171.177 54.6838 171.278 54.6717 171.366 54.6259C171.749 54.4524 172.091 54.2009 172.371 53.8875C172.651 53.5741 172.862 53.2057 172.991 52.8059C173.012 52.729 173.018 52.6487 173.008 52.5695C172.998 52.4904 172.973 52.414 172.933 52.3449C172.893 52.2759 172.839 52.2155 172.776 52.1674C172.712 52.1193 172.639 52.0845 172.562 52.0649ZM163.462 51.1159C163.462 50.8263 163.347 50.5485 163.142 50.3437C162.937 50.1389 162.66 50.0239 162.37 50.0239C162.08 50.0239 161.803 50.1389 161.598 50.3437C161.393 50.5485 161.278 50.8263 161.278 51.1159C161.278 51.4055 161.393 51.6832 161.598 51.888C161.803 52.0928 162.08 52.2079 162.37 52.2079C162.66 52.2079 162.937 52.0928 163.142 51.888C163.347 51.6832 163.462 51.4055 163.462 51.1159ZM131.937 67.8469C131.937 68.1365 132.052 68.4142 132.257 68.619C132.462 68.8238 132.739 68.9389 133.029 68.9389C133.319 68.9389 133.596 68.8238 133.801 68.619C134.006 68.4142 134.121 68.1365 134.121 67.8469C134.121 67.5573 134.006 67.2795 133.801 67.0747C133.596 66.8699 133.319 66.7549 133.029 66.7549C132.739 66.7549 132.462 66.8699 132.257 67.0747C132.052 67.2795 131.937 67.5573 131.937 67.8469ZM66.2999 101.4C66.3167 101.247 66.301 101.093 66.2541 100.947C66.2072 100.801 66.13 100.666 66.0276 100.552C65.9252 100.438 65.7998 100.346 65.6597 100.284C65.5196 100.221 65.3679 100.189 65.2144 100.189C65.061 100.189 64.9093 100.221 64.7692 100.284C64.6291 100.346 64.5037 100.438 64.4013 100.552C64.2989 100.666 64.2217 100.801 64.1748 100.947C64.1278 101.093 64.1122 101.247 64.1289 101.4C64.1122 101.552 64.1278 101.707 64.1748 101.853C64.2217 101.999 64.2989 102.133 64.4013 102.248C64.5037 102.362 64.6291 102.453 64.7692 102.516C64.9093 102.579 65.061 102.611 65.2144 102.611C65.3679 102.611 65.5196 102.579 65.6597 102.516C65.7998 102.453 65.9252 102.362 66.0276 102.248C66.13 102.133 66.2072 101.999 66.2541 101.853C66.301 101.707 66.3167 101.552 66.2999 101.4ZM73.9699 100.477C73.9699 100.766 74.085 101.044 74.2898 101.249C74.4946 101.454 74.7723 101.569 75.0619 101.569C75.3516 101.569 75.6293 101.454 75.8341 101.249C76.0389 101.044 76.1539 100.766 76.1539 100.477C76.1539 100.187 76.0389 99.9095 75.8341 99.7047C75.6293 99.4999 75.3516 99.3849 75.0619 99.3849C74.7723 99.3849 74.4946 99.4999 74.2898 99.7047C74.085 99.9095 73.9699 100.187 73.9699 100.477ZM124.605 97.9289C124.334 97.9584 124.084 98.0868 123.902 98.2895C123.72 98.4923 123.62 98.755 123.62 99.0274C123.62 99.2997 123.72 99.5625 123.902 99.7652C124.084 99.9679 124.334 100.096 124.605 100.126C124.876 100.096 125.126 99.9679 125.308 99.7652C125.49 99.5625 125.59 99.2997 125.59 99.0274C125.59 98.755 125.49 98.4923 125.308 98.2895C125.126 98.0868 124.876 97.9584 124.605 97.9289ZM137.306 68.4709C137.45 68.4744 137.594 68.4486 137.728 68.395C137.862 68.3414 137.984 68.2611 138.086 68.159C138.188 68.0569 138.268 67.935 138.322 67.8009C138.376 67.6668 138.401 67.5233 138.398 67.3789C138.368 67.1081 138.24 66.8578 138.037 66.676C137.835 66.4941 137.572 66.3936 137.299 66.3936C137.027 66.3936 136.764 66.4941 136.562 66.676C136.359 66.8578 136.23 67.1081 136.201 67.3789C136.197 67.5244 136.223 67.6691 136.278 67.8041C136.332 67.9391 136.414 68.0615 136.517 68.1638C136.621 68.2661 136.744 68.3462 136.88 68.399C137.015 68.4518 137.16 68.4762 137.306 68.4709ZM67.2359 39.1949C67.4701 39.1675 67.6861 39.0551 67.8429 38.8789C67.9997 38.7028 68.0863 38.4752 68.0863 38.2394C68.0863 38.0036 67.9997 37.776 67.8429 37.5998C67.6861 37.4237 67.4701 37.3112 67.2359 37.2839C67.0017 37.3112 66.7857 37.4237 66.629 37.5998C66.4722 37.776 66.3856 38.0036 66.3856 38.2394C66.3856 38.4752 66.4722 38.7028 66.629 38.8789C66.7857 39.0551 67.0017 39.1675 67.2359 39.1949ZM72.0329 39.1949C72.2671 39.1675 72.4832 39.0551 72.6399 38.8789C72.7967 38.7028 72.8833 38.4752 72.8833 38.2394C72.8833 38.0036 72.7967 37.776 72.6399 37.5998C72.4832 37.4237 72.2671 37.3112 72.0329 37.2839C71.7987 37.3112 71.5827 37.4237 71.4259 37.5998C71.2692 37.776 71.1826 38.0036 71.1826 38.2394C71.1826 38.4752 71.2692 38.7028 71.4259 38.8789C71.5827 39.0551 71.7987 39.1675 72.0329 39.1949ZM77.2199 39.1819C77.4541 39.1545 77.6701 39.0421 77.8269 38.8659C77.9837 38.6898 78.0703 38.4622 78.0703 38.2264C78.0703 37.9906 77.9837 37.763 77.8269 37.5868C77.6701 37.4107 77.4541 37.2982 77.2199 37.2709C76.9857 37.2982 76.7697 37.4107 76.613 37.5868C76.4562 37.763 76.3696 37.9906 76.3696 38.2264C76.3696 38.4622 76.4562 38.6898 76.613 38.8659C76.7697 39.0421 76.9857 39.1545 77.2199 39.1819ZM72.4489 92.6249C72.4829 92.556 72.4983 92.4795 72.4937 92.4028C72.4891 92.3262 72.4645 92.2521 72.4226 92.1878C72.3806 92.1235 72.3226 92.0712 72.2542 92.0362C72.1859 92.0011 72.1096 91.9845 72.0329 91.9879C71.6949 91.9879 71.6299 92.3389 71.3699 92.8459C69.5629 96.4339 67.1319 101.296 66.9499 101.946C66.9015 102.083 66.9075 102.234 66.9666 102.368C67.0258 102.501 67.1336 102.607 67.2681 102.663C67.4026 102.72 67.5536 102.723 67.6902 102.671C67.8268 102.62 67.9386 102.519 68.0029 102.388C68.4579 101.673 71.9939 93.4959 72.4489 92.6249ZM76.1279 91.4289C76.0892 91.3613 76.0334 91.3052 75.9661 91.2662C75.8987 91.2272 75.8223 91.2066 75.7444 91.2066C75.6666 91.2066 75.5902 91.2272 75.5228 91.2662C75.4555 91.3052 75.3996 91.3613 75.3609 91.4289C73.2159 95.8879 69.9399 102.245 69.8099 102.739C69.7908 102.831 69.7921 102.925 69.8138 103.016C69.8354 103.107 69.8769 103.193 69.9353 103.266C69.9936 103.339 70.0674 103.399 70.1513 103.44C70.2353 103.482 70.3273 103.504 70.4209 103.506C70.9279 103.506 71.0969 103.337 75.5169 93.2879C76.1409 91.9229 76.3229 91.7279 76.1279 91.4289ZM115.453 102.323C114.185 100.482 113.462 98.3213 113.367 96.0882C113.273 93.855 113.811 91.6406 114.92 89.6999C114.982 89.6068 115.005 89.4929 114.983 89.3831C114.961 89.2734 114.896 89.1769 114.803 89.1149C114.71 89.0528 114.596 89.0303 114.486 89.0522C114.376 89.0742 114.28 89.1388 114.218 89.2319C112.712 91.201 111.951 93.6386 112.067 96.1146C112.184 98.5906 113.171 100.946 114.855 102.765C114.922 102.814 115.003 102.84 115.086 102.839C115.169 102.839 115.249 102.812 115.316 102.763C115.382 102.714 115.432 102.644 115.456 102.565C115.481 102.486 115.48 102.401 115.453 102.323Z" fill="#0D0D0D"/>
<path d="M126.256 88.3218C125.346 88.6728 127.27 89.7518 126.971 95.9528C126.711 101.153 124.774 102.804 125.086 103.324C125.119 103.372 125.164 103.411 125.216 103.439C125.268 103.466 125.326 103.48 125.385 103.48C125.444 103.48 125.501 103.466 125.554 103.439C125.606 103.411 125.65 103.372 125.684 103.324C127.07 101.142 127.899 98.6523 128.096 96.0746C128.293 93.4969 127.853 90.9102 126.815 88.5428C126.769 88.44 126.685 88.3593 126.58 88.318C126.476 88.2767 126.359 88.278 126.256 88.3218ZM115.804 95.7058C113.698 97.2138 115.479 99.6058 117.624 99.0078V102.531C117.624 103.064 117.078 103.337 116.753 102.882C116.69 102.798 116.598 102.74 116.495 102.721C116.392 102.702 116.286 102.722 116.197 102.778C116.108 102.834 116.044 102.921 116.017 103.022C115.99 103.123 116.002 103.231 116.051 103.324C116.206 103.579 116.438 103.777 116.714 103.891C116.99 104.005 117.294 104.028 117.584 103.957C117.874 103.886 118.133 103.725 118.325 103.496C118.517 103.268 118.631 102.984 118.651 102.687C118.651 102.271 119.054 96.5768 118.521 95.8878C118.355 95.6957 118.154 95.5385 117.927 95.4252C117.7 95.312 117.453 95.2449 117.2 95.228C116.948 95.211 116.694 95.2446 116.454 95.3266C116.214 95.4086 115.993 95.5375 115.804 95.7058ZM117.325 96.5248C117.466 96.669 117.554 96.8565 117.575 97.057C117.596 97.2574 117.549 97.4592 117.442 97.6298C117.156 97.9418 116.142 97.8378 115.999 97.3178C115.856 96.7978 116.857 96.1998 117.325 96.5248ZM121.277 95.4848C120.829 95.5741 120.424 95.8071 120.121 96.1484C119.818 96.4896 119.635 96.9204 119.6 97.3752C119.565 97.8299 119.679 98.2838 119.925 98.6676C120.172 99.0515 120.537 99.3444 120.965 99.5018C121.319 99.6343 121.706 99.649 122.069 99.5435C122.432 99.4381 122.752 99.2183 122.98 98.9168C123.026 98.8351 123.045 98.7404 123.032 98.6473C123.019 98.5542 122.977 98.4678 122.91 98.4013C122.844 98.3349 122.757 98.2921 122.664 98.2795C122.571 98.267 122.476 98.2853 122.395 98.3318C122.044 98.5398 120.809 98.5398 120.718 97.5258C120.697 97.3247 120.738 97.1219 120.835 96.9449C120.933 96.7678 121.083 96.625 121.264 96.5357C121.445 96.4464 121.65 96.4149 121.85 96.4455C122.05 96.4761 122.235 96.5673 122.382 96.7068C122.473 96.793 122.595 96.8393 122.721 96.8357C122.846 96.832 122.965 96.7786 123.051 96.6873C123.137 96.5959 123.184 96.474 123.18 96.3485C123.177 96.2229 123.123 96.104 123.032 96.0178C122.804 95.7946 122.525 95.6297 122.219 95.5369C121.914 95.4441 121.591 95.4262 121.277 95.4848ZM59.3448 39.5198C59.4734 39.5617 59.612 39.5617 59.7405 39.5196C59.8691 39.4775 59.9809 39.3956 60.0598 39.2858C60.3588 38.8828 61.2168 35.1908 61.4768 34.3068C61.5113 34.1947 61.4998 34.0736 61.445 33.9699C61.3901 33.8663 61.2963 33.7887 61.1843 33.7543C61.0722 33.7198 60.9511 33.7312 60.8475 33.7861C60.7438 33.8409 60.6663 33.9347 60.6318 34.0468C59.3838 37.6998 58.3568 39.2078 59.3448 39.5198ZM97.6428 159.302C96.5768 160.508 95.4394 161.65 94.2368 162.721C94.1704 162.786 94.1176 162.864 94.0816 162.95C94.0456 163.036 94.027 163.128 94.027 163.221C94.027 163.314 94.0456 163.407 94.0816 163.493C94.1176 163.579 94.1704 163.656 94.2368 163.722C95.2378 164.619 96.2908 165.438 97.2528 166.322C97.3235 166.377 97.4104 166.406 97.4998 166.406C97.5892 166.406 97.6761 166.377 97.7468 166.322C97.8028 166.254 97.8335 166.169 97.8335 166.081C97.8335 165.993 97.8028 165.908 97.7468 165.841C97.0578 164.944 96.3688 164.06 95.6408 163.241C96.6435 162.199 97.5649 161.082 98.3968 159.9C98.7998 159.393 98.0068 158.834 97.6428 159.302ZM141.7 164.099C141.856 164.099 141.7 164.099 143.377 162.994C146.484 160.81 146.796 160.667 146.705 160.043C146.588 159.133 145.405 158.99 142.22 157.443C142.099 157.376 141.957 157.359 141.824 157.397C141.691 157.435 141.579 157.524 141.511 157.644C141.444 157.765 141.428 157.907 141.465 158.04C141.503 158.173 141.592 158.286 141.713 158.353C142.311 158.691 144.196 159.874 144.924 160.316C143.039 162.084 141.44 163.553 141.44 163.553C141.406 163.603 141.385 163.662 141.381 163.723C141.376 163.784 141.388 163.845 141.414 163.9C141.44 163.955 141.48 164.003 141.53 164.037C141.581 164.072 141.639 164.093 141.7 164.099ZM132.314 161.876C134.056 161.876 135.707 161.59 137.384 161.512C137.504 161.512 137.62 161.464 137.706 161.378C137.791 161.293 137.839 161.177 137.839 161.057C137.839 160.936 137.791 160.82 137.706 160.735C137.62 160.65 137.504 160.602 137.384 160.602C135.681 160.602 134.056 160.329 132.314 160.446C132.124 160.446 131.942 160.521 131.808 160.655C131.674 160.789 131.599 160.971 131.599 161.161C131.599 161.35 131.674 161.532 131.808 161.666C131.942 161.8 132.124 161.876 132.314 161.876ZM122.655 162.24C123.487 162.24 127.075 161.863 127.465 161.837C127.582 161.837 127.694 161.79 127.777 161.707C127.86 161.624 127.907 161.512 127.907 161.395C127.907 161.278 127.86 161.165 127.777 161.082C127.694 160.999 127.582 160.953 127.465 160.953C127.075 160.953 123.487 160.719 122.655 160.823C122.483 160.846 122.326 160.931 122.212 161.061C122.099 161.191 122.036 161.358 122.036 161.531C122.036 161.704 122.099 161.871 122.212 162.002C122.326 162.132 122.483 162.216 122.655 162.24ZM110.877 161.408C110.786 161.409 110.697 161.429 110.614 161.465C110.531 161.501 110.456 161.554 110.393 161.619C110.331 161.684 110.281 161.761 110.248 161.845C110.215 161.929 110.199 162.019 110.201 162.11C110.201 162.877 110.994 162.838 111.501 162.838C112.993 162.769 114.482 162.626 115.96 162.409C116.075 162.39 116.181 162.33 116.256 162.241C116.332 162.152 116.374 162.038 116.374 161.921C116.374 161.804 116.332 161.691 116.256 161.601C116.181 161.512 116.075 161.453 115.96 161.434C115.089 161.499 111.709 161.382 110.877 161.408ZM105.638 162.123C104.676 162.123 101.01 161.954 100.074 162.123C99.9014 162.123 99.7361 162.191 99.6142 162.313C99.4923 162.435 99.4238 162.6 99.4238 162.773C99.4238 162.945 99.4923 163.11 99.6142 163.232C99.7361 163.354 99.9014 163.423 100.074 163.423C101.049 163.553 104.689 163.189 105.638 163.15C105.774 163.15 105.905 163.096 106.001 162.999C106.097 162.903 106.151 162.772 106.151 162.636C106.151 162.5 106.097 162.369 106.001 162.273C105.905 162.177 105.774 162.123 105.638 162.123ZM55.3538 19.8898C55.0524 19.5138 54.6604 19.2206 54.2147 19.0374C53.769 18.8543 53.2841 18.7873 52.8055 18.8427C52.3268 18.898 51.87 19.074 51.4779 19.3541C51.0858 19.6341 50.7712 20.0091 50.5636 20.444C50.3559 20.8788 50.262 21.3592 50.2907 21.8402C50.3194 22.3212 50.4697 22.7871 50.7275 23.1942C50.9853 23.6012 51.3423 23.9362 51.7649 24.1677C52.1875 24.3992 52.6619 24.5197 53.1438 24.5178C53.6838 24.5262 54.2149 24.3794 54.6739 24.0949C55.133 23.8104 55.5007 23.4001 55.7334 22.9127C55.9662 22.4254 56.0541 21.8815 55.9868 21.3456C55.9195 20.8097 55.6998 20.3044 55.3538 19.8898ZM54.6388 22.4898C54.4749 22.7954 54.2197 23.0423 53.9087 23.1958C53.5977 23.3493 53.2465 23.4018 52.9042 23.3459C52.5619 23.29 52.2457 23.1286 51.9996 22.8842C51.7535 22.6398 51.59 22.3247 51.5318 21.9828C51.4694 21.7375 51.4628 21.4814 51.5127 21.2333C51.5625 20.9852 51.6674 20.7515 51.8196 20.5493C51.9718 20.3472 52.1675 20.1818 52.3922 20.0654C52.6169 19.949 52.8649 19.8845 53.1178 19.8768C53.4126 19.9016 53.697 19.998 53.9462 20.1576C54.1954 20.3172 54.4019 20.5351 54.5479 20.7924C54.6939 21.0498 54.7749 21.3389 54.7839 21.6347C54.793 21.9304 54.7298 22.2239 54.5998 22.4898H54.6388ZM67.5998 20.2148C67.2251 19.725 66.7002 19.3715 66.1055 19.2084C65.5108 19.0452 64.8791 19.0815 64.3069 19.3115C63.7348 19.5415 63.2538 19.9527 62.9375 20.4821C62.6213 21.0115 62.4872 21.6299 62.5558 22.2428C62.6138 22.8568 62.8662 23.4363 63.2761 23.897C63.6861 24.3578 64.2323 24.6758 64.8354 24.8048C65.4385 24.9338 66.067 24.8672 66.6296 24.6145C67.1922 24.3618 67.6596 23.9363 67.9638 23.3998C68.1915 22.8844 68.2777 22.3177 68.2138 21.7579C68.1498 21.1981 67.9379 20.6655 67.5998 20.2148ZM64.4798 20.4878C64.8046 20.2742 65.1948 20.183 65.5806 20.2306C65.9664 20.2783 66.3227 20.4616 66.5858 20.7478C66.828 21.0331 66.9837 21.3817 67.0343 21.7525C67.085 22.1233 67.0286 22.5009 66.8718 22.8408C66.7058 23.1327 66.456 23.3681 66.1546 23.5165C65.8533 23.6648 65.5144 23.7193 65.1818 23.6728C64.837 23.6144 64.5172 23.455 64.2629 23.2148C64.0087 22.9747 63.8314 22.6645 63.7535 22.3235C63.6755 21.9826 63.7005 21.6262 63.8251 21.2994C63.9498 20.9726 64.1686 20.6902 64.4538 20.4878H64.4798ZM79.8068 20.5528C79.5057 20.1773 79.1143 19.8842 78.6692 19.701C78.2241 19.5179 77.7399 19.4505 77.2617 19.5053C76.7835 19.56 76.327 19.7351 75.9349 20.0142C75.5427 20.2933 75.2278 20.6672 75.0194 21.1011C74.811 21.5349 74.716 22.0145 74.7432 22.4951C74.7705 22.9756 74.9192 23.4414 75.1753 23.8489C75.4314 24.2564 75.7867 24.5923 76.2079 24.8252C76.6291 25.0581 77.1025 25.1805 77.5838 25.1808C78.1249 25.1917 78.6577 25.0468 79.1188 24.7633C79.5798 24.4798 79.9495 24.0696 80.1839 23.5818C80.4182 23.0939 80.5072 22.5489 80.4404 22.0119C80.3735 21.4748 80.1536 20.9683 79.8068 20.5528ZM79.0788 23.1528C78.9245 23.4003 78.7093 23.604 78.4537 23.7444C78.1981 23.8849 77.9107 23.9573 77.6191 23.9548C77.3275 23.9524 77.0414 23.875 76.7882 23.7303C76.5351 23.5855 76.3233 23.3782 76.1733 23.1281C76.0232 22.878 75.9399 22.5936 75.9313 22.3021C75.9227 22.0106 75.9891 21.7218 76.1242 21.4633C76.2592 21.2048 76.4584 20.9853 76.7026 20.8259C76.9468 20.6665 77.2278 20.5724 77.5188 20.5528C77.82 20.5633 78.1137 20.649 78.3733 20.802C78.6329 20.955 78.8501 21.1706 79.0051 21.429C79.1602 21.6874 79.2481 21.9804 79.261 22.2815C79.2738 22.5826 79.2112 22.8821 79.0788 23.1528Z" fill="#0D0D0D"/>
<path d="M190.671 42.2108C191.042 41.4535 191.213 40.6139 191.167 39.7719C191.122 38.93 190.861 38.1137 190.411 37.4008C189.358 35.8408 187.239 35.8928 185.536 35.9318C180.271 36.0618 56.6802 32.2788 56.5502 32.2658C55.7965 32.0839 55.0018 32.1954 54.3272 32.5778C52.2602 34.0858 52.3252 39.4548 54.6522 40.8068C55.3402 41.1169 56.1034 41.2208 56.8492 41.1058L186.641 44.5768C187.462 44.5741 188.268 44.3537 188.976 43.938C189.684 43.5224 190.269 42.9264 190.671 42.2108ZM63.8952 33.9168C63.1877 35.5663 62.6011 37.2651 62.1402 38.9998C62.1367 39.0771 62.1489 39.1542 62.1761 39.2267C62.2032 39.2991 62.2448 39.3653 62.2983 39.4212C62.3517 39.4771 62.416 39.5215 62.4871 39.5519C62.5583 39.5823 62.6349 39.5979 62.7122 39.5978C63.2972 39.5978 63.4012 39.0648 64.2852 35.8668C64.7662 34.0728 64.8962 34.0208 64.6622 33.7738C83.2912 34.3588 186.576 37.2318 186.784 37.2448C188.383 37.2448 189.254 37.7388 189.605 38.6618C189.87 39.2844 189.944 39.9717 189.816 40.6362C189.689 41.3007 189.367 41.9122 188.89 42.3928C188.316 42.7955 187.668 43.0809 186.983 43.2326C186.298 43.3843 185.59 43.3993 184.899 43.2768C177.32 43.0168 55.6402 39.9098 55.5102 39.8838C53.8072 39.4678 53.6642 35.4508 54.7042 33.8778C55.0812 33.3188 55.6532 33.3448 56.5502 33.4618C65.0002 33.8778 64.0122 33.5788 63.8952 33.9168ZM106.691 111.202C106.691 109.902 107.783 110.474 59.8912 111.761C59.6164 111.741 59.3408 111.788 59.0875 111.896C58.8343 112.005 58.6106 112.172 58.4352 112.385C57.9412 113.126 58.7992 152.958 58.8252 153.335C58.8319 153.499 58.902 153.655 59.0207 153.768C59.1395 153.882 59.2977 153.946 59.4622 153.946C59.4622 153.946 64.5712 153.764 69.0432 153.634C108.29 152.503 107.783 151.944 107.744 151.411C107.64 150.41 106.704 111.891 106.691 111.202ZM59.5142 113.282C59.5142 113.191 59.7612 113.113 59.8912 113.1C61.6202 113.1 103.857 111.8 105.391 111.8C105.508 115.7 106.6 148.876 106.691 150.891C100.009 151.32 64.9742 152.555 60.1122 152.659C59.3452 142.038 59.4362 114.062 59.5142 113.282Z" fill="#0D0D0D"/>
<path d="M61.7371 149.292C62.7511 148.551 81.7961 132.535 82.4331 132.015C87.4641 136.032 101.608 147.329 104.624 149.773C105.092 150.15 105.69 149.474 105.235 149.084C99.8531 144.612 86.1771 133.484 83.4081 131.196C84.7081 130.182 101.049 116.506 103.129 114.829C103.571 114.452 102.999 113.802 102.544 114.153C97.1751 118.469 84.5001 128.7 82.3941 130.403C78.3641 127.218 65.3511 117.195 62.2181 114.933C62.1312 114.882 62.0288 114.865 61.9301 114.884C61.8313 114.903 61.7428 114.957 61.681 115.037C61.6191 115.116 61.5881 115.215 61.5936 115.315C61.5992 115.416 61.6409 115.511 61.7111 115.583C66.1701 119.223 81.0811 130.949 81.4191 131.183C77.1551 134.732 62.4651 147.095 61.0871 148.486C60.9802 148.572 60.912 148.697 60.8973 148.834C60.8827 148.97 60.9229 149.107 61.0091 149.214C61.0953 149.321 61.2204 149.389 61.357 149.404C61.4935 149.418 61.6302 149.378 61.7371 149.292ZM154.895 144.729C150.592 141.193 141.648 133.419 139.945 131.937C143.754 128.583 155.545 117.637 157.911 115.479C157.999 115.396 158.05 115.282 158.054 115.161C158.058 115.04 158.013 114.923 157.931 114.835C157.848 114.747 157.734 114.696 157.613 114.692C157.492 114.689 157.375 114.733 157.287 114.816C155.532 116.441 139.529 130.637 139.009 131.105C136.903 129.272 120.328 114.621 119.678 114.075C119.597 114.012 119.495 113.981 119.392 113.989C119.29 113.996 119.194 114.042 119.123 114.116C119.052 114.19 119.01 114.288 119.007 114.391C119.004 114.494 119.04 114.594 119.106 114.673C120.185 115.778 135.122 129.519 137.969 132.028C136.448 133.328 121.381 146.653 119.769 148.083C119.709 148.13 119.666 148.196 119.647 148.27C119.627 148.344 119.633 148.423 119.662 148.493C119.692 148.564 119.744 148.623 119.81 148.662C119.876 148.7 119.953 148.716 120.029 148.707C120.64 148.707 137.67 133.887 138.866 132.847C141.713 135.252 151.723 143.403 154.245 145.418C154.765 145.782 155.363 145.119 154.895 144.729ZM26.7021 208.26C26.7021 208.26 62.1011 206.232 62.7381 206.18C62.8396 206.172 62.9379 206.141 63.0252 206.089C63.1125 206.037 63.1863 205.965 63.2407 205.879C63.2951 205.793 63.3285 205.695 63.3383 205.594C63.3481 205.493 63.334 205.391 63.2971 205.296C63.3621 196.716 64.2591 180.596 63.7131 179.764C63.5362 179.547 63.3034 179.383 63.0399 179.289C62.7764 179.195 62.4922 179.175 62.2181 179.231L26.8971 180.973C26.7315 180.979 26.5746 181.049 26.4587 181.167C26.3427 181.286 26.2763 181.444 26.2731 181.61C26.0521 186.719 25.5971 207.246 25.7141 207.61C25.7744 207.818 25.907 207.998 26.0881 208.117C26.2693 208.236 26.487 208.287 26.7021 208.26ZM62.6211 180.804C62.6211 181.87 62.5561 186.433 62.1271 204.906C58.5521 205.049 27.7551 206.882 27.0271 206.921C27.0271 204.178 27.4691 185.315 27.5861 182.221L62.2961 180.479C62.3813 180.482 62.4621 180.517 62.5224 180.578C62.5826 180.638 62.6179 180.719 62.6211 180.804ZM74.6331 204.672C74.8021 205.283 75.3871 205.309 75.9981 205.257C113.854 202.319 111.904 203.346 112.164 202.865C112.268 202.657 112.073 203.723 112.528 190.125C112.528 188.448 113.035 177.424 112.619 176.787C112.444 176.568 112.211 176.402 111.947 176.308C111.683 176.214 111.398 176.195 111.124 176.254C110.942 176.254 77.6101 177.892 75.8161 177.996C75.6482 177.999 75.4881 178.067 75.3694 178.186C75.2506 178.305 75.1824 178.465 75.1791 178.633C74.9711 183.43 74.5031 204.23 74.6331 204.672ZM75.9331 203.944C75.9331 201.123 76.3881 182.221 76.4921 179.244L111.384 177.502C111.683 177.502 111.683 175.591 111.072 201.903C107.458 202.059 76.7001 203.892 75.8941 203.944H75.9331ZM119.782 201.5C119.964 202.098 120.536 202.124 121.16 202.072C159.016 199.121 157.066 200.161 157.326 199.68C157.43 199.485 157.235 200.473 157.69 186.953C157.69 185.237 158.197 174.265 157.781 173.602C157.606 173.383 157.373 173.217 157.109 173.123C156.845 173.029 156.56 173.01 156.286 173.069L120.978 174.811C120.81 174.814 120.65 174.882 120.531 175.001C120.413 175.12 120.344 175.28 120.341 175.448C120.12 180.492 119.665 201.019 119.782 201.5ZM121.615 176.085L156.507 174.343C156.806 174.343 156.793 172.458 156.195 198.744C152.62 198.874 121.81 200.707 121.095 200.759C121.056 200.577 121.498 179.218 121.615 176.033V176.085Z" fill="#0D0D0D"/>
<path d="M60.762 181.428C56.862 184.457 46.683 191.698 45.24 192.751C44.057 192.036 30.732 184.054 29.289 183.157C29.1959 183.096 29.0827 183.076 28.9742 183.099C28.8657 183.122 28.7708 183.187 28.7105 183.28C28.6502 183.373 28.6293 183.487 28.6524 183.595C28.6756 183.704 28.7409 183.798 28.834 183.859C30.771 185.159 41.626 192.049 44.083 193.583C43.303 194.142 29.952 203.749 29.159 204.399C29.0907 204.453 29.0412 204.528 29.0177 204.612C28.9942 204.696 28.9978 204.786 29.028 204.868C29.0583 204.95 29.1136 205.02 29.1861 205.069C29.2586 205.118 29.3446 205.143 29.432 205.14C29.874 205.14 45.032 194.623 45.383 194.363C48.438 196.144 59.397 202.241 60.606 202.878C60.6836 202.927 60.7768 202.947 60.8678 202.933C60.9588 202.918 61.0414 202.871 61.1 202.8C61.1383 202.711 61.1463 202.612 61.1228 202.518C61.0993 202.424 61.0456 202.34 60.97 202.28C56.134 199.42 51.246 196.456 46.514 193.583C49.335 191.49 61.282 182.169 61.282 182.169C61.3803 182.1 61.4471 181.995 61.4678 181.876C61.4886 181.758 61.4615 181.637 61.3925 181.538C61.3235 181.44 61.2184 181.373 61.1001 181.352C60.9819 181.332 60.8603 181.359 60.762 181.428ZM110.331 178.1C109.317 178.815 93.704 189.657 92.521 190.502C89.7 188.565 80.522 182.169 78.455 180.57C78.013 180.232 77.48 180.921 77.909 181.259C81.406 184.015 89.414 189.956 91.351 191.347C88.452 193.505 78.702 200.239 76.843 202.085C76.7966 202.129 76.7646 202.187 76.7509 202.25C76.7372 202.313 76.7426 202.378 76.7663 202.438C76.79 202.498 76.8309 202.55 76.8839 202.586C76.9369 202.623 76.9996 202.643 77.064 202.644C77.246 202.644 78.195 202.111 92.443 192.101C95.628 194.207 105.924 200.343 108.238 201.578C108.309 201.608 108.389 201.611 108.463 201.588C108.537 201.564 108.6 201.515 108.641 201.449C108.681 201.383 108.697 201.305 108.685 201.229C108.674 201.152 108.635 201.082 108.576 201.032C106.652 199.732 94.575 191.932 93.626 191.256C95.966 189.605 109.85 179.413 110.786 178.737C110.87 178.676 110.928 178.585 110.945 178.483C110.962 178.38 110.937 178.275 110.877 178.191C110.817 178.106 110.725 178.049 110.623 178.032C110.52 178.015 110.415 178.039 110.331 178.1ZM139.529 186.758C142.753 188.916 152.529 195.741 154.635 197.353C154.679 197.39 154.729 197.417 154.783 197.435C154.837 197.452 154.895 197.458 154.951 197.453C155.008 197.449 155.063 197.433 155.114 197.406C155.164 197.38 155.209 197.344 155.246 197.301C155.283 197.257 155.31 197.207 155.328 197.153C155.345 197.098 155.351 197.041 155.347 196.985C155.342 196.928 155.326 196.873 155.3 196.822C155.273 196.771 155.238 196.727 155.194 196.69C153.517 195.39 143.182 187.668 140.751 185.952C142.051 185.107 154.024 176.852 155.454 175.903C155.504 175.872 155.546 175.832 155.58 175.785C155.614 175.737 155.639 175.684 155.652 175.627C155.665 175.57 155.667 175.511 155.658 175.454C155.648 175.396 155.628 175.341 155.597 175.292C155.566 175.242 155.526 175.199 155.479 175.165C155.431 175.131 155.378 175.107 155.321 175.094C155.264 175.08 155.206 175.079 155.148 175.088C155.091 175.097 155.035 175.118 154.986 175.149C153.816 175.916 140.166 184.561 139.386 185.068C136.695 183.378 127.686 178.1 125.268 176.982C125.175 176.937 125.068 176.931 124.97 176.965C124.873 176.999 124.793 177.071 124.748 177.164C124.462 177.71 124.527 177.32 138.164 185.874C134.355 188.474 122.564 196.833 121.368 197.769C121.303 197.837 121.26 197.923 121.246 198.016C121.232 198.11 121.248 198.205 121.29 198.289C121.346 198.371 121.43 198.428 121.527 198.45C121.623 198.472 121.725 198.456 121.81 198.406C123.214 197.6 139.529 186.758 139.529 186.758Z" fill="#0D0D0D"/>
<path d="M253.5 224.445C252.07 224.12 244.4 223.08 204.269 217.165C203.422 215.973 202.764 214.658 202.319 213.265C202.15 209.365 201.149 196.989 200.824 194.571C200.174 189.761 198.861 184.951 198.965 179.998C200.356 179.699 201.734 179.374 203.06 179.01C203.173 178.974 203.272 178.903 203.342 178.807C203.412 178.711 203.45 178.596 203.45 178.477C203.467 173.616 203.111 168.762 202.384 163.956C204.568 161.538 204.49 156.988 204.412 153.283C204.412 149.903 204.529 147.537 204.516 124.683C208.507 121.55 207.597 114.595 207.116 111.059C208.273 110.253 208.325 110.253 208.338 110.058C208.238 108.79 207.976 107.541 207.558 106.34C207.283 105.71 206.88 105.143 206.375 104.676C206.817 104.026 206.895 103.974 206.804 103.766C206.063 102.245 205.504 101.166 204.776 100.009V88.6078C207.11 88.8647 209.46 88.3092 211.432 87.0348C211.503 86.997 211.558 86.9339 211.586 86.8579C211.613 86.7818 211.611 86.6983 211.58 86.6237C211.549 86.549 211.492 86.4885 211.419 86.4539C211.346 86.4194 211.262 86.4133 211.185 86.4368C209.417 86.8658 208.143 86.6578 207.389 85.7998C205.53 83.7198 207.038 78.2338 207.779 76.2838C209.521 71.4218 211.679 71.2528 212.199 67.7558C212.495 65.2357 211.935 62.6893 210.61 60.5252C209.285 58.3611 207.272 56.7048 204.893 55.8218C204.893 55.7178 205.244 35.9968 205.257 35.3858C205.387 29.7828 205.556 22.1128 199.29 19.5778C197.876 19.1047 196.383 18.9148 194.896 19.0188C194.623 19.0188 57.265 14.6248 56.303 14.5598C53.7078 14.2616 51.0842 14.3141 48.503 14.7158C42.003 16.1198 41.912 22.5158 41.873 26.6758C41.873 27.0268 41.951 63.3228 42.003 97.8638C37.622 97.7598 20.163 97.7338 16.51 97.8638C13.429 97.8638 10.738 98.0848 9.02202 99.3978C8.18418 100.06 7.50444 100.901 7.03221 101.859C6.55998 102.817 6.30712 103.868 6.29202 104.936C6.29202 117.663 7.59202 194.025 6.89002 219.453C6.79902 222.755 8.28102 225.355 10.79 226.122C9.24302 228.215 10.79 230.594 13 231.582C30.121 235.274 79.794 245.882 83.72 245.882C85.735 245.882 186.888 236.041 247.377 230.204C250.861 230.204 254.306 228.423 253.877 225.199C253.721 224.419 253.721 224.497 253.5 224.445ZM199.407 193.7C200.213 200.083 200.473 206.57 200.954 212.992C199.614 213.503 198.134 213.503 196.794 212.992C192.894 205.595 186.719 195.559 187.694 186.836C187.993 184.028 188.11 182.793 186.511 180.453C187.902 180.362 189.319 180.232 190.801 179.998C191.074 179.998 191.178 179.998 192.101 174.928C193.96 180.648 193.96 181.038 194.415 180.934L197.769 180.219C197.6 184.782 198.783 189.241 199.407 193.7ZM161.2 224.744C163.046 226.746 168.142 223.834 170.443 222.339C170.494 222.309 170.534 222.264 170.56 222.211C170.585 222.158 170.594 222.098 170.586 222.04C170.545 221.769 170.561 221.493 170.633 221.229C170.705 220.965 170.83 220.719 171.002 220.506C171.036 220.455 171.08 220.411 171.132 220.378C171.183 220.344 171.241 220.322 171.301 220.311C171.509 220.311 171.912 220.688 172.107 221.403C172.302 222.118 174.174 221.689 174.707 221.403C174.928 221.273 174.941 221.299 174.707 217.503C180.635 218.608 192.322 220.623 196.547 221.403C196.677 221.962 196.807 222.508 196.95 223.028C182.65 224.328 82.784 233.246 80.275 233.428C78.806 233.09 48.711 227.721 47.658 227.539C75.036 225.29 146.549 219.44 165.503 217.815C162.981 221.611 160.836 222.105 160.745 222.547C160.633 222.922 160.616 223.319 160.696 223.703C160.775 224.086 160.948 224.444 161.2 224.744ZM158.99 170.937C151.58 171.184 55.497 174.59 49.725 173.16C45.071 172.575 42.887 168.558 43.225 161.226C43.303 157.326 42.978 43.3938 42.913 28.2878C64.051 29.2498 190.32 32.7728 203.996 32.8898C203.996 35.2948 203.775 47.1898 203.632 55.3928C199.29 54.2748 193.921 55.2498 194.701 59.5138C194.715 59.5843 194.751 59.6483 194.805 59.6958C195.296 60.0798 195.706 60.5579 196.011 61.1022C196.316 61.6464 196.509 62.2459 196.579 62.8656C196.649 63.4853 196.595 64.1128 196.42 64.7114C196.245 65.31 195.952 65.8677 195.559 66.3518C195.247 66.7158 196.118 68.3018 195.702 73.8658C195.143 81.3408 198.978 86.8658 203.359 88.2308C203.359 89.9208 203.294 96.2128 203.294 97.6948C198.731 90.5838 196.326 89.3488 188.734 84.4218C188.344 84.1618 188.331 84.8508 189.735 79.5078C190.634 79.2195 191.456 78.7335 192.142 78.0857C192.828 77.4378 193.361 76.6444 193.7 75.7638C193.987 72.7373 193.987 69.6904 193.7 66.6638C194.047 65.5063 194.127 64.2854 193.936 63.0924C193.745 61.8993 193.286 60.7649 192.595 59.7738C191.408 57.768 189.621 56.1856 187.486 55.2498C183.339 53.5078 179.491 55.2498 176.085 56.7448C172.185 58.5778 172.419 59.6828 172.9 63.9208C172.906 64.2588 172.989 64.5909 173.145 64.8909C173.301 65.1909 173.524 65.4507 173.797 65.6498C172.887 68.7048 171.574 74.3338 172.562 77.3498C172.941 78.4317 173.533 79.4265 174.303 80.2752C175.073 81.1238 176.007 81.8089 177.047 82.2898C176.956 82.6798 176.761 83.4078 176.618 83.9538C175.981 83.7848 174.811 83.4988 174.122 83.3428C169.741 81.3018 165.763 78.9748 161.265 79.4428C160.917 79.4921 160.587 79.626 160.303 79.8328C159.645 79.2001 158.873 78.6973 158.028 78.3508C157.326 77.0508 145.652 58.3308 145.509 58.1098C144.924 57.1868 144.43 56.3808 144.859 55.4448C145.288 54.5088 146.432 52.8448 146.302 51.4668L156.962 51.4018C157.307 51.4018 157.637 51.2649 157.881 51.0211C158.125 50.7773 158.262 50.4466 158.262 50.1018V46.5138C158.262 46.1691 158.125 45.8384 157.881 45.5946C157.637 45.3508 157.307 45.2138 156.962 45.2138H118.3C117.955 45.2138 117.625 45.3508 117.381 45.5946C117.137 45.8384 117 46.1691 117 46.5138V50.6998C117 51.0446 117.137 51.3753 117.381 51.6191C117.625 51.8629 117.955 51.9998 118.3 51.9998L132.977 51.8568C134.406 54.3281 136.537 56.3191 139.1 57.5768C139.646 57.8628 139.594 57.9018 140.647 63.4788C142.363 72.4618 144.131 81.7568 149.747 89.1798C149.643 89.4398 149.565 89.6998 149.474 89.9598C149.447 90.0464 149.441 90.1382 149.457 90.2275C149.473 90.3168 149.509 90.4011 149.564 90.4735C149.618 90.5458 149.689 90.6042 149.771 90.6437C149.853 90.6833 149.942 90.7028 150.033 90.7008C150.463 90.6887 150.89 90.7682 151.287 90.934C151.684 91.0999 152.041 91.3483 152.334 91.6628C152.113 94.1978 152.607 95.5628 155.61 97.8118C156.364 98.3708 161.447 101.14 162.786 101.842C162.188 104.208 161.681 106.626 161.2 109.057C147.563 109.512 117.728 109.785 117 110.357C116.783 110.528 116.609 110.748 116.492 110.999C116.374 111.249 116.317 111.523 116.324 111.8C116.116 117 115.674 146.692 115.713 148.057C115.713 150.657 116.142 152.243 118.911 151.957C120.926 151.957 145.834 151.32 156.052 151.06C155.896 152.776 155.844 152.802 156.052 152.945C157.221 153.832 158.543 154.498 159.952 154.908C159.027 160.197 158.7 165.574 158.977 170.937H158.99ZM182 92.0398C178.893 92.4038 173.966 91.9098 173.082 89.0498C172.744 87.7498 173.979 85.4228 174.642 84.6168L176.904 85.1498C177.042 85.1816 177.187 85.1588 177.308 85.086C177.429 85.0133 177.517 84.8963 177.554 84.7598C177.723 84.0318 177.931 83.2518 178.074 82.6798C178.581 82.8488 179.127 83.0568 179.244 82.5758C179.258 82.5246 179.261 82.4712 179.254 82.4186C179.247 82.3661 179.23 82.3154 179.204 82.2695C179.177 82.2236 179.142 82.1834 179.1 82.1512C179.057 82.119 179.009 82.0954 178.958 82.0818C175.058 81.0028 172.939 77.1678 173.758 72.7088C174.167 69.7694 174.748 66.8567 175.5 63.9858C176.632 65.2554 178.147 66.1203 179.816 66.4488C181.484 66.7774 183.215 66.5516 184.743 65.8058C184.419 68.1861 184.606 70.6081 185.292 72.9103C185.978 75.2125 187.147 77.342 188.721 79.1568C187.2 84.3568 187.148 84.3568 187.538 84.9288C187.928 85.5008 189.241 86.0468 190.736 87.1908C188.502 89.805 185.4 91.5265 182 92.0398ZM182 94.3798C181.324 94.3798 182 93.1448 182.559 93.1448C183.118 93.1448 182.442 94.3408 182 94.3798ZM178.009 94.0548C178.009 94.7308 176.709 95.2378 176.241 94.8998C175.773 94.5618 176.488 93.7688 177.19 93.5998C177.357 93.5556 177.535 93.5784 177.686 93.6634C177.836 93.7484 177.948 93.8889 177.996 94.0548H178.009ZM173.641 92.8718C173.588 92.9185 173.524 92.9517 173.455 92.9686C173.387 92.9855 173.315 92.9857 173.246 92.9691C173.177 92.9526 173.114 92.9198 173.06 92.8734C173.007 92.8271 172.965 92.7686 172.939 92.7028C172.796 92.0138 173.823 91.6368 174.031 91.9098C174.239 92.1828 174.083 92.4948 173.628 92.8718H173.641ZM192.92 112.762C193.004 112.797 193.076 112.856 193.124 112.933C193.173 113.01 193.197 113.1 193.193 113.191C193.169 113.279 193.119 113.357 193.049 113.415C192.98 113.473 192.894 113.508 192.803 113.516C188.903 113.165 185.978 110.63 185.172 105.807C185.151 105.698 185.175 105.586 185.237 105.494C185.299 105.403 185.395 105.34 185.504 105.319C185.612 105.299 185.725 105.322 185.816 105.384C185.907 105.446 185.97 105.542 185.991 105.651C186.412 107.342 187.274 108.891 188.489 110.14C189.704 111.389 191.228 112.294 192.907 112.762H192.92ZM141.96 51.7788C142.038 52.1038 141.115 52.2208 140.309 54.4438C140.288 54.5461 140.306 54.6523 140.358 54.7427C140.41 54.833 140.493 54.9013 140.592 54.9348C140.691 54.9682 140.798 54.9646 140.895 54.9245C140.991 54.8843 141.069 54.8105 141.115 54.7168C141.804 52.8448 143.416 53.1958 143.104 51.6748C142.493 48.7238 143.221 47.2028 144.235 47.5018C144.43 47.5018 144.326 50.1018 144.963 50.7648C146.094 52.0648 144.04 54.0148 143.663 55.4578C143.559 55.9283 143.563 56.4163 143.676 56.8849C143.789 57.3534 144.006 57.7901 144.313 58.1618C144.56 58.5388 156.221 77.3758 157.001 78.5978C154.254 81.3002 151.95 84.4197 150.176 87.8408C143.884 78.9618 142.649 67.7948 140.53 57.6028C140.267 57.0513 139.802 56.6227 139.23 56.4068C137.212 55.3603 135.514 53.7883 134.316 51.8568L141.96 51.7788ZM157.079 80.1318C157.664 79.4818 157.729 79.3518 157.95 79.4038C158.482 79.672 158.98 80.0037 159.432 80.3918C157.898 81.6008 153.699 86.4758 152.594 90.2068C152.04 89.8306 151.401 89.5982 150.735 89.5308C151.931 85.9168 154.557 82.9788 157.079 80.1318ZM156.169 149.916C145.639 150.098 119.145 150.839 117.481 150.592C117 150.163 117.026 149.214 117.039 148.447C117.039 148.304 117.403 113.841 117.598 111.631C117.598 111.189 114.374 111.384 160.914 110.24C158.6 122.785 157.456 136.409 156.169 149.916ZM160.953 155.22C162.363 155.479 163.807 155.479 165.217 155.22C165.286 155.209 165.349 155.177 165.398 155.128C165.448 155.079 165.48 155.016 165.49 154.947C168.168 140.387 165.672 139.347 168.09 112.918C169.39 98.1108 171.34 93.2228 170.95 92.7418C168.844 90.1418 170.144 87.3208 172.822 85.4098C171.522 87.7498 171.886 89.6478 172.926 90.8308C172.601 90.9514 172.324 91.1735 172.135 91.464C171.947 91.7545 171.857 92.0981 171.878 92.4438C171.9 92.7895 172.033 93.119 172.257 93.3834C172.481 93.6479 172.784 93.8331 173.121 93.9118C173.592 93.9423 174.056 93.7927 174.421 93.4934C174.785 93.1941 175.022 92.7674 175.084 92.2998C175.487 92.4638 175.899 92.6027 176.319 92.7158C174.564 93.7558 174.616 96.0438 176.67 96.0438C177.252 96.082 177.826 95.8979 178.278 95.5286C178.729 95.1594 179.023 94.6327 179.101 94.0548C179.101 92.6638 177.645 93.2228 180.882 93.1448C179.647 95.6538 183.04 96.2518 183.729 93.8208C183.849 93.4846 183.849 93.1171 183.729 92.7808C189.735 91.4808 186.446 89.1278 183.729 99.3588C181.584 107.341 182.429 116.857 183.56 123.5C182.063 124.677 180.672 125.982 179.4 127.4C177.918 124.293 177.281 122.889 176.956 122.278C176.631 121.667 176.618 121.81 176.436 121.862C175.747 122.096 173.901 122.824 172.133 123.565C172.874 115.622 173.303 110.747 174.733 99.1118C174.742 99.0107 174.712 98.9101 174.649 98.83C174.587 98.7499 174.497 98.6963 174.397 98.6799C174.297 98.6635 174.194 98.6855 174.109 98.7414C174.025 98.7974 173.964 98.8833 173.94 98.9818C172.809 105.924 171.47 114.907 170.911 124.098C169.611 124.644 168.935 124.917 168.597 125.112C168.259 125.307 168.285 125.398 168.35 125.567C168.636 126.256 169.468 128.167 170.495 130.52C169.195 140.543 166.023 170.976 165.711 175.383C163.675 174.301 161.791 172.955 160.108 171.379C159.777 165.978 160.06 160.557 160.953 155.22ZM182.117 133.354C182.845 132.73 183.989 131.638 184.717 130.923C186.576 147.212 187.863 139.334 186.394 166.712C186.095 172.25 185.835 177.112 186.004 179.257C182.967 179.46 179.917 179.342 176.904 178.906C177.06 175.591 178.516 146.107 178.776 143C180.741 142.222 182.645 141.296 184.47 140.231C184.73 139.997 184.665 140.283 182.117 133.354ZM195.871 213.954V215.943C186.199 214.513 178.113 213.343 174.447 212.745C174.382 211.965 174.33 211.328 174.291 210.938C176.787 202.657 180.479 191.659 177.099 183.638C176.644 182.546 176.28 183.521 177.892 180.297C180.339 180.571 182.803 180.658 185.263 180.557C187.564 183.716 186.628 184.197 186.42 187.057C185.692 196.664 191.165 205.322 195.871 213.954ZM195.949 217.295C196.027 218.257 196.17 219.258 196.339 220.246L174.668 216.437C174.668 215.605 174.577 214.773 174.525 213.993C178.854 214.721 186.758 215.93 195.949 217.295ZM175.63 178.698C172.582 178.183 169.62 177.246 166.829 175.916C166.959 174.72 170.625 139.282 171.353 132.561C174.928 140.686 175.903 142.961 176.254 143.533C176.423 143.806 176.449 143.741 176.54 143.741C176.891 143.678 177.234 143.582 177.567 143.455C176.722 152.919 175.695 175.253 175.63 178.698ZM176.657 180.089C175.266 182.533 175.136 182.689 175.786 183.807C177.086 186.056 177.164 190.216 177.086 192.803C176.865 197.574 173.342 209.352 172.991 210.509C172.449 210.988 171.779 211.298 171.063 211.402C170.347 211.506 169.617 211.399 168.961 211.094C168.688 210.99 168.779 211.289 168.623 209.222C168.116 202.358 166.79 184.6 166.023 176.93C169.392 178.504 172.975 179.569 176.657 180.089ZM194.636 158.392C195.234 163.514 197.171 176.774 197.509 179.036L194.805 179.712C194.376 178.412 192.998 173.55 192.465 172.419C192.407 172.313 192.319 172.228 192.212 172.173C192.104 172.118 191.983 172.097 191.864 172.113C191.744 172.128 191.632 172.179 191.542 172.26C191.453 172.34 191.389 172.445 191.36 172.562C190.97 174.668 190.593 176.787 190.216 178.893C189.111 178.997 188.11 179.075 187.187 179.14C187.187 172.562 187.421 165.841 187.811 159.172C189.982 159.003 193.505 158.6 194.636 158.392ZM189.709 139.867C189.702 139.783 189.727 139.699 189.781 139.633C189.834 139.568 189.911 139.526 189.995 139.516C199.095 138.424 198.731 138.333 198.861 138.697C199.149 139.657 199.247 140.664 199.147 141.661C199.147 142.012 199.524 141.804 190.359 142.961C189.904 143.078 189.982 142.636 189.709 139.867ZM198.705 178.737C197.093 170.248 196.69 166.959 195.624 158.223C197.08 158.095 198.526 157.874 199.953 157.56C201.505 164.244 202.294 171.082 202.306 177.944C201.058 178.191 199.81 178.477 198.705 178.737ZM203.255 140.244C203.125 157.989 203.58 159.263 202.085 162.253C201.786 160.511 201.448 158.756 201.058 157.053C201.468 156.763 201.835 156.417 202.15 156.026C202.527 155.571 201.136 139.126 198.887 127.231C199.979 126.815 202.15 125.931 203.32 125.333C203.333 130.286 203.294 135.343 203.255 140.244ZM205.764 120.536C205.474 121.784 204.733 122.881 203.684 123.617C198.133 127.205 184.912 128.973 184.782 128.986C184.72 128.998 184.662 129.026 184.615 129.067C184.567 129.108 184.53 129.161 184.509 129.22C183.61 130.481 182.558 131.625 181.376 132.626C180.685 133.425 179.785 134.015 178.776 134.329C177.983 134.446 176.059 133.484 178.191 133.289C178.757 133.307 179.315 133.144 179.783 132.824C180.25 132.504 180.603 132.043 180.791 131.508C180.821 131.424 180.82 131.333 180.79 131.25C180.759 131.166 180.699 131.097 180.622 131.053C179.868 130.702 180.492 132.483 176.891 132.353C176.02 132.353 174.902 131.235 176.332 131.339C178.646 131.521 180.232 129.935 179.66 129.506C179.6 129.456 179.524 129.429 179.446 129.429C179.367 129.429 179.291 129.456 179.231 129.506C178.23 130.572 176.735 130.312 175.227 130.13C174.486 130.039 173.927 129.246 174.902 129.09C176.202 128.882 179.387 128.895 179.751 128.531C183.651 124.202 189.267 121.329 193.843 119.028C198.067 116.951 202.115 114.534 205.946 111.8C206.412 114.699 206.351 117.659 205.764 120.536ZM205.465 105.794C206.184 106.873 206.572 108.138 206.583 109.434C203.16 111.993 199.587 114.346 195.884 116.48C195.78 115.739 195.598 114.374 195.572 113.88C200.499 111.085 203.983 108.212 205.465 105.794ZM49.192 15.6908C91.923 16.6788 193.843 20.0718 193.843 20.0718C195.702 20.0718 196.638 20.1628 197.093 20.1368H197.21C200.837 20.6438 202.904 24.0368 203.58 26.7668C203.914 28.4088 204.053 30.0843 203.996 31.7588C181.467 31.3818 104.91 29.6398 42.9 26.9748C42.9 21.2288 43.446 16.4578 49.192 15.6908ZM42.9 169C39.598 169 29.211 169 25.909 169.156C25.909 165.1 25.675 137.072 25.636 133.003C28.093 133.094 39.377 132.808 41.964 132.743C41.99 165.477 41.6 165.529 42.9 169ZM41.938 120.9C38.337 120.9 27.391 120.9 24.908 121.017C24.986 119.535 25.038 115.817 25.077 114.036C27.495 114.036 38.233 113.737 41.977 113.529C41.925 115.934 41.925 118.404 41.925 120.809L41.938 120.9ZM41.938 112.359C40.144 112.359 25.311 112.814 24.557 112.879C23.803 112.944 23.946 113.646 23.907 114.946C23.764 119.249 23.725 120.991 23.803 121.706C23.868 122.187 23.972 122.2 24.154 122.213C25.844 122.33 40.235 122.096 41.951 122.07V131.573C24.05 131.781 24.544 131.755 24.544 132.47C24.544 132.808 24.544 167.063 24.687 170.04C24.687 170.651 26.221 170.495 43.498 170.352C45.565 174.252 48.88 174.564 53.287 174.876C57.694 175.188 154.791 172.354 159.276 172.198C160.867 173.966 162.782 175.414 164.918 176.462C165.555 183.781 166.478 197.262 167.05 205.868C158.873 206.414 22.75 216.489 17.914 216.84C17.914 213.603 17.329 106.418 17.329 106.418C19.461 106.418 39.429 106.093 41.912 106.015V112.268L41.938 112.359ZM11.7 225.069C10.205 223.522 10.842 228.228 10.842 104.169C10.842 100.269 13.442 99.2548 16.471 99.0858C20.371 98.8648 27.521 99.2548 41.912 98.8388V104.728C38.922 104.728 16.718 105.092 16.718 105.092C16.6322 105.095 16.5478 105.115 16.4697 105.15C16.3916 105.186 16.3214 105.237 16.263 105.3C16.003 105.586 16.679 217.568 16.731 217.698C16.7564 217.756 16.7982 217.805 16.8514 217.84C16.9045 217.875 16.9666 217.893 17.03 217.893C17.03 217.893 153.959 207.987 167.128 206.908C167.128 207.74 167.492 212.433 167.544 213.07C149.968 214.5 13 224.9 11.7 225.069ZM82.992 240.032L14.833 225.888C39.767 224.263 147.693 215.995 167.245 214.305C167.02 215.036 166.729 215.746 166.374 216.424C154.011 217.373 43.16 226.681 43.16 226.681C42.341 226.759 42.406 227.981 43.16 227.981L80.158 234.715C80.262 234.715 82.953 234.494 197.392 224.315C197.392 224.484 197.47 224.601 197.6 224.692C198.744 225.407 200.564 224.692 200.564 224.159C200.533 223.47 200.612 222.781 200.798 222.118C200.798 222.118 201.175 222.287 201.864 224.328C201.877 224.372 201.901 224.413 201.932 224.447C201.964 224.481 202.003 224.507 202.046 224.523C204.439 225.377 206.901 226.025 209.404 226.46C209.876 226.467 210.343 226.36 210.764 226.147C211.185 225.934 211.548 225.622 211.822 225.238C211.981 224.869 212.028 224.461 211.956 224.065C211.884 223.67 211.698 223.305 211.419 223.015C209.08 222.082 207.005 220.591 205.374 218.673C222.911 221.273 242.034 223.873 249.249 224.926L82.992 240.032Z" fill="#0D0D0D"/>
</g>
</g>
<defs>
<filter id="filter0_d_151_108" x="-1.70798" y="6.36951" width="271.621" height="255.512" filterUnits="userSpaceOnUse" color-interpolation-filters="sRGB">
<feFlood flood-opacity="0" result="BackgroundImageFix"/>
<feColorMatrix in="SourceAlpha" type="matrix" values="0 0 0 0 0 0 0 0 0 0 0 0 0 0 0 0 0 0 127 0" result="hardAlpha"/>
<feOffset dx="4" dy="4"/>
<feGaussianBlur stdDeviation="6"/>
<feComposite in2="hardAlpha" operator="out"/>
<feColorMatrix type="matrix" values="0 0 0 0 0.027451 0 0 0 0 0.564706 0 0 0 0 0.27451 0 0 0 0.25 0"/>
<feBlend mode="normal" in2="BackgroundImageFix" result="effect1_dropShadow_151_108"/>
<feBlend mode="normal" in="SourceGraphic" in2="effect1_dropShadow_151_108" result="shape"/>
</filter>
<clipPath id="clip0_151_108">
<rect width="260" height="260" fill="white"/>
</clipPath>
</defs>
</svg>
