<svg width="201" height="200" viewBox="0 0 201 200" fill="none" xmlns="http://www.w3.org/2000/svg">
<g clip-path="url(#clip0_129_161)">
<g filter="url(#filter0_d_129_161)">
<path fill-rule="evenodd" clip-rule="evenodd" d="M57.9599 46.5802V47.2902C57.9599 47.4891 58.0389 47.6799 58.1796 47.8205C58.3202 47.9612 58.511 48.0402 58.7099 48.0402C58.9088 48.0402 59.0996 47.9612 59.2402 47.8205C59.3809 47.6799 59.4599 47.4891 59.4599 47.2902V46.5402C59.4496 46.343 59.364 46.1573 59.2207 46.0214C59.0774 45.8856 58.8874 45.8099 58.6899 45.8102C58.591 45.8115 58.4933 45.8325 58.4027 45.8722C58.3121 45.9118 58.2303 45.9692 58.1623 46.041C58.0942 46.1128 58.0412 46.1975 58.0065 46.2901C57.9717 46.3827 57.9559 46.4814 57.9599 46.5802ZM57.6699 44.4902C58.7699 44.2302 59.6699 43.4902 58.0699 43.5902C57.6736 43.6455 57.2823 43.7324 56.8999 43.8502C55.3999 44.4702 56.6999 44.7202 57.6699 44.4902ZM149.42 51.4502C148.959 52.4171 148.188 53.202 147.23 53.6802C147.193 53.6935 147.161 53.7192 147.141 53.7531C147.121 53.7869 147.113 53.8268 147.119 53.8658C147.125 53.9048 147.144 53.9406 147.173 53.9669C147.203 53.9933 147.24 54.0086 147.28 54.0102C147.604 54.0672 147.936 54.0436 148.249 53.9414C148.561 53.8392 148.843 53.6616 149.071 53.4243C149.298 53.1871 149.464 52.8974 149.552 52.581C149.641 52.2646 149.651 51.9312 149.58 51.6102C149.58 51.5678 149.563 51.5271 149.533 51.4971C149.503 51.4671 149.462 51.4502 149.42 51.4502ZM145.44 43.5202C145.248 43.471 145.044 43.4989 144.872 43.5979C144.7 43.697 144.574 43.8593 144.52 44.0502C144.429 44.3757 144.412 44.7173 144.47 45.0502C144.47 45.2491 144.549 45.4399 144.69 45.5805C144.83 45.7212 145.021 45.8002 145.22 45.8002C145.419 45.8002 145.61 45.7212 145.75 45.5805C145.891 45.4399 145.97 45.2491 145.97 45.0502C145.97 44.3302 146.13 43.7102 145.44 43.5202ZM111.05 141.77C110.24 141.36 94.7499 142.37 94.3599 144.11C94.2799 144.49 94.5299 145.95 94.9699 146.19C95.8399 146.65 110.74 145.81 111.56 144.19C111.793 143.796 111.87 143.329 111.776 142.881C111.681 142.433 111.422 142.037 111.05 141.77ZM95.1599 145.77C94.8515 145.286 94.6852 144.724 94.6799 144.15C94.8799 143.25 103.13 142.76 104.04 142.7C104.018 143.508 104.226 144.306 104.64 145C103.5 145.18 95.6999 146.06 95.1599 145.8V145.77ZM110.83 143.77C110.04 144.33 106.03 144.84 105.07 144.96C105.154 144.169 104.986 143.371 104.59 142.68C105.78 142.6 109.59 142.39 110.72 142.49C111.02 142.71 111.03 143.39 110.83 143.79V143.77ZM84.7699 144.14C84.7429 144.123 84.7117 144.114 84.6799 144.114C84.6481 144.114 84.6169 144.123 84.5899 144.14C84.5899 144.04 65.4899 154.8 64.9099 155.94C64.8841 155.995 64.8707 156.055 64.8707 156.115C64.8707 156.176 64.8841 156.235 64.9099 156.29C65.5199 158.04 85.4499 176.06 86.2799 176.47C86.5199 176.59 86.8199 176.38 87.7599 175.88C89.7599 174.81 106.83 165.69 108.59 164.22C109.08 163.72 109.38 159.22 109.11 158.71C108.84 158.2 84.7699 144.24 84.7699 144.14ZM86.4999 175.64C84.3699 173.95 67.4999 158.75 65.6299 156.17C67.3699 154.53 84.1999 144.78 84.7099 144.48C87.2899 146.05 105.86 157.35 108.24 158.95C106.982 159.314 105.785 159.863 104.69 160.58C104.12 161.13 105.54 162.15 107.51 164.06C104.5 166 89.5699 174 86.4999 175.64ZM108.08 163.49C107.98 163.39 105.57 161.04 105.46 160.95C106.431 160.344 107.433 159.786 108.46 159.28C108.463 160.693 108.329 162.103 108.06 163.49H108.08Z" fill="#0D0D0D"/>
<path fill-rule="evenodd" clip-rule="evenodd" d="M99.7698 161.65C99.0698 161.95 90.5298 164.78 88.1198 165.76C87.4115 166.113 86.6396 166.321 85.8498 166.37C85.7098 166.37 86.5198 164.81 92.6498 160.03C93.2898 159.53 94.5198 158.58 94.6498 157.8C95.2398 155.22 88.2498 159.08 81.9998 161.52C81.3534 161.867 80.6481 162.091 79.9198 162.18C79.8498 161.77 81.2598 160.48 81.3498 160.38C85.0798 156.26 89.8098 154.56 89.4898 153.04C88.9998 150.66 80.3198 155.29 78.4898 156.04C76.9498 156.69 74.4898 157.47 74.6398 157.47C74.3098 157.6 74.6398 157.83 74.6998 157.8C74.7598 157.77 77.9298 156.8 78.6998 156.46C79.8498 156.02 87.5398 152.31 88.8198 153.18C89.3298 153.54 83.8898 156.47 80.8198 159.86C80.2798 160.44 78.8198 161.62 79.2698 162.58C79.3523 162.729 79.4774 162.849 79.6289 162.926C79.7804 163.002 79.9514 163.032 80.1198 163.01C81.6098 163.01 91.7698 157.92 93.8598 157.76C93.3801 158.393 92.8069 158.95 92.1598 159.41C90.6698 160.59 86.3498 164.11 85.3498 165.73C84.8298 166.57 85.2598 167.07 85.9398 167.08C86.8398 167.08 87.9398 166.47 90.6498 165.45C99.8398 161.91 100.13 162.07 99.9798 161.74C99.9721 161.72 99.9605 161.702 99.9457 161.687C99.9309 161.672 99.9132 161.66 99.8937 161.651C99.8741 161.643 99.8531 161.638 99.8318 161.638C99.8105 161.638 99.7894 161.642 99.7698 161.65Z" fill="#0D0D0D"/>
<path fill-rule="evenodd" clip-rule="evenodd" d="M195.5 123.52C195.37 113.06 194.43 91.7102 192.36 81.3602C191.27 75.8702 188.91 68.3602 184.52 64.7302C182.66 63.2002 179.92 61.7302 174.95 58.9802C175.01 58.8502 167.1 55.6502 166.73 56.7102C166.423 54.8863 165.992 53.0855 165.44 51.3202C166.18 51.0802 165.85 48.9202 166.16 47.7002C166.47 46.4802 167.64 45.6102 168.24 44.6102C169.59 42.3802 169.82 38.4902 169.57 35.9002C169.33 33.4902 165.81 28.1102 163.49 27.2302C161.17 26.3502 158.79 26.3802 156.34 25.8902C154.34 25.4802 152.86 24.3702 150.62 24.0902C148.38 23.8102 147.04 25.0902 145.12 25.0902C143.2 25.0902 141.04 23.6002 139.03 23.4802C137.938 23.4632 136.877 23.8431 136.044 24.5493C135.211 25.2556 134.662 26.2401 134.5 27.3202C134.257 28.93 134.448 30.5754 135.053 32.087C135.658 33.5986 136.654 34.9217 137.94 35.9202C139.506 36.9106 141.265 37.555 143.1 37.8102C142.98 42.9202 143.52 41.5502 142.92 42.0002C142.32 42.4502 142.51 45.6002 142.72 46.4702C142.81 46.8202 142.9 46.9502 143.33 47.0902C143.09 48.0902 141.4 50.2502 142.92 50.7802C143.12 50.8502 143.92 50.9902 144 51.0202C144.205 51.9685 144.506 52.8933 144.9 53.7802C145.288 54.6718 145.854 55.4743 146.565 56.1383C147.275 56.8022 148.114 57.3133 149.03 57.6402C150.47 58.2002 151.61 58.3502 152.45 58.6402C152.566 59.0537 152.626 59.4807 152.63 59.9102C149.059 60.8488 145.695 62.4462 142.71 64.6202C137.3 69.0102 129.61 87.2202 127.6 89.2202C126.82 89.9902 108.45 93.5502 105.74 95.3902C105.21 95.7502 105.19 96.0602 105.26 96.7002C104.6 96.8202 101.82 97.3402 101.51 97.9302C101.418 98.3588 101.443 98.804 101.58 99.2202C99.1055 98.7581 96.6089 98.4243 94.1 98.2202C93.6408 98.2309 93.1891 98.3379 92.7739 98.5343C92.3588 98.7306 91.9895 99.012 91.69 99.3602C90.85 100.36 91.53 100.19 90.64 100.05C88.75 99.7802 81.98 102.05 81.13 102.45C81.13 102.09 81.13 101.84 80.75 101.64C79.6339 101.317 78.4678 101.201 77.31 101.3C76.61 101.77 79.31 101.61 80.43 102.19C80.43 102.96 80.53 110.86 80.43 112.41C80.43 112.69 80.43 112.65 80.22 112.68C79.22 112.82 77.78 112.68 77.34 113C77.5 109.52 77.34 101 76.86 100.5C76.57 100.2 71.23 99.5602 65.42 98.8602C65.4406 94.6565 65.2068 90.4555 64.72 86.2802C63.65 77.0002 61.41 66.0602 54.41 60.5102C54.8156 60.6758 55.262 60.7142 55.69 60.6202C56.2615 60.3934 56.8766 60.2977 57.49 60.3402C58.49 60.6102 58.62 61.3402 61.12 59.6602C61.28 59.5502 61.7 59.5802 62.03 59.2502C63.16 58.1202 62.59 56.5902 62.59 55.4502C62.7556 54.6751 62.8095 53.8804 62.75 53.0902C62.7193 52.9723 62.6619 52.8632 62.5821 52.7713C62.5023 52.6793 62.4023 52.6071 62.29 52.5602C62.29 52.2302 62.64 51.6402 62.14 51.0002C62.86 50.6202 63.64 50.1802 63.24 49.4002C62.4759 48.178 61.8456 46.8772 61.36 45.5202C61.05 44.3602 61.47 42.8802 61.45 41.6302C61.45 40.7702 61.54 39.7402 61.45 38.8002C62.2213 38.2616 62.8107 37.5013 63.14 36.6202C63.2129 36.264 63.1973 35.8953 63.0944 35.5466C62.9915 35.1978 62.8046 34.8797 62.55 34.6202C62.22 34.4102 62.15 34.6202 62.16 34.0002C62.1961 33.7826 62.1864 33.5598 62.1312 33.3463C62.0761 33.1327 61.9769 32.9331 61.84 32.7602C61.42 32.3502 60.46 31.9002 60.16 31.4802C59.65 30.7302 59.35 29.9802 58.39 29.6802C57.71 29.4602 57.07 29.8902 56.61 29.7402C55.98 29.5402 55.33 28.8602 54.61 29.5802C54.4492 29.6673 54.2728 29.7219 54.0909 29.7408C53.909 29.7597 53.7252 29.7425 53.55 29.6902C52.95 29.1802 52.8 28.3002 51.78 28.1102C51.2 28.0102 50.06 28.2902 49.62 28.1102C48.8991 27.5796 48.1039 27.1584 47.26 26.8602C46.3165 26.7703 45.3646 26.8516 44.45 27.1002C43.81 27.2302 42.99 27.1602 42.32 27.2602C40.93 27.4802 40.53 28.6802 39.61 29.2602C38.69 29.8402 37.14 29.8502 36.26 31.1502C35.52 32.2502 35.68 33.4402 35.39 34.5402C35.27 35.0102 34.63 35.5402 34.39 36.0202C33.83 37.1302 34.26 38.2502 34.25 39.2102C34.24 40.1702 33.57 41.0502 33.76 42.2102C33.9143 42.7895 34.1681 43.3376 34.51 43.8302C34.5141 43.9923 34.4939 44.1541 34.45 44.3102C34.1449 45.0971 34.0822 45.9573 34.27 46.7802C34.4336 47.569 34.8147 48.2964 35.37 48.8802C36.07 49.4902 36.43 49.3302 36.94 50.2002C37.1545 50.6602 37.477 51.0616 37.88 51.3702C38.62 51.8702 39.53 51.4402 39.97 51.6602C40.2437 51.8047 40.5423 51.8963 40.85 51.9302C40.6038 52.0546 40.3912 52.2363 40.23 52.4602C34.79 53.1502 27.61 57.1202 23.23 62.5502C21.5 64.7802 18.59 68.0002 17.5 70.5802C11.64 83.8202 14.5 104.58 12.14 110.99L6.29998 126.22C6.01998 126.95 5.29998 130.58 5.55998 131.83C5.97998 133.69 7.92998 131.36 9.11998 130.04C8.37998 132.67 8.38998 133.36 7.99998 143.71C7.87998 146.95 7.76998 150.48 7.71998 153.45C7.71711 153.471 7.71886 153.493 7.7251 153.514C7.73135 153.534 7.74194 153.553 7.75616 153.569C7.77039 153.586 7.78792 153.598 7.80755 153.607C7.82719 153.616 7.84848 153.62 7.86998 153.62C8.14998 153.62 7.96998 153.94 8.37998 145.68C8.66998 139.87 8.99998 134.45 9.02998 134.01C9.17801 132.301 9.5547 130.619 10.15 129.01C12.9427 126.924 16.0853 125.352 19.43 124.37C23.1525 123.374 27.0834 123.475 30.75 124.66C31.75 124.99 34.44 125.66 35.4 125.21C37.4 124.21 42.55 120.9 43.4 118.89C43.82 117.89 44.16 117.08 44.49 116.33C46.02 116.47 47.9 116.86 49.57 116.88C51.44 116.88 52.64 116.58 54.71 114.75C62.32 114.92 70.71 114.69 74.71 114.54C77.38 115.54 85.58 118.47 87.57 120.44C88.35 121.2 88.81 123.32 89.09 125.68C89.4587 128.501 89.5558 131.351 89.38 134.19C83.9 135.24 76.92 136.9 71.52 138.24C71.2176 138.156 70.9016 138.132 70.59 138.17C69.16 138.32 69.83 138.9 69.36 137.45C69.3825 137.455 69.406 137.455 69.4283 137.449C69.4506 137.443 69.4711 137.432 69.488 137.416C69.5048 137.4 69.5174 137.38 69.5248 137.358C69.5321 137.336 69.5339 137.313 69.53 137.29C69.5153 135.368 69.2906 133.453 68.86 131.58C68.79 131.3 68.3 131.16 68 131.07C64.76 130.13 52.25 128.87 49.5 129.58C47.71 130.05 35.32 136.45 34.76 137.81C34.2 139.17 32.68 147.35 32.4 148.86C25.92 150.75 20.81 152.31 18.31 153.16C18.2893 153.167 18.2701 153.178 18.2537 153.192C18.2374 153.206 18.2241 153.224 18.2147 153.244C18.2054 153.263 18.2001 153.285 18.1993 153.306C18.1985 153.328 18.2021 153.35 18.21 153.37C18.33 153.74 21.61 152.04 55.21 143.21C55.5476 144.072 55.9803 144.894 56.5 145.66C55.5 145.9 54.37 146.34 54.04 147.26C53.9813 147.454 53.9716 147.66 54.0117 147.859C54.0519 148.058 54.1406 148.244 54.27 148.4C55.0904 149.319 56.184 149.95 57.39 150.2C59.5045 150.73 61.7016 150.846 63.86 150.54C65.9325 150.359 67.9747 149.923 69.94 149.24C72.08 148.34 71.94 147 71.12 146.39C70.275 145.893 69.3465 145.554 68.38 145.39C69.29 143.74 68.44 144.47 69.8 144.14C70.5696 143.957 71.2726 143.562 71.83 143C72.71 142.1 73.3 139.88 72.46 138.81C76.68 137.81 93.65 133.61 97.8 133.92C105.33 134.47 160.08 156.98 173.04 161.32C173.06 161.327 173.082 161.329 173.103 161.327C173.124 161.326 173.145 161.32 173.164 161.31C173.183 161.3 173.2 161.287 173.214 161.271C173.228 161.254 173.238 161.236 173.245 161.215C173.252 161.195 173.254 161.173 173.252 161.152C173.251 161.131 173.245 161.11 173.235 161.091C173.225 161.072 173.212 161.055 173.195 161.041C173.179 161.027 173.16 161.017 173.14 161.01C169.75 159.83 162.19 156.82 153.14 153.2C153.58 152.14 154.74 148.72 155.64 147.54C156.01 147.06 155.99 147.02 159.29 147.21C167.94 147.71 175.56 147.48 183.86 144.83C188.93 143.2 191.42 139.44 192.86 134.41C193.15 134.5 193.94 134.76 194.22 134.82C194.3 134.84 194.383 134.84 194.463 134.82C194.543 134.801 194.617 134.764 194.68 134.71C195.67 133.7 195.5 125.49 195.5 123.52ZM58.72 54.7602C58.4493 54.8588 58.1572 54.8829 57.874 54.8302C57.5908 54.7774 57.327 54.6496 57.11 54.4602C56.8941 54.2874 56.7251 54.0632 56.6185 53.8081C56.512 53.5529 56.4712 53.2751 56.5 53.0002C56.4867 52.959 56.4903 52.9144 56.51 52.8759C56.5297 52.8375 56.5639 52.8084 56.605 52.7952C56.6461 52.7819 56.6908 52.7855 56.7292 52.8052C56.7677 52.8249 56.7967 52.8591 56.81 52.9002C57.3037 53.6103 58.001 54.1542 58.81 54.4602C58.8357 54.4815 58.8546 54.5099 58.8643 54.5419C58.874 54.5739 58.8741 54.608 58.8645 54.64C58.8549 54.672 58.836 54.7005 58.8103 54.7219C58.7846 54.7432 58.7532 54.7565 58.72 54.7602ZM49.33 46.0002C49.3641 45.7064 49.4822 45.4286 49.67 45.2002C49.89 44.9802 50.56 45.1202 51.03 44.8002C51.3815 44.5224 51.6482 44.1517 51.8 43.7302C52.36 42.6202 53.25 43.4802 54.49 41.6502C54.8065 41.1355 55.052 40.5805 55.22 40.0002C55.92 39.6702 56.83 40.1502 57.71 38.7002C58 38.2102 58.19 37.7002 58.71 37.5602C59.1 37.9802 59.49 39.5602 61.07 38.9502C61.07 39.4902 60.95 42.2202 60.92 42.4402C60.7904 43.0992 60.7201 43.7686 60.71 44.4402C60.71 46.4402 61.63 47.5402 62.65 49.6302C62.81 49.9602 61.97 50.2802 61.55 50.5102C60.9575 50.2919 60.3443 50.1344 59.72 50.0402C57.78 49.5702 56.23 50.5802 54.56 51.0402C54.2769 51.0419 53.9947 51.0083 53.72 50.9402C53.09 50.8802 52.43 51.5202 51.54 51.6402C51.3079 51.6857 51.0676 51.6605 50.85 51.5678C50.6325 51.475 50.4478 51.3191 50.32 51.1202C50.2121 50.7539 50.1352 50.3793 50.09 50.0002C50 49.6402 49.89 49.2802 49.81 48.9302C49.65 48.2102 50.12 47.9302 49.57 46.9302C49.19 46.2502 49.2 46.5502 49.33 46.0002ZM49.71 66.4002C50.3833 65.1223 50.9325 63.7829 51.35 62.4002C51.91 65.8802 52.21 67.6402 52.35 68.5202C51.62 67.9102 51.55 67.6802 49.71 66.3602V66.4002ZM52.71 70.4702C53.2 73.4702 53.09 72.7902 53.18 73.4102C52.9411 72.9602 52.649 72.5405 52.31 72.1602C52.4219 71.4996 52.4721 70.83 52.46 70.1602L52.71 70.4702ZM49.09 72.2702C48.4928 71.6492 47.9476 70.9803 47.46 70.2702C47.9544 69.1138 48.5119 67.9854 49.13 66.8902C51.23 68.5002 51.07 68.4802 51.59 69.1302C51.6663 69.9818 51.6663 70.8385 51.59 71.6902L49.09 72.2702ZM49.22 72.9202C50.41 75.5702 50.89 79.9202 51.14 82.8202C49.8916 79.1675 48.2132 75.6763 46.14 72.4202C46.5454 71.8661 46.9065 71.281 47.22 70.6702C47.6319 71.4372 48.1247 72.158 48.69 72.8202C48.7622 72.8656 48.8436 72.8945 48.9283 72.9049C49.013 72.9153 49.0989 72.9068 49.18 72.8802L49.22 72.9202ZM43.28 51.5202C43.3614 51.5454 43.4451 51.5622 43.53 51.5702C43.7628 51.5597 43.986 51.4742 44.1663 51.3264C44.3465 51.1786 44.4741 50.9764 44.53 50.7502C44.69 50.6502 44.81 50.5402 44.8 50.3502C44.79 50.1602 42.64 47.2202 45.38 45.7102C45.6216 45.684 45.8645 45.7467 46.0633 45.8865C46.262 46.0264 46.4031 46.2339 46.46 46.4702C46.5894 47.0036 46.8626 47.4913 47.25 47.8802C47.2803 48.5194 47.3639 49.1549 47.5 49.7802C47.58 50.1502 47.3 50.6302 47.24 51.1402C47.1 52.1402 48.07 53.2402 48.42 54.1402C48.89 55.3502 48.57 56.6502 49.69 57.7202C50.81 58.7902 50.6 57.9102 50.99 60.3102C50.5234 62.1963 49.8806 64.0344 49.07 65.8002C47.94 64.2002 42.22 54.8602 41.07 52.7302C41.5 52.4702 42.84 51.7102 43.24 51.4802L43.28 51.5202ZM40.28 52.8502C41.01 54.5502 48.28 66.0702 48.28 66.1702C47.93 67.2802 45.92 71.8802 44.97 72.3802C42.88 70.8902 37.15 55.2202 36.74 53.8002C37.8682 53.3169 39.055 52.984 40.27 52.8102L40.28 52.8502ZM50.6 97.0002C49.5 96.6502 45.95 84.6002 42.78 77.9302C40.88 73.9302 37.15 67.3202 33.08 65.5602C28.68 63.6702 20.5 68.2002 19.63 74.0802C19.0988 77.958 19.4126 81.905 20.55 85.6502C25.27 99.9202 31.66 111.3 45.31 114.56C45.63 113.92 44.5 114.45 53.48 114.69C53.0399 115.032 52.5715 115.337 52.08 115.6C50.4 116.51 47.21 115.78 44.85 115.52L45.15 114.87C31.09 111.73 24.51 99.8702 19.8 85.8702C18.6105 82.0121 18.2693 77.9424 18.8 73.9402C19.7 67.5802 28.17 63.0202 32.86 64.6002C34.0558 65.0457 35.1506 65.7257 36.08 66.6002C35.634 62.593 35.5236 58.5557 35.75 54.5302C35.9337 54.3669 36.1311 54.2197 36.34 54.0902C37.2 57.0902 42.1 71.4302 44.59 73.0202C44.7479 73.1135 44.9328 73.1505 45.1145 73.125C45.2961 73.0996 45.4638 73.0133 45.59 72.8802C47.84 76.7502 49.94 80.7102 50.78 84.8802C51.2552 87.1816 51.3766 89.5421 51.14 91.8802C49.72 86.0002 45.79 77.5002 41.32 73.4302C45.89 81.3202 49.22 93.9402 50.71 96.4302C51.306 96.5944 51.9148 96.7082 52.53 96.7702C52.27 90.7702 52.07 78.2602 49.53 72.8302C49.84 72.8302 52.03 72.3602 52.03 72.3602C52.4249 72.8344 52.7607 73.3549 53.03 73.9102C53.44 74.7002 53.3 74.1002 53.92 78.3002C56.92 97.6902 56.75 97.5902 57.14 97.8002C55.18 97.5502 51.73 97.3402 50.6 97.0002ZM57.24 93.0002C53.34 70.8602 53.3 70.2402 51.66 61.0002C51.79 60.5602 51.89 60.2002 51.96 59.9402C52.58 60.7302 55.96 65.0602 56.33 66.0102C55.78 66.5002 53.8 67.3402 54.4 68.0102C54.67 68.3202 56.9 70.2502 57.6 70.9502C57.98 72.5602 57.38 90.2002 57.24 93.0002ZM32.8 148.73C33.08 147.46 34.91 139.2 35.42 138.04C35.79 137.18 47.85 130.78 49.75 130.3C52.49 129.58 67.41 131.06 68.45 131.73C68.9195 133.474 69.1945 135.265 69.27 137.07C67.59 135.07 54.59 135.6 54.45 138.42C54.4472 138.513 54.4667 138.605 54.5067 138.688C54.5467 138.772 54.6061 138.844 54.68 138.9C54.6734 140.109 54.8111 141.314 55.09 142.49C47.41 144.56 39.73 146.72 32.8 148.73ZM70.93 147.17C71.44 148.82 65.45 149.53 63.72 149.73C61.6658 150.023 59.5744 149.918 57.56 149.42C56.68 149.18 55.05 148.54 54.74 147.74C54.59 147.36 55.08 147 55.44 146.81C55.8961 146.572 56.3797 146.391 56.88 146.27C57.4247 147.021 58.1553 147.617 59 148C60 148.44 64.27 148.13 65.75 147.81C66.4 147.67 67.09 147.48 68.07 145.91C68.67 146 70.76 146.62 70.93 147.17ZM66.15 146.82C65.4 147.27 60.1 147.63 59.29 147.3C56.61 146.23 55.15 142.05 55.04 139.1C57.2186 139.579 59.4546 139.744 61.68 139.59C63.35 139.37 67.3 138.69 68.75 137.96C69.62 141.24 67.78 145.87 66.15 146.82ZM71.74 141.66C71.4693 142.196 71.089 142.668 70.6239 143.047C70.1587 143.426 69.6191 143.703 69.04 143.86C69.5631 142.457 69.811 140.967 69.77 139.47C69.8489 139.305 69.9635 139.159 70.1055 139.043C70.2475 138.928 70.4134 138.845 70.5913 138.801C70.7691 138.757 70.9545 138.753 71.1341 138.789C71.3137 138.825 71.4831 138.901 71.63 139.01C72.38 139.5 72.05 140.81 71.74 141.66ZM174.74 59.2702C181.5 63.0002 184.5 64.5602 186.66 67.8302C185.301 66.6618 183.572 66.0133 181.78 66.0002C175.37 65.7802 172.22 75.2702 170.58 81.4102C167.86 91.6502 169.53 104.61 169.38 106.51C167.65 108.12 158.79 112.72 154.83 114.87C155.38 112.55 157.34 103.6 158.62 100.07C160.34 95.3302 165.29 84.2902 165.62 81.8902C165.71 81.1802 165.57 81.0902 163.47 79.7302C164.28 79.7302 166.47 79.5102 167.15 79.3802C167.44 79.3802 167.59 79.2502 167.7 78.6402C168.07 76.5202 168.79 59.0502 168.85 57.1902C168.78 57.1502 173.88 58.7802 174.77 59.2702H174.74ZM167.03 56.8802C167.485 56.8473 167.943 56.8982 168.38 57.0302C167.88 64.2802 167.38 77.0302 166.91 78.6602C166.38 78.7602 164.5 78.8902 163.77 78.9402C162.21 79.0302 162.17 78.9402 162.01 79.1602C161.85 79.3802 162.07 79.6802 162.36 79.8802C162.87 80.2402 164.57 81.3102 164.81 81.5902C164.579 82.7808 164.224 83.9438 163.75 85.0602C158.1 100.06 158.44 95.4502 154.64 111.9C154.894 104.02 155.622 96.1627 156.82 88.3702C157.62 84.0802 158.59 80.0502 161.82 70.8702C163.09 67.3202 165.72 60.5202 165.82 60.5602C166.322 59.365 166.736 58.1352 167.06 56.8802H167.03ZM149.66 118.25C149.85 118.99 149.85 118.89 149.79 118.9L149.48 118.84C149.48 118.74 148.94 108.7 149.2 104.55C149.67 97.2002 150.27 89.2302 150.83 81.5502C151.1 77.8302 152.12 69.8402 152.09 70.1402L153.09 69.4002C153.505 70.2281 153.976 71.0266 154.5 71.7902C154.7 72.0602 154.97 72.4002 155.29 72.4302C155.07 74.2402 151.74 96.5702 150.76 110.84C150.22 118.61 150.76 116.96 149.97 117.67C149.876 117.733 149.801 117.82 149.752 117.922C149.703 118.024 149.681 118.137 149.69 118.25H149.66ZM155.6 72.4402C156.36 72.4402 157.18 70.8402 158.18 70.1602C158.57 70.5702 159.75 72.5302 160.53 72.7902C157.22 81.8702 153.68 94.5302 153.69 115.43C152.84 115.89 151.69 116.55 150.84 117.04C151.34 108.53 154.96 80.6002 155.63 72.4402H155.6ZM166.1 59.0002C165.78 60.0002 161.03 71.4702 160.7 72.0002C160.184 71.4946 159.725 70.9347 159.33 70.3302C158.49 69.2002 158.2 68.8302 156.77 70.4402C158.89 66.4402 163.03 62.3802 164.77 60.3602C166.43 58.4602 166.21 58.6202 166.1 59.0002ZM143.7 38.0002C144.446 38.2299 145.244 38.2299 145.99 38.0002C146.561 37.7465 147.191 37.6565 147.81 37.7402C148.684 38.143 149.582 38.4904 150.5 38.7802C151.635 38.7702 152.768 38.6799 153.89 38.5102C154.404 38.7504 154.84 39.1317 155.146 39.6096C155.452 40.0875 155.617 40.6425 155.62 41.2102C153.756 41.4808 151.957 42.0873 150.31 43.0002C150.209 42.6718 150.008 42.383 149.736 42.1734C149.464 41.9638 149.133 41.8439 148.79 41.8302C147.15 41.6329 145.494 41.6127 143.85 41.7702C143.704 40.4924 143.654 39.2054 143.7 37.9202V38.0002ZM143.31 46.5302C143.06 46.0902 142.57 42.6802 143.07 42.3102C143.15 42.4102 142.8 42.1002 144.7 42.1202C146.039 42.1624 147.375 42.2826 148.7 42.4802C149.6 42.6402 149.75 43.0502 149.7 43.9202C149.7 45.5302 149.75 45.3702 149.7 45.8702C149.7 46.0102 149.64 46.3802 149.53 46.4602C147.473 46.8324 145.366 46.829 143.31 46.4502V46.5302ZM152.5 57.8002C149.76 57.0202 147.25 56.9202 145.56 53.4402C144.47 51.2002 145.07 50.5502 144.08 50.2602C143.713 50.2164 143.351 50.136 143 50.0202C143 49.3502 143.84 47.9502 144 47.2402C145.661 47.4387 147.339 47.4387 149 47.2402C150 47.0902 150.53 46.9202 150.37 44.8902V43.3402C151.94 42.8602 155.27 42.0702 155.67 41.9602C155.672 42.5042 155.746 43.0455 155.89 43.5702C156.046 43.9001 156.316 44.1628 156.65 44.3102C156.703 44.3339 156.762 44.345 156.82 44.3426C156.878 44.3402 156.935 44.3243 156.987 44.2963C157.038 44.2682 157.082 44.2287 157.116 44.1808C157.149 44.1329 157.171 44.0779 157.18 44.0202C157.41 43.0902 157.59 42.2602 157.66 41.8602C157.66 42.0802 157.75 41.1602 158.41 40.8002C159.41 40.2802 160.96 41.4402 161.07 43.0802C161.13 43.8802 160.33 45.3302 159.73 47.0002C159.37 48.0002 161.55 48.4302 162.31 48.8002C162.59 49.4502 162.42 50.1802 162.8 50.5702C163.37 50.9217 163.996 51.1752 164.65 51.3202C165.34 53.5305 165.842 55.7953 166.15 58.0902C163.61 60.7602 163.04 61.4002 162.36 62.0902C159.703 64.6144 157.451 67.5318 155.68 70.7402C154.97 66.5702 153.62 62.8902 153.47 61.6802C153.35 60.7402 153.55 59.0802 153.11 58.1902C153.043 58.0842 152.954 57.9944 152.849 57.927C152.743 57.8595 152.624 57.8162 152.5 57.8002ZM152.79 61.1902C153.27 62.9702 154.55 68.7502 154.92 71.0702C154.31 70.1502 153.56 68.6302 153.56 68.6302C153.534 68.5759 153.496 68.5282 153.449 68.4907C153.402 68.4531 153.347 68.4266 153.289 68.4131C153.23 68.3997 153.169 68.3996 153.111 68.413C153.052 68.4263 152.997 68.4527 152.95 68.4902L152.22 69.0502C152.5 66.4502 152.78 63.8002 152.82 61.1902H152.79ZM152.5 60.3002C152.41 67.6602 150.94 74.2202 150.34 81.5502C148.34 106.19 148.34 104.98 148.54 113.7C147.46 105.82 145.95 90.4902 145.12 82.1802C145.71 81.7302 148.56 79.5602 148.88 78.9002C149.03 78.5802 148.88 78.2502 148.16 78.2502C146.908 78.3445 145.652 78.3445 144.4 78.2502C145.16 75.1502 149.51 63.8402 150.67 60.8402C151.26 60.6702 151.75 60.5002 152.5 60.3002ZM106.01 96.1402C107.56 94.5102 127.01 90.7102 128.07 89.6802C129.56 88.1802 133.66 78.8702 137.84 71.8102C141.39 65.8102 143.32 63.5902 150.23 61.0402C148.57 65.1502 145.33 73.1902 143.87 77.8702C143.78 78.1602 143.65 78.4802 143.87 78.6702C144.42 79.2102 146.72 78.8902 148.04 78.9102C147.11 79.8402 144.55 81.7302 144.55 81.7302C144.501 81.7666 144.462 81.8153 144.437 81.8714C144.413 81.9276 144.403 81.9892 144.41 82.0502C144.83 86.6902 147.41 114.38 148.53 118.4L146.73 117.94C145.566 117.369 144.303 117.029 143.01 116.94C145.29 105.6 144.47 102.43 144.75 96.2502C144.75 95.6102 142.05 82.7502 142.03 82.6502C142.03 82.6077 142.013 82.567 141.983 82.537C141.953 82.507 141.912 82.4902 141.87 82.4902C141.828 82.4902 141.787 82.507 141.757 82.537C141.727 82.567 141.71 82.6077 141.71 82.6502C141.88 87.0302 143.12 91.2002 143.97 95.9802C140.77 98.9802 137.42 103.13 131.97 104.48C128.6 105.33 112.82 108.77 110.72 108.92C109 107 105.74 97.4202 106.01 96.1402ZM104.11 97.4702C104.11 97.4702 105.31 97.1802 105.29 96.9902C106.224 100.504 107.4 103.949 108.81 107.3C107.901 107.581 106.971 107.792 106.03 107.93C105.46 107.93 105.86 108.43 104.47 105.13C103.613 103.079 102.879 100.978 102.27 98.8402C102.1 98.1502 101.81 98.2202 104.11 97.4702ZM92.4 99.5802C93.19 98.7102 93.76 98.5802 101.66 99.5802C102.363 101.965 103.214 104.303 104.21 106.58C102.584 107.848 100.721 108.776 98.73 109.31C98.67 108.88 98.53 109.01 98.87 109.04C99.1571 109.048 99.4425 108.992 99.7049 108.875C99.9674 108.758 100.2 108.584 100.386 108.365C100.573 108.146 100.707 107.889 100.781 107.611C100.854 107.333 100.864 107.042 100.81 106.76C100.73 105.76 97.87 103.68 97.06 103.11C97.5408 103.209 98.0398 103.171 98.5 103C98.5411 102.987 98.5752 102.958 98.5949 102.919C98.6146 102.881 98.6182 102.836 98.605 102.795C98.5917 102.754 98.5627 102.72 98.5242 102.7C98.4858 102.681 98.4411 102.677 98.4 102.69C96.72 103.13 95.02 101.13 94.8 101.07C94.03 100.88 94.51 102.67 92.8 103.74C92.55 103.9 91.59 103.54 91.53 103.05C91.4041 102.444 91.417 101.816 91.5676 101.216C91.7183 100.615 92.0028 100.056 92.4 99.5802ZM81.22 102.73C82.5 102.27 89.02 100.25 90.9 100.73C90.6884 101.529 90.6407 102.362 90.76 103.18C90.8235 103.44 90.9423 103.683 91.1083 103.893C91.2742 104.102 91.4835 104.274 91.7217 104.395C91.9599 104.517 92.2216 104.585 92.4888 104.597C92.7559 104.608 93.0224 104.561 93.27 104.46C93.9669 103.995 94.4907 103.313 94.76 102.52C95.65 103.06 100.07 105.99 100.01 107.03C100.01 107.73 99.64 108.32 98.94 108.26C98.349 108.048 97.7904 107.756 97.28 107.39C96.7664 106.98 96.2251 106.606 95.66 106.27C95.5701 106.224 95.4662 106.212 95.3682 106.237C95.2702 106.263 95.185 106.323 95.1292 106.408C95.0733 106.492 95.0506 106.594 95.0656 106.694C95.0805 106.795 95.1319 106.886 95.21 106.95C95.21 106.95 95.96 107.51 96.79 108.05C98.04 109.05 98.47 109.97 96.92 110.44C96.6773 110.512 96.4224 110.533 96.1712 110.502C95.92 110.471 95.6779 110.389 95.46 110.26C95.2052 109.757 94.8671 109.301 94.46 108.91C94.2783 108.443 93.9527 108.046 93.5301 107.776C93.1076 107.506 92.6102 107.378 92.11 107.41C91.59 107.47 91.55 107.73 91.6 107.49C91.84 106.3 90.32 105.58 89.26 105.78C87.55 106.12 86.6 108.38 86.04 110.03C85.7 110.75 87.04 109.95 81.19 112.03C81.3548 109.126 81.3548 106.214 81.19 103.31C81.14 102.62 81.12 102.78 81.22 102.73ZM86.32 110.14C86.87 108.96 88.08 106.75 89.37 106.55C89.87 106.46 90.88 106.8 90.77 107.31C90.5534 108.664 89.929 109.92 88.98 110.91C89.1 111.11 85.97 111.17 86.32 110.14ZM91.98 108.23C92.22 107.99 93.62 108.48 93.66 109.23C93.73 110.48 92.54 111.97 91.51 112.66C91.18 112.89 89.88 111.83 89.58 111.4C90.2942 110.281 91.0968 109.221 91.98 108.23ZM93.67 111.56C93.74 111.46 94.74 109.24 94.91 111.08C94.98 111.8 93.91 112.18 93.21 112.08C93.3727 111.915 93.5262 111.742 93.67 111.56ZM115.91 124.56C111.7 127.83 111.1 132.13 111.79 137.26C105.03 134.86 99.87 133.26 97.86 133.09C95.1395 133.146 92.432 133.481 89.78 134.09C90.05 131.4 89.93 121.96 88.02 120.02C86.11 118.08 79.18 115.43 76.57 114.43H77.16C77.39 114.31 77.01 113.26 77.88 113.2C78.93 113.14 80.4 113.54 80.88 113.12C81.0233 112.902 81.1061 112.65 81.12 112.39C82.22 112.04 84.81 111.25 86.12 110.91C86.5604 111.26 87.076 111.502 87.6261 111.618C88.1762 111.735 88.7458 111.722 89.29 111.58C89.59 112.25 90.99 113.72 91.86 113.24C92.1013 113.101 92.3319 112.944 92.55 112.77C93.1825 112.945 93.8542 112.917 94.47 112.69C94.7958 112.601 95.0866 112.415 95.3029 112.155C95.5193 111.896 95.6509 111.577 95.68 111.24C96.2036 111.391 96.7618 111.366 97.2705 111.172C97.7793 110.977 98.2108 110.622 98.5 110.16C100.692 109.667 102.744 108.683 104.5 107.28C104.69 107.69 104.87 108.04 105.02 108.28C105.07 108.365 105.14 108.435 105.223 108.486C105.307 108.536 105.402 108.565 105.5 108.57C106.5 108.67 108.86 107.57 108.96 107.57C109.303 108.285 109.729 108.956 110.23 109.57C110.41 109.75 110.71 109.7 110.99 109.67C113.89 109.32 128.29 106.22 132.14 105.26C137.14 104.01 140.4 100.5 143.83 97.1602C143.64 102.9 144.39 105.7 142.12 116.97C137.4 117.557 132.723 118.452 128.12 119.65C124.09 120.8 119.29 121.94 115.91 124.57V124.56ZM130.5 144.29L130.15 144.15C130.07 139.07 131.33 134.39 135.05 130.92C135.379 131.004 135.713 131.067 136.05 131.11C132.22 134.39 130.71 139.17 130.5 144.29ZM146.29 127.62C143.29 129.38 144.17 130.33 141.42 130.62C139.217 130.771 137.003 130.6 134.85 130.11C133.11 129.55 134.03 128.88 135.85 128.68C136.16 128.73 138.6 128.75 139.75 128.68C139.844 128.665 139.929 128.617 139.991 128.545C140.053 128.472 140.087 128.38 140.087 128.285C140.087 128.19 140.053 128.098 139.991 128.026C139.929 127.953 139.844 127.905 139.75 127.89C138.453 127.779 137.15 127.758 135.85 127.83C135.022 127.818 134.198 127.721 133.39 127.54C133.31 127.409 133.263 127.26 133.254 127.106C133.245 126.953 133.275 126.8 133.34 126.66C134.39 126.03 139.34 126.27 140.16 126.24C140.256 126.225 140.344 126.176 140.408 126.102C140.471 126.027 140.506 125.933 140.506 125.835C140.506 125.737 140.471 125.643 140.408 125.569C140.344 125.495 140.256 125.445 140.16 125.43C138.519 125.465 136.878 125.378 135.25 125.17C134.55 125.05 132.92 124.7 133.04 123.99C133.26 122.71 135.89 123.81 137.74 123.68C139.045 123.661 140.337 123.417 141.56 122.96C141.651 122.932 141.728 122.869 141.773 122.785C141.818 122.7 141.828 122.602 141.8 122.51C141.772 122.419 141.709 122.342 141.625 122.297C141.54 122.252 141.441 122.242 141.35 122.27C140.099 122.571 138.829 122.791 137.55 122.93C137.469 122.913 137.397 122.868 137.347 122.801C137.297 122.735 137.273 122.653 137.28 122.57C137.294 122.383 137.342 122.2 137.42 122.03C137.936 121.358 138.628 120.842 139.42 120.54C142.26 119.36 144.42 120.54 147.67 120.75C148.078 122.599 148.595 124.423 149.22 126.21C148.223 126.609 147.257 127.08 146.33 127.62H146.29ZM150.11 126.4C149.76 125.22 148.46 120.94 148.33 119.94C148.846 119.688 149.39 119.497 149.95 119.37C150.41 121.08 151.26 124.05 151.81 125.71C151.273 125.979 150.719 126.209 150.15 126.4H150.11ZM152.94 126.4C152.41 125.2 150.84 119.61 150.48 118.21C152.2 116.8 167.64 109.21 169.94 106.9C170.66 106.18 168.23 92.6302 171.08 81.4802C172.6 75.4802 175.58 66.0502 181.73 66.2602C185.95 66.4002 188.36 69.6202 189.73 73.6402C192.24 81.0402 191.24 91.3102 191.24 91.2102C191.24 99.6002 188.24 112.21 182.24 118.21C177.71 122.75 155.76 126.91 152.98 126.43L152.94 126.4ZM194.17 134C193 133.69 187.63 131.71 185.36 131.52C173.57 130.52 174.3 128.28 167.01 125.08C171.01 124.08 179.9 121.76 182.85 118.84C189.08 112.66 191.96 99.9202 191.93 91.3002C192.161 88.2813 192.161 85.2491 191.93 82.2302C194.14 94.7702 195.5 130.2 194.17 134Z" fill="#0D0D0D"/>
<path fill-rule="evenodd" clip-rule="evenodd" d="M39.5498 66.4002L36.2698 66.7802C37.2697 67.7206 38.1803 68.7517 38.9898 69.8602L39.8998 66.8602C39.9275 66.8065 39.9395 66.7459 39.9342 66.6857C39.929 66.6254 39.9067 66.5678 39.8701 66.5197C39.8335 66.4715 39.7839 66.4347 39.7272 66.4136C39.6705 66.3925 39.609 66.3878 39.5498 66.4002ZM134.41 157.66C133.585 157.138 132.674 156.766 131.72 156.56C133.99 152.87 133.58 148.56 132.98 148.18C132.415 147.605 131.663 147.25 130.86 147.18C127.86 146.55 120.59 146.5 118.67 148.1C118.25 148.45 118 149.02 118.41 149.4C118.215 151.771 118.711 154.147 119.84 156.24C118.84 156.43 117.68 156.81 117.3 157.71C117.234 157.904 117.216 158.11 117.248 158.312C117.279 158.514 117.359 158.706 117.48 158.87C118.247 159.822 119.298 160.505 120.48 160.82C122.567 161.455 124.757 161.683 126.93 161.49C129.006 161.406 131.064 161.07 133.06 160.49C135.27 159.67 135.25 158.32 134.41 157.66ZM118.76 149.58C120.909 150.167 123.132 150.444 125.36 150.4C127.789 150.234 130.188 149.764 132.5 149C132.7 150.376 132.626 151.778 132.283 153.125C131.94 154.472 131.334 155.738 130.5 156.85C130.298 157.203 130.007 157.497 129.656 157.703C129.305 157.908 128.906 158.018 128.5 158.02C127.1 158.2 123.28 158.3 122.5 157.95C119.97 156.78 118.72 152.53 118.76 149.58ZM126.89 160.58C124.826 160.776 122.743 160.565 120.76 159.96C119.862 159.716 119.035 159.26 118.35 158.63C118.19 158.46 117.93 158.12 118.01 157.91C118.27 157.25 119.54 156.91 120.24 156.79C120.741 157.555 121.429 158.178 122.24 158.6C123.24 159.11 128.78 159.05 129.81 158.52C130.452 158.128 130.996 157.595 131.4 156.96C131.99 157.13 134.05 157.83 134.19 158.39C134.64 160.11 128.69 160.52 126.89 160.63V160.58Z" fill="#0D0D0D"/>
</g>
</g>
<defs>
<filter id="filter0_d_129_161" x="-2.49567" y="15.4796" width="214.007" height="177.024" filterUnits="userSpaceOnUse" color-interpolation-filters="sRGB">
<feFlood flood-opacity="0" result="BackgroundImageFix"/>
<feColorMatrix in="SourceAlpha" type="matrix" values="0 0 0 0 0 0 0 0 0 0 0 0 0 0 0 0 0 0 127 0" result="hardAlpha"/>
<feOffset dx="4" dy="4"/>
<feGaussianBlur stdDeviation="6"/>
<feComposite in2="hardAlpha" operator="out"/>
<feColorMatrix type="matrix" values="0 0 0 0 0.027451 0 0 0 0 0.564706 0 0 0 0 0.27451 0 0 0 0.25 0"/>
<feBlend mode="normal" in2="BackgroundImageFix" result="effect1_dropShadow_129_161"/>
<feBlend mode="normal" in="SourceGraphic" in2="effect1_dropShadow_129_161" result="shape"/>
</filter>
<clipPath id="clip0_129_161">
<rect width="200" height="200" fill="white" transform="translate(0.5)"/>
</clipPath>
</defs>
</svg>
