<svg width="49" height="48" viewBox="0 0 49 48" fill="none" xmlns="http://www.w3.org/2000/svg">
<path d="M17.012 19.056L19.556 21.6L22.1 19.056L17.012 13.968L11.924 19.056L14.468 21.6L17.012 19.056ZM24.5 37.2C30.092 37.2 34.844 33.696 36.764 28.8H12.236C14.156 33.696 18.908 37.2 24.5 37.2ZM26.9 19.056L29.444 21.6L31.988 19.056L34.532 21.6L37.076 19.056L31.988 13.968L26.9 19.056ZM24.476 0C11.228 0 0.5 10.728 0.5 24C0.5 37.272 11.228 48 24.476 48C37.724 48 48.5 37.272 48.5 24C48.5 10.728 37.748 0 24.476 0ZM24.5 43.2C13.892 43.2 5.3 34.608 5.3 24C5.3 13.392 13.892 4.8 24.5 4.8C35.108 4.8 43.7 13.392 43.7 24C43.7 34.608 35.108 43.2 24.5 43.2Z" fill="#0D0D0D"/>
</svg>
