<svg width="260" height="260" viewBox="0 0 260 260" fill="none" xmlns="http://www.w3.org/2000/svg">
<g clip-path="url(#clip0_151_162)">
<g filter="url(#filter0_d_151_162)">
<path d="M92.0019 195.13C94.169 194.362 96.3893 193.754 98.6449 193.31L98.9179 194.311C98.9485 194.429 99.0204 194.532 99.1207 194.601C99.221 194.67 99.3428 194.701 99.464 194.688L108.395 193.648C110.852 188.045 115.363 179.556 115.428 179.426C115.363 177.307 115.428 175.526 115.428 173.498C110.319 175.396 100.868 178.997 95.928 181.298C95.8163 181.37 95.7299 181.475 95.6809 181.599C95.632 181.722 95.6229 181.858 95.655 181.987C95.655 181.987 95.7459 182.312 95.8629 182.78C93.4449 182.78 86.204 182.429 84.462 184.08C84.1911 184.457 84.058 184.916 84.085 185.38C83.981 187.174 84.878 201.11 86.308 205.205C87.049 207.35 88.609 207.116 89.675 205.062C90.9088 201.969 91.7009 198.717 92.028 195.403C92.028 195.234 91.9889 195.247 92.0019 195.13ZM90.507 183.495C92.093 183.365 92.5869 183.391 95.9929 183.287C96.6039 185.601 97.8649 190.359 98.5149 192.79C96.2213 193.145 93.9574 193.671 91.742 194.363C91.0516 190.777 90.6387 187.144 90.507 183.495Z" fill="#0D0D0D"/>
<path d="M211.654 69.7188C211.979 69.2638 211.563 68.6788 211.212 68.2238C212.206 67.2011 213.309 66.29 214.501 65.5068C216.512 64.5044 218.351 63.1879 219.948 61.6068C220.611 60.9178 221.859 59.5008 221.391 58.6688C220.923 57.8368 220.091 57.7848 218.96 58.2658C219.45 57.7513 219.85 57.158 220.143 56.5108C220.507 55.4968 219.649 54.6778 217.79 55.4318C218.466 54.3528 218.622 53.2218 217.478 52.6758C216.555 52.2338 215.203 53.2868 214.423 53.9758C212.891 55.314 211.453 56.7561 210.12 58.2918C209.301 56.5758 208.001 54.5998 206.376 55.2238C204.751 55.8478 206.012 58.6428 206.844 60.1638L203.893 62.2048C203.447 61.964 202.943 61.8515 202.437 61.8798C199.083 62.4518 183.678 74.1778 182.118 74.1778C180.922 74.1778 163.84 65.9878 149.072 63.6218C149.043 63.5332 148.99 63.4545 148.919 63.3947C148.848 63.3349 148.761 63.2964 148.669 63.2838C146.093 62.8442 143.481 62.6484 140.869 62.6988C140.789 62.7041 140.712 62.7266 140.643 62.7648C140.573 62.803 140.513 62.8559 140.466 62.9198H139.374C139.114 61.8668 138.152 59.4358 137.814 58.4998C138.698 57.7328 139.92 57.3428 140.557 56.1078C141.727 53.8198 141.675 49.8418 141.35 47.2938C142.819 46.1758 142.858 44.3818 142.52 42.5488C142.39 41.8078 141.987 40.1308 141.363 39.7148C141.012 39.4808 140.271 39.7148 139.634 39.9488C138.997 38.4668 138.997 39.1428 139.257 38.5448C139.377 38.2692 139.448 37.9742 139.465 37.6738C140.154 37.8818 141.584 36.5038 141.09 34.6838C140.831 34.0322 140.513 33.4057 140.141 32.8118C140.323 32.3698 140.713 31.8368 139.491 30.2118C138.964 29.6441 138.281 29.2458 137.528 29.0678H136.93C136.498 28.4415 135.865 27.9825 135.136 27.7678C134.035 27.487 132.867 27.6504 131.886 28.2228C131.626 28.4178 131.418 28.6778 131.158 28.8598C130.57 28.5028 129.895 28.3141 129.208 28.3141C128.52 28.3141 127.845 28.5028 127.258 28.8598C126.914 28.9948 126.6 29.198 126.337 29.4571C126.073 29.7163 125.865 30.026 125.724 30.3678C125.087 30.148 124.411 30.0634 123.739 30.1193C123.068 30.1753 122.415 30.3706 121.824 30.6928C119.578 31.9105 117.898 33.959 117.144 36.3998C117.123 36.7678 117.123 37.1367 117.144 37.5048H117.001C115.051 37.2188 112.568 41.8468 114.557 45.4478C114.791 45.8768 115.09 46.2798 115.376 46.7478C116.208 48.0478 115.883 48.4378 117.742 50.0238C118.288 50.4918 118.379 50.4528 118.717 50.7388C119.055 51.0248 118.925 50.8818 119.12 51.6098C119.226 52.0386 119.416 52.4421 119.68 52.7969C119.943 53.1517 120.274 53.4508 120.654 53.6768C120.792 54.9483 121.334 56.1421 122.201 57.0828C122.475 57.3899 122.795 57.653 123.15 57.8628C123.245 57.9166 123.352 57.9478 123.462 57.9538C123.852 60.3718 124.333 63.5178 124.541 64.8568L123.384 65.4808C121.87 66.0899 120.398 66.7977 118.977 67.5998C118.865 67.6769 118.786 67.7928 118.756 67.9248C117.378 68.6528 116.078 69.3418 115.337 69.7838C105.015 75.9068 75.6996 116.272 75.4006 118.118C75.3677 118.224 75.3677 118.337 75.4006 118.443C75.8208 119.113 76.3328 119.721 76.9216 120.25C76.7402 120.581 76.5222 120.89 76.2716 121.173C73.6716 122.876 69.7716 125.411 67.6786 127.673C67.5319 127.804 67.4217 127.971 67.3591 128.157C67.2965 128.343 67.2836 128.543 67.3217 128.736C67.3597 128.929 67.4475 129.109 67.5762 129.257C67.7049 129.406 67.8701 129.518 68.0556 129.584C68.4456 129.714 68.5106 129.675 71.0456 128.284C70.3489 128.895 69.7791 129.637 69.3686 130.468C69.1996 131.183 69.8496 131.599 70.6686 131.469C71.1295 131.348 71.5682 131.155 71.9686 130.897C71.7342 131.259 71.6094 131.681 71.6094 132.112C71.6094 132.544 71.7342 132.966 71.9686 133.328C73.2686 134.966 76.6746 129.805 78.4686 128.531C79.1966 129.454 80.1846 131.612 81.7576 131.04C83.1226 130.533 81.6276 127.53 81.7576 126.659C82.2866 126.151 82.8514 125.682 83.4476 125.255C84.4505 125.998 85.5971 126.525 86.8146 126.802C88.9596 126.802 111.346 104.208 113.049 102.401C112.438 108.147 109.357 132.808 110.007 137.605C110.306 139.776 115.519 140.088 117.716 140.205C117.053 155.805 116.611 179.439 116.494 179.686C113.049 187.109 112.113 189.137 110.956 191.386C108.85 195.416 99.9836 210.288 98.9826 213.668C98.8396 214.201 98.8266 214.409 99.3856 215.397C97.7104 217.158 96.1556 219.03 94.7316 221C94.0166 222.3 97.0846 234.416 99.2556 238.706C99.7496 239.668 100.556 241.15 101.635 241.111C104.885 240.994 104.872 229.32 104.781 226.057C104.78 225.956 104.743 225.859 104.677 225.784C105.266 224.905 105.908 224.062 106.601 223.262C107.014 223.546 107.449 223.798 107.901 224.016C108.343 224.211 108.837 223.873 109.201 223.574C113.53 220.168 136.878 191.074 141.883 177.346C144.158 171.08 147.187 162.422 148.045 156.286C148.569 152.406 148.617 148.477 148.188 144.586C148.188 144.531 148.21 144.478 148.249 144.439C148.288 144.4 148.34 144.378 148.396 144.378C148.451 144.378 148.504 144.4 148.543 144.439C148.582 144.478 148.604 144.531 148.604 144.586C149.255 148.499 149.381 152.482 148.981 156.429C148.019 164.944 141.298 182.689 137.71 189.215C140.804 188.643 147.096 187.395 150.138 186.485C160.278 183.404 169.638 174.213 170.457 163.891C170.722 159.028 170.722 154.154 170.457 149.292C170.369 142.579 169.496 135.899 167.857 129.389C170.613 127.894 173.135 126.139 173.954 124.527C175.709 121.082 171.068 101.257 170.054 95.6928C175.605 96.3038 185.056 97.4088 189.463 93.9638C194.507 89.9078 205.401 78.4938 211.654 69.7188ZM104.079 225.342C101.739 223.925 98.4626 220.558 97.9686 217.919C98.5016 217.243 99.0606 216.619 99.5806 215.917C101.342 218.605 103.539 220.982 106.081 222.95C105.367 223.707 104.698 224.506 104.079 225.342ZM207.429 60.5278C207.496 60.4849 207.544 60.4178 207.563 60.3405C207.583 60.2631 207.572 60.1813 207.533 60.1118C207.078 59.2668 205.713 56.2898 206.662 55.9518C207.208 55.7438 207.689 56.0818 208.092 56.5368C208.707 57.3175 209.186 58.1965 209.509 59.1368C209.533 59.2132 209.577 59.2817 209.637 59.3348C209.697 59.388 209.77 59.4238 209.849 59.4385C209.928 59.4532 210.009 59.4462 210.084 59.4182C210.16 59.3903 210.226 59.3424 210.276 59.2798C211.576 57.8368 214.618 54.5478 216.334 53.6638C217.634 52.9878 217.946 54.2358 214.761 57.1478C214.029 57.7056 213.326 58.3 212.655 58.9288C212.618 58.9798 212.598 59.0412 212.598 59.1043C212.598 59.1673 212.618 59.2287 212.655 59.2798C212.655 59.6178 212.928 59.9948 213.396 59.6438C214.526 58.6518 215.72 57.7355 216.971 56.9008C217.609 56.4473 218.351 56.1612 219.129 56.0688C218.739 57.2648 215.112 60.5148 214.8 60.8788C214.701 60.9675 214.641 61.0915 214.632 61.2241C214.624 61.3567 214.668 61.4873 214.755 61.5878C214.841 61.6883 214.964 61.7507 215.097 61.7616C215.229 61.7724 215.361 61.7308 215.463 61.6458C216.906 60.7098 219.428 58.5258 220.299 58.8508C221.17 59.1758 218.583 61.5938 217.933 62.1658C214.202 65.4028 215.164 63.3228 210.848 67.7168C208.969 65.6588 206.812 63.8735 204.439 62.4128L207.429 60.5278ZM150.944 122.707C150.723 120.913 150.45 118.976 150.112 116.961L150.671 116.22C153.271 112.879 154.051 107.562 153.804 103.389C155.195 109.486 156.3 115.479 157.145 121.433L150.944 122.707ZM131.613 78.1948C128.194 75.5948 122.695 71.1098 119.497 68.0418L124.697 65.4418C129.472 69.9019 133.559 75.0451 136.826 80.7038C141.82 89.8795 145.526 99.7004 147.837 109.889L129.299 83.6678L131.717 78.6498C131.749 78.5725 131.756 78.4872 131.737 78.4057C131.719 78.3242 131.675 78.2504 131.613 78.1948ZM140.401 63.4528C140.479 63.5958 141.376 65.5068 142.741 68.8478C142.741 68.9908 142.494 72.2408 142.377 73.3848C140.717 72.7271 139.153 71.8528 137.723 70.7848C138.009 69.6538 139.296 64.5188 139.387 63.3618L140.401 63.4528ZM135.786 77.4148C135.877 77.1808 135.968 76.8688 136.072 76.5048L136.943 76.9598C137.437 77.2848 137.242 76.2968 137.684 79.1568C137.684 79.6378 137.814 80.1708 137.84 80.7558C137.242 79.6768 136.501 78.5198 135.799 77.4148H135.786ZM135.058 76.3228C132.602 72.8392 129.806 69.6081 126.712 66.6768L136.501 70.9278C136.124 71.8248 135.578 74.5678 135.071 76.3228H135.058ZM145.055 83.9408C143.755 80.3918 142.754 76.4268 142.26 75.3868C142.289 75.0624 142.289 74.7361 142.26 74.4118C142.448 74.4818 142.645 74.5255 142.845 74.5418C142.97 74.5432 143.092 74.4992 143.187 74.418C143.283 74.3368 143.346 74.2238 143.365 74.0998C143.469 73.6708 143.638 71.4998 143.664 71.0188C147.445 80.5666 150.602 90.3503 153.115 100.308C145.77 84.6818 146.901 89.2058 145.068 83.9408H145.055ZM155.806 108.758C152.842 94.5488 147.629 76.8298 141.701 63.6998C143.878 63.701 146.051 63.8749 148.201 64.2198C149.306 74.0998 148.383 73.7618 149.124 74.1518C149.865 74.5418 154.324 76.3358 154.987 76.6088C154.922 77.6098 155.858 106.236 155.819 108.758H155.806ZM140.843 40.5468C141.52 42.0257 141.759 43.668 141.532 45.2788C141.426 45.6887 141.208 46.0613 140.903 46.355C140.598 46.6486 140.218 46.8519 139.804 46.9422C139.39 47.0325 138.96 47.0062 138.56 46.8663C138.161 46.7264 137.808 46.4784 137.541 46.1498C136.92 44.8431 136.454 43.4689 136.15 42.0548C136.501 41.5998 140.245 40.6898 140.843 40.5468ZM122.955 53.5468C122.48 53.3306 121.994 53.1396 121.499 52.9748C121.166 52.8382 120.87 52.6273 120.632 52.3584C120.393 52.0894 120.22 51.7695 120.125 51.4231C120.029 51.0767 120.014 50.7131 120.081 50.3601C120.148 50.0072 120.295 49.6742 120.511 49.3868C121.33 48.6978 122.071 48.7368 122.747 49.7638C123.176 50.5568 123.163 50.6218 123.358 50.6998C123.414 50.7244 123.474 50.7368 123.535 50.7362C123.596 50.7355 123.657 50.7218 123.712 50.6959C123.767 50.6701 123.817 50.6327 123.856 50.5863C123.896 50.5399 123.926 50.4855 123.943 50.4268C124.135 49.6131 124.166 48.7694 124.034 47.9438C123.878 47.0468 123.852 43.0688 123.878 42.9388C124.257 43.1389 124.684 43.2332 125.113 43.2118C127.466 43.1208 127.934 41.9118 128.87 40.9238C129.949 41.0278 130.17 41.5478 131.392 40.9238C131.964 40.5983 132.489 40.1959 132.952 39.7278C133.325 39.8807 133.686 40.0633 134.031 40.2738C134.81 40.6484 135.688 40.7635 136.538 40.6021C137.387 40.4406 138.162 40.0112 138.75 39.3768C138.893 39.6498 139.023 39.9228 139.14 40.2088C137.945 40.5795 136.82 41.1462 135.812 41.8858C135.591 42.1588 135.916 43.6408 135.994 43.9918C134.905 44.1288 133.851 44.4683 132.887 44.9928C132.692 44.3168 132.263 43.0558 131.587 42.7048C131.383 42.6425 131.166 42.6425 130.963 42.7048C129.793 42.8868 125.594 44.1478 125.087 44.8368C124.645 45.3178 125.906 49.0358 126.296 49.6468C127.791 51.9608 132.172 51.2848 132.991 48.5808C133.193 47.6733 133.193 46.7322 132.991 45.8248C133.368 45.8248 134.499 45.4218 134.629 45.3828C135.526 47.3978 135.786 47.5148 136.826 49.6858C136.683 49.8028 136.449 49.9978 136.254 50.1278C135.331 50.7388 135.136 50.6348 135.188 50.8948C135.203 50.9464 135.236 50.9907 135.282 51.0194C135.327 51.0481 135.382 51.0593 135.435 51.0508C135.98 50.9728 136.513 50.8242 137.021 50.6088C137.324 50.4955 137.575 50.273 137.723 49.9848C138.087 49.1658 136.072 46.0848 135.279 45.1618C135.435 45.1618 135.799 44.9018 136.072 44.7588C136.436 46.2148 136.683 47.3588 138.087 47.9308C138.492 48.084 138.925 48.1537 139.358 48.1358C139.792 48.118 140.217 48.0129 140.609 47.8268C140.817 50.1148 140.778 53.8328 139.686 55.8608C139.127 56.9138 137.749 57.3168 136.865 58.1878C136.605 58.4348 136.774 58.7858 136.865 59.1628C138.308 63.1798 138.334 63.1668 138.256 63.6868C137.873 65.845 137.339 67.9737 136.657 70.0568C136.332 69.9138 132.679 67.9768 125.529 65.1948C125.308 63.7258 124.125 55.8868 123.748 54.4438C123.774 53.9368 123.709 53.8198 122.955 53.4818V53.5468ZM132.055 48.2428C131.639 49.6598 129.676 50.2708 128.272 49.8808C126.868 49.4908 126.777 48.7758 126.114 47.0858C125.803 46.4401 125.588 45.7525 125.477 45.0448C125.906 44.5768 130.599 43.6148 131.184 43.5238C132.004 44.9274 132.312 46.5724 132.055 48.1778V48.2428ZM81.1856 126.295C80.6916 126.776 81.3546 128.349 81.4586 129.714C81.4586 129.831 81.4586 130.338 81.3806 130.377C80.6656 130.611 80.0026 129.532 79.5996 128.882C79.1966 128.232 78.7936 127.348 78.1566 127.582C76.8566 128.193 73.8406 132.197 72.6576 132.613C72.0596 131.469 75.4786 128.206 75.5956 128.024C75.6458 127.94 75.6721 127.844 75.6716 127.747C75.6712 127.65 75.644 127.554 75.5931 127.471C75.5421 127.388 75.4694 127.32 75.3827 127.276C75.2961 127.231 75.1989 127.211 75.1016 127.218C74.8676 127.218 74.7116 127.426 74.3476 127.751C73.2405 128.831 71.9732 129.735 70.5906 130.429C71.8442 128.991 73.1858 127.632 74.6076 126.36C74.6779 126.288 74.7273 126.198 74.7506 126.1C74.7506 126.1 74.4776 125.411 73.9446 125.684C73.1906 126.1 69.5246 128.219 68.3676 128.765C68.2116 128.661 68.3026 128.505 68.3676 128.349C70.2006 126.1 74.2306 123.37 76.7006 121.641C76.9905 121.342 77.2318 121 77.4156 120.627C79.1263 122.218 80.9512 123.683 82.8756 125.008C82.2828 125.397 81.718 125.827 81.1856 126.295ZM111.437 138.112C111.151 137.93 110.943 137.761 110.904 137.527C110.189 132.223 114.167 102.167 114.102 100.984C114.102 100.914 114.088 100.846 114.061 100.782C114.034 100.718 113.994 100.66 113.945 100.611C113.895 100.563 113.836 100.525 113.772 100.5C113.707 100.474 113.638 100.462 113.569 100.464C112.906 100.464 114.076 100.464 97.5136 116.324C96.4216 117.351 88.0756 125.333 86.6846 125.866C84.7736 125.723 77.5846 119.99 76.4146 118.183C78.6766 113.607 106.107 75.9588 115.597 70.1998C116.325 69.7578 117.573 69.0688 118.938 68.3408C119.41 68.7859 119.918 69.1904 120.459 69.5498C123.475 72.4098 127.674 75.9718 130.859 78.6498L128.376 83.5768C128.338 83.642 128.318 83.716 128.318 83.7913C128.318 83.8666 128.338 83.9406 128.376 84.0058C148.539 112.931 148.24 112.606 148.37 112.606C149.662 119.29 150.466 126.059 150.775 132.86C150.775 134.693 150.775 134.537 150.853 134.407C150.931 134.277 150.853 134.498 150.853 134.498C147.707 137.93 116.572 141.128 111.437 138.112ZM183.301 95.0428C177.412 95.8618 170.756 94.6398 169.469 94.5878C168.753 91.1222 167.328 87.8423 165.283 84.9548C165.251 84.9127 165.205 84.8839 165.154 84.8743C165.102 84.8646 165.049 84.8748 165.005 84.9027C164.96 84.9306 164.928 84.9743 164.915 85.0249C164.901 85.0755 164.907 85.1294 164.932 85.1758C165.686 86.7098 168.208 93.3268 168.832 94.9388C168.637 95.5628 174.708 120.666 172.992 124.046C171.458 127.101 162.527 130.949 159.303 132.054C158.665 124.817 157.624 117.621 156.183 110.5C156.625 106.756 156.053 84.4998 155.884 76.2708C155.879 76.1751 155.847 76.0829 155.792 76.0047C155.736 75.9265 155.66 75.8655 155.572 75.8288L149.735 73.3718C149.708 70.2824 149.513 67.1968 149.15 64.1288C163.723 66.6508 180.701 74.9838 182.118 74.9968C184.172 74.9968 199.434 63.2968 202.593 62.8288C203.997 62.6078 210.029 67.8728 210.731 69.3288C204.569 77.9348 193.74 89.2448 188.722 93.1578C187.105 94.2386 185.239 94.8876 183.301 95.0428Z" fill="#0D0D0D"/>
<path d="M130.716 45.6428C130.699 45.5574 130.667 45.4761 130.619 45.4034C130.571 45.3308 130.51 45.2682 130.438 45.2193C130.366 45.1704 130.285 45.1362 130.2 45.1185C130.115 45.1008 130.028 45.1001 129.942 45.1163C129.857 45.1325 129.775 45.1654 129.703 45.213C129.63 45.2607 129.568 45.3222 129.519 45.394C129.47 45.4658 129.436 45.5466 129.418 45.6316C129.4 45.7167 129.399 45.8044 129.416 45.8898C129.676 47.1898 129.728 47.4888 130.3 47.4888C130.408 47.4891 130.514 47.4626 130.61 47.4114C130.705 47.3602 130.786 47.2861 130.845 47.1957C130.904 47.1054 130.94 47.0016 130.95 46.8939C130.959 46.7862 130.941 46.6779 130.898 46.5788C130.859 46.3708 130.742 45.7598 130.716 45.6428ZM134.694 54.2488C135.539 54.4958 136.345 54.0928 136.319 53.8848C136.293 53.6768 136.319 53.7808 135.175 53.3518C134.408 53.0658 133.563 52.0518 133.264 52.2078C132.965 52.3638 133.42 53.1958 133.524 53.3518C133.802 53.7737 134.214 54.0897 134.694 54.2488ZM158.471 41.8988C156.768 49.0358 155.52 55.0938 155.312 56.3028C155.174 56.8288 155.147 57.3779 155.234 57.9148C155.923 59.3838 164.828 62.2828 165.959 61.7108C167.09 61.1388 170.028 54.5218 173.447 47.6968C175.541 47.7637 177.637 47.6112 179.7 47.2418C181.872 46.8433 183.985 46.1751 185.992 45.2528C190.386 43.2248 195.196 34.5408 195.846 30.1728C196.333 25.4304 195.329 20.6542 192.973 16.5098C182.066 -2.40523 150.073 7.77377 152.673 28.7818C153.415 33.5888 155.415 38.1141 158.471 41.8988ZM166.401 57.3818C166.401 57.5898 166.167 57.5638 165.101 57.3818C162.92 57.1078 160.809 56.4335 158.874 55.3928C157.964 54.8988 157.717 54.7948 157.808 54.5738C157.899 54.3528 158.094 54.4308 159.498 54.8208C159.628 54.8208 163.658 56.1208 164.815 56.5238C166.31 57.1998 166.401 57.1998 166.401 57.3818ZM166.167 36.2308C167.555 36.3028 168.938 36.0162 170.184 35.3988C171.341 35.9596 172.593 36.2991 173.876 36.3998C171.692 40.4688 167.259 48.7628 165.829 53.1828L160.317 51.6618C161.617 48.4638 164.49 40.9758 166.141 36.2308H166.167ZM165.712 35.1518C164.741 35.0052 163.846 34.5443 163.162 33.8398C162.479 33.1354 162.046 32.2262 161.929 31.2518C161.565 28.6518 163.229 25.7398 165.738 26.4288C167.311 26.8578 167.506 28.1058 167.233 29.6788C166.999 30.8228 166.154 33.6958 165.686 35.0998L165.712 35.1518ZM169.248 32.0318C169.386 31.1811 169.706 30.37 170.184 29.6528C170.411 29.2618 170.744 28.9425 171.143 28.7311C171.543 28.5196 171.994 28.4246 172.446 28.4568C173.408 28.7428 173.824 30.5628 173.031 31.7068C172.269 32.7182 171.32 33.5742 170.236 34.2288C169.863 34.0098 169.565 33.682 169.384 33.2892C169.203 32.8965 169.146 32.4577 169.222 32.0318H169.248ZM157.301 15.5088C163.125 8.50177 174.084 5.71977 182.001 8.60577C186.301 10.0821 189.919 13.0714 192.18 17.0168C194.421 20.9604 195.38 25.5038 194.923 30.0168C194.325 34.0598 189.723 42.4578 185.68 44.3168C181.983 46.0029 177.95 46.8211 173.889 46.7088C173.447 46.7088 172.979 46.7088 172.81 47.0208C172.043 48.5808 170.639 51.5968 169.261 54.4308C168.309 53.9713 167.322 53.5887 166.31 53.2868C167.818 48.9708 172.576 40.4948 174.838 36.3868C176.798 36.5547 178.768 36.2144 180.558 35.3988C181.041 35.1442 181.442 34.757 181.714 34.2825C181.985 33.8081 182.115 33.2661 182.089 32.7202C182.063 32.1742 181.882 31.647 181.567 31.2004C181.252 30.7538 180.816 30.4064 180.311 30.1988C178.296 29.2108 176.489 31.5768 175.436 33.5658C175.15 34.0858 174.825 34.6968 174.461 35.3858C173.409 35.3167 172.372 35.1023 171.38 34.7488C172.368 34.054 173.245 33.2123 173.98 32.2528C174.391 31.6312 174.6 30.8972 174.577 30.1521C174.553 29.407 174.299 28.6874 173.85 28.0928C173.497 27.6826 173.006 27.4154 172.47 27.3412C171.934 27.267 171.389 27.3909 170.938 27.6898C170.027 28.2492 169.298 29.0595 168.836 30.0234C168.375 30.9873 168.202 32.0639 168.338 33.1238C168.479 33.7221 168.801 34.2623 169.261 34.6708C168.408 35.0239 167.493 35.2008 166.57 35.1908C167.09 33.6568 167.935 30.8878 168.156 29.7568C168.294 29.112 168.325 28.4486 168.247 27.7938C168.146 27.2316 167.885 26.7104 167.495 26.293C167.106 25.8756 166.604 25.5796 166.05 25.4408C162.891 24.5438 160.564 28.0408 161.019 31.3038C161.147 32.4731 161.649 33.5699 162.45 34.4316C163.251 35.2933 164.308 35.8741 165.465 36.0878C163.801 40.7678 161.201 48.3208 159.901 51.5448L157.041 50.8038C158.874 41.5998 159.095 41.8208 158.835 41.7038C155.881 37.9377 153.991 33.4485 153.362 28.7038C153.055 26.3511 153.248 23.9603 153.926 21.6869C154.605 19.4135 155.755 17.3085 157.301 15.5088ZM175.345 35.4638C176.255 33.8128 178.075 30.1988 179.843 31.0828C180.196 31.2252 180.504 31.4616 180.733 31.7663C180.962 32.071 181.104 32.4325 181.143 32.8118C181.117 35.0998 177.555 35.5028 175.293 35.4638H175.345ZM225.109 41.1968C226.675 40.2754 228.526 39.9609 230.309 40.3128C232.267 40.3478 234.138 41.1309 235.538 42.5015C236.937 43.8721 237.76 45.7263 237.836 47.6838C236.658 47.0004 235.281 46.7433 233.936 46.9558C230.673 47.2418 226.409 49.0098 226.981 52.1558C227.449 54.7558 230.881 54.4048 233.481 53.7028C236.081 53.0008 238.148 51.7268 238.681 49.2178C241.84 51.5188 242.581 55.5488 242.711 59.4878C242.711 59.5429 242.733 59.5958 242.772 59.6349C242.811 59.6739 242.863 59.6958 242.919 59.6958C242.974 59.6958 243.027 59.6739 243.066 59.6349C243.105 59.5958 243.127 59.5429 243.127 59.4878C243.218 55.0808 242.425 50.7648 238.824 48.2558C238.861 47.1271 238.668 46.0026 238.258 44.9505C237.848 43.8983 237.228 42.9403 236.437 42.1345C235.646 41.3287 234.7 40.6919 233.655 40.2626C232.611 39.8332 231.49 39.6203 230.361 39.6368C228.556 39.3732 226.716 39.7504 225.161 40.7028C224.68 40.9368 224.901 41.2878 225.109 41.1968ZM236.965 50.5178C235.496 52.4418 231.336 53.4428 229.412 53.1178C228.697 53.0008 228.112 52.7018 227.956 51.9608C227.488 49.3608 231.973 47.9438 234.651 47.8528C235.741 47.7692 236.829 48.0479 237.745 48.6458C237.646 49.3255 237.378 49.9693 236.965 50.5178ZM219.155 25.9998C220.546 24.2838 219.61 21.2938 215.723 21.2808C214.215 21.2808 213.487 22.8148 213.591 24.2838C213.825 27.7808 217.764 27.6768 219.155 25.9998ZM214.501 24.2188C214.501 23.3608 214.904 22.2428 215.801 22.2558C217.894 22.2558 218.856 23.2308 218.856 24.3098C218.804 26.7668 214.332 28.0408 214.501 24.2188ZM213.968 171.6C202.541 167.037 197.237 189.124 187.903 208.104C187.844 208.902 187.87 209.703 187.981 210.496C187.981 212.485 188.202 225.654 189.359 227.149C189.671 227.747 190.984 227.149 191.595 226.772C196.784 223.559 201.674 219.887 206.207 215.8C206.245 215.756 206.274 215.704 206.292 215.648C206.31 215.592 206.316 215.533 206.311 215.475C208.729 212.03 217.79 194.09 219.987 185.094C221.521 178.724 220 173.979 213.968 171.6ZM218.05 188.11C211.932 187.326 206.017 185.394 200.617 182.416C203.659 176.657 207.416 170.092 213.617 172.562C220.52 175.305 220.377 180.986 218.05 188.071V188.11ZM196.418 221.91C196.018 221.575 195.582 221.287 195.118 221.052C193.361 220.159 191.331 219.964 189.437 220.506C189.307 218.959 188.566 208.897 188.566 208.806C198.303 212.368 195.3 210.821 204.946 215.618C203.932 216.58 200.123 219.245 196.418 221.884V221.91ZM203.126 184.288C204.394 184.98 205.695 185.61 207.026 186.173C204.046 190.853 201.413 195.746 199.148 200.811C196.964 205.374 197.042 205.348 194.819 210.327C193.519 209.911 192.219 209.521 190.919 209.131C192.323 206.336 202.307 185.9 203.126 184.262V184.288ZM195.326 210.457C199.551 202.878 203.854 193.453 207.546 186.342C208.846 186.888 210.146 187.33 211.446 187.72C210.757 189.02 208.742 192.478 208.209 193.479C207.676 194.48 202.333 205.01 201.956 205.816C201.358 207.116 199.72 210.743 199.213 211.9C197.887 211.315 196.613 210.873 195.274 210.431L195.326 210.457ZM199.681 212.069C200.474 210.626 203.737 204.568 204.14 203.788C204.751 202.579 211.563 188.656 211.94 187.85C213.136 188.188 214.397 188.474 215.203 188.63C212.824 195.13 205.973 207.649 203.503 213.824C201.254 212.771 200.747 212.511 199.629 212.043L199.681 212.069ZM200.474 182.793L202.801 184.093C198.111 192.079 194.026 200.405 190.581 209.001L188.631 208.403C196.184 192.309 196.535 190.203 200.422 182.767L200.474 182.793ZM205.83 214.955L203.867 214.019C205.986 209.859 212.616 199.186 215.645 188.721C216.373 188.851 217.088 188.968 217.777 189.059C214.436 197.973 210.425 206.621 205.778 214.929L205.83 214.955ZM165.101 223.392C165.619 222.963 165.989 222.382 166.159 221.731C166.33 221.08 166.291 220.393 166.05 219.765C165.939 218.859 165.524 218.018 164.872 217.379C164.22 216.741 163.37 216.344 162.462 216.253C161.554 216.162 160.642 216.383 159.876 216.88C159.111 217.376 158.537 218.119 158.25 218.985C156.586 217.906 154.779 216.762 153.05 215.67C154.35 213.941 158.172 214.708 158.562 216.125C158.57 216.18 158.6 216.229 158.646 216.262C158.691 216.295 158.747 216.309 158.802 216.3C158.857 216.292 158.907 216.261 158.94 216.216C158.973 216.171 158.986 216.115 158.978 216.06C158.783 213.798 154.077 212.472 152.179 215.137C150.502 214.11 148.422 212.862 146.68 211.913C148.175 210.613 151.516 211.341 151.88 212.693C151.897 212.739 151.93 212.778 151.973 212.802C152.016 212.826 152.066 212.834 152.114 212.825C152.163 212.815 152.206 212.789 152.237 212.751C152.268 212.712 152.284 212.664 152.283 212.615C152.114 210.509 147.759 209.092 145.783 211.406C144.955 210.942 144.084 210.559 143.183 210.262C143.018 210.193 142.837 210.174 142.662 210.207C142.486 210.239 142.324 210.321 142.195 210.444C138.906 214.539 127.817 225.173 122.695 226.408C122.566 226.427 122.444 226.48 122.343 226.561C122.241 226.643 122.162 226.749 122.115 226.87C122.067 226.992 122.053 227.123 122.072 227.252C122.092 227.381 122.145 227.502 122.227 227.604C123.351 228.745 124.639 229.714 126.049 230.477C124.749 231.777 123.735 232.947 122.981 233.792C122.591 234.208 122.383 242.164 122.721 243.919C122.771 244.091 122.882 244.238 123.033 244.335C124.671 245.453 145.77 254.579 147.928 253.357C149.371 252.538 166.596 234.611 166.869 234.065C167.285 233.207 167.142 227.487 167.116 225.199C167.012 224.51 165.725 223.769 165.101 223.392ZM123.501 240.565V237.666C128.896 240.266 141.246 245.57 145.926 247.052C147.122 247.442 147.226 247.39 147.85 247.052C151.425 244.764 164.048 230.542 166.362 228.371V231.114C159.342 238.147 147.421 250.471 147.2 249.769C145.913 249.691 124.619 241.085 123.501 240.565ZM164.776 219.011C165.243 219.798 165.494 220.695 165.504 221.611C165.499 221.902 165.428 222.189 165.295 222.448C165.162 222.707 164.971 222.932 164.737 223.106C163.645 222.378 161.578 221.026 159.134 219.44C160.473 216.801 163.45 216.762 164.724 219.011H164.776ZM123.176 227.331C128.714 225.693 139.231 215.553 142.767 211.159C143.618 211.396 144.438 211.732 145.211 212.16C143.911 214.578 145.302 217.23 145.796 216.853C146.069 216.645 145.575 216.567 145.497 215.293C145.463 214.362 145.674 213.439 146.108 212.615C147.902 213.551 150.008 214.773 151.789 215.8C150.697 218.231 152.01 220.636 152.465 220.285C152.92 219.934 152.257 220.012 152.179 218.738C152.147 217.902 152.307 217.071 152.647 216.307C154.48 217.386 156.352 218.504 158.068 219.557C157.803 220.205 157.698 220.906 157.762 221.603C157.825 222.3 158.055 222.971 158.432 223.561C158.449 223.583 158.47 223.602 158.494 223.616C158.519 223.63 158.545 223.639 158.573 223.642C158.601 223.646 158.629 223.644 158.656 223.637C158.683 223.629 158.708 223.617 158.731 223.6C158.753 223.583 158.771 223.561 158.785 223.537C158.799 223.513 158.808 223.486 158.812 223.458C158.816 223.431 158.814 223.402 158.807 223.375C158.799 223.348 158.787 223.323 158.77 223.301C158.536 222.784 158.421 222.222 158.432 221.655C158.443 221.089 158.581 220.532 158.835 220.025C161.864 221.871 164.308 223.418 165.062 223.925C164.919 224.055 151.36 236.119 146.745 239.707C143.716 238.914 127.817 231.023 123.176 227.331ZM123.67 234.572C129.559 237.172 142.936 243.204 146.017 243.789C146.55 243.893 146.758 243.932 147.772 243.126C152.101 239.655 166.18 224.926 166.31 225.082C166.316 225.12 166.316 225.16 166.31 225.199V227.799C163.411 230.126 147.291 247.052 147.031 246.246C145.731 246.246 124.606 237.627 123.527 237.146C123.501 236.6 123.618 235.144 123.67 234.572ZM147.343 252.486C146.043 253.227 126.244 245.18 123.592 243.542C123.492 242.714 123.444 241.88 123.449 241.046C129.143 243.854 145.705 250.848 147.226 250.783C149.449 250.666 165.166 232.973 166.284 231.738C166.297 232.402 166.231 233.065 166.089 233.714C165.868 234.143 148.201 252.005 147.343 252.486ZM39.6377 179.205C39.7287 180.596 39.7937 181.805 39.7937 182.936C39.7937 183.108 39.8621 183.273 39.984 183.395C40.1059 183.517 40.2713 183.586 40.4437 183.586C40.616 183.586 40.7814 183.517 40.9033 183.395C41.0252 183.273 41.0937 183.108 41.0937 182.936C41.0937 181.727 41.0287 180.531 40.9377 179.114C40.9256 178.941 40.8455 178.781 40.7151 178.667C40.5847 178.554 40.4145 178.497 40.2422 178.509C40.0698 178.521 39.9092 178.601 39.7959 178.732C39.6825 178.862 39.6256 179.032 39.6377 179.205ZM237.719 153.14C237.634 153.145 237.551 153.167 237.474 153.204C237.398 153.242 237.33 153.294 237.274 153.358C237.219 153.422 237.176 153.497 237.15 153.578C237.123 153.659 237.114 153.744 237.121 153.829C237.199 155.025 237.277 156.312 237.277 157.56C237.277 157.732 237.345 157.897 237.467 158.019C237.589 158.141 237.754 158.21 237.927 158.21C238.099 158.21 238.264 158.141 238.386 158.019C238.508 157.897 238.577 157.732 238.577 157.56C238.577 156.26 238.499 154.96 238.408 153.738C238.403 153.653 238.381 153.57 238.343 153.494C238.306 153.417 238.253 153.349 238.189 153.293C238.125 153.238 238.05 153.195 237.969 153.169C237.889 153.143 237.803 153.133 237.719 153.14ZM36.2707 175.968C36.443 175.968 36.6084 175.899 36.7303 175.777C36.8522 175.655 36.9207 175.49 36.9207 175.318C36.9207 175.145 36.8522 174.98 36.7303 174.858C36.6084 174.736 36.443 174.668 36.2707 174.668C34.6977 174.668 33.3847 174.785 32.0847 174.759C31.911 174.759 31.7443 174.827 31.6204 174.948C31.4964 175.07 31.4251 175.235 31.4217 175.409C31.4217 175.581 31.4901 175.746 31.612 175.868C31.7339 175.99 31.8993 176.059 32.0717 176.059C33.4107 176.085 34.8797 176.033 36.2707 175.968ZM233.689 149.292C232.129 149.292 230.816 149.383 229.503 149.396C229.33 149.396 229.165 149.464 229.043 149.586C228.921 149.708 228.853 149.873 228.853 150.046C228.853 150.218 228.921 150.383 229.043 150.505C229.165 150.627 229.33 150.696 229.503 150.696C230.907 150.696 232.363 150.696 233.767 150.592C233.939 150.581 234.1 150.503 234.215 150.374C234.329 150.245 234.388 150.075 234.378 149.903C234.367 149.73 234.289 149.569 234.16 149.455C234.03 149.34 233.861 149.281 233.689 149.292ZM39.2866 167.934C39.3647 169.13 39.4427 170.417 39.4427 171.665C39.446 171.836 39.5155 172 39.6367 172.121C39.7579 172.242 39.9213 172.311 40.0927 172.315C40.265 172.315 40.4304 172.246 40.5523 172.124C40.6742 172.002 40.7427 171.837 40.7427 171.665C40.7427 170.365 40.6646 169.065 40.5867 167.843C40.5746 167.67 40.4945 167.51 40.3641 167.396C40.2337 167.283 40.0635 167.226 39.8911 167.238C39.7188 167.25 39.5582 167.33 39.4449 167.461C39.3315 167.591 39.2746 167.761 39.2866 167.934ZM238.226 146.289C238.226 144.989 238.148 143.689 238.057 142.467C238.045 142.294 237.964 142.134 237.834 142.02C237.704 141.907 237.534 141.85 237.361 141.862C237.189 141.874 237.028 141.954 236.915 142.085C236.801 142.215 236.745 142.385 236.757 142.558C236.835 143.754 236.913 145.041 236.913 146.289C236.913 146.461 236.981 146.626 237.103 146.748C237.225 146.87 237.39 146.939 237.563 146.939C237.736 146.939 237.903 146.871 238.027 146.749C238.151 146.628 238.222 146.462 238.226 146.289ZM48.8806 175.799C48.966 175.795 49.0499 175.775 49.1275 175.739C49.2051 175.704 49.2749 175.653 49.3328 175.59C49.3908 175.527 49.4358 175.454 49.4653 175.374C49.4947 175.293 49.5081 175.208 49.5047 175.123C49.4915 174.953 49.4146 174.794 49.2892 174.678C49.1638 174.562 48.9993 174.498 48.8287 174.499C47.2557 174.564 45.9427 174.616 44.6297 174.59C44.4573 174.59 44.2919 174.658 44.17 174.78C44.0481 174.902 43.9797 175.067 43.9797 175.24C43.9797 175.412 44.0481 175.577 44.17 175.699C44.2919 175.821 44.4573 175.89 44.6297 175.89C46.0207 175.916 47.4766 175.864 48.8806 175.799ZM246.299 149.123C244.999 149.188 243.556 149.227 242.113 149.227C242.027 149.223 241.941 149.237 241.861 149.268C241.781 149.298 241.707 149.344 241.645 149.404C241.583 149.463 241.534 149.535 241.5 149.614C241.467 149.693 241.45 149.778 241.45 149.864C241.45 150.037 241.518 150.204 241.639 150.328C241.761 150.452 241.926 150.523 242.1 150.527C243.582 150.527 244.778 150.527 246.351 150.423C246.436 150.419 246.52 150.399 246.597 150.363C246.675 150.328 246.745 150.277 246.803 150.214C246.861 150.151 246.906 150.078 246.935 149.998C246.965 149.917 246.978 149.832 246.975 149.747C246.959 149.578 246.881 149.421 246.756 149.305C246.631 149.19 246.468 149.125 246.299 149.123ZM19.0067 137.28C19.1757 137.41 55.8356 131.976 57.4086 131.014C57.4958 130.95 57.5653 130.866 57.6108 130.768C57.6563 130.67 57.6762 130.562 57.6686 130.455C57.6686 128.778 55.4716 113.035 54.4187 109.109C54.2887 108.628 54.1586 108.147 53.8596 107.978C51.8707 106.782 16.8227 113.386 14.7297 114.738C14.6729 114.771 14.6239 114.816 14.5858 114.87C14.5478 114.924 14.5215 114.985 14.5087 115.05C14.0667 116.623 17.8757 136.5 19.0067 137.28ZM15.3017 115.362C17.7977 114.231 49.6087 108.407 53.2486 108.862C54.1326 111.137 56.4986 127.803 56.6546 130.247C54.8476 130.78 19.5007 136.851 19.3707 136.877C19.2407 136.903 19.2277 137.059 18.9547 136.24C17.8107 132.808 15.2367 118.3 15.3017 115.362Z" fill="#0D0D0D"/>
<path d="M60.2686 132.171C60.3393 132.039 60.3709 131.891 60.3596 131.742C60.3596 129.675 57.3956 106.73 56.3426 104.897C56.2601 104.762 56.1432 104.651 56.0039 104.575C55.8646 104.5 55.7079 104.463 55.5496 104.468C51.1946 103.935 14.4566 111.111 12.0386 112.788C11.7006 113.022 11.7526 113.607 11.7916 114.231C11.9996 117.65 15.6916 140.14 16.9916 140.01C17.1346 140.01 17.0826 139.906 16.7446 140.595C14.7166 144.768 10.8686 158.132 10.9466 160.823C10.9466 161.954 11.2066 163.423 12.3246 163.345C20.3456 162.357 59.6706 156.117 70.9806 153.79C71.4226 153.699 71.7086 153.296 71.6956 152.633C71.5621 151.528 71.2273 150.458 70.7076 149.474C69.1216 146.497 62.5436 134.706 60.2686 132.171ZM17.0696 139.607C16.0556 138.307 12.3246 115.908 12.6106 113.425C15.4706 111.943 51.7146 104.936 55.5106 105.508C56.5506 108.368 59.2416 129.025 59.4106 131.508C54.8086 133.094 22.9456 138.242 17.0696 139.607ZM17.6416 139.997C18.7336 139.724 55.9266 133.497 59.3326 132.6C61.1916 134.329 69.5896 149.266 70.1356 150.54C62.6736 151.84 18.4086 159.237 11.8956 160.225C11.9866 156.286 16.0296 142.519 17.6416 139.997Z" fill="#0D0D0D"/>
<path d="M22.5293 153.478C23.6603 153.309 47.6583 150.423 56.3293 148.07C56.3827 148.056 56.4285 148.022 56.4566 147.974C56.4846 147.927 56.4926 147.87 56.4788 147.816C56.465 147.763 56.4306 147.717 56.383 147.689C56.3355 147.661 56.2787 147.653 56.2253 147.667C54.5223 148.018 33.7483 150.787 22.5033 153.075C22.4722 153.069 22.4403 153.071 22.4099 153.079C22.3796 153.088 22.3515 153.103 22.328 153.124C22.3044 153.146 22.286 153.172 22.274 153.201C22.262 153.23 22.2569 153.262 22.2589 153.293C22.2609 153.325 22.2701 153.355 22.2857 153.383C22.3014 153.41 22.323 153.434 22.3491 153.451C22.3751 153.469 22.4049 153.481 22.4361 153.485C22.4673 153.49 22.4992 153.487 22.5293 153.478ZM40.0663 63.024C39.5807 64.1208 39.1723 65.2502 38.8443 66.404C38.825 66.5891 38.876 66.7747 38.9873 66.924C40.3003 68.9 53.7553 84.071 57.2653 86.2029C57.7463 86.502 58.3183 86.71 58.6693 86.281C61.2191 83.1082 64.5467 80.6495 68.3283 79.144C71.4062 78.055 74.6332 77.4455 77.8963 77.337C80.4963 77.103 80.9513 76.843 81.9523 75.14C83.1331 72.8987 84.6997 70.8832 86.5803 69.186C88.9782 67.0893 91.6397 65.315 94.4973 63.908C94.6259 63.8351 94.7265 63.7213 94.783 63.5846C94.8396 63.448 94.8488 63.2964 94.8093 63.154C94.3698 62.0357 93.7887 60.9784 93.0803 60.008C93.5483 59.852 94.0683 59.709 94.0683 59.241C94.0683 57.941 82.7323 41.535 79.5863 38.441C79.2613 38.116 78.7933 37.687 78.3643 37.713C71.8643 38.077 65.5333 44.213 61.8673 49.569C57.6683 49.413 54.9513 49.036 50.1673 51.051C46.79 52.4845 43.7451 54.6 41.2233 57.265C40.8333 57.668 38.1813 60.476 38.1423 60.697C38.1033 60.918 38.1813 60.918 40.0663 63.024ZM92.0663 62.66C86.6453 63.583 83.1873 68.094 80.6393 72.995C79.5083 75.179 79.6123 75.283 78.4163 75.257C76.3249 75.1385 74.227 75.2168 72.1503 75.491C70.6271 75.7186 69.1295 76.093 67.6783 76.609C64.3763 77.779 60.5933 81.5229 58.5783 84.305C58.5355 84.3622 58.4811 84.4097 58.4186 84.4444C58.3562 84.4791 58.2871 84.5003 58.2159 84.5064C58.1447 84.5125 58.073 84.5035 58.0055 84.48C57.938 84.4565 57.8763 84.419 57.8243 84.37C53.5993 80.015 46.1243 72.371 42.3673 67.977C42.1853 67.782 42.4973 67.496 42.6793 67.704C45.1103 70.304 51.3893 76.531 58.1233 83.304C60.3983 80.405 63.9083 76.895 67.3793 75.673C69.2721 74.9978 71.2416 74.5611 73.2423 74.373C75.1159 74.2307 76.9977 74.2307 78.8713 74.373C79.6383 73.489 83.4343 63.453 92.0403 62.335C92.0655 62.3534 92.0862 62.3774 92.1009 62.405C92.1155 62.4326 92.1238 62.4631 92.1251 62.4943C92.1263 62.5256 92.1205 62.5567 92.1081 62.5853C92.0957 62.614 92.0769 62.6395 92.0533 62.66H92.0663ZM78.3513 38.766C80.9513 40.586 91.5333 56.251 92.9113 58.994C90.5202 59.7516 88.2118 60.749 86.0213 61.971C83.947 63.0108 82.1307 64.5003 80.7049 66.3309C79.2791 68.1615 78.2796 70.2872 77.7793 72.553C73.1123 64.961 66.5993 56.602 62.2703 50.453C62.5303 50.284 69.8363 39.273 78.3513 38.766ZM50.4533 51.766C55.1983 49.855 57.8243 50.297 61.7503 50.466C65.6503 57.122 72.6573 66.508 77.2723 72.657C73.0128 71.649 68.5305 72.2655 64.7013 74.386C62.4003 75.686 59.5923 78.806 57.8633 80.743C55.3673 78.741 40.9633 63.401 38.6493 60.801C42.2113 56.771 45.5003 53.742 50.4533 51.714V51.766ZM26.6633 84.825C26.342 84.5995 25.9622 84.4721 25.5699 84.4582C25.1776 84.4444 24.7897 84.5447 24.4533 84.747C24.2083 84.8562 23.9873 85.0127 23.8027 85.2074C23.6182 85.402 23.4739 85.6312 23.3779 85.8817C23.2819 86.1321 23.2362 86.3991 23.2434 86.6672C23.2506 86.9354 23.3105 87.1995 23.4198 87.4445C23.5291 87.6894 23.6855 87.9105 23.8802 88.095C24.0749 88.2795 24.304 88.4239 24.5545 88.5199C24.805 88.6158 25.0719 88.6615 25.3401 88.6544C25.6082 88.6472 25.8723 88.5872 26.1173 88.478C26.5087 88.3924 26.8648 88.1899 27.1384 87.8973C27.412 87.6047 27.5903 87.2359 27.6495 86.8397C27.7087 86.4435 27.6461 86.0386 27.47 85.6788C27.2939 85.319 27.0125 85.0212 26.6633 84.825ZM25.8053 87.425C24.8953 87.711 24.3493 87.425 24.1283 86.983C23.7123 86.06 24.2323 84.643 25.5843 85.059C26.5333 85.41 27.3003 87.009 25.8053 87.49V87.425ZM92.7683 25.337C93.1453 26.104 94.9003 25.818 95.6673 25.571C96.0703 25.441 96.3303 25.298 96.3693 24.908C96.4863 23.933 96.6163 15.483 96.1743 14.664C96.1286 14.5781 96.0586 14.5076 95.9731 14.4613C95.8875 14.4151 95.7902 14.3951 95.6933 14.404C94.3063 14.4001 92.9263 14.6016 91.5983 15.002C91.0653 15.327 92.3003 24.479 92.7683 25.337ZM91.8713 15.314C93.0721 15.1422 94.2867 15.0856 95.4983 15.145C95.5763 16.107 95.3683 24.44 95.3553 24.57C94.8061 24.7668 94.2197 24.8379 93.6393 24.778C93.5483 24.479 93.3923 23.673 93.1973 22.659C92.6245 20.2361 92.1818 17.7842 91.8713 15.314ZM25.4023 73.853C25.527 73.9168 25.6652 73.9502 25.8053 73.9502C25.9454 73.9502 26.0836 73.9168 26.2083 73.853C26.7105 73.5432 27.1089 73.0905 27.3523 72.553C27.3854 72.4669 27.3956 72.3738 27.3819 72.2827C27.3682 72.1915 27.3311 72.1055 27.2743 72.033C26.6503 71.292 19.8383 63.401 19.0063 63.895C17.9848 64.5563 17.0156 65.2951 16.1073 66.105C16.0707 66.1377 16.0414 66.1778 16.0212 66.2225C16.0011 66.2673 15.9905 66.3158 15.9903 66.365C15.9643 67.041 23.5303 73.099 25.4023 73.853ZM19.1623 64.233C20.1113 64.922 23.3093 68.874 26.2733 72.371C26.1458 72.5717 25.9879 72.7515 25.8053 72.904C22.689 70.9095 19.7137 68.7029 16.9003 66.3C17.6056 65.5595 18.3614 64.8688 19.1623 64.233ZM39.5853 35.555C39.8713 30.511 42.8093 28.171 45.8773 27.573C45.0063 30.771 45.1493 34.931 48.3083 35.464C49.8163 35.711 50.5573 34.931 51.6493 34.021C56.3163 30.121 52.5463 26.221 47.2813 26.494C49.2443 21.112 53.7813 16.731 59.8003 16.588C59.8555 16.588 59.9084 16.566 59.9474 16.527C59.9864 16.488 60.0083 16.4351 60.0083 16.38C60.0083 16.3248 59.9864 16.2719 59.9474 16.2329C59.9084 16.1939 59.8555 16.172 59.8003 16.172C53.3003 16.042 48.1913 20.722 46.1763 26.572C42.7053 27.17 39.2603 29.77 39.1693 35.477C39.1642 35.5043 39.1645 35.5323 39.1702 35.5595C39.1759 35.5867 39.187 35.6125 39.2026 35.6355C39.2183 35.6584 39.2384 35.678 39.2617 35.6932C39.2849 35.7084 39.311 35.7188 39.3383 35.724C39.3656 35.7291 39.3937 35.7288 39.4209 35.723C39.4481 35.7173 39.4739 35.7063 39.4968 35.6906C39.5197 35.6749 39.5394 35.6549 39.5545 35.6316C39.5697 35.6083 39.5802 35.5823 39.5853 35.555ZM46.9823 27.417C48.9193 27.287 51.8053 27.885 52.5983 29.64C53.0533 30.641 52.5983 31.876 50.9863 33.228C50.5487 33.6664 50.0494 34.0386 49.5043 34.333C47.5543 35.165 45.3963 32.76 46.9823 27.417ZM50.7003 211.276C49.4443 210.94 48.1337 210.858 46.8457 211.035C45.5576 211.213 44.3181 211.646 43.2 212.31C42.082 212.974 41.108 213.855 40.3354 214.901C39.5628 215.946 39.0072 217.136 38.7013 218.4C38.1238 221.025 38.6129 223.773 40.0611 226.038C41.5092 228.303 43.7978 229.899 46.4233 230.477C49.0488 231.054 51.7962 230.565 54.0611 229.117C56.326 227.669 57.9228 225.38 58.5003 222.755C58.747 221.489 58.7406 220.186 58.4815 218.922C58.2224 217.658 57.7157 216.458 56.9906 215.391C56.2655 214.324 55.3364 213.411 54.2568 212.705C53.1772 211.999 51.9685 211.513 50.7003 211.276ZM54.7173 221.871C54.1957 223.951 52.947 225.776 51.1969 227.016C49.4468 228.256 47.3109 228.829 45.1753 228.631C43.2149 227.865 41.5874 226.432 40.5792 224.585C39.571 222.737 39.2467 220.593 39.6633 218.53C40.1497 216.399 41.3869 214.515 43.1485 213.221C44.9101 211.927 47.0785 211.31 49.2573 211.484C51.2371 212.302 52.8648 213.792 53.8541 215.692C54.8433 217.592 55.1306 219.78 54.6653 221.871H54.7173Z" fill="#0D0D0D"/>
<path d="M68.0168 214.981C66.8851 214.59 65.6722 214.496 64.4938 214.708C64.0054 213.588 63.4043 212.521 62.6998 211.523C63.5448 210.756 65.8588 208.624 65.2998 207.623C63.3104 205.243 60.9484 203.202 58.3058 201.578C57.2023 200.96 55.9872 200.566 54.7308 200.421C53.8988 200.538 51.9228 203.775 51.4808 204.503C51.1948 204.503 50.1808 204.178 50.1028 204.139C50.1028 203.203 49.8298 199.823 48.9848 199.433C48.0399 199.085 47.0586 198.845 46.0598 198.718C45.1368 198.575 36.8298 200.096 36.2188 201.214C35.8158 201.968 36.7518 204.815 37.0248 205.608C36.3237 205.994 35.6504 206.428 35.0098 206.908C33.7098 207.831 34.0608 207.792 33.8268 207.688C33.544 207.553 33.241 207.465 32.9298 207.428C31.8913 206.819 30.6738 206.589 29.4848 206.778C28.2888 207.168 25.4678 213.59 25.0128 215.241C24.8639 215.657 24.8236 216.105 24.8958 216.541C25.2078 217.399 27.2878 218.088 28.1588 218.361C27.9183 220.033 27.9183 221.732 28.1588 223.405C27.0148 223.717 24.6358 224.419 24.7658 225.589C24.8958 226.759 27.9378 234.481 29.1988 235.092C29.8896 235.478 30.6535 235.716 31.4415 235.79C32.2295 235.864 33.0243 235.772 33.7748 235.521C34.1975 235.31 34.6057 235.071 34.9968 234.806C35.5168 235.196 36.0628 235.547 36.6218 235.885C36.2188 236.886 35.3218 239.122 35.6078 240.136C35.7508 240.669 36.1798 240.838 36.7778 241.059C38.4288 241.657 47.3208 243.789 48.6728 243.555C49.1798 243.477 49.4528 242.944 49.6088 242.437C49.8976 241.283 50.0675 240.102 50.1158 238.914C50.7834 238.848 51.4473 238.748 52.1048 238.615C52.5063 239.321 53.02 239.958 53.6258 240.5C54.2888 240.968 54.8478 240.734 55.6018 240.253C55.9658 240.721 56.5118 241.371 57.0968 241.436C58.5658 241.605 64.6368 235.885 65.2608 234.715C65.7808 233.74 63.8828 231.998 63.0378 231.231C63.9519 229.855 64.6695 228.359 65.1698 226.785C66.1074 226.926 67.0563 226.978 68.0038 226.941C68.4328 226.941 68.9268 226.785 69.1088 226.382C69.9018 224.575 69.6678 217.724 69.1088 215.982C69.0308 215.475 68.4458 215.137 68.0168 214.981ZM68.3288 216.177C68.7708 217.867 68.9138 224.25 68.2638 225.901C67.1398 226.012 66.0057 225.959 64.8968 225.745C64.7784 225.724 64.6567 225.749 64.5557 225.814C64.4546 225.879 64.3815 225.98 64.3508 226.096C63.8331 227.853 63.0293 229.514 61.9718 231.01C61.8965 231.109 61.8625 231.233 61.8771 231.357C61.8916 231.481 61.9535 231.594 62.0498 231.673C62.9619 232.396 63.7369 233.276 64.3378 234.273C63.6878 235.339 58.6048 239.993 57.2008 240.383C56.9928 240.383 56.4208 239.603 56.2778 239.395C55.7976 238.673 55.3634 237.922 54.9778 237.146C54.9215 237.033 54.825 236.945 54.7072 236.899C54.5893 236.853 54.4587 236.853 54.3408 236.899C50.5708 238.316 49.1408 237.484 49.1408 238.42C49.1425 239.821 48.9141 241.213 48.4648 242.541C45.4097 242.209 42.4012 241.537 39.4948 240.539C39.6352 239.151 40.0226 237.799 40.6388 236.548C41.0288 235.677 39.4688 235.924 36.5568 232.96C36.4631 232.873 36.34 232.825 36.2123 232.825C36.0846 232.825 35.9615 232.873 35.8678 232.96C34.5678 234.026 32.8778 235.066 32.5398 234.897C31.8768 234.572 28.8218 227.643 28.6398 226.239C29.5644 225.594 30.6141 225.152 31.7208 224.939C31.8388 224.905 31.9408 224.83 32.0077 224.728C32.0746 224.625 32.102 224.501 32.0848 224.38C31.7662 222.539 31.7662 220.657 32.0848 218.816C32.1047 218.702 32.0808 218.586 32.0181 218.489C31.9554 218.393 31.8585 218.324 31.7468 218.296C30.7668 218.039 29.8232 217.659 28.9388 217.165C28.6528 216.957 28.6788 216.97 28.7048 216.749C29.5462 213.714 30.8957 210.844 32.6958 208.26C33.3978 208.065 35.2958 209.456 35.9458 209.95C36.0137 210.016 36.1047 210.053 36.1993 210.053C36.2939 210.053 36.3849 210.016 36.4528 209.95C37.0501 209.33 37.6933 208.757 38.3768 208.234C40.3528 206.739 40.8858 206.934 40.7168 206.414C40.1192 205.109 39.7835 203.7 39.7288 202.267C39.9303 202.099 40.1589 201.967 40.4048 201.877C41.6185 201.397 42.8654 201.006 44.1358 200.707C45.6757 200.278 47.2583 200.02 48.8548 199.94C49.1278 200.057 49.3748 201.24 49.4398 201.604C49.9208 204.204 49.5958 204.737 49.9728 204.776C53.6778 205.14 54.4318 206.167 54.6918 205.712C55.4127 204.451 56.2529 203.263 57.2008 202.163C57.4738 201.89 57.4608 201.76 58.2798 202.228C60.7265 203.827 62.9179 205.786 64.7798 208.039C64.9748 208.377 63.2848 210.171 62.0498 211.224C61.6208 211.601 62.2318 211.77 63.3498 213.902C64.4678 216.034 64.2078 216.632 64.8058 216.502C65.9586 216.226 67.145 216.116 68.3288 216.177ZM248.756 107.549C246.031 106.436 243.173 105.68 240.254 105.3C238.122 104.962 235.613 104.624 233.494 104.351C235.535 101.465 241.58 94.1587 242.594 92.3777C242.88 91.8967 242.334 91.2207 241.931 90.8177C239.669 88.3997 235.301 87.4897 231.947 86.9697C230.023 86.6577 221.989 85.6697 220.624 86.3197C218.986 87.0997 206.87 105.3 206.506 108.069C206.506 108.537 206.662 108.719 207.117 108.888C209.028 109.59 217.647 110.682 219.571 111.137C216.971 115.687 205.414 131.066 204.283 133.237C204.01 133.783 204.179 134.108 204.504 134.212C205.674 134.676 206.878 135.05 208.105 135.33C208.573 135.473 209.6 134.836 211.095 133.926C217.803 129.896 246.585 110.89 248.795 108.433C248.856 108.375 248.904 108.305 248.935 108.227C248.967 108.149 248.981 108.066 248.977 107.982C248.974 107.898 248.952 107.816 248.914 107.741C248.876 107.666 248.822 107.601 248.756 107.549ZM220.819 123.149C209.769 130.442 206.038 132.574 205.908 132.665C207.689 129.948 218.752 114.79 220.65 111.163C220.683 111.093 220.7 111.016 220.699 110.939C220.699 110.861 220.682 110.785 220.648 110.715C220.614 110.645 220.565 110.584 220.505 110.535C220.445 110.487 220.374 110.452 220.299 110.435C218.999 109.967 209.535 108.953 207.299 108.16C207.585 105.742 219.389 87.4637 220.819 86.7357C222.249 86.0077 236.12 87.6587 238.72 89.5177C237.355 92.1827 229.815 101.517 228.593 103.688C228.346 104.13 228.268 104.559 228.749 104.676C229.23 104.793 241.45 106.223 244.115 107.094C240.865 109.811 224.459 120.705 220.819 123.097V123.149ZM137.424 43.6667C137.424 43.7837 137.502 43.9267 137.697 44.6807C137.748 44.8443 137.86 44.9817 138.011 45.0641C138.161 45.1465 138.337 45.1675 138.503 45.1227C138.668 45.0744 138.808 44.9624 138.891 44.8112C138.974 44.6601 138.993 44.4822 138.945 44.3167C138.815 43.8097 138.698 43.3807 138.62 43.1727C138.544 43.03 138.418 42.9205 138.266 42.8658C138.114 42.811 137.947 42.8149 137.797 42.8766C137.648 42.9383 137.527 43.0534 137.458 43.1995C137.389 43.3455 137.377 43.5121 137.424 43.6667Z" fill="#0D0D0D"/>
</g>
</g>
<defs>
<filter id="filter0_d_151_162" x="2.94543" y="-1.46259" width="262.033" height="270.932" filterUnits="userSpaceOnUse" color-interpolation-filters="sRGB">
<feFlood flood-opacity="0" result="BackgroundImageFix"/>
<feColorMatrix in="SourceAlpha" type="matrix" values="0 0 0 0 0 0 0 0 0 0 0 0 0 0 0 0 0 0 127 0" result="hardAlpha"/>
<feOffset dx="4" dy="4"/>
<feGaussianBlur stdDeviation="6"/>
<feComposite in2="hardAlpha" operator="out"/>
<feColorMatrix type="matrix" values="0 0 0 0 0.027451 0 0 0 0 0.564706 0 0 0 0 0.27451 0 0 0 0.25 0"/>
<feBlend mode="normal" in2="BackgroundImageFix" result="effect1_dropShadow_151_162"/>
<feBlend mode="normal" in="SourceGraphic" in2="effect1_dropShadow_151_162" result="shape"/>
</filter>
<clipPath id="clip0_151_162">
<rect width="260" height="260" fill="white"/>
</clipPath>
</defs>
</svg>
