<svg width="61" height="48" viewBox="0 0 61 48" fill="none" xmlns="http://www.w3.org/2000/svg">
<g clip-path="url(#clip0_144_282)">
<path d="M33.29 17.1201C32.88 17.1201 32.54 17.2601 32.27 17.5301C32 17.8101 31.86 18.1501 31.86 18.5601C31.86 18.9701 32 19.3101 32.27 19.5901C32.54 19.8701 32.88 20.0001 33.29 20.0001C33.7 20.0001 34.05 19.8601 34.32 19.5901C34.59 19.3101 34.73 18.9701 34.73 18.5601C34.73 18.1501 34.59 17.8101 34.32 17.5301C34.05 17.2501 33.7 17.1201 33.29 17.1201Z" fill="#0D0D0D"/>
<path d="M0.5 0V48H60.5V0H0.5ZM54.5 42H6.5V24H54.5V42ZM16.39 19.71C16.59 19.91 16.85 20.01 17.17 20.01C17.51 20.01 17.79 19.91 18 19.7C18.21 19.5 18.32 19.23 18.32 18.89V15.95H19.65V19.44C19.65 19.73 19.8 19.88 20.09 19.88H20.28C20.57 19.88 20.72 19.73 20.72 19.44V17.85C20.72 17.24 20.91 16.75 21.28 16.38C21.65 16.01 22.15 15.83 22.76 15.83C23.46 15.83 24.01 16.09 24.42 16.6V15.96H25.75V21.18H24.42V18.31C24.42 17.96 24.31 17.67 24.08 17.45C23.85 17.23 23.56 17.12 23.19 17.12C22.85 17.12 22.57 17.23 22.37 17.44C22.16 17.65 22.06 17.93 22.06 18.29V19.73C22.06 20.69 21.56 21.17 20.56 21.17H19.83C19.11 21.17 18.65 20.91 18.45 20.39C18.04 20.99 17.47 21.29 16.75 21.29C16.16 21.29 15.69 21.11 15.33 20.74C14.97 20.38 14.79 19.89 14.79 19.29V15.94H16.12V18.9C16.12 19.23 16.22 19.5 16.42 19.7L16.39 19.71ZM16.01 15.31H14.09V21.17H12.68V15.31H10.76V13.98H16.02V15.31H16.01ZM27.46 15.34C27.3 15.5 27.1 15.58 26.86 15.58C26.62 15.58 26.42 15.5 26.26 15.34C26.1 15.18 26.02 14.98 26.02 14.75C26.02 14.52 26.1 14.32 26.26 14.16C26.42 14 26.62 13.92 26.86 13.92C27.1 13.92 27.3 14 27.46 14.16C27.62 14.32 27.7 14.52 27.7 14.75C27.7 14.98 27.62 15.18 27.46 15.34ZM27.52 15.95V21.17H26.19V15.95H27.52ZM29.46 19.81C29.56 19.91 29.7 19.95 29.88 19.95H30.2V21.17H29.69C28.55 21.17 27.98 20.66 27.98 19.63V13.81H29.31V19.42C29.31 19.59 29.36 19.72 29.46 19.82V19.81ZM36.5 19.88H36.6V21.17H36.22C35.48 21.17 35.02 20.9 34.82 20.35C34.38 20.98 33.78 21.29 33.03 21.29C32.28 21.29 31.7 21.03 31.21 20.51C30.72 19.99 30.48 19.34 30.48 18.56C30.48 17.78 30.72 17.13 31.21 16.61C31.7 16.09 32.3 15.83 33.03 15.83C33.76 15.83 34.29 16.1 34.73 16.64V15.95H36.06V19.44C36.06 19.73 36.21 19.88 36.5 19.88ZM39.88 15.83C40.49 15.83 40.99 16.01 41.36 16.38C41.73 16.75 41.92 17.24 41.92 17.85V19.44C41.92 19.73 42.07 19.88 42.36 19.88H42.47V21.17H42.09C41.09 21.17 40.59 20.69 40.59 19.73V18.29C40.59 17.94 40.49 17.65 40.28 17.44C40.07 17.23 39.8 17.12 39.46 17.12C39.09 17.12 38.79 17.23 38.57 17.45C38.34 17.67 38.23 17.95 38.23 18.31V21.18H36.9V15.96H38.23V16.6C38.64 16.09 39.19 15.83 39.89 15.83H39.88ZM44.52 19.57C44.79 19.85 45.13 19.98 45.54 19.98C45.84 19.98 46.1 19.9 46.34 19.75C46.58 19.6 46.74 19.39 46.86 19.14H48.27C48.14 19.76 47.82 20.27 47.32 20.67C46.82 21.07 46.23 21.26 45.54 21.27C44.74 21.27 44.08 21.02 43.55 20.5C43.02 19.98 42.75 19.33 42.76 18.56C42.77 17.79 43.03 17.13 43.57 16.61C44.11 16.09 44.77 15.82 45.57 15.82C46.26 15.82 46.85 16.01 47.35 16.41C47.85 16.81 48.16 17.31 48.29 17.94H46.88C46.77 17.69 46.59 17.49 46.36 17.34C46.13 17.19 45.86 17.11 45.57 17.11C45.16 17.11 44.82 17.25 44.55 17.53C44.28 17.81 44.14 18.15 44.14 18.56C44.14 18.97 44.27 19.31 44.55 19.58L44.52 19.57ZM50.01 15.34C49.85 15.5 49.65 15.58 49.41 15.58C49.17 15.58 48.97 15.5 48.81 15.34C48.65 15.18 48.57 14.98 48.57 14.75C48.57 14.52 48.65 14.32 48.81 14.16C48.97 14 49.17 13.92 49.41 13.92C49.65 13.92 49.85 14 50.01 14.16C50.17 14.32 50.25 14.52 50.25 14.75C50.25 14.98 50.17 15.18 50.01 15.34ZM50.07 15.95V21.17H48.74V15.95H50.07ZM54.5 12H6.5V6H54.5V12Z" fill="#0D0D0D"/>
</g>
<defs>
<clipPath id="clip0_144_282">
<rect width="60" height="48" fill="white" transform="translate(0.5)"/>
</clipPath>
</defs>
</svg>
