<svg width="21" height="22" viewBox="0 0 21 22" fill="none" xmlns="http://www.w3.org/2000/svg">
<path d="M20.4 6.19539C20.4 3.9888 18.6112 2.2 16.4046 2.2C14.7225 2.2 13.2776 0.865989 11.718 0.235916C11.3416 0.083851 10.9308 0 10.5 0C10.0692 0 9.65838 0.083851 9.28197 0.235916C7.72231 0.865989 6.27748 2.2 4.59537 2.2C2.38877 2.2 0.599976 3.9888 0.599976 6.19539V12.1C0.599976 17.5676 5.03236 22 10.5 22C15.9676 22 20.4 17.5676 20.4 12.1V6.19539ZM10.5 2.2C11.105 2.2 11.6 2.695 11.6 3.3C11.6 3.905 11.105 4.4 10.5 4.4C9.89497 4.4 9.39997 3.905 9.39997 3.3C9.39997 2.695 9.89497 2.2 10.5 2.2ZM10.5 15.4C9.28495 16.615 7.315 16.615 6.09998 15.4L4.67623 13.9763C4.24751 13.5475 4.24751 12.8525 4.67623 12.4238C5.10435 11.9956 5.79827 11.995 6.22722 12.4222L6.87547 13.068C7.66265 13.8521 8.93607 13.8509 9.72173 13.0652L14.768 8.019C15.1989 7.58811 15.8979 7.58935 16.3272 8.02176C16.7544 8.45201 16.7532 9.14676 16.3245 9.57551L10.5 15.4Z" fill="#079046"/>
</svg>
