<svg width="45" height="16" viewBox="0 0 45 16" fill="none" xmlns="http://www.w3.org/2000/svg">
<path d="M38.538 5C36.272 5 34.358 6.364 33.5 8.3L27.076 3.3C26.218 1.364 24.304 0 22.038 0C19.772 0 17.858 1.364 17 3.3L11.038 6.3C10.18 4.364 8.266 3 6 3C2.964 3 0.5 5.464 0.5 8.5C0.5 11.536 2.964 14 6 14C8.266 14 10.18 12.636 11.038 10.7L17 7.7C17.858 9.636 19.772 11 22.038 11C24.304 11 26.218 9.636 27.076 7.7L30.288 10.2L33.5 12.7C34.358 14.636 36.272 16 38.538 16C41.574 16 44.038 13.536 44.038 10.5C44.038 7.464 41.574 5 38.538 5Z" fill="#0D0D0D"/>
</svg>
