<svg width="45" height="44" viewBox="0 0 45 44" fill="none" xmlns="http://www.w3.org/2000/svg">
<path d="M44.5 33.3708L32.0281 20.8989L35.5562 17.3708L27.1292 8.94382L23.6011 12.4719L11.1292 0L0.5 10.6292L12.9719 23.1011L2.27528 33.7977V42.2247H10.7022L21.3989 31.5281L33.8708 44L44.5 33.3708ZM16.1629 19.9101L6.85955 10.6292L11.1292 6.35955L13.9831 9.21348L11.309 11.8876L14.4775 15.0562L17.1517 12.382L20.4101 15.6404L16.1629 19.9101ZM24.5899 28.3371L28.8595 24.0674L32.118 27.3258L29.4438 30L32.6124 33.1685L35.2865 30.4944L38.1404 33.3483L33.8708 37.618L24.5899 28.3371Z" fill="#0D0D0D"/>
<path d="M35.2446 0.841551L29.5401 6.54602L37.9617 14.9677L43.6662 9.26319L35.2446 0.841551Z" fill="#0D0D0D"/>
</svg>
